M48
; DRILL file {KiCad (6.0.1)} date Mon Nov 21 11:09:23 2022
; FORMAT={-:-/ absolute / metric / decimal}
; #@! TF.CreationDate,2022-11-21T11:09:23+09:00
; #@! TF.GenerationSoftware,Kicad,Pcbnew,(6.0.1)
; #@! TF.FileFunction,Plated,1,2,PTH
FMAT,2
METRIC
; #@! TA.AperFunction,Plated,PTH,ViaDrill
T1C0.400
; #@! TA.AperFunction,Plated,PTH,ComponentDrill
T2C0.762
; #@! TA.AperFunction,Plated,PTH,ComponentDrill
T3C0.800
; #@! TA.AperFunction,Plated,PTH,ComponentDrill
T4C0.900
; #@! TA.AperFunction,Plated,PTH,ComponentDrill
T5C1.000
; #@! TA.AperFunction,Plated,PTH,ComponentDrill
T6C1.100
%
G90
G05
T1
X140.77Y-84.25
T2
X95.94Y-119.88
X99.28Y-88.07
X99.28Y-110.93
X101.02Y-119.88
X101.82Y-88.07
X101.82Y-110.93
X104.36Y-88.07
X104.36Y-110.93
X106.1Y-119.88
X106.9Y-88.07
X106.9Y-110.93
X109.44Y-88.07
X109.44Y-110.93
X111.98Y-88.07
X111.98Y-110.93
X114.52Y-88.07
X114.52Y-110.93
X117.06Y-88.07
X117.06Y-110.93
X119.6Y-88.07
X119.6Y-110.93
X122.14Y-88.07
X122.14Y-110.93
X124.64Y-88.13
X124.64Y-110.99
X124.83Y-119.81
X127.22Y-88.13
X127.22Y-110.99
X129.76Y-88.07
X129.76Y-110.93
X129.91Y-119.81
X132.3Y-88.07
X132.3Y-110.93
X134.84Y-88.07
X134.84Y-110.93
X134.99Y-119.81
X137.38Y-88.07
X137.38Y-110.93
X157.49Y-119.71
X162.57Y-119.71
X167.65Y-119.71
T3
X99.98Y-39.43
X99.98Y-41.93
X120.68Y-39.477
X120.68Y-41.977
X120.77Y-26.93
X128.39Y-26.93
X147.21Y-36.425
X147.21Y-44.045
T4
X138.38Y-26.99
X138.38Y-29.53
X147.51Y-26.77
X147.51Y-29.31
T5
X84.98Y-27.055
X84.98Y-29.595
X90.06Y-51.43
X90.06Y-53.97
X90.06Y-56.51
X90.06Y-59.05
X93.5Y-27.03
X96.04Y-27.03
X98.58Y-27.03
T6
X107.14Y-27.03
X109.68Y-27.03
X112.22Y-27.03
T0
M30
