%TF.GenerationSoftware,KiCad,Pcbnew,(6.0.1)*%
%TF.CreationDate,2022-11-21T11:05:34+09:00*%
%TF.ProjectId,controller,636f6e74-726f-46c6-9c65-722e6b696361,rev?*%
%TF.SameCoordinates,Original*%
%TF.FileFunction,Copper,L2,Bot*%
%TF.FilePolarity,Positive*%
%FSLAX46Y46*%
G04 Gerber Fmt 4.6, Leading zero omitted, Abs format (unit mm)*
G04 Created by KiCad (PCBNEW (6.0.1)) date 2022-11-21 11:05:34*
%MOMM*%
%LPD*%
G01*
G04 APERTURE LIST*
%TA.AperFunction,ComponentPad*%
%ADD10C,1.524000*%
%TD*%
%TA.AperFunction,ComponentPad*%
%ADD11R,1.800000X1.800000*%
%TD*%
%TA.AperFunction,ComponentPad*%
%ADD12C,1.800000*%
%TD*%
%TA.AperFunction,ComponentPad*%
%ADD13R,1.600000X1.600000*%
%TD*%
%TA.AperFunction,ComponentPad*%
%ADD14C,1.600000*%
%TD*%
%TA.AperFunction,ComponentPad*%
%ADD15R,1.700000X1.700000*%
%TD*%
%TA.AperFunction,ComponentPad*%
%ADD16O,1.700000X1.700000*%
%TD*%
%TA.AperFunction,ComponentPad*%
%ADD17O,1.600000X1.600000*%
%TD*%
%TA.AperFunction,ComponentPad*%
%ADD18R,1.905000X2.000000*%
%TD*%
%TA.AperFunction,ComponentPad*%
%ADD19O,1.905000X2.000000*%
%TD*%
%TA.AperFunction,ViaPad*%
%ADD20C,0.800000*%
%TD*%
%TA.AperFunction,Conductor*%
%ADD21C,1.000000*%
%TD*%
G04 APERTURE END LIST*
D10*
%TO.P,U4,1,1*%
%TO.N,+5V*%
X95940000Y-119880000D03*
%TO.P,U4,2,2*%
%TO.N,/Kp*%
X101020000Y-119880000D03*
%TO.P,U4,3,3*%
%TO.N,GND*%
X106100000Y-119880000D03*
%TD*%
D11*
%TO.P,D2,1,K*%
%TO.N,GND*%
X147510000Y-26770000D03*
D12*
%TO.P,D2,2,A*%
%TO.N,Net-(D2-Pad2)*%
X147510000Y-29310000D03*
%TD*%
D13*
%TO.P,C2,1*%
%TO.N,+5V*%
X120680000Y-39477349D03*
D14*
%TO.P,C2,2*%
%TO.N,GND*%
X120680000Y-41977349D03*
%TD*%
D15*
%TO.P,U7,1*%
%TO.N,GND*%
X90060000Y-51430000D03*
D16*
%TO.P,U7,2*%
%TO.N,+5V*%
X90060000Y-53970000D03*
%TO.P,U7,3*%
%TO.N,/SDA*%
X90060000Y-56510000D03*
%TO.P,U7,4*%
%TO.N,/SCL*%
X90060000Y-59050000D03*
%TD*%
D11*
%TO.P,D1,1,K*%
%TO.N,GND*%
X138380000Y-29530000D03*
D12*
%TO.P,D1,2,A*%
%TO.N,Net-(D1-Pad2)*%
X138380000Y-26990000D03*
%TD*%
D15*
%TO.P,U1,1,1*%
%TO.N,+BATT*%
X98580000Y-27030000D03*
D16*
%TO.P,U1,2,2*%
%TO.N,+BATT_IN*%
X96040000Y-27030000D03*
%TO.P,U1,3,3*%
X93500000Y-27030000D03*
%TD*%
D15*
%TO.P,J1,1,Pin_1*%
%TO.N,+BATT_IN*%
X84980000Y-27055000D03*
D16*
%TO.P,J1,2,Pin_2*%
%TO.N,GND*%
X84980000Y-29595000D03*
%TD*%
D10*
%TO.P,U6,1,1*%
%TO.N,+5V*%
X157490000Y-119710000D03*
%TO.P,U6,2,2*%
%TO.N,/Kd*%
X162570000Y-119710000D03*
%TO.P,U6,3,3*%
%TO.N,GND*%
X167650000Y-119710000D03*
%TD*%
D13*
%TO.P,C1,1*%
%TO.N,+BATT*%
X99980000Y-39430000D03*
D14*
%TO.P,C1,2*%
%TO.N,GND*%
X99980000Y-41930000D03*
%TD*%
%TO.P,R1,1*%
%TO.N,/WF_LED2*%
X147210000Y-44045000D03*
D17*
%TO.P,R1,2*%
%TO.N,Net-(D2-Pad2)*%
X147210000Y-36425000D03*
%TD*%
D14*
%TO.P,R2,1*%
%TO.N,+5V*%
X120770000Y-26930000D03*
D17*
%TO.P,R2,2*%
%TO.N,Net-(D1-Pad2)*%
X128390000Y-26930000D03*
%TD*%
D10*
%TO.P,U2,0,0*%
%TO.N,unconnected-(U2-Pad0)*%
X129760000Y-88070000D03*
%TO.P,U2,2,2*%
%TO.N,unconnected-(U2-Pad2)*%
X132300000Y-88070000D03*
%TO.P,U2,3V,3V*%
%TO.N,unconnected-(U2-Pad3V)*%
X99280000Y-110930000D03*
%TO.P,U2,4,4*%
%TO.N,unconnected-(U2-Pad4)*%
X127219999Y-88130000D03*
%TO.P,U2,5,5*%
%TO.N,unconnected-(U2-Pad5)*%
X119600000Y-88070000D03*
%TO.P,U2,12,12*%
%TO.N,unconnected-(U2-Pad12)*%
X127219999Y-110990000D03*
%TO.P,U2,13,13*%
%TO.N,unconnected-(U2-Pad13)*%
X129760000Y-110930000D03*
%TO.P,U2,14,14*%
%TO.N,unconnected-(U2-Pad14)*%
X124639999Y-110990000D03*
%TO.P,U2,15,15*%
%TO.N,unconnected-(U2-Pad15)*%
X134840000Y-88070000D03*
%TO.P,U2,16,16*%
%TO.N,unconnected-(U2-Pad16)*%
X124639999Y-88130000D03*
%TO.P,U2,17,17*%
%TO.N,unconnected-(U2-Pad17)*%
X122140000Y-88070000D03*
%TO.P,U2,18,18*%
%TO.N,unconnected-(U2-Pad18)*%
X117060000Y-88070000D03*
%TO.P,U2,19,19*%
%TO.N,unconnected-(U2-Pad19)*%
X114520000Y-88070000D03*
%TO.P,U2,21,21*%
%TO.N,/SDA*%
X111980000Y-88070000D03*
%TO.P,U2,22,22*%
%TO.N,/SCL*%
X104360000Y-88070000D03*
%TO.P,U2,23,23*%
%TO.N,unconnected-(U2-Pad23)*%
X101820000Y-88070000D03*
%TO.P,U2,25,25*%
%TO.N,/WF_LED2*%
X117060000Y-110930000D03*
%TO.P,U2,26,26*%
%TO.N,unconnected-(U2-Pad26)*%
X119600000Y-110930000D03*
%TO.P,U2,27,27*%
%TO.N,unconnected-(U2-Pad27)*%
X122140000Y-110930000D03*
%TO.P,U2,32,32*%
%TO.N,/Ki*%
X111980000Y-110930000D03*
%TO.P,U2,33,33*%
%TO.N,/Kd*%
X114520000Y-110930000D03*
%TO.P,U2,34,34*%
%TO.N,/Kp*%
X109440000Y-110930000D03*
%TO.P,U2,BAT,BAT*%
%TO.N,unconnected-(U2-PadBAT)*%
X137380000Y-110930000D03*
%TO.P,U2,EN,EN*%
%TO.N,unconnected-(U2-PadEN)*%
X132300000Y-110930000D03*
%TO.P,U2,GND,GND*%
%TO.N,GND*%
X99280000Y-88070000D03*
X137380000Y-88070000D03*
%TO.P,U2,RS,RS*%
%TO.N,unconnected-(U2-PadRS)*%
X101820000Y-110930000D03*
%TO.P,U2,RX,RX*%
%TO.N,unconnected-(U2-PadRX)*%
X109440000Y-88070000D03*
%TO.P,U2,TX,TX*%
%TO.N,unconnected-(U2-PadTX)*%
X106900000Y-88070000D03*
%TO.P,U2,USB,USB*%
%TO.N,+5V*%
X134840000Y-110930000D03*
%TO.P,U2,VN,VN*%
%TO.N,unconnected-(U2-PadVN)*%
X106900000Y-110930000D03*
%TO.P,U2,VP,VP*%
%TO.N,unconnected-(U2-PadVP)*%
X104360000Y-110930000D03*
%TD*%
%TO.P,U5,1,1*%
%TO.N,+5V*%
X124830000Y-119810000D03*
%TO.P,U5,2,2*%
%TO.N,/Ki*%
X129910000Y-119810000D03*
%TO.P,U5,3,3*%
%TO.N,GND*%
X134990000Y-119810000D03*
%TD*%
D18*
%TO.P,U3,1,IN*%
%TO.N,+BATT*%
X107140000Y-27030000D03*
D19*
%TO.P,U3,2,GND*%
%TO.N,GND*%
X109680000Y-27030000D03*
%TO.P,U3,3,OUT*%
%TO.N,+5V*%
X112220000Y-27030000D03*
%TD*%
D20*
%TO.N,+5V*%
X140770000Y-84250000D03*
%TD*%
D21*
%TO.N,+5V*%
X95940000Y-119880000D02*
X101260000Y-114560000D01*
X131210000Y-114560000D02*
X140770000Y-105000000D01*
X101260000Y-114560000D02*
X131210000Y-114560000D01*
X125960000Y-119810000D02*
X131210000Y-114560000D01*
X152340000Y-114560000D02*
X157490000Y-119710000D01*
X124830000Y-119810000D02*
X125960000Y-119810000D01*
X131210000Y-114560000D02*
X152340000Y-114560000D01*
X140770000Y-84250000D02*
X140770000Y-105000000D01*
%TD*%
%TA.AperFunction,Conductor*%
%TO.N,GND*%
G36*
X198534121Y-20448002D02*
G01*
X198580614Y-20501658D01*
X198592000Y-20554000D01*
X198592000Y-139286000D01*
X198571998Y-139354121D01*
X198518342Y-139400614D01*
X198466000Y-139412000D01*
X79734000Y-139412000D01*
X79665879Y-139391998D01*
X79619386Y-139338342D01*
X79608000Y-139286000D01*
X79608000Y-119880000D01*
X94664647Y-119880000D01*
X94684022Y-120101463D01*
X94741560Y-120316196D01*
X94743882Y-120321177D01*
X94743883Y-120321178D01*
X94833186Y-120512689D01*
X94833189Y-120512694D01*
X94835512Y-120517676D01*
X94838668Y-120522183D01*
X94838669Y-120522185D01*
X94956270Y-120690136D01*
X94963023Y-120699781D01*
X95120219Y-120856977D01*
X95124727Y-120860134D01*
X95124730Y-120860136D01*
X95189724Y-120905645D01*
X95302323Y-120984488D01*
X95307305Y-120986811D01*
X95307310Y-120986814D01*
X95477079Y-121065978D01*
X95503804Y-121078440D01*
X95509112Y-121079862D01*
X95509114Y-121079863D01*
X95529603Y-121085353D01*
X95718537Y-121135978D01*
X95940000Y-121155353D01*
X96161463Y-121135978D01*
X96350397Y-121085353D01*
X96370886Y-121079863D01*
X96370888Y-121079862D01*
X96376196Y-121078440D01*
X96402921Y-121065978D01*
X96572690Y-120986814D01*
X96572695Y-120986811D01*
X96577677Y-120984488D01*
X96690276Y-120905645D01*
X96755270Y-120860136D01*
X96755273Y-120860134D01*
X96759781Y-120856977D01*
X96916977Y-120699781D01*
X96923731Y-120690136D01*
X97041331Y-120522185D01*
X97041332Y-120522183D01*
X97044488Y-120517676D01*
X97046811Y-120512694D01*
X97046814Y-120512689D01*
X97136117Y-120321178D01*
X97136118Y-120321177D01*
X97138440Y-120316196D01*
X97195978Y-120101463D01*
X97196890Y-120091038D01*
X97222750Y-120024919D01*
X97233316Y-120012919D01*
X97366235Y-119880000D01*
X99744647Y-119880000D01*
X99764022Y-120101463D01*
X99821560Y-120316196D01*
X99823882Y-120321177D01*
X99823883Y-120321178D01*
X99913186Y-120512689D01*
X99913189Y-120512694D01*
X99915512Y-120517676D01*
X99918668Y-120522183D01*
X99918669Y-120522185D01*
X100036270Y-120690136D01*
X100043023Y-120699781D01*
X100200219Y-120856977D01*
X100204727Y-120860134D01*
X100204730Y-120860136D01*
X100269724Y-120905645D01*
X100382323Y-120984488D01*
X100387305Y-120986811D01*
X100387310Y-120986814D01*
X100557079Y-121065978D01*
X100583804Y-121078440D01*
X100589112Y-121079862D01*
X100589114Y-121079863D01*
X100609603Y-121085353D01*
X100798537Y-121135978D01*
X101020000Y-121155353D01*
X101241463Y-121135978D01*
X101430397Y-121085353D01*
X101450886Y-121079863D01*
X101450888Y-121079862D01*
X101456196Y-121078440D01*
X101482921Y-121065978D01*
X101652690Y-120986814D01*
X101652695Y-120986811D01*
X101657677Y-120984488D01*
X101722959Y-120938777D01*
X105405777Y-120938777D01*
X105415074Y-120950793D01*
X105458069Y-120980898D01*
X105467555Y-120986376D01*
X105658993Y-121075645D01*
X105669285Y-121079391D01*
X105873309Y-121134059D01*
X105884104Y-121135962D01*
X106094525Y-121154372D01*
X106105475Y-121154372D01*
X106315896Y-121135962D01*
X106326691Y-121134059D01*
X106530715Y-121079391D01*
X106541007Y-121075645D01*
X106732445Y-120986376D01*
X106741931Y-120980898D01*
X106785764Y-120950207D01*
X106794139Y-120939729D01*
X106787071Y-120926281D01*
X106112812Y-120252022D01*
X106098868Y-120244408D01*
X106097035Y-120244539D01*
X106090420Y-120248790D01*
X105412207Y-120927003D01*
X105405777Y-120938777D01*
X101722959Y-120938777D01*
X101770276Y-120905645D01*
X101835270Y-120860136D01*
X101835273Y-120860134D01*
X101839781Y-120856977D01*
X101996977Y-120699781D01*
X102003731Y-120690136D01*
X102121331Y-120522185D01*
X102121332Y-120522183D01*
X102124488Y-120517676D01*
X102126811Y-120512694D01*
X102126814Y-120512689D01*
X102216117Y-120321178D01*
X102216118Y-120321177D01*
X102218440Y-120316196D01*
X102275978Y-120101463D01*
X102294874Y-119885475D01*
X104825628Y-119885475D01*
X104844038Y-120095896D01*
X104845941Y-120106691D01*
X104900609Y-120310715D01*
X104904355Y-120321007D01*
X104993623Y-120512441D01*
X104999103Y-120521932D01*
X105029794Y-120565765D01*
X105040271Y-120574140D01*
X105053718Y-120567072D01*
X105727978Y-119892812D01*
X105734356Y-119881132D01*
X106464408Y-119881132D01*
X106464539Y-119882965D01*
X106468790Y-119889580D01*
X107147003Y-120567793D01*
X107158777Y-120574223D01*
X107170793Y-120564926D01*
X107200897Y-120521932D01*
X107206377Y-120512441D01*
X107295645Y-120321007D01*
X107299391Y-120310715D01*
X107354059Y-120106691D01*
X107355962Y-120095896D01*
X107374372Y-119885475D01*
X107374372Y-119874525D01*
X107355962Y-119664104D01*
X107354059Y-119653309D01*
X107299391Y-119449285D01*
X107295645Y-119438993D01*
X107206377Y-119247559D01*
X107200897Y-119238068D01*
X107170206Y-119194235D01*
X107159729Y-119185860D01*
X107146282Y-119192928D01*
X106472022Y-119867188D01*
X106464408Y-119881132D01*
X105734356Y-119881132D01*
X105735592Y-119878868D01*
X105735461Y-119877035D01*
X105731210Y-119870420D01*
X105052997Y-119192207D01*
X105041223Y-119185777D01*
X105029207Y-119195074D01*
X104999103Y-119238068D01*
X104993623Y-119247559D01*
X104904355Y-119438993D01*
X104900609Y-119449285D01*
X104845941Y-119653309D01*
X104844038Y-119664104D01*
X104825628Y-119874525D01*
X104825628Y-119885475D01*
X102294874Y-119885475D01*
X102295353Y-119880000D01*
X102275978Y-119658537D01*
X102230426Y-119488537D01*
X102219863Y-119449114D01*
X102219862Y-119449112D01*
X102218440Y-119443804D01*
X102188354Y-119379285D01*
X102126814Y-119247311D01*
X102126811Y-119247306D01*
X102124488Y-119242324D01*
X102121331Y-119237815D01*
X102000136Y-119064730D01*
X102000134Y-119064727D01*
X101996977Y-119060219D01*
X101839781Y-118903023D01*
X101835273Y-118899866D01*
X101835270Y-118899864D01*
X101745376Y-118836920D01*
X101721599Y-118820271D01*
X105405860Y-118820271D01*
X105412928Y-118833718D01*
X106087188Y-119507978D01*
X106101132Y-119515592D01*
X106102965Y-119515461D01*
X106109580Y-119511210D01*
X106787793Y-118832997D01*
X106794223Y-118821223D01*
X106784926Y-118809207D01*
X106741931Y-118779102D01*
X106732445Y-118773624D01*
X106541007Y-118684355D01*
X106530715Y-118680609D01*
X106326691Y-118625941D01*
X106315896Y-118624038D01*
X106105475Y-118605628D01*
X106094525Y-118605628D01*
X105884104Y-118624038D01*
X105873309Y-118625941D01*
X105669285Y-118680609D01*
X105658993Y-118684355D01*
X105467559Y-118773623D01*
X105458068Y-118779103D01*
X105414235Y-118809794D01*
X105405860Y-118820271D01*
X101721599Y-118820271D01*
X101657677Y-118775512D01*
X101652695Y-118773189D01*
X101652690Y-118773186D01*
X101461178Y-118683883D01*
X101461177Y-118683882D01*
X101456196Y-118681560D01*
X101450888Y-118680138D01*
X101450886Y-118680137D01*
X101385051Y-118662497D01*
X101241463Y-118624022D01*
X101020000Y-118604647D01*
X100798537Y-118624022D01*
X100654949Y-118662497D01*
X100589114Y-118680137D01*
X100589112Y-118680138D01*
X100583804Y-118681560D01*
X100578823Y-118683882D01*
X100578822Y-118683883D01*
X100387311Y-118773186D01*
X100387306Y-118773189D01*
X100382324Y-118775512D01*
X100377817Y-118778668D01*
X100377815Y-118778669D01*
X100204730Y-118899864D01*
X100204727Y-118899866D01*
X100200219Y-118903023D01*
X100043023Y-119060219D01*
X100039866Y-119064727D01*
X100039864Y-119064730D01*
X99918669Y-119237815D01*
X99915512Y-119242324D01*
X99913189Y-119247306D01*
X99913186Y-119247311D01*
X99851646Y-119379285D01*
X99821560Y-119443804D01*
X99820138Y-119449112D01*
X99820137Y-119449114D01*
X99809574Y-119488537D01*
X99764022Y-119658537D01*
X99744647Y-119880000D01*
X97366235Y-119880000D01*
X101640829Y-115605405D01*
X101703141Y-115571379D01*
X101729924Y-115568500D01*
X128471075Y-115568500D01*
X128539196Y-115588502D01*
X128585689Y-115642158D01*
X128595793Y-115712432D01*
X128566299Y-115777012D01*
X128560170Y-115783595D01*
X125642764Y-118701002D01*
X125580452Y-118735028D01*
X125509637Y-118729963D01*
X125481401Y-118715121D01*
X125467677Y-118705512D01*
X125462695Y-118703189D01*
X125462690Y-118703186D01*
X125271178Y-118613883D01*
X125271177Y-118613882D01*
X125266196Y-118611560D01*
X125260888Y-118610138D01*
X125260886Y-118610137D01*
X125173358Y-118586684D01*
X125051463Y-118554022D01*
X124830000Y-118534647D01*
X124608537Y-118554022D01*
X124486642Y-118586684D01*
X124399114Y-118610137D01*
X124399112Y-118610138D01*
X124393804Y-118611560D01*
X124388823Y-118613882D01*
X124388822Y-118613883D01*
X124197311Y-118703186D01*
X124197306Y-118703189D01*
X124192324Y-118705512D01*
X124187820Y-118708666D01*
X124187815Y-118708669D01*
X124014730Y-118829864D01*
X124014727Y-118829866D01*
X124010219Y-118833023D01*
X123853023Y-118990219D01*
X123849866Y-118994727D01*
X123849864Y-118994730D01*
X123728669Y-119167815D01*
X123725512Y-119172324D01*
X123723189Y-119177306D01*
X123723186Y-119177311D01*
X123633883Y-119368822D01*
X123631560Y-119373804D01*
X123574022Y-119588537D01*
X123554647Y-119810000D01*
X123574022Y-120031463D01*
X123631560Y-120246196D01*
X123633882Y-120251177D01*
X123633883Y-120251178D01*
X123723186Y-120442689D01*
X123723189Y-120442694D01*
X123725512Y-120447676D01*
X123728668Y-120452183D01*
X123728669Y-120452185D01*
X123828600Y-120594901D01*
X123853023Y-120629781D01*
X124010219Y-120786977D01*
X124014727Y-120790134D01*
X124014730Y-120790136D01*
X124054808Y-120818199D01*
X124192323Y-120914488D01*
X124197305Y-120916811D01*
X124197310Y-120916814D01*
X124387810Y-121005645D01*
X124393804Y-121008440D01*
X124399112Y-121009862D01*
X124399114Y-121009863D01*
X124464949Y-121027503D01*
X124608537Y-121065978D01*
X124830000Y-121085353D01*
X125051463Y-121065978D01*
X125195051Y-121027503D01*
X125260886Y-121009863D01*
X125260888Y-121009862D01*
X125266196Y-121008440D01*
X125272190Y-121005645D01*
X125462690Y-120916814D01*
X125462695Y-120916811D01*
X125467677Y-120914488D01*
X125474283Y-120909863D01*
X125572219Y-120841287D01*
X125644490Y-120818500D01*
X125898157Y-120818500D01*
X125911764Y-120819237D01*
X125943262Y-120822659D01*
X125943267Y-120822659D01*
X125949388Y-120823324D01*
X125975638Y-120821027D01*
X125999388Y-120818950D01*
X126004214Y-120818621D01*
X126006686Y-120818500D01*
X126009769Y-120818500D01*
X126021738Y-120817326D01*
X126052506Y-120814310D01*
X126053819Y-120814188D01*
X126098084Y-120810315D01*
X126146413Y-120806087D01*
X126151532Y-120804600D01*
X126156833Y-120804080D01*
X126245834Y-120777209D01*
X126246967Y-120776874D01*
X126330414Y-120752630D01*
X126330418Y-120752628D01*
X126336336Y-120750909D01*
X126341068Y-120748456D01*
X126346169Y-120746916D01*
X126351612Y-120744022D01*
X126428260Y-120703269D01*
X126429426Y-120702657D01*
X126506453Y-120662729D01*
X126511926Y-120659892D01*
X126516089Y-120656569D01*
X126520796Y-120654066D01*
X126592918Y-120595245D01*
X126593774Y-120594554D01*
X126632973Y-120563262D01*
X126635477Y-120560758D01*
X126636195Y-120560116D01*
X126640528Y-120556415D01*
X126674062Y-120529065D01*
X126687610Y-120512689D01*
X126703287Y-120493738D01*
X126711277Y-120484958D01*
X127386235Y-119810000D01*
X128634647Y-119810000D01*
X128654022Y-120031463D01*
X128711560Y-120246196D01*
X128713882Y-120251177D01*
X128713883Y-120251178D01*
X128803186Y-120442689D01*
X128803189Y-120442694D01*
X128805512Y-120447676D01*
X128808668Y-120452183D01*
X128808669Y-120452185D01*
X128908600Y-120594901D01*
X128933023Y-120629781D01*
X129090219Y-120786977D01*
X129094727Y-120790134D01*
X129094730Y-120790136D01*
X129134808Y-120818199D01*
X129272323Y-120914488D01*
X129277305Y-120916811D01*
X129277310Y-120916814D01*
X129467810Y-121005645D01*
X129473804Y-121008440D01*
X129479112Y-121009862D01*
X129479114Y-121009863D01*
X129544949Y-121027503D01*
X129688537Y-121065978D01*
X129910000Y-121085353D01*
X130131463Y-121065978D01*
X130275051Y-121027503D01*
X130340886Y-121009863D01*
X130340888Y-121009862D01*
X130346196Y-121008440D01*
X130352190Y-121005645D01*
X130542690Y-120916814D01*
X130542695Y-120916811D01*
X130547677Y-120914488D01*
X130612959Y-120868777D01*
X134295777Y-120868777D01*
X134305074Y-120880793D01*
X134348069Y-120910898D01*
X134357555Y-120916376D01*
X134548993Y-121005645D01*
X134559285Y-121009391D01*
X134763309Y-121064059D01*
X134774104Y-121065962D01*
X134984525Y-121084372D01*
X134995475Y-121084372D01*
X135205896Y-121065962D01*
X135216691Y-121064059D01*
X135420715Y-121009391D01*
X135431007Y-121005645D01*
X135622445Y-120916376D01*
X135631931Y-120910898D01*
X135675764Y-120880207D01*
X135684139Y-120869729D01*
X135677071Y-120856281D01*
X135002812Y-120182022D01*
X134988868Y-120174408D01*
X134987035Y-120174539D01*
X134980420Y-120178790D01*
X134302207Y-120857003D01*
X134295777Y-120868777D01*
X130612959Y-120868777D01*
X130685192Y-120818199D01*
X130725270Y-120790136D01*
X130725273Y-120790134D01*
X130729781Y-120786977D01*
X130886977Y-120629781D01*
X130911401Y-120594901D01*
X131011331Y-120452185D01*
X131011332Y-120452183D01*
X131014488Y-120447676D01*
X131016811Y-120442694D01*
X131016814Y-120442689D01*
X131106117Y-120251178D01*
X131106118Y-120251177D01*
X131108440Y-120246196D01*
X131165978Y-120031463D01*
X131184874Y-119815475D01*
X133715628Y-119815475D01*
X133734038Y-120025896D01*
X133735941Y-120036691D01*
X133790609Y-120240715D01*
X133794355Y-120251007D01*
X133883623Y-120442441D01*
X133889103Y-120451932D01*
X133919794Y-120495765D01*
X133930271Y-120504140D01*
X133943718Y-120497072D01*
X134617978Y-119822812D01*
X134624356Y-119811132D01*
X135354408Y-119811132D01*
X135354539Y-119812965D01*
X135358790Y-119819580D01*
X136037003Y-120497793D01*
X136048777Y-120504223D01*
X136060793Y-120494926D01*
X136090897Y-120451932D01*
X136096377Y-120442441D01*
X136185645Y-120251007D01*
X136189391Y-120240715D01*
X136244059Y-120036691D01*
X136245962Y-120025896D01*
X136264372Y-119815475D01*
X136264372Y-119804525D01*
X136245962Y-119594104D01*
X136244059Y-119583309D01*
X136189391Y-119379285D01*
X136185645Y-119368993D01*
X136096377Y-119177559D01*
X136090897Y-119168068D01*
X136060206Y-119124235D01*
X136049729Y-119115860D01*
X136036282Y-119122928D01*
X135362022Y-119797188D01*
X135354408Y-119811132D01*
X134624356Y-119811132D01*
X134625592Y-119808868D01*
X134625461Y-119807035D01*
X134621210Y-119800420D01*
X133942997Y-119122207D01*
X133931223Y-119115777D01*
X133919207Y-119125074D01*
X133889103Y-119168068D01*
X133883623Y-119177559D01*
X133794355Y-119368993D01*
X133790609Y-119379285D01*
X133735941Y-119583309D01*
X133734038Y-119594104D01*
X133715628Y-119804525D01*
X133715628Y-119815475D01*
X131184874Y-119815475D01*
X131185353Y-119810000D01*
X131165978Y-119588537D01*
X131108440Y-119373804D01*
X131106117Y-119368822D01*
X131016814Y-119177311D01*
X131016811Y-119177306D01*
X131014488Y-119172324D01*
X131011331Y-119167815D01*
X130890136Y-118994730D01*
X130890134Y-118994727D01*
X130886977Y-118990219D01*
X130729781Y-118833023D01*
X130725273Y-118829866D01*
X130725270Y-118829864D01*
X130644325Y-118773186D01*
X130611599Y-118750271D01*
X134295860Y-118750271D01*
X134302928Y-118763718D01*
X134977188Y-119437978D01*
X134991132Y-119445592D01*
X134992965Y-119445461D01*
X134999580Y-119441210D01*
X135677793Y-118762997D01*
X135684223Y-118751223D01*
X135674926Y-118739207D01*
X135631931Y-118709102D01*
X135622445Y-118703624D01*
X135431007Y-118614355D01*
X135420715Y-118610609D01*
X135216691Y-118555941D01*
X135205896Y-118554038D01*
X134995475Y-118535628D01*
X134984525Y-118535628D01*
X134774104Y-118554038D01*
X134763309Y-118555941D01*
X134559285Y-118610609D01*
X134548993Y-118614355D01*
X134357559Y-118703623D01*
X134348068Y-118709103D01*
X134304235Y-118739794D01*
X134295860Y-118750271D01*
X130611599Y-118750271D01*
X130547677Y-118705512D01*
X130542695Y-118703189D01*
X130542690Y-118703186D01*
X130351178Y-118613883D01*
X130351177Y-118613882D01*
X130346196Y-118611560D01*
X130340888Y-118610138D01*
X130340886Y-118610137D01*
X130253358Y-118586684D01*
X130131463Y-118554022D01*
X129910000Y-118534647D01*
X129688537Y-118554022D01*
X129566642Y-118586684D01*
X129479114Y-118610137D01*
X129479112Y-118610138D01*
X129473804Y-118611560D01*
X129468823Y-118613882D01*
X129468822Y-118613883D01*
X129277311Y-118703186D01*
X129277306Y-118703189D01*
X129272324Y-118705512D01*
X129267820Y-118708666D01*
X129267815Y-118708669D01*
X129094730Y-118829864D01*
X129094727Y-118829866D01*
X129090219Y-118833023D01*
X128933023Y-118990219D01*
X128929866Y-118994727D01*
X128929864Y-118994730D01*
X128808669Y-119167815D01*
X128805512Y-119172324D01*
X128803189Y-119177306D01*
X128803186Y-119177311D01*
X128713883Y-119368822D01*
X128711560Y-119373804D01*
X128654022Y-119588537D01*
X128634647Y-119810000D01*
X127386235Y-119810000D01*
X131590829Y-115605405D01*
X131653141Y-115571379D01*
X131679924Y-115568500D01*
X151870075Y-115568500D01*
X151938196Y-115588502D01*
X151959170Y-115605405D01*
X156196684Y-119842918D01*
X156230710Y-119905230D01*
X156233110Y-119921037D01*
X156233542Y-119925983D01*
X156233543Y-119925990D01*
X156234022Y-119931463D01*
X156235444Y-119936771D01*
X156235445Y-119936775D01*
X156280997Y-120106776D01*
X156291560Y-120146196D01*
X156293882Y-120151177D01*
X156293883Y-120151178D01*
X156383186Y-120342689D01*
X156383189Y-120342694D01*
X156385512Y-120347676D01*
X156388668Y-120352183D01*
X156388669Y-120352185D01*
X156490625Y-120497793D01*
X156513023Y-120529781D01*
X156670219Y-120686977D01*
X156674727Y-120690134D01*
X156674730Y-120690136D01*
X156693486Y-120703269D01*
X156852323Y-120814488D01*
X156857305Y-120816811D01*
X156857310Y-120816814D01*
X157047810Y-120905645D01*
X157053804Y-120908440D01*
X157059112Y-120909862D01*
X157059114Y-120909863D01*
X157062977Y-120910898D01*
X157268537Y-120965978D01*
X157490000Y-120985353D01*
X157711463Y-120965978D01*
X157917023Y-120910898D01*
X157920886Y-120909863D01*
X157920888Y-120909862D01*
X157926196Y-120908440D01*
X157932190Y-120905645D01*
X158122690Y-120816814D01*
X158122695Y-120816811D01*
X158127677Y-120814488D01*
X158286514Y-120703269D01*
X158305270Y-120690136D01*
X158305273Y-120690134D01*
X158309781Y-120686977D01*
X158466977Y-120529781D01*
X158489376Y-120497793D01*
X158591331Y-120352185D01*
X158591332Y-120352183D01*
X158594488Y-120347676D01*
X158596811Y-120342694D01*
X158596814Y-120342689D01*
X158686117Y-120151178D01*
X158686118Y-120151177D01*
X158688440Y-120146196D01*
X158699026Y-120106691D01*
X158720651Y-120025984D01*
X158745978Y-119931463D01*
X158765353Y-119710000D01*
X161294647Y-119710000D01*
X161314022Y-119931463D01*
X161339349Y-120025984D01*
X161360975Y-120106691D01*
X161371560Y-120146196D01*
X161373882Y-120151177D01*
X161373883Y-120151178D01*
X161463186Y-120342689D01*
X161463189Y-120342694D01*
X161465512Y-120347676D01*
X161468668Y-120352183D01*
X161468669Y-120352185D01*
X161570625Y-120497793D01*
X161593023Y-120529781D01*
X161750219Y-120686977D01*
X161754727Y-120690134D01*
X161754730Y-120690136D01*
X161773486Y-120703269D01*
X161932323Y-120814488D01*
X161937305Y-120816811D01*
X161937310Y-120816814D01*
X162127810Y-120905645D01*
X162133804Y-120908440D01*
X162139112Y-120909862D01*
X162139114Y-120909863D01*
X162142977Y-120910898D01*
X162348537Y-120965978D01*
X162570000Y-120985353D01*
X162791463Y-120965978D01*
X162997023Y-120910898D01*
X163000886Y-120909863D01*
X163000888Y-120909862D01*
X163006196Y-120908440D01*
X163012190Y-120905645D01*
X163202690Y-120816814D01*
X163202695Y-120816811D01*
X163207677Y-120814488D01*
X163272959Y-120768777D01*
X166955777Y-120768777D01*
X166965074Y-120780793D01*
X167008069Y-120810898D01*
X167017555Y-120816376D01*
X167208993Y-120905645D01*
X167219285Y-120909391D01*
X167423309Y-120964059D01*
X167434104Y-120965962D01*
X167644525Y-120984372D01*
X167655475Y-120984372D01*
X167865896Y-120965962D01*
X167876691Y-120964059D01*
X168080715Y-120909391D01*
X168091007Y-120905645D01*
X168282445Y-120816376D01*
X168291931Y-120810898D01*
X168335764Y-120780207D01*
X168344139Y-120769729D01*
X168337071Y-120756281D01*
X167662812Y-120082022D01*
X167648868Y-120074408D01*
X167647035Y-120074539D01*
X167640420Y-120078790D01*
X166962207Y-120757003D01*
X166955777Y-120768777D01*
X163272959Y-120768777D01*
X163366514Y-120703269D01*
X163385270Y-120690136D01*
X163385273Y-120690134D01*
X163389781Y-120686977D01*
X163546977Y-120529781D01*
X163569376Y-120497793D01*
X163671331Y-120352185D01*
X163671332Y-120352183D01*
X163674488Y-120347676D01*
X163676811Y-120342694D01*
X163676814Y-120342689D01*
X163766117Y-120151178D01*
X163766118Y-120151177D01*
X163768440Y-120146196D01*
X163779026Y-120106691D01*
X163800651Y-120025984D01*
X163825978Y-119931463D01*
X163844874Y-119715475D01*
X166375628Y-119715475D01*
X166394038Y-119925896D01*
X166395941Y-119936691D01*
X166450609Y-120140715D01*
X166454355Y-120151007D01*
X166543623Y-120342441D01*
X166549103Y-120351932D01*
X166579794Y-120395765D01*
X166590271Y-120404140D01*
X166603718Y-120397072D01*
X167277978Y-119722812D01*
X167284356Y-119711132D01*
X168014408Y-119711132D01*
X168014539Y-119712965D01*
X168018790Y-119719580D01*
X168697003Y-120397793D01*
X168708777Y-120404223D01*
X168720793Y-120394926D01*
X168750897Y-120351932D01*
X168756377Y-120342441D01*
X168845645Y-120151007D01*
X168849391Y-120140715D01*
X168904059Y-119936691D01*
X168905962Y-119925896D01*
X168924372Y-119715475D01*
X168924372Y-119704525D01*
X168905962Y-119494104D01*
X168904059Y-119483309D01*
X168849391Y-119279285D01*
X168845645Y-119268993D01*
X168756377Y-119077559D01*
X168750897Y-119068068D01*
X168720206Y-119024235D01*
X168709729Y-119015860D01*
X168696282Y-119022928D01*
X168022022Y-119697188D01*
X168014408Y-119711132D01*
X167284356Y-119711132D01*
X167285592Y-119708868D01*
X167285461Y-119707035D01*
X167281210Y-119700420D01*
X166602997Y-119022207D01*
X166591223Y-119015777D01*
X166579207Y-119025074D01*
X166549103Y-119068068D01*
X166543623Y-119077559D01*
X166454355Y-119268993D01*
X166450609Y-119279285D01*
X166395941Y-119483309D01*
X166394038Y-119494104D01*
X166375628Y-119704525D01*
X166375628Y-119715475D01*
X163844874Y-119715475D01*
X163845353Y-119710000D01*
X163825978Y-119488537D01*
X163768440Y-119273804D01*
X163751658Y-119237815D01*
X163676814Y-119077311D01*
X163676811Y-119077306D01*
X163674488Y-119072324D01*
X163666012Y-119060219D01*
X163550136Y-118894730D01*
X163550134Y-118894727D01*
X163546977Y-118890219D01*
X163389781Y-118733023D01*
X163385273Y-118729866D01*
X163385270Y-118729864D01*
X163309505Y-118676813D01*
X163271599Y-118650271D01*
X166955860Y-118650271D01*
X166962928Y-118663718D01*
X167637188Y-119337978D01*
X167651132Y-119345592D01*
X167652965Y-119345461D01*
X167659580Y-119341210D01*
X168337793Y-118662997D01*
X168344223Y-118651223D01*
X168334926Y-118639207D01*
X168291931Y-118609102D01*
X168282445Y-118603624D01*
X168091007Y-118514355D01*
X168080715Y-118510609D01*
X167876691Y-118455941D01*
X167865896Y-118454038D01*
X167655475Y-118435628D01*
X167644525Y-118435628D01*
X167434104Y-118454038D01*
X167423309Y-118455941D01*
X167219285Y-118510609D01*
X167208993Y-118514355D01*
X167017559Y-118603623D01*
X167008068Y-118609103D01*
X166964235Y-118639794D01*
X166955860Y-118650271D01*
X163271599Y-118650271D01*
X163207677Y-118605512D01*
X163202695Y-118603189D01*
X163202690Y-118603186D01*
X163011178Y-118513883D01*
X163011177Y-118513882D01*
X163006196Y-118511560D01*
X163000888Y-118510138D01*
X163000886Y-118510137D01*
X162935051Y-118492497D01*
X162791463Y-118454022D01*
X162570000Y-118434647D01*
X162348537Y-118454022D01*
X162204949Y-118492497D01*
X162139114Y-118510137D01*
X162139112Y-118510138D01*
X162133804Y-118511560D01*
X162128823Y-118513882D01*
X162128822Y-118513883D01*
X161937311Y-118603186D01*
X161937306Y-118603189D01*
X161932324Y-118605512D01*
X161927817Y-118608668D01*
X161927815Y-118608669D01*
X161754730Y-118729864D01*
X161754727Y-118729866D01*
X161750219Y-118733023D01*
X161593023Y-118890219D01*
X161589866Y-118894727D01*
X161589864Y-118894730D01*
X161473988Y-119060219D01*
X161465512Y-119072324D01*
X161463189Y-119077306D01*
X161463186Y-119077311D01*
X161388342Y-119237815D01*
X161371560Y-119273804D01*
X161314022Y-119488537D01*
X161294647Y-119710000D01*
X158765353Y-119710000D01*
X158745978Y-119488537D01*
X158688440Y-119273804D01*
X158671658Y-119237815D01*
X158596814Y-119077311D01*
X158596811Y-119077306D01*
X158594488Y-119072324D01*
X158586012Y-119060219D01*
X158470136Y-118894730D01*
X158470134Y-118894727D01*
X158466977Y-118890219D01*
X158309781Y-118733023D01*
X158305273Y-118729866D01*
X158305270Y-118729864D01*
X158229505Y-118676813D01*
X158127677Y-118605512D01*
X158122695Y-118603189D01*
X158122690Y-118603186D01*
X157931178Y-118513883D01*
X157931177Y-118513882D01*
X157926196Y-118511560D01*
X157920888Y-118510138D01*
X157920886Y-118510137D01*
X157855051Y-118492497D01*
X157711463Y-118454022D01*
X157705986Y-118453543D01*
X157705981Y-118453542D01*
X157701038Y-118453110D01*
X157634919Y-118427250D01*
X157622919Y-118416684D01*
X153096855Y-113890621D01*
X153087753Y-113880478D01*
X153067897Y-113855782D01*
X153064032Y-113850975D01*
X153025578Y-113818708D01*
X153021931Y-113815528D01*
X153020119Y-113813885D01*
X153017925Y-113811691D01*
X152984651Y-113784358D01*
X152983853Y-113783696D01*
X152912526Y-113723846D01*
X152907856Y-113721278D01*
X152903739Y-113717897D01*
X152821914Y-113674023D01*
X152820755Y-113673394D01*
X152744619Y-113631538D01*
X152744611Y-113631535D01*
X152739213Y-113628567D01*
X152734131Y-113626955D01*
X152729437Y-113624438D01*
X152640469Y-113597238D01*
X152639441Y-113596918D01*
X152550694Y-113568765D01*
X152545398Y-113568171D01*
X152540302Y-113566613D01*
X152447743Y-113557210D01*
X152446607Y-113557089D01*
X152412992Y-113553319D01*
X152400270Y-113551892D01*
X152400266Y-113551892D01*
X152396773Y-113551500D01*
X152393246Y-113551500D01*
X152392261Y-113551445D01*
X152386581Y-113550998D01*
X152357175Y-113548011D01*
X152349663Y-113547248D01*
X152349661Y-113547248D01*
X152343538Y-113546626D01*
X152301259Y-113550623D01*
X152297891Y-113550941D01*
X152286033Y-113551500D01*
X133948925Y-113551500D01*
X133880804Y-113531498D01*
X133834311Y-113477842D01*
X133824207Y-113407568D01*
X133853701Y-113342988D01*
X133859830Y-113336405D01*
X134972918Y-112223316D01*
X135035230Y-112189291D01*
X135051036Y-112186890D01*
X135051487Y-112186851D01*
X135055983Y-112186458D01*
X135055990Y-112186457D01*
X135061463Y-112185978D01*
X135066771Y-112184556D01*
X135066775Y-112184555D01*
X135270886Y-112129863D01*
X135270888Y-112129862D01*
X135276196Y-112128440D01*
X135281178Y-112126117D01*
X135472690Y-112036814D01*
X135472695Y-112036811D01*
X135477677Y-112034488D01*
X135579658Y-111963080D01*
X135655270Y-111910136D01*
X135655273Y-111910134D01*
X135659781Y-111906977D01*
X135816977Y-111749781D01*
X135899319Y-111632185D01*
X135941331Y-111572185D01*
X135941332Y-111572183D01*
X135944488Y-111567676D01*
X135946811Y-111562694D01*
X135946814Y-111562689D01*
X135995805Y-111457627D01*
X136042723Y-111404342D01*
X136111000Y-111384881D01*
X136178960Y-111405423D01*
X136224195Y-111457627D01*
X136273186Y-111562689D01*
X136273189Y-111562694D01*
X136275512Y-111567676D01*
X136278668Y-111572183D01*
X136278669Y-111572185D01*
X136320682Y-111632185D01*
X136403023Y-111749781D01*
X136560219Y-111906977D01*
X136564727Y-111910134D01*
X136564730Y-111910136D01*
X136640342Y-111963080D01*
X136742323Y-112034488D01*
X136747305Y-112036811D01*
X136747310Y-112036814D01*
X136938822Y-112126117D01*
X136943804Y-112128440D01*
X136949112Y-112129862D01*
X136949114Y-112129863D01*
X137010238Y-112146241D01*
X137158537Y-112185978D01*
X137380000Y-112205353D01*
X137601463Y-112185978D01*
X137749762Y-112146241D01*
X137810886Y-112129863D01*
X137810888Y-112129862D01*
X137816196Y-112128440D01*
X137821178Y-112126117D01*
X138012690Y-112036814D01*
X138012695Y-112036811D01*
X138017677Y-112034488D01*
X138119658Y-111963080D01*
X138195270Y-111910136D01*
X138195273Y-111910134D01*
X138199781Y-111906977D01*
X138356977Y-111749781D01*
X138439319Y-111632185D01*
X138481331Y-111572185D01*
X138481332Y-111572183D01*
X138484488Y-111567676D01*
X138486811Y-111562694D01*
X138486814Y-111562689D01*
X138576117Y-111371178D01*
X138576118Y-111371177D01*
X138578440Y-111366196D01*
X138635978Y-111151463D01*
X138655353Y-110930000D01*
X138635978Y-110708537D01*
X138594517Y-110553804D01*
X138579863Y-110499114D01*
X138579862Y-110499112D01*
X138578440Y-110493804D01*
X138510364Y-110347815D01*
X138486814Y-110297311D01*
X138486811Y-110297306D01*
X138484488Y-110292324D01*
X138402148Y-110174730D01*
X138360136Y-110114730D01*
X138360134Y-110114727D01*
X138356977Y-110110219D01*
X138199781Y-109953023D01*
X138195273Y-109949866D01*
X138195270Y-109949864D01*
X138107874Y-109888669D01*
X138017677Y-109825512D01*
X138012695Y-109823189D01*
X138012690Y-109823186D01*
X137821178Y-109733883D01*
X137821177Y-109733882D01*
X137816196Y-109731560D01*
X137810888Y-109730138D01*
X137810886Y-109730137D01*
X137790212Y-109724598D01*
X137749760Y-109713758D01*
X137689138Y-109676807D01*
X137658117Y-109612947D01*
X137666545Y-109542452D01*
X137693277Y-109502957D01*
X141439379Y-105756855D01*
X141449522Y-105747753D01*
X141474218Y-105727897D01*
X141479025Y-105724032D01*
X141511292Y-105685578D01*
X141514472Y-105681931D01*
X141516115Y-105680119D01*
X141518309Y-105677925D01*
X141545642Y-105644651D01*
X141546348Y-105643800D01*
X141602195Y-105577244D01*
X141606154Y-105572526D01*
X141608722Y-105567856D01*
X141612103Y-105563739D01*
X141656015Y-105481842D01*
X141656624Y-105480720D01*
X141698466Y-105404611D01*
X141698468Y-105404606D01*
X141701433Y-105399213D01*
X141703044Y-105394135D01*
X141705563Y-105389437D01*
X141732753Y-105300502D01*
X141733136Y-105299272D01*
X141759371Y-105216570D01*
X141761235Y-105210694D01*
X141761828Y-105205403D01*
X141763388Y-105200302D01*
X141772795Y-105107689D01*
X141772915Y-105106569D01*
X141778500Y-105056773D01*
X141778500Y-105053244D01*
X141778555Y-105052261D01*
X141779004Y-105046556D01*
X141782752Y-105009664D01*
X141782752Y-105009661D01*
X141783374Y-105003537D01*
X141779059Y-104957888D01*
X141778500Y-104946031D01*
X141778500Y-84200231D01*
X141777814Y-84193227D01*
X141764681Y-84059301D01*
X141764080Y-84053167D01*
X141706916Y-83863831D01*
X141614066Y-83689204D01*
X141543709Y-83602938D01*
X141492960Y-83540713D01*
X141492957Y-83540710D01*
X141489065Y-83535938D01*
X141482724Y-83530692D01*
X141341425Y-83413799D01*
X141341421Y-83413797D01*
X141336675Y-83409870D01*
X141162701Y-83315802D01*
X140973768Y-83257318D01*
X140967643Y-83256674D01*
X140967642Y-83256674D01*
X140783204Y-83237289D01*
X140783202Y-83237289D01*
X140777075Y-83236645D01*
X140694576Y-83244153D01*
X140586251Y-83254011D01*
X140586248Y-83254012D01*
X140580112Y-83254570D01*
X140574206Y-83256308D01*
X140574202Y-83256309D01*
X140469076Y-83287249D01*
X140390381Y-83310410D01*
X140384923Y-83313263D01*
X140384919Y-83313265D01*
X140294147Y-83360720D01*
X140215110Y-83402040D01*
X140060975Y-83525968D01*
X139933846Y-83677474D01*
X139930879Y-83682872D01*
X139930875Y-83682877D01*
X139927397Y-83689204D01*
X139838567Y-83850787D01*
X139836706Y-83856654D01*
X139836705Y-83856656D01*
X139780627Y-84033436D01*
X139778765Y-84039306D01*
X139761500Y-84193227D01*
X139761500Y-104530076D01*
X139741498Y-104598197D01*
X139724595Y-104619171D01*
X134707082Y-109636684D01*
X134644770Y-109670710D01*
X134628964Y-109673110D01*
X134628513Y-109673149D01*
X134624017Y-109673542D01*
X134624010Y-109673543D01*
X134618537Y-109674022D01*
X134613229Y-109675444D01*
X134613225Y-109675445D01*
X134409114Y-109730137D01*
X134409112Y-109730138D01*
X134403804Y-109731560D01*
X134398823Y-109733882D01*
X134398822Y-109733883D01*
X134207311Y-109823186D01*
X134207306Y-109823189D01*
X134202324Y-109825512D01*
X134197817Y-109828668D01*
X134197815Y-109828669D01*
X134024730Y-109949864D01*
X134024727Y-109949866D01*
X134020219Y-109953023D01*
X133863023Y-110110219D01*
X133859866Y-110114727D01*
X133859864Y-110114730D01*
X133817852Y-110174730D01*
X133735512Y-110292324D01*
X133733189Y-110297306D01*
X133733186Y-110297311D01*
X133684195Y-110402373D01*
X133637277Y-110455658D01*
X133569000Y-110475119D01*
X133501040Y-110454577D01*
X133455805Y-110402373D01*
X133406814Y-110297311D01*
X133406811Y-110297306D01*
X133404488Y-110292324D01*
X133322148Y-110174730D01*
X133280136Y-110114730D01*
X133280134Y-110114727D01*
X133276977Y-110110219D01*
X133119781Y-109953023D01*
X133115273Y-109949866D01*
X133115270Y-109949864D01*
X133027874Y-109888669D01*
X132937677Y-109825512D01*
X132932695Y-109823189D01*
X132932690Y-109823186D01*
X132741178Y-109733883D01*
X132741177Y-109733882D01*
X132736196Y-109731560D01*
X132730888Y-109730138D01*
X132730886Y-109730137D01*
X132665051Y-109712497D01*
X132521463Y-109674022D01*
X132300000Y-109654647D01*
X132078537Y-109674022D01*
X131934949Y-109712497D01*
X131869114Y-109730137D01*
X131869112Y-109730138D01*
X131863804Y-109731560D01*
X131858823Y-109733882D01*
X131858822Y-109733883D01*
X131667311Y-109823186D01*
X131667306Y-109823189D01*
X131662324Y-109825512D01*
X131657817Y-109828668D01*
X131657815Y-109828669D01*
X131484730Y-109949864D01*
X131484727Y-109949866D01*
X131480219Y-109953023D01*
X131323023Y-110110219D01*
X131319866Y-110114727D01*
X131319864Y-110114730D01*
X131277852Y-110174730D01*
X131195512Y-110292324D01*
X131193189Y-110297306D01*
X131193186Y-110297311D01*
X131144195Y-110402373D01*
X131097277Y-110455658D01*
X131029000Y-110475119D01*
X130961040Y-110454577D01*
X130915805Y-110402373D01*
X130866814Y-110297311D01*
X130866811Y-110297306D01*
X130864488Y-110292324D01*
X130782148Y-110174730D01*
X130740136Y-110114730D01*
X130740134Y-110114727D01*
X130736977Y-110110219D01*
X130579781Y-109953023D01*
X130575273Y-109949866D01*
X130575270Y-109949864D01*
X130487874Y-109888669D01*
X130397677Y-109825512D01*
X130392695Y-109823189D01*
X130392690Y-109823186D01*
X130201178Y-109733883D01*
X130201177Y-109733882D01*
X130196196Y-109731560D01*
X130190888Y-109730138D01*
X130190886Y-109730137D01*
X130125051Y-109712497D01*
X129981463Y-109674022D01*
X129760000Y-109654647D01*
X129538537Y-109674022D01*
X129394949Y-109712497D01*
X129329114Y-109730137D01*
X129329112Y-109730138D01*
X129323804Y-109731560D01*
X129318823Y-109733882D01*
X129318822Y-109733883D01*
X129127311Y-109823186D01*
X129127306Y-109823189D01*
X129122324Y-109825512D01*
X129117817Y-109828668D01*
X129117815Y-109828669D01*
X128944730Y-109949864D01*
X128944727Y-109949866D01*
X128940219Y-109953023D01*
X128783023Y-110110219D01*
X128779866Y-110114727D01*
X128779864Y-110114730D01*
X128737852Y-110174730D01*
X128655512Y-110292324D01*
X128653189Y-110297306D01*
X128653186Y-110297311D01*
X128590205Y-110432374D01*
X128543287Y-110485659D01*
X128475010Y-110505120D01*
X128407050Y-110484578D01*
X128361815Y-110432374D01*
X128326813Y-110357311D01*
X128326810Y-110357306D01*
X128324487Y-110352324D01*
X128282475Y-110292324D01*
X128200135Y-110174730D01*
X128200133Y-110174727D01*
X128196976Y-110170219D01*
X128039780Y-110013023D01*
X128035272Y-110009866D01*
X128035269Y-110009864D01*
X127949580Y-109949864D01*
X127857676Y-109885512D01*
X127852694Y-109883189D01*
X127852689Y-109883186D01*
X127661177Y-109793883D01*
X127661176Y-109793882D01*
X127656195Y-109791560D01*
X127650887Y-109790138D01*
X127650885Y-109790137D01*
X127585050Y-109772497D01*
X127441462Y-109734022D01*
X127219999Y-109714647D01*
X126998536Y-109734022D01*
X126854948Y-109772497D01*
X126789113Y-109790137D01*
X126789111Y-109790138D01*
X126783803Y-109791560D01*
X126778822Y-109793882D01*
X126778821Y-109793883D01*
X126587310Y-109883186D01*
X126587305Y-109883189D01*
X126582323Y-109885512D01*
X126577816Y-109888668D01*
X126577814Y-109888669D01*
X126404729Y-110009864D01*
X126404726Y-110009866D01*
X126400218Y-110013023D01*
X126243022Y-110170219D01*
X126239865Y-110174727D01*
X126239863Y-110174730D01*
X126157523Y-110292324D01*
X126115511Y-110352324D01*
X126113188Y-110357306D01*
X126113185Y-110357311D01*
X126044194Y-110505263D01*
X125997276Y-110558548D01*
X125928999Y-110578009D01*
X125861039Y-110557467D01*
X125815804Y-110505263D01*
X125746813Y-110357311D01*
X125746810Y-110357306D01*
X125744487Y-110352324D01*
X125702475Y-110292324D01*
X125620135Y-110174730D01*
X125620133Y-110174727D01*
X125616976Y-110170219D01*
X125459780Y-110013023D01*
X125455272Y-110009866D01*
X125455269Y-110009864D01*
X125369580Y-109949864D01*
X125277676Y-109885512D01*
X125272694Y-109883189D01*
X125272689Y-109883186D01*
X125081177Y-109793883D01*
X125081176Y-109793882D01*
X125076195Y-109791560D01*
X125070887Y-109790138D01*
X125070885Y-109790137D01*
X125005050Y-109772497D01*
X124861462Y-109734022D01*
X124639999Y-109714647D01*
X124418536Y-109734022D01*
X124274948Y-109772497D01*
X124209113Y-109790137D01*
X124209111Y-109790138D01*
X124203803Y-109791560D01*
X124198822Y-109793882D01*
X124198821Y-109793883D01*
X124007310Y-109883186D01*
X124007305Y-109883189D01*
X124002323Y-109885512D01*
X123997816Y-109888668D01*
X123997814Y-109888669D01*
X123824729Y-110009864D01*
X123824726Y-110009866D01*
X123820218Y-110013023D01*
X123663022Y-110170219D01*
X123659865Y-110174727D01*
X123659863Y-110174730D01*
X123577523Y-110292324D01*
X123535511Y-110352324D01*
X123533188Y-110357306D01*
X123533185Y-110357311D01*
X123518184Y-110389482D01*
X123471267Y-110442767D01*
X123402990Y-110462228D01*
X123335030Y-110441686D01*
X123289794Y-110389482D01*
X123246814Y-110297311D01*
X123246811Y-110297306D01*
X123244488Y-110292324D01*
X123162148Y-110174730D01*
X123120136Y-110114730D01*
X123120134Y-110114727D01*
X123116977Y-110110219D01*
X122959781Y-109953023D01*
X122955273Y-109949866D01*
X122955270Y-109949864D01*
X122867874Y-109888669D01*
X122777677Y-109825512D01*
X122772695Y-109823189D01*
X122772690Y-109823186D01*
X122581178Y-109733883D01*
X122581177Y-109733882D01*
X122576196Y-109731560D01*
X122570888Y-109730138D01*
X122570886Y-109730137D01*
X122505051Y-109712497D01*
X122361463Y-109674022D01*
X122140000Y-109654647D01*
X121918537Y-109674022D01*
X121774949Y-109712497D01*
X121709114Y-109730137D01*
X121709112Y-109730138D01*
X121703804Y-109731560D01*
X121698823Y-109733882D01*
X121698822Y-109733883D01*
X121507311Y-109823186D01*
X121507306Y-109823189D01*
X121502324Y-109825512D01*
X121497817Y-109828668D01*
X121497815Y-109828669D01*
X121324730Y-109949864D01*
X121324727Y-109949866D01*
X121320219Y-109953023D01*
X121163023Y-110110219D01*
X121159866Y-110114727D01*
X121159864Y-110114730D01*
X121117852Y-110174730D01*
X121035512Y-110292324D01*
X121033189Y-110297306D01*
X121033186Y-110297311D01*
X120984195Y-110402373D01*
X120937277Y-110455658D01*
X120869000Y-110475119D01*
X120801040Y-110454577D01*
X120755805Y-110402373D01*
X120706814Y-110297311D01*
X120706811Y-110297306D01*
X120704488Y-110292324D01*
X120622148Y-110174730D01*
X120580136Y-110114730D01*
X120580134Y-110114727D01*
X120576977Y-110110219D01*
X120419781Y-109953023D01*
X120415273Y-109949866D01*
X120415270Y-109949864D01*
X120327874Y-109888669D01*
X120237677Y-109825512D01*
X120232695Y-109823189D01*
X120232690Y-109823186D01*
X120041178Y-109733883D01*
X120041177Y-109733882D01*
X120036196Y-109731560D01*
X120030888Y-109730138D01*
X120030886Y-109730137D01*
X119965051Y-109712497D01*
X119821463Y-109674022D01*
X119600000Y-109654647D01*
X119378537Y-109674022D01*
X119234949Y-109712497D01*
X119169114Y-109730137D01*
X119169112Y-109730138D01*
X119163804Y-109731560D01*
X119158823Y-109733882D01*
X119158822Y-109733883D01*
X118967311Y-109823186D01*
X118967306Y-109823189D01*
X118962324Y-109825512D01*
X118957817Y-109828668D01*
X118957815Y-109828669D01*
X118784730Y-109949864D01*
X118784727Y-109949866D01*
X118780219Y-109953023D01*
X118623023Y-110110219D01*
X118619866Y-110114727D01*
X118619864Y-110114730D01*
X118577852Y-110174730D01*
X118495512Y-110292324D01*
X118493189Y-110297306D01*
X118493186Y-110297311D01*
X118444195Y-110402373D01*
X118397277Y-110455658D01*
X118329000Y-110475119D01*
X118261040Y-110454577D01*
X118215805Y-110402373D01*
X118166814Y-110297311D01*
X118166811Y-110297306D01*
X118164488Y-110292324D01*
X118082148Y-110174730D01*
X118040136Y-110114730D01*
X118040134Y-110114727D01*
X118036977Y-110110219D01*
X117879781Y-109953023D01*
X117875273Y-109949866D01*
X117875270Y-109949864D01*
X117787874Y-109888669D01*
X117697677Y-109825512D01*
X117692695Y-109823189D01*
X117692690Y-109823186D01*
X117501178Y-109733883D01*
X117501177Y-109733882D01*
X117496196Y-109731560D01*
X117490888Y-109730138D01*
X117490886Y-109730137D01*
X117425051Y-109712497D01*
X117281463Y-109674022D01*
X117060000Y-109654647D01*
X116838537Y-109674022D01*
X116694949Y-109712497D01*
X116629114Y-109730137D01*
X116629112Y-109730138D01*
X116623804Y-109731560D01*
X116618823Y-109733882D01*
X116618822Y-109733883D01*
X116427311Y-109823186D01*
X116427306Y-109823189D01*
X116422324Y-109825512D01*
X116417817Y-109828668D01*
X116417815Y-109828669D01*
X116244730Y-109949864D01*
X116244727Y-109949866D01*
X116240219Y-109953023D01*
X116083023Y-110110219D01*
X116079866Y-110114727D01*
X116079864Y-110114730D01*
X116037852Y-110174730D01*
X115955512Y-110292324D01*
X115953189Y-110297306D01*
X115953186Y-110297311D01*
X115904195Y-110402373D01*
X115857277Y-110455658D01*
X115789000Y-110475119D01*
X115721040Y-110454577D01*
X115675805Y-110402373D01*
X115626814Y-110297311D01*
X115626811Y-110297306D01*
X115624488Y-110292324D01*
X115542148Y-110174730D01*
X115500136Y-110114730D01*
X115500134Y-110114727D01*
X115496977Y-110110219D01*
X115339781Y-109953023D01*
X115335273Y-109949866D01*
X115335270Y-109949864D01*
X115247874Y-109888669D01*
X115157677Y-109825512D01*
X115152695Y-109823189D01*
X115152690Y-109823186D01*
X114961178Y-109733883D01*
X114961177Y-109733882D01*
X114956196Y-109731560D01*
X114950888Y-109730138D01*
X114950886Y-109730137D01*
X114885051Y-109712497D01*
X114741463Y-109674022D01*
X114520000Y-109654647D01*
X114298537Y-109674022D01*
X114154949Y-109712497D01*
X114089114Y-109730137D01*
X114089112Y-109730138D01*
X114083804Y-109731560D01*
X114078823Y-109733882D01*
X114078822Y-109733883D01*
X113887311Y-109823186D01*
X113887306Y-109823189D01*
X113882324Y-109825512D01*
X113877817Y-109828668D01*
X113877815Y-109828669D01*
X113704730Y-109949864D01*
X113704727Y-109949866D01*
X113700219Y-109953023D01*
X113543023Y-110110219D01*
X113539866Y-110114727D01*
X113539864Y-110114730D01*
X113497852Y-110174730D01*
X113415512Y-110292324D01*
X113413189Y-110297306D01*
X113413186Y-110297311D01*
X113364195Y-110402373D01*
X113317277Y-110455658D01*
X113249000Y-110475119D01*
X113181040Y-110454577D01*
X113135805Y-110402373D01*
X113086814Y-110297311D01*
X113086811Y-110297306D01*
X113084488Y-110292324D01*
X113002148Y-110174730D01*
X112960136Y-110114730D01*
X112960134Y-110114727D01*
X112956977Y-110110219D01*
X112799781Y-109953023D01*
X112795273Y-109949866D01*
X112795270Y-109949864D01*
X112707874Y-109888669D01*
X112617677Y-109825512D01*
X112612695Y-109823189D01*
X112612690Y-109823186D01*
X112421178Y-109733883D01*
X112421177Y-109733882D01*
X112416196Y-109731560D01*
X112410888Y-109730138D01*
X112410886Y-109730137D01*
X112345051Y-109712497D01*
X112201463Y-109674022D01*
X111980000Y-109654647D01*
X111758537Y-109674022D01*
X111614949Y-109712497D01*
X111549114Y-109730137D01*
X111549112Y-109730138D01*
X111543804Y-109731560D01*
X111538823Y-109733882D01*
X111538822Y-109733883D01*
X111347311Y-109823186D01*
X111347306Y-109823189D01*
X111342324Y-109825512D01*
X111337817Y-109828668D01*
X111337815Y-109828669D01*
X111164730Y-109949864D01*
X111164727Y-109949866D01*
X111160219Y-109953023D01*
X111003023Y-110110219D01*
X110999866Y-110114727D01*
X110999864Y-110114730D01*
X110957852Y-110174730D01*
X110875512Y-110292324D01*
X110873189Y-110297306D01*
X110873186Y-110297311D01*
X110824195Y-110402373D01*
X110777277Y-110455658D01*
X110709000Y-110475119D01*
X110641040Y-110454577D01*
X110595805Y-110402373D01*
X110546814Y-110297311D01*
X110546811Y-110297306D01*
X110544488Y-110292324D01*
X110462148Y-110174730D01*
X110420136Y-110114730D01*
X110420134Y-110114727D01*
X110416977Y-110110219D01*
X110259781Y-109953023D01*
X110255273Y-109949866D01*
X110255270Y-109949864D01*
X110167874Y-109888669D01*
X110077677Y-109825512D01*
X110072695Y-109823189D01*
X110072690Y-109823186D01*
X109881178Y-109733883D01*
X109881177Y-109733882D01*
X109876196Y-109731560D01*
X109870888Y-109730138D01*
X109870886Y-109730137D01*
X109805051Y-109712497D01*
X109661463Y-109674022D01*
X109440000Y-109654647D01*
X109218537Y-109674022D01*
X109074949Y-109712497D01*
X109009114Y-109730137D01*
X109009112Y-109730138D01*
X109003804Y-109731560D01*
X108998823Y-109733882D01*
X108998822Y-109733883D01*
X108807311Y-109823186D01*
X108807306Y-109823189D01*
X108802324Y-109825512D01*
X108797817Y-109828668D01*
X108797815Y-109828669D01*
X108624730Y-109949864D01*
X108624727Y-109949866D01*
X108620219Y-109953023D01*
X108463023Y-110110219D01*
X108459866Y-110114727D01*
X108459864Y-110114730D01*
X108417852Y-110174730D01*
X108335512Y-110292324D01*
X108333189Y-110297306D01*
X108333186Y-110297311D01*
X108284195Y-110402373D01*
X108237277Y-110455658D01*
X108169000Y-110475119D01*
X108101040Y-110454577D01*
X108055805Y-110402373D01*
X108006814Y-110297311D01*
X108006811Y-110297306D01*
X108004488Y-110292324D01*
X107922148Y-110174730D01*
X107880136Y-110114730D01*
X107880134Y-110114727D01*
X107876977Y-110110219D01*
X107719781Y-109953023D01*
X107715273Y-109949866D01*
X107715270Y-109949864D01*
X107627874Y-109888669D01*
X107537677Y-109825512D01*
X107532695Y-109823189D01*
X107532690Y-109823186D01*
X107341178Y-109733883D01*
X107341177Y-109733882D01*
X107336196Y-109731560D01*
X107330888Y-109730138D01*
X107330886Y-109730137D01*
X107265051Y-109712497D01*
X107121463Y-109674022D01*
X106900000Y-109654647D01*
X106678537Y-109674022D01*
X106534949Y-109712497D01*
X106469114Y-109730137D01*
X106469112Y-109730138D01*
X106463804Y-109731560D01*
X106458823Y-109733882D01*
X106458822Y-109733883D01*
X106267311Y-109823186D01*
X106267306Y-109823189D01*
X106262324Y-109825512D01*
X106257817Y-109828668D01*
X106257815Y-109828669D01*
X106084730Y-109949864D01*
X106084727Y-109949866D01*
X106080219Y-109953023D01*
X105923023Y-110110219D01*
X105919866Y-110114727D01*
X105919864Y-110114730D01*
X105877852Y-110174730D01*
X105795512Y-110292324D01*
X105793189Y-110297306D01*
X105793186Y-110297311D01*
X105744195Y-110402373D01*
X105697277Y-110455658D01*
X105629000Y-110475119D01*
X105561040Y-110454577D01*
X105515805Y-110402373D01*
X105466814Y-110297311D01*
X105466811Y-110297306D01*
X105464488Y-110292324D01*
X105382148Y-110174730D01*
X105340136Y-110114730D01*
X105340134Y-110114727D01*
X105336977Y-110110219D01*
X105179781Y-109953023D01*
X105175273Y-109949866D01*
X105175270Y-109949864D01*
X105087874Y-109888669D01*
X104997677Y-109825512D01*
X104992695Y-109823189D01*
X104992690Y-109823186D01*
X104801178Y-109733883D01*
X104801177Y-109733882D01*
X104796196Y-109731560D01*
X104790888Y-109730138D01*
X104790886Y-109730137D01*
X104725051Y-109712497D01*
X104581463Y-109674022D01*
X104360000Y-109654647D01*
X104138537Y-109674022D01*
X103994949Y-109712497D01*
X103929114Y-109730137D01*
X103929112Y-109730138D01*
X103923804Y-109731560D01*
X103918823Y-109733882D01*
X103918822Y-109733883D01*
X103727311Y-109823186D01*
X103727306Y-109823189D01*
X103722324Y-109825512D01*
X103717817Y-109828668D01*
X103717815Y-109828669D01*
X103544730Y-109949864D01*
X103544727Y-109949866D01*
X103540219Y-109953023D01*
X103383023Y-110110219D01*
X103379866Y-110114727D01*
X103379864Y-110114730D01*
X103337852Y-110174730D01*
X103255512Y-110292324D01*
X103253189Y-110297306D01*
X103253186Y-110297311D01*
X103204195Y-110402373D01*
X103157277Y-110455658D01*
X103089000Y-110475119D01*
X103021040Y-110454577D01*
X102975805Y-110402373D01*
X102926814Y-110297311D01*
X102926811Y-110297306D01*
X102924488Y-110292324D01*
X102842148Y-110174730D01*
X102800136Y-110114730D01*
X102800134Y-110114727D01*
X102796977Y-110110219D01*
X102639781Y-109953023D01*
X102635273Y-109949866D01*
X102635270Y-109949864D01*
X102547874Y-109888669D01*
X102457677Y-109825512D01*
X102452695Y-109823189D01*
X102452690Y-109823186D01*
X102261178Y-109733883D01*
X102261177Y-109733882D01*
X102256196Y-109731560D01*
X102250888Y-109730138D01*
X102250886Y-109730137D01*
X102185051Y-109712497D01*
X102041463Y-109674022D01*
X101820000Y-109654647D01*
X101598537Y-109674022D01*
X101454949Y-109712497D01*
X101389114Y-109730137D01*
X101389112Y-109730138D01*
X101383804Y-109731560D01*
X101378823Y-109733882D01*
X101378822Y-109733883D01*
X101187311Y-109823186D01*
X101187306Y-109823189D01*
X101182324Y-109825512D01*
X101177817Y-109828668D01*
X101177815Y-109828669D01*
X101004730Y-109949864D01*
X101004727Y-109949866D01*
X101000219Y-109953023D01*
X100843023Y-110110219D01*
X100839866Y-110114727D01*
X100839864Y-110114730D01*
X100797852Y-110174730D01*
X100715512Y-110292324D01*
X100713189Y-110297306D01*
X100713186Y-110297311D01*
X100664195Y-110402373D01*
X100617277Y-110455658D01*
X100549000Y-110475119D01*
X100481040Y-110454577D01*
X100435805Y-110402373D01*
X100386814Y-110297311D01*
X100386811Y-110297306D01*
X100384488Y-110292324D01*
X100302148Y-110174730D01*
X100260136Y-110114730D01*
X100260134Y-110114727D01*
X100256977Y-110110219D01*
X100099781Y-109953023D01*
X100095273Y-109949866D01*
X100095270Y-109949864D01*
X100007874Y-109888669D01*
X99917677Y-109825512D01*
X99912695Y-109823189D01*
X99912690Y-109823186D01*
X99721178Y-109733883D01*
X99721177Y-109733882D01*
X99716196Y-109731560D01*
X99710888Y-109730138D01*
X99710886Y-109730137D01*
X99645051Y-109712497D01*
X99501463Y-109674022D01*
X99280000Y-109654647D01*
X99058537Y-109674022D01*
X98914949Y-109712497D01*
X98849114Y-109730137D01*
X98849112Y-109730138D01*
X98843804Y-109731560D01*
X98838823Y-109733882D01*
X98838822Y-109733883D01*
X98647311Y-109823186D01*
X98647306Y-109823189D01*
X98642324Y-109825512D01*
X98637817Y-109828668D01*
X98637815Y-109828669D01*
X98464730Y-109949864D01*
X98464727Y-109949866D01*
X98460219Y-109953023D01*
X98303023Y-110110219D01*
X98299866Y-110114727D01*
X98299864Y-110114730D01*
X98257852Y-110174730D01*
X98175512Y-110292324D01*
X98173189Y-110297306D01*
X98173186Y-110297311D01*
X98149636Y-110347815D01*
X98081560Y-110493804D01*
X98080138Y-110499112D01*
X98080137Y-110499114D01*
X98065483Y-110553804D01*
X98024022Y-110708537D01*
X98004647Y-110930000D01*
X98024022Y-111151463D01*
X98081560Y-111366196D01*
X98083882Y-111371177D01*
X98083883Y-111371178D01*
X98173186Y-111562689D01*
X98173189Y-111562694D01*
X98175512Y-111567676D01*
X98178668Y-111572183D01*
X98178669Y-111572185D01*
X98220682Y-111632185D01*
X98303023Y-111749781D01*
X98460219Y-111906977D01*
X98464727Y-111910134D01*
X98464730Y-111910136D01*
X98540342Y-111963080D01*
X98642323Y-112034488D01*
X98647305Y-112036811D01*
X98647310Y-112036814D01*
X98838822Y-112126117D01*
X98843804Y-112128440D01*
X98849112Y-112129862D01*
X98849114Y-112129863D01*
X98910238Y-112146241D01*
X99058537Y-112185978D01*
X99280000Y-112205353D01*
X99501463Y-112185978D01*
X99649762Y-112146241D01*
X99710886Y-112129863D01*
X99710888Y-112129862D01*
X99716196Y-112128440D01*
X99721178Y-112126117D01*
X99912690Y-112036814D01*
X99912695Y-112036811D01*
X99917677Y-112034488D01*
X100019658Y-111963080D01*
X100095270Y-111910136D01*
X100095273Y-111910134D01*
X100099781Y-111906977D01*
X100256977Y-111749781D01*
X100339319Y-111632185D01*
X100381331Y-111572185D01*
X100381332Y-111572183D01*
X100384488Y-111567676D01*
X100386811Y-111562694D01*
X100386814Y-111562689D01*
X100435805Y-111457627D01*
X100482723Y-111404342D01*
X100551000Y-111384881D01*
X100618960Y-111405423D01*
X100664195Y-111457627D01*
X100713186Y-111562689D01*
X100713189Y-111562694D01*
X100715512Y-111567676D01*
X100718668Y-111572183D01*
X100718669Y-111572185D01*
X100760682Y-111632185D01*
X100843023Y-111749781D01*
X101000219Y-111906977D01*
X101004727Y-111910134D01*
X101004730Y-111910136D01*
X101080342Y-111963080D01*
X101182323Y-112034488D01*
X101187305Y-112036811D01*
X101187310Y-112036814D01*
X101378822Y-112126117D01*
X101383804Y-112128440D01*
X101389112Y-112129862D01*
X101389114Y-112129863D01*
X101450238Y-112146241D01*
X101598537Y-112185978D01*
X101820000Y-112205353D01*
X102041463Y-112185978D01*
X102189762Y-112146241D01*
X102250886Y-112129863D01*
X102250888Y-112129862D01*
X102256196Y-112128440D01*
X102261178Y-112126117D01*
X102452690Y-112036814D01*
X102452695Y-112036811D01*
X102457677Y-112034488D01*
X102559658Y-111963080D01*
X102635270Y-111910136D01*
X102635273Y-111910134D01*
X102639781Y-111906977D01*
X102796977Y-111749781D01*
X102879319Y-111632185D01*
X102921331Y-111572185D01*
X102921332Y-111572183D01*
X102924488Y-111567676D01*
X102926811Y-111562694D01*
X102926814Y-111562689D01*
X102975805Y-111457627D01*
X103022723Y-111404342D01*
X103091000Y-111384881D01*
X103158960Y-111405423D01*
X103204195Y-111457627D01*
X103253186Y-111562689D01*
X103253189Y-111562694D01*
X103255512Y-111567676D01*
X103258668Y-111572183D01*
X103258669Y-111572185D01*
X103300682Y-111632185D01*
X103383023Y-111749781D01*
X103540219Y-111906977D01*
X103544727Y-111910134D01*
X103544730Y-111910136D01*
X103620342Y-111963080D01*
X103722323Y-112034488D01*
X103727305Y-112036811D01*
X103727310Y-112036814D01*
X103918822Y-112126117D01*
X103923804Y-112128440D01*
X103929112Y-112129862D01*
X103929114Y-112129863D01*
X103990238Y-112146241D01*
X104138537Y-112185978D01*
X104360000Y-112205353D01*
X104581463Y-112185978D01*
X104729762Y-112146241D01*
X104790886Y-112129863D01*
X104790888Y-112129862D01*
X104796196Y-112128440D01*
X104801178Y-112126117D01*
X104992690Y-112036814D01*
X104992695Y-112036811D01*
X104997677Y-112034488D01*
X105099658Y-111963080D01*
X105175270Y-111910136D01*
X105175273Y-111910134D01*
X105179781Y-111906977D01*
X105336977Y-111749781D01*
X105419319Y-111632185D01*
X105461331Y-111572185D01*
X105461332Y-111572183D01*
X105464488Y-111567676D01*
X105466811Y-111562694D01*
X105466814Y-111562689D01*
X105515805Y-111457627D01*
X105562723Y-111404342D01*
X105631000Y-111384881D01*
X105698960Y-111405423D01*
X105744195Y-111457627D01*
X105793186Y-111562689D01*
X105793189Y-111562694D01*
X105795512Y-111567676D01*
X105798668Y-111572183D01*
X105798669Y-111572185D01*
X105840682Y-111632185D01*
X105923023Y-111749781D01*
X106080219Y-111906977D01*
X106084727Y-111910134D01*
X106084730Y-111910136D01*
X106160342Y-111963080D01*
X106262323Y-112034488D01*
X106267305Y-112036811D01*
X106267310Y-112036814D01*
X106458822Y-112126117D01*
X106463804Y-112128440D01*
X106469112Y-112129862D01*
X106469114Y-112129863D01*
X106530238Y-112146241D01*
X106678537Y-112185978D01*
X106900000Y-112205353D01*
X107121463Y-112185978D01*
X107269762Y-112146241D01*
X107330886Y-112129863D01*
X107330888Y-112129862D01*
X107336196Y-112128440D01*
X107341178Y-112126117D01*
X107532690Y-112036814D01*
X107532695Y-112036811D01*
X107537677Y-112034488D01*
X107639658Y-111963080D01*
X107715270Y-111910136D01*
X107715273Y-111910134D01*
X107719781Y-111906977D01*
X107876977Y-111749781D01*
X107959319Y-111632185D01*
X108001331Y-111572185D01*
X108001332Y-111572183D01*
X108004488Y-111567676D01*
X108006811Y-111562694D01*
X108006814Y-111562689D01*
X108055805Y-111457627D01*
X108102723Y-111404342D01*
X108171000Y-111384881D01*
X108238960Y-111405423D01*
X108284195Y-111457627D01*
X108333186Y-111562689D01*
X108333189Y-111562694D01*
X108335512Y-111567676D01*
X108338668Y-111572183D01*
X108338669Y-111572185D01*
X108380682Y-111632185D01*
X108463023Y-111749781D01*
X108620219Y-111906977D01*
X108624727Y-111910134D01*
X108624730Y-111910136D01*
X108700342Y-111963080D01*
X108802323Y-112034488D01*
X108807305Y-112036811D01*
X108807310Y-112036814D01*
X108998822Y-112126117D01*
X109003804Y-112128440D01*
X109009112Y-112129862D01*
X109009114Y-112129863D01*
X109070238Y-112146241D01*
X109218537Y-112185978D01*
X109440000Y-112205353D01*
X109661463Y-112185978D01*
X109809762Y-112146241D01*
X109870886Y-112129863D01*
X109870888Y-112129862D01*
X109876196Y-112128440D01*
X109881178Y-112126117D01*
X110072690Y-112036814D01*
X110072695Y-112036811D01*
X110077677Y-112034488D01*
X110179658Y-111963080D01*
X110255270Y-111910136D01*
X110255273Y-111910134D01*
X110259781Y-111906977D01*
X110416977Y-111749781D01*
X110499319Y-111632185D01*
X110541331Y-111572185D01*
X110541332Y-111572183D01*
X110544488Y-111567676D01*
X110546811Y-111562694D01*
X110546814Y-111562689D01*
X110595805Y-111457627D01*
X110642723Y-111404342D01*
X110711000Y-111384881D01*
X110778960Y-111405423D01*
X110824195Y-111457627D01*
X110873186Y-111562689D01*
X110873189Y-111562694D01*
X110875512Y-111567676D01*
X110878668Y-111572183D01*
X110878669Y-111572185D01*
X110920682Y-111632185D01*
X111003023Y-111749781D01*
X111160219Y-111906977D01*
X111164727Y-111910134D01*
X111164730Y-111910136D01*
X111240342Y-111963080D01*
X111342323Y-112034488D01*
X111347305Y-112036811D01*
X111347310Y-112036814D01*
X111538822Y-112126117D01*
X111543804Y-112128440D01*
X111549112Y-112129862D01*
X111549114Y-112129863D01*
X111610238Y-112146241D01*
X111758537Y-112185978D01*
X111980000Y-112205353D01*
X112201463Y-112185978D01*
X112349762Y-112146241D01*
X112410886Y-112129863D01*
X112410888Y-112129862D01*
X112416196Y-112128440D01*
X112421178Y-112126117D01*
X112612690Y-112036814D01*
X112612695Y-112036811D01*
X112617677Y-112034488D01*
X112719658Y-111963080D01*
X112795270Y-111910136D01*
X112795273Y-111910134D01*
X112799781Y-111906977D01*
X112956977Y-111749781D01*
X113039319Y-111632185D01*
X113081331Y-111572185D01*
X113081332Y-111572183D01*
X113084488Y-111567676D01*
X113086811Y-111562694D01*
X113086814Y-111562689D01*
X113135805Y-111457627D01*
X113182723Y-111404342D01*
X113251000Y-111384881D01*
X113318960Y-111405423D01*
X113364195Y-111457627D01*
X113413186Y-111562689D01*
X113413189Y-111562694D01*
X113415512Y-111567676D01*
X113418668Y-111572183D01*
X113418669Y-111572185D01*
X113460682Y-111632185D01*
X113543023Y-111749781D01*
X113700219Y-111906977D01*
X113704727Y-111910134D01*
X113704730Y-111910136D01*
X113780342Y-111963080D01*
X113882323Y-112034488D01*
X113887305Y-112036811D01*
X113887310Y-112036814D01*
X114078822Y-112126117D01*
X114083804Y-112128440D01*
X114089112Y-112129862D01*
X114089114Y-112129863D01*
X114150238Y-112146241D01*
X114298537Y-112185978D01*
X114520000Y-112205353D01*
X114741463Y-112185978D01*
X114889762Y-112146241D01*
X114950886Y-112129863D01*
X114950888Y-112129862D01*
X114956196Y-112128440D01*
X114961178Y-112126117D01*
X115152690Y-112036814D01*
X115152695Y-112036811D01*
X115157677Y-112034488D01*
X115259658Y-111963080D01*
X115335270Y-111910136D01*
X115335273Y-111910134D01*
X115339781Y-111906977D01*
X115496977Y-111749781D01*
X115579319Y-111632185D01*
X115621331Y-111572185D01*
X115621332Y-111572183D01*
X115624488Y-111567676D01*
X115626811Y-111562694D01*
X115626814Y-111562689D01*
X115675805Y-111457627D01*
X115722723Y-111404342D01*
X115791000Y-111384881D01*
X115858960Y-111405423D01*
X115904195Y-111457627D01*
X115953186Y-111562689D01*
X115953189Y-111562694D01*
X115955512Y-111567676D01*
X115958668Y-111572183D01*
X115958669Y-111572185D01*
X116000682Y-111632185D01*
X116083023Y-111749781D01*
X116240219Y-111906977D01*
X116244727Y-111910134D01*
X116244730Y-111910136D01*
X116320342Y-111963080D01*
X116422323Y-112034488D01*
X116427305Y-112036811D01*
X116427310Y-112036814D01*
X116618822Y-112126117D01*
X116623804Y-112128440D01*
X116629112Y-112129862D01*
X116629114Y-112129863D01*
X116690238Y-112146241D01*
X116838537Y-112185978D01*
X117060000Y-112205353D01*
X117281463Y-112185978D01*
X117429762Y-112146241D01*
X117490886Y-112129863D01*
X117490888Y-112129862D01*
X117496196Y-112128440D01*
X117501178Y-112126117D01*
X117692690Y-112036814D01*
X117692695Y-112036811D01*
X117697677Y-112034488D01*
X117799658Y-111963080D01*
X117875270Y-111910136D01*
X117875273Y-111910134D01*
X117879781Y-111906977D01*
X118036977Y-111749781D01*
X118119319Y-111632185D01*
X118161331Y-111572185D01*
X118161332Y-111572183D01*
X118164488Y-111567676D01*
X118166811Y-111562694D01*
X118166814Y-111562689D01*
X118215805Y-111457627D01*
X118262723Y-111404342D01*
X118331000Y-111384881D01*
X118398960Y-111405423D01*
X118444195Y-111457627D01*
X118493186Y-111562689D01*
X118493189Y-111562694D01*
X118495512Y-111567676D01*
X118498668Y-111572183D01*
X118498669Y-111572185D01*
X118540682Y-111632185D01*
X118623023Y-111749781D01*
X118780219Y-111906977D01*
X118784727Y-111910134D01*
X118784730Y-111910136D01*
X118860342Y-111963080D01*
X118962323Y-112034488D01*
X118967305Y-112036811D01*
X118967310Y-112036814D01*
X119158822Y-112126117D01*
X119163804Y-112128440D01*
X119169112Y-112129862D01*
X119169114Y-112129863D01*
X119230238Y-112146241D01*
X119378537Y-112185978D01*
X119600000Y-112205353D01*
X119821463Y-112185978D01*
X119969762Y-112146241D01*
X120030886Y-112129863D01*
X120030888Y-112129862D01*
X120036196Y-112128440D01*
X120041178Y-112126117D01*
X120232690Y-112036814D01*
X120232695Y-112036811D01*
X120237677Y-112034488D01*
X120339658Y-111963080D01*
X120415270Y-111910136D01*
X120415273Y-111910134D01*
X120419781Y-111906977D01*
X120576977Y-111749781D01*
X120659319Y-111632185D01*
X120701331Y-111572185D01*
X120701332Y-111572183D01*
X120704488Y-111567676D01*
X120706811Y-111562694D01*
X120706814Y-111562689D01*
X120755805Y-111457627D01*
X120802723Y-111404342D01*
X120871000Y-111384881D01*
X120938960Y-111405423D01*
X120984195Y-111457627D01*
X121033186Y-111562689D01*
X121033189Y-111562694D01*
X121035512Y-111567676D01*
X121038668Y-111572183D01*
X121038669Y-111572185D01*
X121080682Y-111632185D01*
X121163023Y-111749781D01*
X121320219Y-111906977D01*
X121324727Y-111910134D01*
X121324730Y-111910136D01*
X121400342Y-111963080D01*
X121502323Y-112034488D01*
X121507305Y-112036811D01*
X121507310Y-112036814D01*
X121698822Y-112126117D01*
X121703804Y-112128440D01*
X121709112Y-112129862D01*
X121709114Y-112129863D01*
X121770238Y-112146241D01*
X121918537Y-112185978D01*
X122140000Y-112205353D01*
X122361463Y-112185978D01*
X122509762Y-112146241D01*
X122570886Y-112129863D01*
X122570888Y-112129862D01*
X122576196Y-112128440D01*
X122581178Y-112126117D01*
X122772690Y-112036814D01*
X122772695Y-112036811D01*
X122777677Y-112034488D01*
X122879658Y-111963080D01*
X122955270Y-111910136D01*
X122955273Y-111910134D01*
X122959781Y-111906977D01*
X123116977Y-111749781D01*
X123199319Y-111632185D01*
X123241331Y-111572185D01*
X123241332Y-111572183D01*
X123244488Y-111567676D01*
X123246811Y-111562694D01*
X123246814Y-111562689D01*
X123261815Y-111530518D01*
X123308732Y-111477233D01*
X123377009Y-111457772D01*
X123444969Y-111478314D01*
X123490205Y-111530518D01*
X123533185Y-111622689D01*
X123533188Y-111622694D01*
X123535511Y-111627676D01*
X123538667Y-111632183D01*
X123538668Y-111632185D01*
X123621010Y-111749781D01*
X123663022Y-111809781D01*
X123820218Y-111966977D01*
X123824726Y-111970134D01*
X123824729Y-111970136D01*
X123900494Y-112023187D01*
X124002322Y-112094488D01*
X124007304Y-112096811D01*
X124007309Y-112096814D01*
X124198523Y-112185978D01*
X124203803Y-112188440D01*
X124209111Y-112189862D01*
X124209113Y-112189863D01*
X124212935Y-112190887D01*
X124418536Y-112245978D01*
X124639999Y-112265353D01*
X124861462Y-112245978D01*
X125067063Y-112190887D01*
X125070885Y-112189863D01*
X125070887Y-112189862D01*
X125076195Y-112188440D01*
X125081475Y-112185978D01*
X125272689Y-112096814D01*
X125272694Y-112096811D01*
X125277676Y-112094488D01*
X125379504Y-112023187D01*
X125455269Y-111970136D01*
X125455272Y-111970134D01*
X125459780Y-111966977D01*
X125616976Y-111809781D01*
X125658989Y-111749781D01*
X125741330Y-111632185D01*
X125741331Y-111632183D01*
X125744487Y-111627676D01*
X125746810Y-111622694D01*
X125746813Y-111622689D01*
X125815804Y-111474737D01*
X125862722Y-111421452D01*
X125930999Y-111401991D01*
X125998959Y-111422533D01*
X126044194Y-111474737D01*
X126113185Y-111622689D01*
X126113188Y-111622694D01*
X126115511Y-111627676D01*
X126118667Y-111632183D01*
X126118668Y-111632185D01*
X126201010Y-111749781D01*
X126243022Y-111809781D01*
X126400218Y-111966977D01*
X126404726Y-111970134D01*
X126404729Y-111970136D01*
X126480494Y-112023187D01*
X126582322Y-112094488D01*
X126587304Y-112096811D01*
X126587309Y-112096814D01*
X126778523Y-112185978D01*
X126783803Y-112188440D01*
X126789111Y-112189862D01*
X126789113Y-112189863D01*
X126792935Y-112190887D01*
X126998536Y-112245978D01*
X127219999Y-112265353D01*
X127441462Y-112245978D01*
X127647063Y-112190887D01*
X127650885Y-112189863D01*
X127650887Y-112189862D01*
X127656195Y-112188440D01*
X127661475Y-112185978D01*
X127852689Y-112096814D01*
X127852694Y-112096811D01*
X127857676Y-112094488D01*
X127959504Y-112023187D01*
X128035269Y-111970136D01*
X128035272Y-111970134D01*
X128039780Y-111966977D01*
X128196976Y-111809781D01*
X128238989Y-111749781D01*
X128321330Y-111632185D01*
X128321331Y-111632183D01*
X128324487Y-111627676D01*
X128326810Y-111622694D01*
X128326813Y-111622689D01*
X128389794Y-111487626D01*
X128436712Y-111434341D01*
X128504989Y-111414880D01*
X128572949Y-111435422D01*
X128618184Y-111487626D01*
X128653186Y-111562689D01*
X128653189Y-111562694D01*
X128655512Y-111567676D01*
X128658668Y-111572183D01*
X128658669Y-111572185D01*
X128700682Y-111632185D01*
X128783023Y-111749781D01*
X128940219Y-111906977D01*
X128944727Y-111910134D01*
X128944730Y-111910136D01*
X129020342Y-111963080D01*
X129122323Y-112034488D01*
X129127305Y-112036811D01*
X129127310Y-112036814D01*
X129318822Y-112126117D01*
X129323804Y-112128440D01*
X129329112Y-112129862D01*
X129329114Y-112129863D01*
X129390238Y-112146241D01*
X129538537Y-112185978D01*
X129760000Y-112205353D01*
X129981463Y-112185978D01*
X130129762Y-112146241D01*
X130190886Y-112129863D01*
X130190888Y-112129862D01*
X130196196Y-112128440D01*
X130201178Y-112126117D01*
X130392690Y-112036814D01*
X130392695Y-112036811D01*
X130397677Y-112034488D01*
X130499658Y-111963080D01*
X130575270Y-111910136D01*
X130575273Y-111910134D01*
X130579781Y-111906977D01*
X130736977Y-111749781D01*
X130819319Y-111632185D01*
X130861331Y-111572185D01*
X130861332Y-111572183D01*
X130864488Y-111567676D01*
X130866811Y-111562694D01*
X130866814Y-111562689D01*
X130915805Y-111457627D01*
X130962723Y-111404342D01*
X131031000Y-111384881D01*
X131098960Y-111405423D01*
X131144195Y-111457627D01*
X131193186Y-111562689D01*
X131193189Y-111562694D01*
X131195512Y-111567676D01*
X131198668Y-111572183D01*
X131198669Y-111572185D01*
X131240682Y-111632185D01*
X131323023Y-111749781D01*
X131480219Y-111906977D01*
X131484727Y-111910134D01*
X131484730Y-111910136D01*
X131560342Y-111963080D01*
X131662323Y-112034488D01*
X131667305Y-112036811D01*
X131667310Y-112036814D01*
X131858822Y-112126117D01*
X131863804Y-112128440D01*
X131869112Y-112129862D01*
X131869114Y-112129863D01*
X131889788Y-112135402D01*
X131930240Y-112146242D01*
X131990862Y-112183193D01*
X132021883Y-112247053D01*
X132013455Y-112317548D01*
X131986723Y-112357043D01*
X130829171Y-113514595D01*
X130766859Y-113548621D01*
X130740076Y-113551500D01*
X101321842Y-113551500D01*
X101308235Y-113550763D01*
X101276737Y-113547341D01*
X101276732Y-113547341D01*
X101270611Y-113546676D01*
X101252611Y-113548251D01*
X101220609Y-113551050D01*
X101215784Y-113551379D01*
X101213313Y-113551500D01*
X101210231Y-113551500D01*
X101187763Y-113553703D01*
X101167489Y-113555691D01*
X101166174Y-113555813D01*
X101133913Y-113558636D01*
X101073587Y-113563913D01*
X101068468Y-113565400D01*
X101063167Y-113565920D01*
X100974166Y-113592791D01*
X100973033Y-113593126D01*
X100889586Y-113617370D01*
X100889582Y-113617372D01*
X100883664Y-113619091D01*
X100878932Y-113621544D01*
X100873831Y-113623084D01*
X100868388Y-113625978D01*
X100791740Y-113666731D01*
X100790574Y-113667343D01*
X100713547Y-113707271D01*
X100708074Y-113710108D01*
X100703911Y-113713431D01*
X100699204Y-113715934D01*
X100627082Y-113774755D01*
X100626226Y-113775446D01*
X100587027Y-113806738D01*
X100584523Y-113809242D01*
X100583805Y-113809884D01*
X100579472Y-113813585D01*
X100545938Y-113840935D01*
X100542011Y-113845682D01*
X100542009Y-113845684D01*
X100516713Y-113876262D01*
X100508723Y-113885042D01*
X95807082Y-118586684D01*
X95744770Y-118620710D01*
X95728964Y-118623110D01*
X95728513Y-118623149D01*
X95724017Y-118623542D01*
X95724010Y-118623543D01*
X95718537Y-118624022D01*
X95713229Y-118625444D01*
X95713225Y-118625445D01*
X95509114Y-118680137D01*
X95509112Y-118680138D01*
X95503804Y-118681560D01*
X95498823Y-118683882D01*
X95498822Y-118683883D01*
X95307311Y-118773186D01*
X95307306Y-118773189D01*
X95302324Y-118775512D01*
X95297817Y-118778668D01*
X95297815Y-118778669D01*
X95124730Y-118899864D01*
X95124727Y-118899866D01*
X95120219Y-118903023D01*
X94963023Y-119060219D01*
X94959866Y-119064727D01*
X94959864Y-119064730D01*
X94838669Y-119237815D01*
X94835512Y-119242324D01*
X94833189Y-119247306D01*
X94833186Y-119247311D01*
X94771646Y-119379285D01*
X94741560Y-119443804D01*
X94740138Y-119449112D01*
X94740137Y-119449114D01*
X94729574Y-119488537D01*
X94684022Y-119658537D01*
X94664647Y-119880000D01*
X79608000Y-119880000D01*
X79608000Y-89128777D01*
X98585777Y-89128777D01*
X98595074Y-89140793D01*
X98638069Y-89170898D01*
X98647555Y-89176376D01*
X98838993Y-89265645D01*
X98849285Y-89269391D01*
X99053309Y-89324059D01*
X99064104Y-89325962D01*
X99274525Y-89344372D01*
X99285475Y-89344372D01*
X99495896Y-89325962D01*
X99506691Y-89324059D01*
X99710715Y-89269391D01*
X99721007Y-89265645D01*
X99912445Y-89176376D01*
X99921931Y-89170898D01*
X99965764Y-89140207D01*
X99974139Y-89129729D01*
X99967071Y-89116281D01*
X99292812Y-88442022D01*
X99278868Y-88434408D01*
X99277035Y-88434539D01*
X99270420Y-88438790D01*
X98592207Y-89117003D01*
X98585777Y-89128777D01*
X79608000Y-89128777D01*
X79608000Y-88075475D01*
X98005628Y-88075475D01*
X98024038Y-88285896D01*
X98025941Y-88296691D01*
X98080609Y-88500715D01*
X98084355Y-88511007D01*
X98173623Y-88702441D01*
X98179103Y-88711932D01*
X98209794Y-88755765D01*
X98220271Y-88764140D01*
X98233718Y-88757072D01*
X98907978Y-88082812D01*
X98914356Y-88071132D01*
X99644408Y-88071132D01*
X99644539Y-88072965D01*
X99648790Y-88079580D01*
X100327003Y-88757793D01*
X100338777Y-88764223D01*
X100350793Y-88754926D01*
X100380897Y-88711932D01*
X100386377Y-88702441D01*
X100435529Y-88597035D01*
X100482447Y-88543750D01*
X100550724Y-88524289D01*
X100618684Y-88544831D01*
X100663919Y-88597035D01*
X100713186Y-88702689D01*
X100713189Y-88702694D01*
X100715512Y-88707676D01*
X100718668Y-88712183D01*
X100718669Y-88712185D01*
X100760682Y-88772185D01*
X100843023Y-88889781D01*
X101000219Y-89046977D01*
X101004727Y-89050134D01*
X101004730Y-89050136D01*
X101080342Y-89103080D01*
X101182323Y-89174488D01*
X101187305Y-89176811D01*
X101187310Y-89176814D01*
X101377810Y-89265645D01*
X101383804Y-89268440D01*
X101389112Y-89269862D01*
X101389114Y-89269863D01*
X101454949Y-89287503D01*
X101598537Y-89325978D01*
X101820000Y-89345353D01*
X102041463Y-89325978D01*
X102185051Y-89287503D01*
X102250886Y-89269863D01*
X102250888Y-89269862D01*
X102256196Y-89268440D01*
X102262190Y-89265645D01*
X102452690Y-89176814D01*
X102452695Y-89176811D01*
X102457677Y-89174488D01*
X102559658Y-89103080D01*
X102635270Y-89050136D01*
X102635273Y-89050134D01*
X102639781Y-89046977D01*
X102796977Y-88889781D01*
X102879319Y-88772185D01*
X102921331Y-88712185D01*
X102921332Y-88712183D01*
X102924488Y-88707676D01*
X102926811Y-88702694D01*
X102926814Y-88702689D01*
X102975805Y-88597627D01*
X103022723Y-88544342D01*
X103091000Y-88524881D01*
X103158960Y-88545423D01*
X103204195Y-88597627D01*
X103253186Y-88702689D01*
X103253189Y-88702694D01*
X103255512Y-88707676D01*
X103258668Y-88712183D01*
X103258669Y-88712185D01*
X103300682Y-88772185D01*
X103383023Y-88889781D01*
X103540219Y-89046977D01*
X103544727Y-89050134D01*
X103544730Y-89050136D01*
X103620342Y-89103080D01*
X103722323Y-89174488D01*
X103727305Y-89176811D01*
X103727310Y-89176814D01*
X103917810Y-89265645D01*
X103923804Y-89268440D01*
X103929112Y-89269862D01*
X103929114Y-89269863D01*
X103994949Y-89287503D01*
X104138537Y-89325978D01*
X104360000Y-89345353D01*
X104581463Y-89325978D01*
X104725051Y-89287503D01*
X104790886Y-89269863D01*
X104790888Y-89269862D01*
X104796196Y-89268440D01*
X104802190Y-89265645D01*
X104992690Y-89176814D01*
X104992695Y-89176811D01*
X104997677Y-89174488D01*
X105099658Y-89103080D01*
X105175270Y-89050136D01*
X105175273Y-89050134D01*
X105179781Y-89046977D01*
X105336977Y-88889781D01*
X105419319Y-88772185D01*
X105461331Y-88712185D01*
X105461332Y-88712183D01*
X105464488Y-88707676D01*
X105466811Y-88702694D01*
X105466814Y-88702689D01*
X105515805Y-88597627D01*
X105562723Y-88544342D01*
X105631000Y-88524881D01*
X105698960Y-88545423D01*
X105744195Y-88597627D01*
X105793186Y-88702689D01*
X105793189Y-88702694D01*
X105795512Y-88707676D01*
X105798668Y-88712183D01*
X105798669Y-88712185D01*
X105840682Y-88772185D01*
X105923023Y-88889781D01*
X106080219Y-89046977D01*
X106084727Y-89050134D01*
X106084730Y-89050136D01*
X106160342Y-89103080D01*
X106262323Y-89174488D01*
X106267305Y-89176811D01*
X106267310Y-89176814D01*
X106457810Y-89265645D01*
X106463804Y-89268440D01*
X106469112Y-89269862D01*
X106469114Y-89269863D01*
X106534949Y-89287503D01*
X106678537Y-89325978D01*
X106900000Y-89345353D01*
X107121463Y-89325978D01*
X107265051Y-89287503D01*
X107330886Y-89269863D01*
X107330888Y-89269862D01*
X107336196Y-89268440D01*
X107342190Y-89265645D01*
X107532690Y-89176814D01*
X107532695Y-89176811D01*
X107537677Y-89174488D01*
X107639658Y-89103080D01*
X107715270Y-89050136D01*
X107715273Y-89050134D01*
X107719781Y-89046977D01*
X107876977Y-88889781D01*
X107959319Y-88772185D01*
X108001331Y-88712185D01*
X108001332Y-88712183D01*
X108004488Y-88707676D01*
X108006811Y-88702694D01*
X108006814Y-88702689D01*
X108055805Y-88597627D01*
X108102723Y-88544342D01*
X108171000Y-88524881D01*
X108238960Y-88545423D01*
X108284195Y-88597627D01*
X108333186Y-88702689D01*
X108333189Y-88702694D01*
X108335512Y-88707676D01*
X108338668Y-88712183D01*
X108338669Y-88712185D01*
X108380682Y-88772185D01*
X108463023Y-88889781D01*
X108620219Y-89046977D01*
X108624727Y-89050134D01*
X108624730Y-89050136D01*
X108700342Y-89103080D01*
X108802323Y-89174488D01*
X108807305Y-89176811D01*
X108807310Y-89176814D01*
X108997810Y-89265645D01*
X109003804Y-89268440D01*
X109009112Y-89269862D01*
X109009114Y-89269863D01*
X109074949Y-89287503D01*
X109218537Y-89325978D01*
X109440000Y-89345353D01*
X109661463Y-89325978D01*
X109805051Y-89287503D01*
X109870886Y-89269863D01*
X109870888Y-89269862D01*
X109876196Y-89268440D01*
X109882190Y-89265645D01*
X110072690Y-89176814D01*
X110072695Y-89176811D01*
X110077677Y-89174488D01*
X110179658Y-89103080D01*
X110255270Y-89050136D01*
X110255273Y-89050134D01*
X110259781Y-89046977D01*
X110416977Y-88889781D01*
X110499319Y-88772185D01*
X110541331Y-88712185D01*
X110541332Y-88712183D01*
X110544488Y-88707676D01*
X110546811Y-88702694D01*
X110546814Y-88702689D01*
X110595805Y-88597627D01*
X110642723Y-88544342D01*
X110711000Y-88524881D01*
X110778960Y-88545423D01*
X110824195Y-88597627D01*
X110873186Y-88702689D01*
X110873189Y-88702694D01*
X110875512Y-88707676D01*
X110878668Y-88712183D01*
X110878669Y-88712185D01*
X110920682Y-88772185D01*
X111003023Y-88889781D01*
X111160219Y-89046977D01*
X111164727Y-89050134D01*
X111164730Y-89050136D01*
X111240342Y-89103080D01*
X111342323Y-89174488D01*
X111347305Y-89176811D01*
X111347310Y-89176814D01*
X111537810Y-89265645D01*
X111543804Y-89268440D01*
X111549112Y-89269862D01*
X111549114Y-89269863D01*
X111614949Y-89287503D01*
X111758537Y-89325978D01*
X111980000Y-89345353D01*
X112201463Y-89325978D01*
X112345051Y-89287503D01*
X112410886Y-89269863D01*
X112410888Y-89269862D01*
X112416196Y-89268440D01*
X112422190Y-89265645D01*
X112612690Y-89176814D01*
X112612695Y-89176811D01*
X112617677Y-89174488D01*
X112719658Y-89103080D01*
X112795270Y-89050136D01*
X112795273Y-89050134D01*
X112799781Y-89046977D01*
X112956977Y-88889781D01*
X113039319Y-88772185D01*
X113081331Y-88712185D01*
X113081332Y-88712183D01*
X113084488Y-88707676D01*
X113086811Y-88702694D01*
X113086814Y-88702689D01*
X113135805Y-88597627D01*
X113182723Y-88544342D01*
X113251000Y-88524881D01*
X113318960Y-88545423D01*
X113364195Y-88597627D01*
X113413186Y-88702689D01*
X113413189Y-88702694D01*
X113415512Y-88707676D01*
X113418668Y-88712183D01*
X113418669Y-88712185D01*
X113460682Y-88772185D01*
X113543023Y-88889781D01*
X113700219Y-89046977D01*
X113704727Y-89050134D01*
X113704730Y-89050136D01*
X113780342Y-89103080D01*
X113882323Y-89174488D01*
X113887305Y-89176811D01*
X113887310Y-89176814D01*
X114077810Y-89265645D01*
X114083804Y-89268440D01*
X114089112Y-89269862D01*
X114089114Y-89269863D01*
X114154949Y-89287503D01*
X114298537Y-89325978D01*
X114520000Y-89345353D01*
X114741463Y-89325978D01*
X114885051Y-89287503D01*
X114950886Y-89269863D01*
X114950888Y-89269862D01*
X114956196Y-89268440D01*
X114962190Y-89265645D01*
X115152690Y-89176814D01*
X115152695Y-89176811D01*
X115157677Y-89174488D01*
X115259658Y-89103080D01*
X115335270Y-89050136D01*
X115335273Y-89050134D01*
X115339781Y-89046977D01*
X115496977Y-88889781D01*
X115579319Y-88772185D01*
X115621331Y-88712185D01*
X115621332Y-88712183D01*
X115624488Y-88707676D01*
X115626811Y-88702694D01*
X115626814Y-88702689D01*
X115675805Y-88597627D01*
X115722723Y-88544342D01*
X115791000Y-88524881D01*
X115858960Y-88545423D01*
X115904195Y-88597627D01*
X115953186Y-88702689D01*
X115953189Y-88702694D01*
X115955512Y-88707676D01*
X115958668Y-88712183D01*
X115958669Y-88712185D01*
X116000682Y-88772185D01*
X116083023Y-88889781D01*
X116240219Y-89046977D01*
X116244727Y-89050134D01*
X116244730Y-89050136D01*
X116320342Y-89103080D01*
X116422323Y-89174488D01*
X116427305Y-89176811D01*
X116427310Y-89176814D01*
X116617810Y-89265645D01*
X116623804Y-89268440D01*
X116629112Y-89269862D01*
X116629114Y-89269863D01*
X116694949Y-89287503D01*
X116838537Y-89325978D01*
X117060000Y-89345353D01*
X117281463Y-89325978D01*
X117425051Y-89287503D01*
X117490886Y-89269863D01*
X117490888Y-89269862D01*
X117496196Y-89268440D01*
X117502190Y-89265645D01*
X117692690Y-89176814D01*
X117692695Y-89176811D01*
X117697677Y-89174488D01*
X117799658Y-89103080D01*
X117875270Y-89050136D01*
X117875273Y-89050134D01*
X117879781Y-89046977D01*
X118036977Y-88889781D01*
X118119319Y-88772185D01*
X118161331Y-88712185D01*
X118161332Y-88712183D01*
X118164488Y-88707676D01*
X118166811Y-88702694D01*
X118166814Y-88702689D01*
X118215805Y-88597627D01*
X118262723Y-88544342D01*
X118331000Y-88524881D01*
X118398960Y-88545423D01*
X118444195Y-88597627D01*
X118493186Y-88702689D01*
X118493189Y-88702694D01*
X118495512Y-88707676D01*
X118498668Y-88712183D01*
X118498669Y-88712185D01*
X118540682Y-88772185D01*
X118623023Y-88889781D01*
X118780219Y-89046977D01*
X118784727Y-89050134D01*
X118784730Y-89050136D01*
X118860342Y-89103080D01*
X118962323Y-89174488D01*
X118967305Y-89176811D01*
X118967310Y-89176814D01*
X119157810Y-89265645D01*
X119163804Y-89268440D01*
X119169112Y-89269862D01*
X119169114Y-89269863D01*
X119234949Y-89287503D01*
X119378537Y-89325978D01*
X119600000Y-89345353D01*
X119821463Y-89325978D01*
X119965051Y-89287503D01*
X120030886Y-89269863D01*
X120030888Y-89269862D01*
X120036196Y-89268440D01*
X120042190Y-89265645D01*
X120232690Y-89176814D01*
X120232695Y-89176811D01*
X120237677Y-89174488D01*
X120339658Y-89103080D01*
X120415270Y-89050136D01*
X120415273Y-89050134D01*
X120419781Y-89046977D01*
X120576977Y-88889781D01*
X120659319Y-88772185D01*
X120701331Y-88712185D01*
X120701332Y-88712183D01*
X120704488Y-88707676D01*
X120706811Y-88702694D01*
X120706814Y-88702689D01*
X120755805Y-88597627D01*
X120802723Y-88544342D01*
X120871000Y-88524881D01*
X120938960Y-88545423D01*
X120984195Y-88597627D01*
X121033186Y-88702689D01*
X121033189Y-88702694D01*
X121035512Y-88707676D01*
X121038668Y-88712183D01*
X121038669Y-88712185D01*
X121080682Y-88772185D01*
X121163023Y-88889781D01*
X121320219Y-89046977D01*
X121324727Y-89050134D01*
X121324730Y-89050136D01*
X121400342Y-89103080D01*
X121502323Y-89174488D01*
X121507305Y-89176811D01*
X121507310Y-89176814D01*
X121697810Y-89265645D01*
X121703804Y-89268440D01*
X121709112Y-89269862D01*
X121709114Y-89269863D01*
X121774949Y-89287503D01*
X121918537Y-89325978D01*
X122140000Y-89345353D01*
X122361463Y-89325978D01*
X122505051Y-89287503D01*
X122570886Y-89269863D01*
X122570888Y-89269862D01*
X122576196Y-89268440D01*
X122582190Y-89265645D01*
X122772690Y-89176814D01*
X122772695Y-89176811D01*
X122777677Y-89174488D01*
X122879658Y-89103080D01*
X122955270Y-89050136D01*
X122955273Y-89050134D01*
X122959781Y-89046977D01*
X123116977Y-88889781D01*
X123199319Y-88772185D01*
X123241331Y-88712185D01*
X123241332Y-88712183D01*
X123244488Y-88707676D01*
X123246811Y-88702694D01*
X123246814Y-88702689D01*
X123261815Y-88670518D01*
X123308732Y-88617233D01*
X123377009Y-88597772D01*
X123444969Y-88618314D01*
X123490205Y-88670518D01*
X123533185Y-88762689D01*
X123533188Y-88762694D01*
X123535511Y-88767676D01*
X123538667Y-88772183D01*
X123538668Y-88772185D01*
X123621010Y-88889781D01*
X123663022Y-88949781D01*
X123820218Y-89106977D01*
X123824726Y-89110134D01*
X123824729Y-89110136D01*
X123852711Y-89129729D01*
X124002322Y-89234488D01*
X124007304Y-89236811D01*
X124007309Y-89236814D01*
X124194408Y-89324059D01*
X124203803Y-89328440D01*
X124209111Y-89329862D01*
X124209113Y-89329863D01*
X124265135Y-89344874D01*
X124418536Y-89385978D01*
X124639999Y-89405353D01*
X124861462Y-89385978D01*
X125014863Y-89344874D01*
X125070885Y-89329863D01*
X125070887Y-89329862D01*
X125076195Y-89328440D01*
X125085590Y-89324059D01*
X125272689Y-89236814D01*
X125272694Y-89236811D01*
X125277676Y-89234488D01*
X125427287Y-89129729D01*
X125455269Y-89110136D01*
X125455272Y-89110134D01*
X125459780Y-89106977D01*
X125616976Y-88949781D01*
X125658989Y-88889781D01*
X125741330Y-88772185D01*
X125741331Y-88772183D01*
X125744487Y-88767676D01*
X125746810Y-88762694D01*
X125746813Y-88762689D01*
X125815804Y-88614737D01*
X125862722Y-88561452D01*
X125930999Y-88541991D01*
X125998959Y-88562533D01*
X126044194Y-88614737D01*
X126113185Y-88762689D01*
X126113188Y-88762694D01*
X126115511Y-88767676D01*
X126118667Y-88772183D01*
X126118668Y-88772185D01*
X126201010Y-88889781D01*
X126243022Y-88949781D01*
X126400218Y-89106977D01*
X126404726Y-89110134D01*
X126404729Y-89110136D01*
X126432711Y-89129729D01*
X126582322Y-89234488D01*
X126587304Y-89236811D01*
X126587309Y-89236814D01*
X126774408Y-89324059D01*
X126783803Y-89328440D01*
X126789111Y-89329862D01*
X126789113Y-89329863D01*
X126845135Y-89344874D01*
X126998536Y-89385978D01*
X127219999Y-89405353D01*
X127441462Y-89385978D01*
X127594863Y-89344874D01*
X127650885Y-89329863D01*
X127650887Y-89329862D01*
X127656195Y-89328440D01*
X127665590Y-89324059D01*
X127852689Y-89236814D01*
X127852694Y-89236811D01*
X127857676Y-89234488D01*
X128007287Y-89129729D01*
X128035269Y-89110136D01*
X128035272Y-89110134D01*
X128039780Y-89106977D01*
X128196976Y-88949781D01*
X128238989Y-88889781D01*
X128321330Y-88772185D01*
X128321331Y-88772183D01*
X128324487Y-88767676D01*
X128326810Y-88762694D01*
X128326813Y-88762689D01*
X128389794Y-88627626D01*
X128436712Y-88574341D01*
X128504989Y-88554880D01*
X128572949Y-88575422D01*
X128618184Y-88627626D01*
X128653186Y-88702689D01*
X128653189Y-88702694D01*
X128655512Y-88707676D01*
X128658668Y-88712183D01*
X128658669Y-88712185D01*
X128700682Y-88772185D01*
X128783023Y-88889781D01*
X128940219Y-89046977D01*
X128944727Y-89050134D01*
X128944730Y-89050136D01*
X129020342Y-89103080D01*
X129122323Y-89174488D01*
X129127305Y-89176811D01*
X129127310Y-89176814D01*
X129317810Y-89265645D01*
X129323804Y-89268440D01*
X129329112Y-89269862D01*
X129329114Y-89269863D01*
X129394949Y-89287503D01*
X129538537Y-89325978D01*
X129760000Y-89345353D01*
X129981463Y-89325978D01*
X130125051Y-89287503D01*
X130190886Y-89269863D01*
X130190888Y-89269862D01*
X130196196Y-89268440D01*
X130202190Y-89265645D01*
X130392690Y-89176814D01*
X130392695Y-89176811D01*
X130397677Y-89174488D01*
X130499658Y-89103080D01*
X130575270Y-89050136D01*
X130575273Y-89050134D01*
X130579781Y-89046977D01*
X130736977Y-88889781D01*
X130819319Y-88772185D01*
X130861331Y-88712185D01*
X130861332Y-88712183D01*
X130864488Y-88707676D01*
X130866811Y-88702694D01*
X130866814Y-88702689D01*
X130915805Y-88597627D01*
X130962723Y-88544342D01*
X131031000Y-88524881D01*
X131098960Y-88545423D01*
X131144195Y-88597627D01*
X131193186Y-88702689D01*
X131193189Y-88702694D01*
X131195512Y-88707676D01*
X131198668Y-88712183D01*
X131198669Y-88712185D01*
X131240682Y-88772185D01*
X131323023Y-88889781D01*
X131480219Y-89046977D01*
X131484727Y-89050134D01*
X131484730Y-89050136D01*
X131560342Y-89103080D01*
X131662323Y-89174488D01*
X131667305Y-89176811D01*
X131667310Y-89176814D01*
X131857810Y-89265645D01*
X131863804Y-89268440D01*
X131869112Y-89269862D01*
X131869114Y-89269863D01*
X131934949Y-89287503D01*
X132078537Y-89325978D01*
X132300000Y-89345353D01*
X132521463Y-89325978D01*
X132665051Y-89287503D01*
X132730886Y-89269863D01*
X132730888Y-89269862D01*
X132736196Y-89268440D01*
X132742190Y-89265645D01*
X132932690Y-89176814D01*
X132932695Y-89176811D01*
X132937677Y-89174488D01*
X133039658Y-89103080D01*
X133115270Y-89050136D01*
X133115273Y-89050134D01*
X133119781Y-89046977D01*
X133276977Y-88889781D01*
X133359319Y-88772185D01*
X133401331Y-88712185D01*
X133401332Y-88712183D01*
X133404488Y-88707676D01*
X133406811Y-88702694D01*
X133406814Y-88702689D01*
X133455805Y-88597627D01*
X133502723Y-88544342D01*
X133571000Y-88524881D01*
X133638960Y-88545423D01*
X133684195Y-88597627D01*
X133733186Y-88702689D01*
X133733189Y-88702694D01*
X133735512Y-88707676D01*
X133738668Y-88712183D01*
X133738669Y-88712185D01*
X133780682Y-88772185D01*
X133863023Y-88889781D01*
X134020219Y-89046977D01*
X134024727Y-89050134D01*
X134024730Y-89050136D01*
X134100342Y-89103080D01*
X134202323Y-89174488D01*
X134207305Y-89176811D01*
X134207310Y-89176814D01*
X134397810Y-89265645D01*
X134403804Y-89268440D01*
X134409112Y-89269862D01*
X134409114Y-89269863D01*
X134474949Y-89287503D01*
X134618537Y-89325978D01*
X134840000Y-89345353D01*
X135061463Y-89325978D01*
X135205051Y-89287503D01*
X135270886Y-89269863D01*
X135270888Y-89269862D01*
X135276196Y-89268440D01*
X135282190Y-89265645D01*
X135472690Y-89176814D01*
X135472695Y-89176811D01*
X135477677Y-89174488D01*
X135542959Y-89128777D01*
X136685777Y-89128777D01*
X136695074Y-89140793D01*
X136738069Y-89170898D01*
X136747555Y-89176376D01*
X136938993Y-89265645D01*
X136949285Y-89269391D01*
X137153309Y-89324059D01*
X137164104Y-89325962D01*
X137374525Y-89344372D01*
X137385475Y-89344372D01*
X137595896Y-89325962D01*
X137606691Y-89324059D01*
X137810715Y-89269391D01*
X137821007Y-89265645D01*
X138012445Y-89176376D01*
X138021931Y-89170898D01*
X138065764Y-89140207D01*
X138074139Y-89129729D01*
X138067071Y-89116281D01*
X137392812Y-88442022D01*
X137378868Y-88434408D01*
X137377035Y-88434539D01*
X137370420Y-88438790D01*
X136692207Y-89117003D01*
X136685777Y-89128777D01*
X135542959Y-89128777D01*
X135579658Y-89103080D01*
X135655270Y-89050136D01*
X135655273Y-89050134D01*
X135659781Y-89046977D01*
X135816977Y-88889781D01*
X135899319Y-88772185D01*
X135941331Y-88712185D01*
X135941332Y-88712183D01*
X135944488Y-88707676D01*
X135946811Y-88702694D01*
X135946814Y-88702689D01*
X135996081Y-88597035D01*
X136042999Y-88543750D01*
X136111276Y-88524289D01*
X136179236Y-88544831D01*
X136224471Y-88597035D01*
X136273623Y-88702441D01*
X136279103Y-88711932D01*
X136309794Y-88755765D01*
X136320271Y-88764140D01*
X136333718Y-88757072D01*
X137007978Y-88082812D01*
X137014356Y-88071132D01*
X137744408Y-88071132D01*
X137744539Y-88072965D01*
X137748790Y-88079580D01*
X138427003Y-88757793D01*
X138438777Y-88764223D01*
X138450793Y-88754926D01*
X138480897Y-88711932D01*
X138486377Y-88702441D01*
X138575645Y-88511007D01*
X138579391Y-88500715D01*
X138634059Y-88296691D01*
X138635962Y-88285896D01*
X138654372Y-88075475D01*
X138654372Y-88064525D01*
X138635962Y-87854104D01*
X138634059Y-87843309D01*
X138579391Y-87639285D01*
X138575645Y-87628993D01*
X138486377Y-87437559D01*
X138480897Y-87428068D01*
X138450206Y-87384235D01*
X138439729Y-87375860D01*
X138426282Y-87382928D01*
X137752022Y-88057188D01*
X137744408Y-88071132D01*
X137014356Y-88071132D01*
X137015592Y-88068868D01*
X137015461Y-88067035D01*
X137011210Y-88060420D01*
X136332997Y-87382207D01*
X136321223Y-87375777D01*
X136309207Y-87385074D01*
X136279103Y-87428068D01*
X136273623Y-87437559D01*
X136224471Y-87542965D01*
X136177553Y-87596250D01*
X136109276Y-87615711D01*
X136041316Y-87595169D01*
X135996081Y-87542965D01*
X135946814Y-87437311D01*
X135946811Y-87437306D01*
X135944488Y-87432324D01*
X135941331Y-87427815D01*
X135820136Y-87254730D01*
X135820134Y-87254727D01*
X135816977Y-87250219D01*
X135659781Y-87093023D01*
X135655273Y-87089866D01*
X135655270Y-87089864D01*
X135567874Y-87028669D01*
X135541599Y-87010271D01*
X136685860Y-87010271D01*
X136692928Y-87023718D01*
X137367188Y-87697978D01*
X137381132Y-87705592D01*
X137382965Y-87705461D01*
X137389580Y-87701210D01*
X138067793Y-87022997D01*
X138074223Y-87011223D01*
X138064926Y-86999207D01*
X138021931Y-86969102D01*
X138012445Y-86963624D01*
X137821007Y-86874355D01*
X137810715Y-86870609D01*
X137606691Y-86815941D01*
X137595896Y-86814038D01*
X137385475Y-86795628D01*
X137374525Y-86795628D01*
X137164104Y-86814038D01*
X137153309Y-86815941D01*
X136949285Y-86870609D01*
X136938993Y-86874355D01*
X136747559Y-86963623D01*
X136738068Y-86969103D01*
X136694235Y-86999794D01*
X136685860Y-87010271D01*
X135541599Y-87010271D01*
X135477677Y-86965512D01*
X135472695Y-86963189D01*
X135472690Y-86963186D01*
X135281178Y-86873883D01*
X135281177Y-86873882D01*
X135276196Y-86871560D01*
X135270888Y-86870138D01*
X135270886Y-86870137D01*
X135205051Y-86852497D01*
X135061463Y-86814022D01*
X134840000Y-86794647D01*
X134618537Y-86814022D01*
X134474949Y-86852497D01*
X134409114Y-86870137D01*
X134409112Y-86870138D01*
X134403804Y-86871560D01*
X134398823Y-86873882D01*
X134398822Y-86873883D01*
X134207311Y-86963186D01*
X134207306Y-86963189D01*
X134202324Y-86965512D01*
X134197817Y-86968668D01*
X134197815Y-86968669D01*
X134024730Y-87089864D01*
X134024727Y-87089866D01*
X134020219Y-87093023D01*
X133863023Y-87250219D01*
X133859866Y-87254727D01*
X133859864Y-87254730D01*
X133738669Y-87427815D01*
X133735512Y-87432324D01*
X133733189Y-87437306D01*
X133733186Y-87437311D01*
X133684195Y-87542373D01*
X133637277Y-87595658D01*
X133569000Y-87615119D01*
X133501040Y-87594577D01*
X133455805Y-87542373D01*
X133406814Y-87437311D01*
X133406811Y-87437306D01*
X133404488Y-87432324D01*
X133401331Y-87427815D01*
X133280136Y-87254730D01*
X133280134Y-87254727D01*
X133276977Y-87250219D01*
X133119781Y-87093023D01*
X133115273Y-87089866D01*
X133115270Y-87089864D01*
X133027874Y-87028669D01*
X132937677Y-86965512D01*
X132932695Y-86963189D01*
X132932690Y-86963186D01*
X132741178Y-86873883D01*
X132741177Y-86873882D01*
X132736196Y-86871560D01*
X132730888Y-86870138D01*
X132730886Y-86870137D01*
X132665051Y-86852497D01*
X132521463Y-86814022D01*
X132300000Y-86794647D01*
X132078537Y-86814022D01*
X131934949Y-86852497D01*
X131869114Y-86870137D01*
X131869112Y-86870138D01*
X131863804Y-86871560D01*
X131858823Y-86873882D01*
X131858822Y-86873883D01*
X131667311Y-86963186D01*
X131667306Y-86963189D01*
X131662324Y-86965512D01*
X131657817Y-86968668D01*
X131657815Y-86968669D01*
X131484730Y-87089864D01*
X131484727Y-87089866D01*
X131480219Y-87093023D01*
X131323023Y-87250219D01*
X131319866Y-87254727D01*
X131319864Y-87254730D01*
X131198669Y-87427815D01*
X131195512Y-87432324D01*
X131193189Y-87437306D01*
X131193186Y-87437311D01*
X131144195Y-87542373D01*
X131097277Y-87595658D01*
X131029000Y-87615119D01*
X130961040Y-87594577D01*
X130915805Y-87542373D01*
X130866814Y-87437311D01*
X130866811Y-87437306D01*
X130864488Y-87432324D01*
X130861331Y-87427815D01*
X130740136Y-87254730D01*
X130740134Y-87254727D01*
X130736977Y-87250219D01*
X130579781Y-87093023D01*
X130575273Y-87089866D01*
X130575270Y-87089864D01*
X130487874Y-87028669D01*
X130397677Y-86965512D01*
X130392695Y-86963189D01*
X130392690Y-86963186D01*
X130201178Y-86873883D01*
X130201177Y-86873882D01*
X130196196Y-86871560D01*
X130190888Y-86870138D01*
X130190886Y-86870137D01*
X130125051Y-86852497D01*
X129981463Y-86814022D01*
X129760000Y-86794647D01*
X129538537Y-86814022D01*
X129394949Y-86852497D01*
X129329114Y-86870137D01*
X129329112Y-86870138D01*
X129323804Y-86871560D01*
X129318823Y-86873882D01*
X129318822Y-86873883D01*
X129127311Y-86963186D01*
X129127306Y-86963189D01*
X129122324Y-86965512D01*
X129117817Y-86968668D01*
X129117815Y-86968669D01*
X128944730Y-87089864D01*
X128944727Y-87089866D01*
X128940219Y-87093023D01*
X128783023Y-87250219D01*
X128779866Y-87254727D01*
X128779864Y-87254730D01*
X128658669Y-87427815D01*
X128655512Y-87432324D01*
X128653189Y-87437306D01*
X128653186Y-87437311D01*
X128590205Y-87572374D01*
X128543287Y-87625659D01*
X128475010Y-87645120D01*
X128407050Y-87624578D01*
X128361815Y-87572374D01*
X128326813Y-87497311D01*
X128326810Y-87497306D01*
X128324487Y-87492324D01*
X128279495Y-87428068D01*
X128200135Y-87314730D01*
X128200133Y-87314727D01*
X128196976Y-87310219D01*
X128039780Y-87153023D01*
X128035272Y-87149866D01*
X128035269Y-87149864D01*
X127949580Y-87089864D01*
X127857676Y-87025512D01*
X127852694Y-87023189D01*
X127852689Y-87023186D01*
X127661177Y-86933883D01*
X127661176Y-86933882D01*
X127656195Y-86931560D01*
X127650887Y-86930138D01*
X127650885Y-86930137D01*
X127585050Y-86912497D01*
X127441462Y-86874022D01*
X127219999Y-86854647D01*
X126998536Y-86874022D01*
X126854948Y-86912497D01*
X126789113Y-86930137D01*
X126789111Y-86930138D01*
X126783803Y-86931560D01*
X126778822Y-86933882D01*
X126778821Y-86933883D01*
X126587310Y-87023186D01*
X126587305Y-87023189D01*
X126582323Y-87025512D01*
X126577816Y-87028668D01*
X126577814Y-87028669D01*
X126404729Y-87149864D01*
X126404726Y-87149866D01*
X126400218Y-87153023D01*
X126243022Y-87310219D01*
X126239865Y-87314727D01*
X126239863Y-87314730D01*
X126160503Y-87428068D01*
X126115511Y-87492324D01*
X126113188Y-87497306D01*
X126113185Y-87497311D01*
X126044194Y-87645263D01*
X125997276Y-87698548D01*
X125928999Y-87718009D01*
X125861039Y-87697467D01*
X125815804Y-87645263D01*
X125746813Y-87497311D01*
X125746810Y-87497306D01*
X125744487Y-87492324D01*
X125699495Y-87428068D01*
X125620135Y-87314730D01*
X125620133Y-87314727D01*
X125616976Y-87310219D01*
X125459780Y-87153023D01*
X125455272Y-87149866D01*
X125455269Y-87149864D01*
X125369580Y-87089864D01*
X125277676Y-87025512D01*
X125272694Y-87023189D01*
X125272689Y-87023186D01*
X125081177Y-86933883D01*
X125081176Y-86933882D01*
X125076195Y-86931560D01*
X125070887Y-86930138D01*
X125070885Y-86930137D01*
X125005050Y-86912497D01*
X124861462Y-86874022D01*
X124639999Y-86854647D01*
X124418536Y-86874022D01*
X124274948Y-86912497D01*
X124209113Y-86930137D01*
X124209111Y-86930138D01*
X124203803Y-86931560D01*
X124198822Y-86933882D01*
X124198821Y-86933883D01*
X124007310Y-87023186D01*
X124007305Y-87023189D01*
X124002323Y-87025512D01*
X123997816Y-87028668D01*
X123997814Y-87028669D01*
X123824729Y-87149864D01*
X123824726Y-87149866D01*
X123820218Y-87153023D01*
X123663022Y-87310219D01*
X123659865Y-87314727D01*
X123659863Y-87314730D01*
X123580503Y-87428068D01*
X123535511Y-87492324D01*
X123533188Y-87497306D01*
X123533185Y-87497311D01*
X123518184Y-87529482D01*
X123471267Y-87582767D01*
X123402990Y-87602228D01*
X123335030Y-87581686D01*
X123289794Y-87529482D01*
X123246814Y-87437311D01*
X123246811Y-87437306D01*
X123244488Y-87432324D01*
X123241331Y-87427815D01*
X123120136Y-87254730D01*
X123120134Y-87254727D01*
X123116977Y-87250219D01*
X122959781Y-87093023D01*
X122955273Y-87089866D01*
X122955270Y-87089864D01*
X122867874Y-87028669D01*
X122777677Y-86965512D01*
X122772695Y-86963189D01*
X122772690Y-86963186D01*
X122581178Y-86873883D01*
X122581177Y-86873882D01*
X122576196Y-86871560D01*
X122570888Y-86870138D01*
X122570886Y-86870137D01*
X122505051Y-86852497D01*
X122361463Y-86814022D01*
X122140000Y-86794647D01*
X121918537Y-86814022D01*
X121774949Y-86852497D01*
X121709114Y-86870137D01*
X121709112Y-86870138D01*
X121703804Y-86871560D01*
X121698823Y-86873882D01*
X121698822Y-86873883D01*
X121507311Y-86963186D01*
X121507306Y-86963189D01*
X121502324Y-86965512D01*
X121497817Y-86968668D01*
X121497815Y-86968669D01*
X121324730Y-87089864D01*
X121324727Y-87089866D01*
X121320219Y-87093023D01*
X121163023Y-87250219D01*
X121159866Y-87254727D01*
X121159864Y-87254730D01*
X121038669Y-87427815D01*
X121035512Y-87432324D01*
X121033189Y-87437306D01*
X121033186Y-87437311D01*
X120984195Y-87542373D01*
X120937277Y-87595658D01*
X120869000Y-87615119D01*
X120801040Y-87594577D01*
X120755805Y-87542373D01*
X120706814Y-87437311D01*
X120706811Y-87437306D01*
X120704488Y-87432324D01*
X120701331Y-87427815D01*
X120580136Y-87254730D01*
X120580134Y-87254727D01*
X120576977Y-87250219D01*
X120419781Y-87093023D01*
X120415273Y-87089866D01*
X120415270Y-87089864D01*
X120327874Y-87028669D01*
X120237677Y-86965512D01*
X120232695Y-86963189D01*
X120232690Y-86963186D01*
X120041178Y-86873883D01*
X120041177Y-86873882D01*
X120036196Y-86871560D01*
X120030888Y-86870138D01*
X120030886Y-86870137D01*
X119965051Y-86852497D01*
X119821463Y-86814022D01*
X119600000Y-86794647D01*
X119378537Y-86814022D01*
X119234949Y-86852497D01*
X119169114Y-86870137D01*
X119169112Y-86870138D01*
X119163804Y-86871560D01*
X119158823Y-86873882D01*
X119158822Y-86873883D01*
X118967311Y-86963186D01*
X118967306Y-86963189D01*
X118962324Y-86965512D01*
X118957817Y-86968668D01*
X118957815Y-86968669D01*
X118784730Y-87089864D01*
X118784727Y-87089866D01*
X118780219Y-87093023D01*
X118623023Y-87250219D01*
X118619866Y-87254727D01*
X118619864Y-87254730D01*
X118498669Y-87427815D01*
X118495512Y-87432324D01*
X118493189Y-87437306D01*
X118493186Y-87437311D01*
X118444195Y-87542373D01*
X118397277Y-87595658D01*
X118329000Y-87615119D01*
X118261040Y-87594577D01*
X118215805Y-87542373D01*
X118166814Y-87437311D01*
X118166811Y-87437306D01*
X118164488Y-87432324D01*
X118161331Y-87427815D01*
X118040136Y-87254730D01*
X118040134Y-87254727D01*
X118036977Y-87250219D01*
X117879781Y-87093023D01*
X117875273Y-87089866D01*
X117875270Y-87089864D01*
X117787874Y-87028669D01*
X117697677Y-86965512D01*
X117692695Y-86963189D01*
X117692690Y-86963186D01*
X117501178Y-86873883D01*
X117501177Y-86873882D01*
X117496196Y-86871560D01*
X117490888Y-86870138D01*
X117490886Y-86870137D01*
X117425051Y-86852497D01*
X117281463Y-86814022D01*
X117060000Y-86794647D01*
X116838537Y-86814022D01*
X116694949Y-86852497D01*
X116629114Y-86870137D01*
X116629112Y-86870138D01*
X116623804Y-86871560D01*
X116618823Y-86873882D01*
X116618822Y-86873883D01*
X116427311Y-86963186D01*
X116427306Y-86963189D01*
X116422324Y-86965512D01*
X116417817Y-86968668D01*
X116417815Y-86968669D01*
X116244730Y-87089864D01*
X116244727Y-87089866D01*
X116240219Y-87093023D01*
X116083023Y-87250219D01*
X116079866Y-87254727D01*
X116079864Y-87254730D01*
X115958669Y-87427815D01*
X115955512Y-87432324D01*
X115953189Y-87437306D01*
X115953186Y-87437311D01*
X115904195Y-87542373D01*
X115857277Y-87595658D01*
X115789000Y-87615119D01*
X115721040Y-87594577D01*
X115675805Y-87542373D01*
X115626814Y-87437311D01*
X115626811Y-87437306D01*
X115624488Y-87432324D01*
X115621331Y-87427815D01*
X115500136Y-87254730D01*
X115500134Y-87254727D01*
X115496977Y-87250219D01*
X115339781Y-87093023D01*
X115335273Y-87089866D01*
X115335270Y-87089864D01*
X115247874Y-87028669D01*
X115157677Y-86965512D01*
X115152695Y-86963189D01*
X115152690Y-86963186D01*
X114961178Y-86873883D01*
X114961177Y-86873882D01*
X114956196Y-86871560D01*
X114950888Y-86870138D01*
X114950886Y-86870137D01*
X114885051Y-86852497D01*
X114741463Y-86814022D01*
X114520000Y-86794647D01*
X114298537Y-86814022D01*
X114154949Y-86852497D01*
X114089114Y-86870137D01*
X114089112Y-86870138D01*
X114083804Y-86871560D01*
X114078823Y-86873882D01*
X114078822Y-86873883D01*
X113887311Y-86963186D01*
X113887306Y-86963189D01*
X113882324Y-86965512D01*
X113877817Y-86968668D01*
X113877815Y-86968669D01*
X113704730Y-87089864D01*
X113704727Y-87089866D01*
X113700219Y-87093023D01*
X113543023Y-87250219D01*
X113539866Y-87254727D01*
X113539864Y-87254730D01*
X113418669Y-87427815D01*
X113415512Y-87432324D01*
X113413189Y-87437306D01*
X113413186Y-87437311D01*
X113364195Y-87542373D01*
X113317277Y-87595658D01*
X113249000Y-87615119D01*
X113181040Y-87594577D01*
X113135805Y-87542373D01*
X113086814Y-87437311D01*
X113086811Y-87437306D01*
X113084488Y-87432324D01*
X113081331Y-87427815D01*
X112960136Y-87254730D01*
X112960134Y-87254727D01*
X112956977Y-87250219D01*
X112799781Y-87093023D01*
X112795273Y-87089866D01*
X112795270Y-87089864D01*
X112707874Y-87028669D01*
X112617677Y-86965512D01*
X112612695Y-86963189D01*
X112612690Y-86963186D01*
X112421178Y-86873883D01*
X112421177Y-86873882D01*
X112416196Y-86871560D01*
X112410888Y-86870138D01*
X112410886Y-86870137D01*
X112345051Y-86852497D01*
X112201463Y-86814022D01*
X111980000Y-86794647D01*
X111758537Y-86814022D01*
X111614949Y-86852497D01*
X111549114Y-86870137D01*
X111549112Y-86870138D01*
X111543804Y-86871560D01*
X111538823Y-86873882D01*
X111538822Y-86873883D01*
X111347311Y-86963186D01*
X111347306Y-86963189D01*
X111342324Y-86965512D01*
X111337817Y-86968668D01*
X111337815Y-86968669D01*
X111164730Y-87089864D01*
X111164727Y-87089866D01*
X111160219Y-87093023D01*
X111003023Y-87250219D01*
X110999866Y-87254727D01*
X110999864Y-87254730D01*
X110878669Y-87427815D01*
X110875512Y-87432324D01*
X110873189Y-87437306D01*
X110873186Y-87437311D01*
X110824195Y-87542373D01*
X110777277Y-87595658D01*
X110709000Y-87615119D01*
X110641040Y-87594577D01*
X110595805Y-87542373D01*
X110546814Y-87437311D01*
X110546811Y-87437306D01*
X110544488Y-87432324D01*
X110541331Y-87427815D01*
X110420136Y-87254730D01*
X110420134Y-87254727D01*
X110416977Y-87250219D01*
X110259781Y-87093023D01*
X110255273Y-87089866D01*
X110255270Y-87089864D01*
X110167874Y-87028669D01*
X110077677Y-86965512D01*
X110072695Y-86963189D01*
X110072690Y-86963186D01*
X109881178Y-86873883D01*
X109881177Y-86873882D01*
X109876196Y-86871560D01*
X109870888Y-86870138D01*
X109870886Y-86870137D01*
X109805051Y-86852497D01*
X109661463Y-86814022D01*
X109440000Y-86794647D01*
X109218537Y-86814022D01*
X109074949Y-86852497D01*
X109009114Y-86870137D01*
X109009112Y-86870138D01*
X109003804Y-86871560D01*
X108998823Y-86873882D01*
X108998822Y-86873883D01*
X108807311Y-86963186D01*
X108807306Y-86963189D01*
X108802324Y-86965512D01*
X108797817Y-86968668D01*
X108797815Y-86968669D01*
X108624730Y-87089864D01*
X108624727Y-87089866D01*
X108620219Y-87093023D01*
X108463023Y-87250219D01*
X108459866Y-87254727D01*
X108459864Y-87254730D01*
X108338669Y-87427815D01*
X108335512Y-87432324D01*
X108333189Y-87437306D01*
X108333186Y-87437311D01*
X108284195Y-87542373D01*
X108237277Y-87595658D01*
X108169000Y-87615119D01*
X108101040Y-87594577D01*
X108055805Y-87542373D01*
X108006814Y-87437311D01*
X108006811Y-87437306D01*
X108004488Y-87432324D01*
X108001331Y-87427815D01*
X107880136Y-87254730D01*
X107880134Y-87254727D01*
X107876977Y-87250219D01*
X107719781Y-87093023D01*
X107715273Y-87089866D01*
X107715270Y-87089864D01*
X107627874Y-87028669D01*
X107537677Y-86965512D01*
X107532695Y-86963189D01*
X107532690Y-86963186D01*
X107341178Y-86873883D01*
X107341177Y-86873882D01*
X107336196Y-86871560D01*
X107330888Y-86870138D01*
X107330886Y-86870137D01*
X107265051Y-86852497D01*
X107121463Y-86814022D01*
X106900000Y-86794647D01*
X106678537Y-86814022D01*
X106534949Y-86852497D01*
X106469114Y-86870137D01*
X106469112Y-86870138D01*
X106463804Y-86871560D01*
X106458823Y-86873882D01*
X106458822Y-86873883D01*
X106267311Y-86963186D01*
X106267306Y-86963189D01*
X106262324Y-86965512D01*
X106257817Y-86968668D01*
X106257815Y-86968669D01*
X106084730Y-87089864D01*
X106084727Y-87089866D01*
X106080219Y-87093023D01*
X105923023Y-87250219D01*
X105919866Y-87254727D01*
X105919864Y-87254730D01*
X105798669Y-87427815D01*
X105795512Y-87432324D01*
X105793189Y-87437306D01*
X105793186Y-87437311D01*
X105744195Y-87542373D01*
X105697277Y-87595658D01*
X105629000Y-87615119D01*
X105561040Y-87594577D01*
X105515805Y-87542373D01*
X105466814Y-87437311D01*
X105466811Y-87437306D01*
X105464488Y-87432324D01*
X105461331Y-87427815D01*
X105340136Y-87254730D01*
X105340134Y-87254727D01*
X105336977Y-87250219D01*
X105179781Y-87093023D01*
X105175273Y-87089866D01*
X105175270Y-87089864D01*
X105087874Y-87028669D01*
X104997677Y-86965512D01*
X104992695Y-86963189D01*
X104992690Y-86963186D01*
X104801178Y-86873883D01*
X104801177Y-86873882D01*
X104796196Y-86871560D01*
X104790888Y-86870138D01*
X104790886Y-86870137D01*
X104725051Y-86852497D01*
X104581463Y-86814022D01*
X104360000Y-86794647D01*
X104138537Y-86814022D01*
X103994949Y-86852497D01*
X103929114Y-86870137D01*
X103929112Y-86870138D01*
X103923804Y-86871560D01*
X103918823Y-86873882D01*
X103918822Y-86873883D01*
X103727311Y-86963186D01*
X103727306Y-86963189D01*
X103722324Y-86965512D01*
X103717817Y-86968668D01*
X103717815Y-86968669D01*
X103544730Y-87089864D01*
X103544727Y-87089866D01*
X103540219Y-87093023D01*
X103383023Y-87250219D01*
X103379866Y-87254727D01*
X103379864Y-87254730D01*
X103258669Y-87427815D01*
X103255512Y-87432324D01*
X103253189Y-87437306D01*
X103253186Y-87437311D01*
X103204195Y-87542373D01*
X103157277Y-87595658D01*
X103089000Y-87615119D01*
X103021040Y-87594577D01*
X102975805Y-87542373D01*
X102926814Y-87437311D01*
X102926811Y-87437306D01*
X102924488Y-87432324D01*
X102921331Y-87427815D01*
X102800136Y-87254730D01*
X102800134Y-87254727D01*
X102796977Y-87250219D01*
X102639781Y-87093023D01*
X102635273Y-87089866D01*
X102635270Y-87089864D01*
X102547874Y-87028669D01*
X102457677Y-86965512D01*
X102452695Y-86963189D01*
X102452690Y-86963186D01*
X102261178Y-86873883D01*
X102261177Y-86873882D01*
X102256196Y-86871560D01*
X102250888Y-86870138D01*
X102250886Y-86870137D01*
X102185051Y-86852497D01*
X102041463Y-86814022D01*
X101820000Y-86794647D01*
X101598537Y-86814022D01*
X101454949Y-86852497D01*
X101389114Y-86870137D01*
X101389112Y-86870138D01*
X101383804Y-86871560D01*
X101378823Y-86873882D01*
X101378822Y-86873883D01*
X101187311Y-86963186D01*
X101187306Y-86963189D01*
X101182324Y-86965512D01*
X101177817Y-86968668D01*
X101177815Y-86968669D01*
X101004730Y-87089864D01*
X101004727Y-87089866D01*
X101000219Y-87093023D01*
X100843023Y-87250219D01*
X100839866Y-87254727D01*
X100839864Y-87254730D01*
X100718669Y-87427815D01*
X100715512Y-87432324D01*
X100713189Y-87437306D01*
X100713186Y-87437311D01*
X100663919Y-87542965D01*
X100617001Y-87596250D01*
X100548724Y-87615711D01*
X100480764Y-87595169D01*
X100435529Y-87542965D01*
X100386377Y-87437559D01*
X100380897Y-87428068D01*
X100350206Y-87384235D01*
X100339729Y-87375860D01*
X100326282Y-87382928D01*
X99652022Y-88057188D01*
X99644408Y-88071132D01*
X98914356Y-88071132D01*
X98915592Y-88068868D01*
X98915461Y-88067035D01*
X98911210Y-88060420D01*
X98232997Y-87382207D01*
X98221223Y-87375777D01*
X98209207Y-87385074D01*
X98179103Y-87428068D01*
X98173623Y-87437559D01*
X98084355Y-87628993D01*
X98080609Y-87639285D01*
X98025941Y-87843309D01*
X98024038Y-87854104D01*
X98005628Y-88064525D01*
X98005628Y-88075475D01*
X79608000Y-88075475D01*
X79608000Y-87010271D01*
X98585860Y-87010271D01*
X98592928Y-87023718D01*
X99267188Y-87697978D01*
X99281132Y-87705592D01*
X99282965Y-87705461D01*
X99289580Y-87701210D01*
X99967793Y-87022997D01*
X99974223Y-87011223D01*
X99964926Y-86999207D01*
X99921931Y-86969102D01*
X99912445Y-86963624D01*
X99721007Y-86874355D01*
X99710715Y-86870609D01*
X99506691Y-86815941D01*
X99495896Y-86814038D01*
X99285475Y-86795628D01*
X99274525Y-86795628D01*
X99064104Y-86814038D01*
X99053309Y-86815941D01*
X98849285Y-86870609D01*
X98838993Y-86874355D01*
X98647559Y-86963623D01*
X98638068Y-86969103D01*
X98594235Y-86999794D01*
X98585860Y-87010271D01*
X79608000Y-87010271D01*
X79608000Y-59016695D01*
X88697251Y-59016695D01*
X88697548Y-59021848D01*
X88697548Y-59021851D01*
X88703011Y-59116590D01*
X88710110Y-59239715D01*
X88711247Y-59244761D01*
X88711248Y-59244767D01*
X88731119Y-59332939D01*
X88759222Y-59457639D01*
X88843266Y-59664616D01*
X88959987Y-59855088D01*
X89106250Y-60023938D01*
X89278126Y-60166632D01*
X89471000Y-60279338D01*
X89679692Y-60359030D01*
X89684760Y-60360061D01*
X89684763Y-60360062D01*
X89792017Y-60381883D01*
X89898597Y-60403567D01*
X89903772Y-60403757D01*
X89903774Y-60403757D01*
X90116673Y-60411564D01*
X90116677Y-60411564D01*
X90121837Y-60411753D01*
X90126957Y-60411097D01*
X90126959Y-60411097D01*
X90338288Y-60384025D01*
X90338289Y-60384025D01*
X90343416Y-60383368D01*
X90348366Y-60381883D01*
X90552429Y-60320661D01*
X90552434Y-60320659D01*
X90557384Y-60319174D01*
X90757994Y-60220896D01*
X90939860Y-60091173D01*
X91098096Y-59933489D01*
X91157594Y-59850689D01*
X91225435Y-59756277D01*
X91228453Y-59752077D01*
X91327430Y-59551811D01*
X91392370Y-59338069D01*
X91421529Y-59116590D01*
X91423156Y-59050000D01*
X91404852Y-58827361D01*
X91350431Y-58610702D01*
X91261354Y-58405840D01*
X91140014Y-58218277D01*
X90989670Y-58053051D01*
X90985619Y-58049852D01*
X90985615Y-58049848D01*
X90818414Y-57917800D01*
X90818410Y-57917798D01*
X90814359Y-57914598D01*
X90773053Y-57891796D01*
X90723084Y-57841364D01*
X90708312Y-57771921D01*
X90733428Y-57705516D01*
X90760780Y-57678909D01*
X90804603Y-57647650D01*
X90939860Y-57551173D01*
X91098096Y-57393489D01*
X91157594Y-57310689D01*
X91225435Y-57216277D01*
X91228453Y-57212077D01*
X91327430Y-57011811D01*
X91392370Y-56798069D01*
X91421529Y-56576590D01*
X91423156Y-56510000D01*
X91404852Y-56287361D01*
X91350431Y-56070702D01*
X91261354Y-55865840D01*
X91140014Y-55678277D01*
X90989670Y-55513051D01*
X90985619Y-55509852D01*
X90985615Y-55509848D01*
X90818414Y-55377800D01*
X90818410Y-55377798D01*
X90814359Y-55374598D01*
X90773053Y-55351796D01*
X90723084Y-55301364D01*
X90708312Y-55231921D01*
X90733428Y-55165516D01*
X90760780Y-55138909D01*
X90804603Y-55107650D01*
X90939860Y-55011173D01*
X91098096Y-54853489D01*
X91157594Y-54770689D01*
X91225435Y-54676277D01*
X91228453Y-54672077D01*
X91327430Y-54471811D01*
X91392370Y-54258069D01*
X91421529Y-54036590D01*
X91423156Y-53970000D01*
X91404852Y-53747361D01*
X91350431Y-53530702D01*
X91261354Y-53325840D01*
X91140014Y-53138277D01*
X91136540Y-53134459D01*
X91136533Y-53134450D01*
X90992435Y-52976088D01*
X90961383Y-52912242D01*
X90969779Y-52841744D01*
X91014956Y-52786976D01*
X91041400Y-52773307D01*
X91148052Y-52733325D01*
X91163649Y-52724786D01*
X91265724Y-52648285D01*
X91278285Y-52635724D01*
X91354786Y-52533649D01*
X91363324Y-52518054D01*
X91408478Y-52397606D01*
X91412105Y-52382351D01*
X91417631Y-52331486D01*
X91418000Y-52324672D01*
X91418000Y-51702115D01*
X91413525Y-51686876D01*
X91412135Y-51685671D01*
X91404452Y-51684000D01*
X88720116Y-51684000D01*
X88704877Y-51688475D01*
X88703672Y-51689865D01*
X88702001Y-51697548D01*
X88702001Y-52324669D01*
X88702371Y-52331490D01*
X88707895Y-52382352D01*
X88711521Y-52397604D01*
X88756676Y-52518054D01*
X88765214Y-52533649D01*
X88841715Y-52635724D01*
X88854276Y-52648285D01*
X88956351Y-52724786D01*
X88971946Y-52733324D01*
X89080827Y-52774142D01*
X89137591Y-52816784D01*
X89162291Y-52883345D01*
X89147083Y-52952694D01*
X89127691Y-52979175D01*
X89004200Y-53108401D01*
X89000629Y-53112138D01*
X88874743Y-53296680D01*
X88780688Y-53499305D01*
X88720989Y-53714570D01*
X88697251Y-53936695D01*
X88697548Y-53941848D01*
X88697548Y-53941851D01*
X88703011Y-54036590D01*
X88710110Y-54159715D01*
X88711247Y-54164761D01*
X88711248Y-54164767D01*
X88731119Y-54252939D01*
X88759222Y-54377639D01*
X88843266Y-54584616D01*
X88959987Y-54775088D01*
X89106250Y-54943938D01*
X89278126Y-55086632D01*
X89348595Y-55127811D01*
X89351445Y-55129476D01*
X89400169Y-55181114D01*
X89413240Y-55250897D01*
X89386509Y-55316669D01*
X89346055Y-55350027D01*
X89333607Y-55356507D01*
X89329474Y-55359610D01*
X89329471Y-55359612D01*
X89305247Y-55377800D01*
X89154965Y-55490635D01*
X89000629Y-55652138D01*
X88874743Y-55836680D01*
X88780688Y-56039305D01*
X88720989Y-56254570D01*
X88697251Y-56476695D01*
X88697548Y-56481848D01*
X88697548Y-56481851D01*
X88703011Y-56576590D01*
X88710110Y-56699715D01*
X88711247Y-56704761D01*
X88711248Y-56704767D01*
X88731119Y-56792939D01*
X88759222Y-56917639D01*
X88843266Y-57124616D01*
X88959987Y-57315088D01*
X89106250Y-57483938D01*
X89278126Y-57626632D01*
X89348595Y-57667811D01*
X89351445Y-57669476D01*
X89400169Y-57721114D01*
X89413240Y-57790897D01*
X89386509Y-57856669D01*
X89346055Y-57890027D01*
X89333607Y-57896507D01*
X89329474Y-57899610D01*
X89329471Y-57899612D01*
X89305247Y-57917800D01*
X89154965Y-58030635D01*
X89000629Y-58192138D01*
X88874743Y-58376680D01*
X88780688Y-58579305D01*
X88720989Y-58794570D01*
X88697251Y-59016695D01*
X79608000Y-59016695D01*
X79608000Y-51157885D01*
X88702000Y-51157885D01*
X88706475Y-51173124D01*
X88707865Y-51174329D01*
X88715548Y-51176000D01*
X89787885Y-51176000D01*
X89803124Y-51171525D01*
X89804329Y-51170135D01*
X89806000Y-51162452D01*
X89806000Y-51157885D01*
X90314000Y-51157885D01*
X90318475Y-51173124D01*
X90319865Y-51174329D01*
X90327548Y-51176000D01*
X91399884Y-51176000D01*
X91415123Y-51171525D01*
X91416328Y-51170135D01*
X91417999Y-51162452D01*
X91417999Y-50535331D01*
X91417629Y-50528510D01*
X91412105Y-50477648D01*
X91408479Y-50462396D01*
X91363324Y-50341946D01*
X91354786Y-50326351D01*
X91278285Y-50224276D01*
X91265724Y-50211715D01*
X91163649Y-50135214D01*
X91148054Y-50126676D01*
X91027606Y-50081522D01*
X91012351Y-50077895D01*
X90961486Y-50072369D01*
X90954672Y-50072000D01*
X90332115Y-50072000D01*
X90316876Y-50076475D01*
X90315671Y-50077865D01*
X90314000Y-50085548D01*
X90314000Y-51157885D01*
X89806000Y-51157885D01*
X89806000Y-50090116D01*
X89801525Y-50074877D01*
X89800135Y-50073672D01*
X89792452Y-50072001D01*
X89165331Y-50072001D01*
X89158510Y-50072371D01*
X89107648Y-50077895D01*
X89092396Y-50081521D01*
X88971946Y-50126676D01*
X88956351Y-50135214D01*
X88854276Y-50211715D01*
X88841715Y-50224276D01*
X88765214Y-50326351D01*
X88756676Y-50341946D01*
X88711522Y-50462394D01*
X88707895Y-50477649D01*
X88702369Y-50528514D01*
X88702000Y-50535328D01*
X88702000Y-51157885D01*
X79608000Y-51157885D01*
X79608000Y-44045000D01*
X145896502Y-44045000D01*
X145916457Y-44273087D01*
X145975716Y-44494243D01*
X145978039Y-44499224D01*
X145978039Y-44499225D01*
X146070151Y-44696762D01*
X146070154Y-44696767D01*
X146072477Y-44701749D01*
X146203802Y-44889300D01*
X146365700Y-45051198D01*
X146370208Y-45054355D01*
X146370211Y-45054357D01*
X146448389Y-45109098D01*
X146553251Y-45182523D01*
X146558233Y-45184846D01*
X146558238Y-45184849D01*
X146755775Y-45276961D01*
X146760757Y-45279284D01*
X146766065Y-45280706D01*
X146766067Y-45280707D01*
X146976598Y-45337119D01*
X146976600Y-45337119D01*
X146981913Y-45338543D01*
X147210000Y-45358498D01*
X147438087Y-45338543D01*
X147443400Y-45337119D01*
X147443402Y-45337119D01*
X147653933Y-45280707D01*
X147653935Y-45280706D01*
X147659243Y-45279284D01*
X147664225Y-45276961D01*
X147861762Y-45184849D01*
X147861767Y-45184846D01*
X147866749Y-45182523D01*
X147971611Y-45109098D01*
X148049789Y-45054357D01*
X148049792Y-45054355D01*
X148054300Y-45051198D01*
X148216198Y-44889300D01*
X148347523Y-44701749D01*
X148349846Y-44696767D01*
X148349849Y-44696762D01*
X148441961Y-44499225D01*
X148441961Y-44499224D01*
X148444284Y-44494243D01*
X148503543Y-44273087D01*
X148523498Y-44045000D01*
X148503543Y-43816913D01*
X148444284Y-43595757D01*
X148441961Y-43590775D01*
X148349849Y-43393238D01*
X148349846Y-43393233D01*
X148347523Y-43388251D01*
X148245479Y-43242517D01*
X148219357Y-43205211D01*
X148219355Y-43205208D01*
X148216198Y-43200700D01*
X148054300Y-43038802D01*
X148049792Y-43035645D01*
X148049789Y-43035643D01*
X147971611Y-42980902D01*
X147866749Y-42907477D01*
X147861767Y-42905154D01*
X147861762Y-42905151D01*
X147664225Y-42813039D01*
X147664224Y-42813039D01*
X147659243Y-42810716D01*
X147653935Y-42809294D01*
X147653933Y-42809293D01*
X147443402Y-42752881D01*
X147443400Y-42752881D01*
X147438087Y-42751457D01*
X147210000Y-42731502D01*
X146981913Y-42751457D01*
X146976600Y-42752881D01*
X146976598Y-42752881D01*
X146766067Y-42809293D01*
X146766065Y-42809294D01*
X146760757Y-42810716D01*
X146755776Y-42813039D01*
X146755775Y-42813039D01*
X146558238Y-42905151D01*
X146558233Y-42905154D01*
X146553251Y-42907477D01*
X146448389Y-42980902D01*
X146370211Y-43035643D01*
X146370208Y-43035645D01*
X146365700Y-43038802D01*
X146203802Y-43200700D01*
X146200645Y-43205208D01*
X146200643Y-43205211D01*
X146174521Y-43242517D01*
X146072477Y-43388251D01*
X146070154Y-43393233D01*
X146070151Y-43393238D01*
X145978039Y-43590775D01*
X145975716Y-43595757D01*
X145916457Y-43816913D01*
X145896502Y-44045000D01*
X79608000Y-44045000D01*
X79608000Y-43016062D01*
X99258493Y-43016062D01*
X99267789Y-43028077D01*
X99318994Y-43063931D01*
X99328489Y-43069414D01*
X99525947Y-43161490D01*
X99536239Y-43165236D01*
X99746688Y-43221625D01*
X99757481Y-43223528D01*
X99974525Y-43242517D01*
X99985475Y-43242517D01*
X100202519Y-43223528D01*
X100213312Y-43221625D01*
X100423761Y-43165236D01*
X100434053Y-43161490D01*
X100631511Y-43069414D01*
X100641006Y-43063931D01*
X100641749Y-43063411D01*
X119958493Y-43063411D01*
X119967789Y-43075426D01*
X120018994Y-43111280D01*
X120028489Y-43116763D01*
X120225947Y-43208839D01*
X120236239Y-43212585D01*
X120446688Y-43268974D01*
X120457481Y-43270877D01*
X120674525Y-43289866D01*
X120685475Y-43289866D01*
X120902519Y-43270877D01*
X120913312Y-43268974D01*
X121123761Y-43212585D01*
X121134053Y-43208839D01*
X121331511Y-43116763D01*
X121341006Y-43111280D01*
X121393048Y-43074840D01*
X121401424Y-43064361D01*
X121394356Y-43050915D01*
X120692812Y-42349371D01*
X120678868Y-42341757D01*
X120677035Y-42341888D01*
X120670420Y-42346139D01*
X119964923Y-43051636D01*
X119958493Y-43063411D01*
X100641749Y-43063411D01*
X100693048Y-43027491D01*
X100701424Y-43017012D01*
X100694356Y-43003566D01*
X99992812Y-42302022D01*
X99978868Y-42294408D01*
X99977035Y-42294539D01*
X99970420Y-42298790D01*
X99264923Y-43004287D01*
X99258493Y-43016062D01*
X79608000Y-43016062D01*
X79608000Y-41935475D01*
X98667483Y-41935475D01*
X98686472Y-42152519D01*
X98688375Y-42163312D01*
X98744764Y-42373761D01*
X98748510Y-42384053D01*
X98840586Y-42581511D01*
X98846069Y-42591006D01*
X98882509Y-42643048D01*
X98892988Y-42651424D01*
X98906434Y-42644356D01*
X99607978Y-41942812D01*
X99614356Y-41931132D01*
X100344408Y-41931132D01*
X100344539Y-41932965D01*
X100348790Y-41939580D01*
X101054287Y-42645077D01*
X101066062Y-42651507D01*
X101078077Y-42642211D01*
X101113931Y-42591006D01*
X101119414Y-42581511D01*
X101211490Y-42384053D01*
X101215236Y-42373761D01*
X101271625Y-42163312D01*
X101273528Y-42152519D01*
X101288374Y-41982824D01*
X119367483Y-41982824D01*
X119386472Y-42199868D01*
X119388375Y-42210661D01*
X119444764Y-42421110D01*
X119448510Y-42431402D01*
X119540586Y-42628860D01*
X119546069Y-42638355D01*
X119582509Y-42690397D01*
X119592988Y-42698773D01*
X119606434Y-42691705D01*
X120307978Y-41990161D01*
X120314356Y-41978481D01*
X121044408Y-41978481D01*
X121044539Y-41980314D01*
X121048790Y-41986929D01*
X121754287Y-42692426D01*
X121766062Y-42698856D01*
X121778077Y-42689560D01*
X121813931Y-42638355D01*
X121819414Y-42628860D01*
X121911490Y-42431402D01*
X121915236Y-42421110D01*
X121971625Y-42210661D01*
X121973528Y-42199868D01*
X121992517Y-41982824D01*
X121992517Y-41971874D01*
X121973528Y-41754830D01*
X121971625Y-41744037D01*
X121915236Y-41533588D01*
X121911490Y-41523296D01*
X121819414Y-41325838D01*
X121813931Y-41316343D01*
X121777491Y-41264301D01*
X121767012Y-41255925D01*
X121753566Y-41262993D01*
X121052022Y-41964537D01*
X121044408Y-41978481D01*
X120314356Y-41978481D01*
X120315592Y-41976217D01*
X120315461Y-41974384D01*
X120311210Y-41967769D01*
X119605713Y-41262272D01*
X119593938Y-41255842D01*
X119581923Y-41265138D01*
X119546069Y-41316343D01*
X119540586Y-41325838D01*
X119448510Y-41523296D01*
X119444764Y-41533588D01*
X119388375Y-41744037D01*
X119386472Y-41754830D01*
X119367483Y-41971874D01*
X119367483Y-41982824D01*
X101288374Y-41982824D01*
X101292517Y-41935475D01*
X101292517Y-41924525D01*
X101273528Y-41707481D01*
X101271625Y-41696688D01*
X101215236Y-41486239D01*
X101211490Y-41475947D01*
X101119414Y-41278489D01*
X101113931Y-41268994D01*
X101077491Y-41216952D01*
X101067012Y-41208576D01*
X101053566Y-41215644D01*
X100352022Y-41917188D01*
X100344408Y-41931132D01*
X99614356Y-41931132D01*
X99615592Y-41928868D01*
X99615461Y-41927035D01*
X99611210Y-41920420D01*
X98905713Y-41214923D01*
X98893938Y-41208493D01*
X98881923Y-41217789D01*
X98846069Y-41268994D01*
X98840586Y-41278489D01*
X98748510Y-41475947D01*
X98744764Y-41486239D01*
X98688375Y-41696688D01*
X98686472Y-41707481D01*
X98667483Y-41924525D01*
X98667483Y-41935475D01*
X79608000Y-41935475D01*
X79608000Y-40278134D01*
X98671500Y-40278134D01*
X98678255Y-40340316D01*
X98729385Y-40476705D01*
X98816739Y-40593261D01*
X98933295Y-40680615D01*
X99069684Y-40731745D01*
X99113252Y-40736478D01*
X99128486Y-40738133D01*
X99128489Y-40738133D01*
X99131866Y-40738500D01*
X99135185Y-40738500D01*
X99202110Y-40762153D01*
X99237804Y-40808156D01*
X99239734Y-40807141D01*
X99245442Y-40818000D01*
X99245632Y-40818245D01*
X99245653Y-40818403D01*
X99265644Y-40856434D01*
X99967188Y-41557978D01*
X99981132Y-41565592D01*
X99982965Y-41565461D01*
X99989580Y-41561210D01*
X100695077Y-40855713D01*
X100717871Y-40813971D01*
X100720047Y-40803971D01*
X100770253Y-40753773D01*
X100823814Y-40738549D01*
X100824719Y-40738500D01*
X100828134Y-40738500D01*
X100831530Y-40738131D01*
X100831532Y-40738131D01*
X100843879Y-40736790D01*
X100890316Y-40731745D01*
X101026705Y-40680615D01*
X101143261Y-40593261D01*
X101230615Y-40476705D01*
X101281745Y-40340316D01*
X101283356Y-40325483D01*
X119371500Y-40325483D01*
X119378255Y-40387665D01*
X119429385Y-40524054D01*
X119516739Y-40640610D01*
X119633295Y-40727964D01*
X119769684Y-40779094D01*
X119813252Y-40783827D01*
X119828486Y-40785482D01*
X119828489Y-40785482D01*
X119831866Y-40785849D01*
X119835185Y-40785849D01*
X119902110Y-40809502D01*
X119937804Y-40855505D01*
X119939734Y-40854490D01*
X119945442Y-40865349D01*
X119945632Y-40865594D01*
X119945653Y-40865752D01*
X119965644Y-40903783D01*
X120667188Y-41605327D01*
X120681132Y-41612941D01*
X120682965Y-41612810D01*
X120689580Y-41608559D01*
X121395077Y-40903062D01*
X121417871Y-40861320D01*
X121420047Y-40851320D01*
X121470253Y-40801122D01*
X121523814Y-40785898D01*
X121524719Y-40785849D01*
X121528134Y-40785849D01*
X121531530Y-40785480D01*
X121531532Y-40785480D01*
X121543879Y-40784139D01*
X121590316Y-40779094D01*
X121726705Y-40727964D01*
X121843261Y-40640610D01*
X121930615Y-40524054D01*
X121981745Y-40387665D01*
X121988500Y-40325483D01*
X121988500Y-38629215D01*
X121981745Y-38567033D01*
X121930615Y-38430644D01*
X121843261Y-38314088D01*
X121726705Y-38226734D01*
X121590316Y-38175604D01*
X121528134Y-38168849D01*
X119831866Y-38168849D01*
X119769684Y-38175604D01*
X119633295Y-38226734D01*
X119516739Y-38314088D01*
X119429385Y-38430644D01*
X119378255Y-38567033D01*
X119371500Y-38629215D01*
X119371500Y-40325483D01*
X101283356Y-40325483D01*
X101288500Y-40278134D01*
X101288500Y-38581866D01*
X101281745Y-38519684D01*
X101230615Y-38383295D01*
X101143261Y-38266739D01*
X101026705Y-38179385D01*
X100890316Y-38128255D01*
X100828134Y-38121500D01*
X99131866Y-38121500D01*
X99069684Y-38128255D01*
X98933295Y-38179385D01*
X98816739Y-38266739D01*
X98729385Y-38383295D01*
X98678255Y-38519684D01*
X98671500Y-38581866D01*
X98671500Y-40278134D01*
X79608000Y-40278134D01*
X79608000Y-36425000D01*
X145896502Y-36425000D01*
X145916457Y-36653087D01*
X145975716Y-36874243D01*
X145978039Y-36879224D01*
X145978039Y-36879225D01*
X146070151Y-37076762D01*
X146070154Y-37076767D01*
X146072477Y-37081749D01*
X146203802Y-37269300D01*
X146365700Y-37431198D01*
X146370208Y-37434355D01*
X146370211Y-37434357D01*
X146448389Y-37489098D01*
X146553251Y-37562523D01*
X146558233Y-37564846D01*
X146558238Y-37564849D01*
X146755775Y-37656961D01*
X146760757Y-37659284D01*
X146766065Y-37660706D01*
X146766067Y-37660707D01*
X146976598Y-37717119D01*
X146976600Y-37717119D01*
X146981913Y-37718543D01*
X147210000Y-37738498D01*
X147438087Y-37718543D01*
X147443400Y-37717119D01*
X147443402Y-37717119D01*
X147653933Y-37660707D01*
X147653935Y-37660706D01*
X147659243Y-37659284D01*
X147664225Y-37656961D01*
X147861762Y-37564849D01*
X147861767Y-37564846D01*
X147866749Y-37562523D01*
X147971611Y-37489098D01*
X148049789Y-37434357D01*
X148049792Y-37434355D01*
X148054300Y-37431198D01*
X148216198Y-37269300D01*
X148347523Y-37081749D01*
X148349846Y-37076767D01*
X148349849Y-37076762D01*
X148441961Y-36879225D01*
X148441961Y-36879224D01*
X148444284Y-36874243D01*
X148503543Y-36653087D01*
X148523498Y-36425000D01*
X148503543Y-36196913D01*
X148444284Y-35975757D01*
X148441961Y-35970775D01*
X148349849Y-35773238D01*
X148349846Y-35773233D01*
X148347523Y-35768251D01*
X148216198Y-35580700D01*
X148054300Y-35418802D01*
X148049792Y-35415645D01*
X148049789Y-35415643D01*
X147971611Y-35360902D01*
X147866749Y-35287477D01*
X147861767Y-35285154D01*
X147861762Y-35285151D01*
X147664225Y-35193039D01*
X147664224Y-35193039D01*
X147659243Y-35190716D01*
X147653935Y-35189294D01*
X147653933Y-35189293D01*
X147443402Y-35132881D01*
X147443400Y-35132881D01*
X147438087Y-35131457D01*
X147210000Y-35111502D01*
X146981913Y-35131457D01*
X146976600Y-35132881D01*
X146976598Y-35132881D01*
X146766067Y-35189293D01*
X146766065Y-35189294D01*
X146760757Y-35190716D01*
X146755776Y-35193039D01*
X146755775Y-35193039D01*
X146558238Y-35285151D01*
X146558233Y-35285154D01*
X146553251Y-35287477D01*
X146448389Y-35360902D01*
X146370211Y-35415643D01*
X146370208Y-35415645D01*
X146365700Y-35418802D01*
X146203802Y-35580700D01*
X146072477Y-35768251D01*
X146070154Y-35773233D01*
X146070151Y-35773238D01*
X145978039Y-35970775D01*
X145975716Y-35975757D01*
X145916457Y-36196913D01*
X145896502Y-36425000D01*
X79608000Y-36425000D01*
X79608000Y-29862966D01*
X83648257Y-29862966D01*
X83678565Y-29997446D01*
X83681645Y-30007275D01*
X83761770Y-30204603D01*
X83766413Y-30213794D01*
X83877694Y-30395388D01*
X83883777Y-30403699D01*
X84023213Y-30564667D01*
X84030580Y-30571883D01*
X84194434Y-30707916D01*
X84202881Y-30713831D01*
X84386756Y-30821279D01*
X84396042Y-30825729D01*
X84595001Y-30901703D01*
X84604899Y-30904579D01*
X84708250Y-30925606D01*
X84722299Y-30924410D01*
X84726000Y-30914065D01*
X84726000Y-30913517D01*
X85234000Y-30913517D01*
X85238064Y-30927359D01*
X85251478Y-30929393D01*
X85258184Y-30928534D01*
X85268262Y-30926392D01*
X85472255Y-30865191D01*
X85481842Y-30861433D01*
X85673095Y-30767739D01*
X85681945Y-30762464D01*
X85855328Y-30638792D01*
X85863200Y-30632139D01*
X86014052Y-30481812D01*
X86020131Y-30474669D01*
X136972001Y-30474669D01*
X136972371Y-30481490D01*
X136977895Y-30532352D01*
X136981521Y-30547604D01*
X137026676Y-30668054D01*
X137035214Y-30683649D01*
X137111715Y-30785724D01*
X137124276Y-30798285D01*
X137226351Y-30874786D01*
X137241946Y-30883324D01*
X137362394Y-30928478D01*
X137377649Y-30932105D01*
X137428514Y-30937631D01*
X137435328Y-30938000D01*
X138107885Y-30938000D01*
X138123124Y-30933525D01*
X138124329Y-30932135D01*
X138126000Y-30924452D01*
X138126000Y-30919884D01*
X138634000Y-30919884D01*
X138638475Y-30935123D01*
X138639865Y-30936328D01*
X138647548Y-30937999D01*
X139324669Y-30937999D01*
X139331490Y-30937629D01*
X139382352Y-30932105D01*
X139397604Y-30928479D01*
X139518054Y-30883324D01*
X139533649Y-30874786D01*
X139635724Y-30798285D01*
X139648285Y-30785724D01*
X139724786Y-30683649D01*
X139733324Y-30668054D01*
X139778478Y-30547606D01*
X139782105Y-30532351D01*
X139787631Y-30481486D01*
X139788000Y-30474672D01*
X139788000Y-29802115D01*
X139783525Y-29786876D01*
X139782135Y-29785671D01*
X139774452Y-29784000D01*
X138652115Y-29784000D01*
X138636876Y-29788475D01*
X138635671Y-29789865D01*
X138634000Y-29797548D01*
X138634000Y-30919884D01*
X138126000Y-30919884D01*
X138126000Y-29802115D01*
X138121525Y-29786876D01*
X138120135Y-29785671D01*
X138112452Y-29784000D01*
X136990116Y-29784000D01*
X136974877Y-29788475D01*
X136973672Y-29789865D01*
X136972001Y-29797548D01*
X136972001Y-30474669D01*
X86020131Y-30474669D01*
X86020730Y-30473965D01*
X86145003Y-30301020D01*
X86150313Y-30292183D01*
X86244670Y-30101267D01*
X86248469Y-30091672D01*
X86310377Y-29887910D01*
X86312555Y-29877837D01*
X86313986Y-29866962D01*
X86311775Y-29852778D01*
X86298617Y-29849000D01*
X85252115Y-29849000D01*
X85236876Y-29853475D01*
X85235671Y-29854865D01*
X85234000Y-29862548D01*
X85234000Y-30913517D01*
X84726000Y-30913517D01*
X84726000Y-29867115D01*
X84721525Y-29851876D01*
X84720135Y-29850671D01*
X84712452Y-29849000D01*
X83663225Y-29849000D01*
X83649694Y-29852973D01*
X83648257Y-29862966D01*
X79608000Y-29862966D01*
X79608000Y-27953134D01*
X83621500Y-27953134D01*
X83628255Y-28015316D01*
X83679385Y-28151705D01*
X83766739Y-28268261D01*
X83883295Y-28355615D01*
X83891704Y-28358767D01*
X83891705Y-28358768D01*
X84000960Y-28399726D01*
X84057725Y-28442367D01*
X84082425Y-28508929D01*
X84067218Y-28578278D01*
X84047825Y-28604759D01*
X83924590Y-28733717D01*
X83918104Y-28741727D01*
X83798098Y-28917649D01*
X83793000Y-28926623D01*
X83703338Y-29119783D01*
X83699775Y-29129470D01*
X83644389Y-29329183D01*
X83645912Y-29337607D01*
X83658292Y-29341000D01*
X86298344Y-29341000D01*
X86311875Y-29337027D01*
X86313180Y-29327947D01*
X86271214Y-29160875D01*
X86267894Y-29151124D01*
X86182972Y-28955814D01*
X86178105Y-28946739D01*
X86062426Y-28767926D01*
X86056136Y-28759757D01*
X85912293Y-28601677D01*
X85881241Y-28537831D01*
X85889635Y-28467333D01*
X85934812Y-28412564D01*
X85961256Y-28398895D01*
X86068297Y-28358767D01*
X86076705Y-28355615D01*
X86193261Y-28268261D01*
X86280615Y-28151705D01*
X86331745Y-28015316D01*
X86338500Y-27953134D01*
X86338500Y-26996695D01*
X92137251Y-26996695D01*
X92137548Y-27001848D01*
X92137548Y-27001851D01*
X92149812Y-27214547D01*
X92150110Y-27219715D01*
X92151247Y-27224761D01*
X92151248Y-27224767D01*
X92165650Y-27288671D01*
X92199222Y-27437639D01*
X92283266Y-27644616D01*
X92320685Y-27705678D01*
X92397291Y-27830688D01*
X92399987Y-27835088D01*
X92546250Y-28003938D01*
X92718126Y-28146632D01*
X92911000Y-28259338D01*
X92915825Y-28261180D01*
X92915826Y-28261181D01*
X92988612Y-28288975D01*
X93119692Y-28339030D01*
X93124760Y-28340061D01*
X93124763Y-28340062D01*
X93201209Y-28355615D01*
X93338597Y-28383567D01*
X93343772Y-28383757D01*
X93343774Y-28383757D01*
X93556673Y-28391564D01*
X93556677Y-28391564D01*
X93561837Y-28391753D01*
X93566957Y-28391097D01*
X93566959Y-28391097D01*
X93778288Y-28364025D01*
X93778289Y-28364025D01*
X93783416Y-28363368D01*
X93788366Y-28361883D01*
X93992429Y-28300661D01*
X93992434Y-28300659D01*
X93997384Y-28299174D01*
X94197994Y-28200896D01*
X94379860Y-28071173D01*
X94432441Y-28018776D01*
X94486200Y-27965204D01*
X94538096Y-27913489D01*
X94542002Y-27908054D01*
X94668453Y-27732077D01*
X94669776Y-27733028D01*
X94716645Y-27689857D01*
X94786580Y-27677625D01*
X94852026Y-27705144D01*
X94879875Y-27736994D01*
X94939987Y-27835088D01*
X95086250Y-28003938D01*
X95258126Y-28146632D01*
X95451000Y-28259338D01*
X95455825Y-28261180D01*
X95455826Y-28261181D01*
X95528612Y-28288975D01*
X95659692Y-28339030D01*
X95664760Y-28340061D01*
X95664763Y-28340062D01*
X95741209Y-28355615D01*
X95878597Y-28383567D01*
X95883772Y-28383757D01*
X95883774Y-28383757D01*
X96096673Y-28391564D01*
X96096677Y-28391564D01*
X96101837Y-28391753D01*
X96106957Y-28391097D01*
X96106959Y-28391097D01*
X96318288Y-28364025D01*
X96318289Y-28364025D01*
X96323416Y-28363368D01*
X96328366Y-28361883D01*
X96532429Y-28300661D01*
X96532434Y-28300659D01*
X96537384Y-28299174D01*
X96737994Y-28200896D01*
X96919860Y-28071173D01*
X97028091Y-27963319D01*
X97090462Y-27929404D01*
X97161268Y-27934592D01*
X97218030Y-27977238D01*
X97235012Y-28008341D01*
X97262450Y-28081531D01*
X97279385Y-28126705D01*
X97366739Y-28243261D01*
X97483295Y-28330615D01*
X97619684Y-28381745D01*
X97681866Y-28388500D01*
X99478134Y-28388500D01*
X99540316Y-28381745D01*
X99676705Y-28330615D01*
X99793261Y-28243261D01*
X99880615Y-28126705D01*
X99898823Y-28078134D01*
X105679000Y-28078134D01*
X105685755Y-28140316D01*
X105736885Y-28276705D01*
X105824239Y-28393261D01*
X105940795Y-28480615D01*
X106077184Y-28531745D01*
X106139366Y-28538500D01*
X108140634Y-28538500D01*
X108202816Y-28531745D01*
X108339205Y-28480615D01*
X108455761Y-28393261D01*
X108543115Y-28276705D01*
X108550758Y-28256317D01*
X108593401Y-28199553D01*
X108659962Y-28174854D01*
X108729311Y-28190062D01*
X108746832Y-28201666D01*
X108864944Y-28294945D01*
X108873531Y-28300650D01*
X109074722Y-28411714D01*
X109084134Y-28415944D01*
X109300768Y-28492659D01*
X109310739Y-28495293D01*
X109408163Y-28512647D01*
X109421460Y-28511187D01*
X109425543Y-28498096D01*
X109934000Y-28498096D01*
X109937918Y-28511440D01*
X109952194Y-28513427D01*
X110014515Y-28503890D01*
X110024543Y-28501501D01*
X110242988Y-28430102D01*
X110252497Y-28426105D01*
X110456344Y-28319989D01*
X110465069Y-28314495D01*
X110648852Y-28176507D01*
X110656559Y-28169664D01*
X110815339Y-28003509D01*
X110821823Y-27995502D01*
X110844237Y-27962644D01*
X110899148Y-27917641D01*
X110969672Y-27909468D01*
X111033420Y-27940722D01*
X111054116Y-27965204D01*
X111058498Y-27971977D01*
X111220186Y-28149670D01*
X111297017Y-28210347D01*
X111404670Y-28295367D01*
X111404675Y-28295370D01*
X111408724Y-28298568D01*
X111413240Y-28301061D01*
X111413243Y-28301063D01*
X111614526Y-28412177D01*
X111614530Y-28412179D01*
X111619050Y-28414674D01*
X111623919Y-28416398D01*
X111623923Y-28416400D01*
X111840640Y-28493144D01*
X111840644Y-28493145D01*
X111845515Y-28494870D01*
X111850608Y-28495777D01*
X111850611Y-28495778D01*
X112076948Y-28536095D01*
X112076954Y-28536096D01*
X112082037Y-28537001D01*
X112169400Y-28538068D01*
X112317093Y-28539873D01*
X112317095Y-28539873D01*
X112322263Y-28539936D01*
X112559744Y-28503596D01*
X112671997Y-28466906D01*
X112783183Y-28430566D01*
X112783189Y-28430563D01*
X112788101Y-28428958D01*
X112792687Y-28426571D01*
X112792691Y-28426569D01*
X112996607Y-28320416D01*
X113001200Y-28318025D01*
X113093609Y-28248642D01*
X113189185Y-28176882D01*
X113189188Y-28176880D01*
X113193320Y-28173777D01*
X113352466Y-28007240D01*
X113355728Y-28003827D01*
X113359301Y-28000088D01*
X113474858Y-27830689D01*
X113491774Y-27805891D01*
X113491775Y-27805890D01*
X113494686Y-27801622D01*
X113505560Y-27778197D01*
X113593658Y-27588405D01*
X113593659Y-27588401D01*
X113595837Y-27583710D01*
X113660040Y-27352202D01*
X113666301Y-27293617D01*
X113680644Y-27159407D01*
X113680644Y-27159399D01*
X113681000Y-27156072D01*
X113681000Y-26930000D01*
X119456502Y-26930000D01*
X119476457Y-27158087D01*
X119477881Y-27163400D01*
X119477881Y-27163402D01*
X119529806Y-27357185D01*
X119535716Y-27379243D01*
X119538039Y-27384224D01*
X119538039Y-27384225D01*
X119630151Y-27581762D01*
X119630154Y-27581767D01*
X119632477Y-27586749D01*
X119763802Y-27774300D01*
X119925700Y-27936198D01*
X119930208Y-27939355D01*
X119930211Y-27939357D01*
X119982253Y-27975797D01*
X120113251Y-28067523D01*
X120118233Y-28069846D01*
X120118238Y-28069849D01*
X120310150Y-28159338D01*
X120320757Y-28164284D01*
X120326065Y-28165706D01*
X120326067Y-28165707D01*
X120536598Y-28222119D01*
X120536600Y-28222119D01*
X120541913Y-28223543D01*
X120770000Y-28243498D01*
X120998087Y-28223543D01*
X121003400Y-28222119D01*
X121003402Y-28222119D01*
X121213933Y-28165707D01*
X121213935Y-28165706D01*
X121219243Y-28164284D01*
X121229850Y-28159338D01*
X121421762Y-28069849D01*
X121421767Y-28069846D01*
X121426749Y-28067523D01*
X121557747Y-27975797D01*
X121609789Y-27939357D01*
X121609792Y-27939355D01*
X121614300Y-27936198D01*
X121776198Y-27774300D01*
X121907523Y-27586749D01*
X121909846Y-27581767D01*
X121909849Y-27581762D01*
X122001961Y-27384225D01*
X122001961Y-27384224D01*
X122004284Y-27379243D01*
X122010195Y-27357185D01*
X122062119Y-27163402D01*
X122062119Y-27163400D01*
X122063543Y-27158087D01*
X122083498Y-26930000D01*
X127076502Y-26930000D01*
X127096457Y-27158087D01*
X127097881Y-27163400D01*
X127097881Y-27163402D01*
X127149806Y-27357185D01*
X127155716Y-27379243D01*
X127158039Y-27384224D01*
X127158039Y-27384225D01*
X127250151Y-27581762D01*
X127250154Y-27581767D01*
X127252477Y-27586749D01*
X127383802Y-27774300D01*
X127545700Y-27936198D01*
X127550208Y-27939355D01*
X127550211Y-27939357D01*
X127602253Y-27975797D01*
X127733251Y-28067523D01*
X127738233Y-28069846D01*
X127738238Y-28069849D01*
X127930150Y-28159338D01*
X127940757Y-28164284D01*
X127946065Y-28165706D01*
X127946067Y-28165707D01*
X128156598Y-28222119D01*
X128156600Y-28222119D01*
X128161913Y-28223543D01*
X128390000Y-28243498D01*
X128618087Y-28223543D01*
X128623400Y-28222119D01*
X128623402Y-28222119D01*
X128833933Y-28165707D01*
X128833935Y-28165706D01*
X128839243Y-28164284D01*
X128849850Y-28159338D01*
X129041762Y-28069849D01*
X129041767Y-28069846D01*
X129046749Y-28067523D01*
X129177747Y-27975797D01*
X129229789Y-27939357D01*
X129229792Y-27939355D01*
X129234300Y-27936198D01*
X129396198Y-27774300D01*
X129527523Y-27586749D01*
X129529846Y-27581767D01*
X129529849Y-27581762D01*
X129621961Y-27384225D01*
X129621961Y-27384224D01*
X129624284Y-27379243D01*
X129630195Y-27357185D01*
X129682119Y-27163402D01*
X129682119Y-27163400D01*
X129683543Y-27158087D01*
X129701270Y-26955469D01*
X136967095Y-26955469D01*
X136967392Y-26960622D01*
X136967392Y-26960625D01*
X136979084Y-27163402D01*
X136980427Y-27186697D01*
X136981564Y-27191743D01*
X136981565Y-27191749D01*
X137009778Y-27316937D01*
X137031346Y-27412642D01*
X137033288Y-27417424D01*
X137033289Y-27417428D01*
X137102716Y-27588405D01*
X137118484Y-27627237D01*
X137239501Y-27824719D01*
X137242882Y-27828622D01*
X137351653Y-27954191D01*
X137381135Y-28018776D01*
X137371020Y-28089049D01*
X137324519Y-28142697D01*
X137300646Y-28154670D01*
X137241944Y-28176677D01*
X137226351Y-28185214D01*
X137124276Y-28261715D01*
X137111715Y-28274276D01*
X137035214Y-28376351D01*
X137026676Y-28391946D01*
X136981522Y-28512394D01*
X136977895Y-28527649D01*
X136972369Y-28578514D01*
X136972000Y-28585328D01*
X136972000Y-29257885D01*
X136976475Y-29273124D01*
X136977865Y-29274329D01*
X136985548Y-29276000D01*
X139769884Y-29276000D01*
X139771692Y-29275469D01*
X146097095Y-29275469D01*
X146097392Y-29280622D01*
X146097392Y-29280625D01*
X146103067Y-29379041D01*
X146110427Y-29506697D01*
X146111564Y-29511743D01*
X146111565Y-29511749D01*
X146143741Y-29654523D01*
X146161346Y-29732642D01*
X146163288Y-29737424D01*
X146163289Y-29737428D01*
X146224394Y-29887910D01*
X146248484Y-29947237D01*
X146369501Y-30144719D01*
X146521147Y-30319784D01*
X146699349Y-30467730D01*
X146899322Y-30584584D01*
X147115694Y-30667209D01*
X147120760Y-30668240D01*
X147120761Y-30668240D01*
X147173846Y-30679040D01*
X147342656Y-30713385D01*
X147473324Y-30718176D01*
X147568949Y-30721683D01*
X147568953Y-30721683D01*
X147574113Y-30721872D01*
X147579233Y-30721216D01*
X147579235Y-30721216D01*
X147683055Y-30707916D01*
X147803847Y-30692442D01*
X147808795Y-30690957D01*
X147808802Y-30690956D01*
X148020747Y-30627369D01*
X148025690Y-30625886D01*
X148106236Y-30586427D01*
X148229049Y-30526262D01*
X148229052Y-30526260D01*
X148233684Y-30523991D01*
X148422243Y-30389494D01*
X148586303Y-30226005D01*
X148595078Y-30213794D01*
X148682831Y-30091672D01*
X148721458Y-30037917D01*
X148768641Y-29942450D01*
X148821784Y-29834922D01*
X148821785Y-29834920D01*
X148824078Y-29830280D01*
X148891408Y-29608671D01*
X148921640Y-29379041D01*
X148922570Y-29341000D01*
X148923245Y-29313365D01*
X148923245Y-29313361D01*
X148923327Y-29310000D01*
X148908485Y-29129470D01*
X148904773Y-29084318D01*
X148904772Y-29084312D01*
X148904349Y-29079167D01*
X148873365Y-28955814D01*
X148849184Y-28859544D01*
X148849183Y-28859540D01*
X148847925Y-28854533D01*
X148845866Y-28849797D01*
X148757630Y-28646868D01*
X148757628Y-28646865D01*
X148755570Y-28642131D01*
X148629764Y-28447665D01*
X148597473Y-28412177D01*
X148570499Y-28382534D01*
X148539486Y-28348450D01*
X148508434Y-28284605D01*
X148516829Y-28214106D01*
X148562005Y-28159338D01*
X148588449Y-28145669D01*
X148648054Y-28123324D01*
X148663649Y-28114786D01*
X148765724Y-28038285D01*
X148778285Y-28025724D01*
X148854786Y-27923649D01*
X148863324Y-27908054D01*
X148908478Y-27787606D01*
X148912105Y-27772351D01*
X148917631Y-27721486D01*
X148918000Y-27714672D01*
X148918000Y-27042115D01*
X148913525Y-27026876D01*
X148912135Y-27025671D01*
X148904452Y-27024000D01*
X146120116Y-27024000D01*
X146104877Y-27028475D01*
X146103672Y-27029865D01*
X146102001Y-27037548D01*
X146102001Y-27714669D01*
X146102371Y-27721490D01*
X146107895Y-27772352D01*
X146111521Y-27787604D01*
X146156676Y-27908054D01*
X146165214Y-27923649D01*
X146241715Y-28025724D01*
X146254276Y-28038285D01*
X146356351Y-28114786D01*
X146371946Y-28123324D01*
X146431540Y-28145665D01*
X146488304Y-28188307D01*
X146513004Y-28254868D01*
X146497796Y-28324217D01*
X146478404Y-28350698D01*
X146467716Y-28361883D01*
X146411639Y-28420564D01*
X146408725Y-28424836D01*
X146408724Y-28424837D01*
X146337689Y-28528971D01*
X146281119Y-28611899D01*
X146183602Y-28821981D01*
X146121707Y-29045169D01*
X146097095Y-29275469D01*
X139771692Y-29275469D01*
X139785123Y-29271525D01*
X139786328Y-29270135D01*
X139787999Y-29262452D01*
X139787999Y-28585331D01*
X139787629Y-28578510D01*
X139782105Y-28527648D01*
X139778479Y-28512396D01*
X139733324Y-28391946D01*
X139724786Y-28376351D01*
X139648285Y-28274276D01*
X139635724Y-28261715D01*
X139533649Y-28185214D01*
X139518052Y-28176675D01*
X139459415Y-28154693D01*
X139402650Y-28112052D01*
X139377950Y-28045490D01*
X139393157Y-27976141D01*
X139414703Y-27947461D01*
X139452641Y-27909654D01*
X139456303Y-27906005D01*
X139591458Y-27717917D01*
X139611372Y-27677625D01*
X139691784Y-27514922D01*
X139691785Y-27514920D01*
X139694078Y-27510280D01*
X139761408Y-27288671D01*
X139791640Y-27059041D01*
X139792426Y-27026876D01*
X139793245Y-26993365D01*
X139793245Y-26993361D01*
X139793327Y-26990000D01*
X139776038Y-26779707D01*
X139774773Y-26764318D01*
X139774772Y-26764312D01*
X139774349Y-26759167D01*
X139725401Y-26564297D01*
X139719184Y-26539544D01*
X139719183Y-26539540D01*
X139717925Y-26534533D01*
X139709867Y-26516000D01*
X139701990Y-26497885D01*
X146102000Y-26497885D01*
X146106475Y-26513124D01*
X146107865Y-26514329D01*
X146115548Y-26516000D01*
X147237885Y-26516000D01*
X147253124Y-26511525D01*
X147254329Y-26510135D01*
X147256000Y-26502452D01*
X147256000Y-26497885D01*
X147764000Y-26497885D01*
X147768475Y-26513124D01*
X147769865Y-26514329D01*
X147777548Y-26516000D01*
X148899884Y-26516000D01*
X148915123Y-26511525D01*
X148916328Y-26510135D01*
X148917999Y-26502452D01*
X148917999Y-25825331D01*
X148917629Y-25818510D01*
X148912105Y-25767648D01*
X148908479Y-25752396D01*
X148863324Y-25631946D01*
X148854786Y-25616351D01*
X148778285Y-25514276D01*
X148765724Y-25501715D01*
X148663649Y-25425214D01*
X148648054Y-25416676D01*
X148527606Y-25371522D01*
X148512351Y-25367895D01*
X148461486Y-25362369D01*
X148454672Y-25362000D01*
X147782115Y-25362000D01*
X147766876Y-25366475D01*
X147765671Y-25367865D01*
X147764000Y-25375548D01*
X147764000Y-26497885D01*
X147256000Y-26497885D01*
X147256000Y-25380116D01*
X147251525Y-25364877D01*
X147250135Y-25363672D01*
X147242452Y-25362001D01*
X146565331Y-25362001D01*
X146558510Y-25362371D01*
X146507648Y-25367895D01*
X146492396Y-25371521D01*
X146371946Y-25416676D01*
X146356351Y-25425214D01*
X146254276Y-25501715D01*
X146241715Y-25514276D01*
X146165214Y-25616351D01*
X146156676Y-25631946D01*
X146111522Y-25752394D01*
X146107895Y-25767649D01*
X146102369Y-25818514D01*
X146102000Y-25825328D01*
X146102000Y-26497885D01*
X139701990Y-26497885D01*
X139627630Y-26326868D01*
X139627628Y-26326865D01*
X139625570Y-26322131D01*
X139499764Y-26127665D01*
X139492125Y-26119269D01*
X139430830Y-26051907D01*
X139343887Y-25956358D01*
X139339836Y-25953159D01*
X139339832Y-25953155D01*
X139166177Y-25816011D01*
X139166172Y-25816008D01*
X139162123Y-25812810D01*
X139157607Y-25810317D01*
X139157604Y-25810315D01*
X138963879Y-25703373D01*
X138963875Y-25703371D01*
X138959355Y-25700876D01*
X138954486Y-25699152D01*
X138954482Y-25699150D01*
X138745903Y-25625288D01*
X138745899Y-25625287D01*
X138741028Y-25623562D01*
X138735935Y-25622655D01*
X138735932Y-25622654D01*
X138518095Y-25583851D01*
X138518089Y-25583850D01*
X138513006Y-25582945D01*
X138440096Y-25582054D01*
X138286581Y-25580179D01*
X138286579Y-25580179D01*
X138281411Y-25580116D01*
X138052464Y-25615150D01*
X137832314Y-25687106D01*
X137827726Y-25689494D01*
X137827722Y-25689496D01*
X137634366Y-25790151D01*
X137626872Y-25794052D01*
X137622739Y-25797155D01*
X137622736Y-25797157D01*
X137448871Y-25927699D01*
X137441655Y-25933117D01*
X137398316Y-25978469D01*
X137291533Y-26090211D01*
X137281639Y-26100564D01*
X137278725Y-26104836D01*
X137278724Y-26104837D01*
X137257955Y-26135283D01*
X137151119Y-26291899D01*
X137053602Y-26501981D01*
X136991707Y-26725169D01*
X136967095Y-26955469D01*
X129701270Y-26955469D01*
X129703498Y-26930000D01*
X129683543Y-26701913D01*
X129640036Y-26539544D01*
X129625707Y-26486067D01*
X129625706Y-26486065D01*
X129624284Y-26480757D01*
X129580024Y-26385840D01*
X129529849Y-26278238D01*
X129529846Y-26278233D01*
X129527523Y-26273251D01*
X129435866Y-26142352D01*
X129399357Y-26090211D01*
X129399355Y-26090208D01*
X129396198Y-26085700D01*
X129234300Y-25923802D01*
X129229792Y-25920645D01*
X129229789Y-25920643D01*
X129093665Y-25825328D01*
X129046749Y-25792477D01*
X129041767Y-25790154D01*
X129041762Y-25790151D01*
X128844225Y-25698039D01*
X128844224Y-25698039D01*
X128839243Y-25695716D01*
X128833935Y-25694294D01*
X128833933Y-25694293D01*
X128623402Y-25637881D01*
X128623400Y-25637881D01*
X128618087Y-25636457D01*
X128390000Y-25616502D01*
X128161913Y-25636457D01*
X128156600Y-25637881D01*
X128156598Y-25637881D01*
X127946067Y-25694293D01*
X127946065Y-25694294D01*
X127940757Y-25695716D01*
X127935776Y-25698039D01*
X127935775Y-25698039D01*
X127738238Y-25790151D01*
X127738233Y-25790154D01*
X127733251Y-25792477D01*
X127686335Y-25825328D01*
X127550211Y-25920643D01*
X127550208Y-25920645D01*
X127545700Y-25923802D01*
X127383802Y-26085700D01*
X127380645Y-26090208D01*
X127380643Y-26090211D01*
X127344134Y-26142352D01*
X127252477Y-26273251D01*
X127250154Y-26278233D01*
X127250151Y-26278238D01*
X127199976Y-26385840D01*
X127155716Y-26480757D01*
X127154294Y-26486065D01*
X127154293Y-26486067D01*
X127139964Y-26539544D01*
X127096457Y-26701913D01*
X127076502Y-26930000D01*
X122083498Y-26930000D01*
X122063543Y-26701913D01*
X122020036Y-26539544D01*
X122005707Y-26486067D01*
X122005706Y-26486065D01*
X122004284Y-26480757D01*
X121960024Y-26385840D01*
X121909849Y-26278238D01*
X121909846Y-26278233D01*
X121907523Y-26273251D01*
X121815866Y-26142352D01*
X121779357Y-26090211D01*
X121779355Y-26090208D01*
X121776198Y-26085700D01*
X121614300Y-25923802D01*
X121609792Y-25920645D01*
X121609789Y-25920643D01*
X121473665Y-25825328D01*
X121426749Y-25792477D01*
X121421767Y-25790154D01*
X121421762Y-25790151D01*
X121224225Y-25698039D01*
X121224224Y-25698039D01*
X121219243Y-25695716D01*
X121213935Y-25694294D01*
X121213933Y-25694293D01*
X121003402Y-25637881D01*
X121003400Y-25637881D01*
X120998087Y-25636457D01*
X120770000Y-25616502D01*
X120541913Y-25636457D01*
X120536600Y-25637881D01*
X120536598Y-25637881D01*
X120326067Y-25694293D01*
X120326065Y-25694294D01*
X120320757Y-25695716D01*
X120315776Y-25698039D01*
X120315775Y-25698039D01*
X120118238Y-25790151D01*
X120118233Y-25790154D01*
X120113251Y-25792477D01*
X120066335Y-25825328D01*
X119930211Y-25920643D01*
X119930208Y-25920645D01*
X119925700Y-25923802D01*
X119763802Y-26085700D01*
X119760645Y-26090208D01*
X119760643Y-26090211D01*
X119724134Y-26142352D01*
X119632477Y-26273251D01*
X119630154Y-26278233D01*
X119630151Y-26278238D01*
X119579976Y-26385840D01*
X119535716Y-26480757D01*
X119534294Y-26486065D01*
X119534293Y-26486067D01*
X119519964Y-26539544D01*
X119476457Y-26701913D01*
X119456502Y-26930000D01*
X113681000Y-26930000D01*
X113681000Y-26921598D01*
X113679548Y-26903928D01*
X113672487Y-26818054D01*
X113666322Y-26743063D01*
X113607794Y-26510056D01*
X113524196Y-26317793D01*
X113514057Y-26294474D01*
X113514055Y-26294471D01*
X113511997Y-26289737D01*
X113409958Y-26132009D01*
X113384310Y-26092363D01*
X113384308Y-26092360D01*
X113381502Y-26088023D01*
X113219814Y-25910330D01*
X113126149Y-25836358D01*
X113035330Y-25764633D01*
X113035325Y-25764630D01*
X113031276Y-25761432D01*
X113026760Y-25758939D01*
X113026757Y-25758937D01*
X112825474Y-25647823D01*
X112825470Y-25647821D01*
X112820950Y-25645326D01*
X112816081Y-25643602D01*
X112816077Y-25643600D01*
X112599360Y-25566856D01*
X112599356Y-25566855D01*
X112594485Y-25565130D01*
X112589392Y-25564223D01*
X112589389Y-25564222D01*
X112363052Y-25523905D01*
X112363046Y-25523904D01*
X112357963Y-25522999D01*
X112265474Y-25521869D01*
X112122907Y-25520127D01*
X112122905Y-25520127D01*
X112117737Y-25520064D01*
X111880256Y-25556404D01*
X111768003Y-25593094D01*
X111656817Y-25629434D01*
X111656811Y-25629437D01*
X111651899Y-25631042D01*
X111647313Y-25633429D01*
X111647309Y-25633431D01*
X111492933Y-25713795D01*
X111438800Y-25741975D01*
X111399143Y-25771750D01*
X111269867Y-25868814D01*
X111246680Y-25886223D01*
X111080699Y-26059912D01*
X111055160Y-26097351D01*
X111000249Y-26142352D01*
X110929725Y-26150523D01*
X110865978Y-26119269D01*
X110845284Y-26094790D01*
X110843915Y-26092674D01*
X110837622Y-26084502D01*
X110682950Y-25914520D01*
X110675417Y-25907494D01*
X110495056Y-25765055D01*
X110486469Y-25759350D01*
X110285278Y-25648286D01*
X110275866Y-25644056D01*
X110059232Y-25567341D01*
X110049261Y-25564707D01*
X109951837Y-25547353D01*
X109938540Y-25548813D01*
X109934000Y-25563370D01*
X109934000Y-28498096D01*
X109425543Y-28498096D01*
X109426000Y-28496630D01*
X109426000Y-25561904D01*
X109422082Y-25548560D01*
X109407806Y-25546573D01*
X109345485Y-25556110D01*
X109335457Y-25558499D01*
X109117012Y-25629898D01*
X109107503Y-25633895D01*
X108903656Y-25740011D01*
X108894939Y-25745500D01*
X108743901Y-25858902D01*
X108677416Y-25883807D01*
X108608020Y-25868814D01*
X108557747Y-25818684D01*
X108550268Y-25802375D01*
X108543115Y-25783295D01*
X108455761Y-25666739D01*
X108339205Y-25579385D01*
X108202816Y-25528255D01*
X108140634Y-25521500D01*
X106139366Y-25521500D01*
X106077184Y-25528255D01*
X105940795Y-25579385D01*
X105824239Y-25666739D01*
X105736885Y-25783295D01*
X105685755Y-25919684D01*
X105679000Y-25981866D01*
X105679000Y-28078134D01*
X99898823Y-28078134D01*
X99931745Y-27990316D01*
X99938500Y-27928134D01*
X99938500Y-26131866D01*
X99931745Y-26069684D01*
X99880615Y-25933295D01*
X99793261Y-25816739D01*
X99676705Y-25729385D01*
X99540316Y-25678255D01*
X99478134Y-25671500D01*
X97681866Y-25671500D01*
X97619684Y-25678255D01*
X97483295Y-25729385D01*
X97366739Y-25816739D01*
X97279385Y-25933295D01*
X97276233Y-25941703D01*
X97234919Y-26051907D01*
X97192277Y-26108671D01*
X97125716Y-26133371D01*
X97056367Y-26118163D01*
X97023743Y-26092476D01*
X96973151Y-26036875D01*
X96973142Y-26036866D01*
X96969670Y-26033051D01*
X96965619Y-26029852D01*
X96965615Y-26029848D01*
X96798414Y-25897800D01*
X96798410Y-25897798D01*
X96794359Y-25894598D01*
X96598789Y-25786638D01*
X96593920Y-25784914D01*
X96593916Y-25784912D01*
X96393087Y-25713795D01*
X96393083Y-25713794D01*
X96388212Y-25712069D01*
X96383119Y-25711162D01*
X96383116Y-25711161D01*
X96173373Y-25673800D01*
X96173367Y-25673799D01*
X96168284Y-25672894D01*
X96094452Y-25671992D01*
X95950081Y-25670228D01*
X95950079Y-25670228D01*
X95944911Y-25670165D01*
X95724091Y-25703955D01*
X95511756Y-25773357D01*
X95313607Y-25876507D01*
X95309474Y-25879610D01*
X95309471Y-25879612D01*
X95139100Y-26007530D01*
X95134965Y-26010635D01*
X95095525Y-26051907D01*
X94998470Y-26153469D01*
X94980629Y-26172138D01*
X94873201Y-26329621D01*
X94818293Y-26374621D01*
X94747768Y-26382792D01*
X94684021Y-26351538D01*
X94663324Y-26327054D01*
X94582822Y-26202617D01*
X94582820Y-26202614D01*
X94580014Y-26198277D01*
X94429670Y-26033051D01*
X94425619Y-26029852D01*
X94425615Y-26029848D01*
X94258414Y-25897800D01*
X94258410Y-25897798D01*
X94254359Y-25894598D01*
X94058789Y-25786638D01*
X94053920Y-25784914D01*
X94053916Y-25784912D01*
X93853087Y-25713795D01*
X93853083Y-25713794D01*
X93848212Y-25712069D01*
X93843119Y-25711162D01*
X93843116Y-25711161D01*
X93633373Y-25673800D01*
X93633367Y-25673799D01*
X93628284Y-25672894D01*
X93554452Y-25671992D01*
X93410081Y-25670228D01*
X93410079Y-25670228D01*
X93404911Y-25670165D01*
X93184091Y-25703955D01*
X92971756Y-25773357D01*
X92773607Y-25876507D01*
X92769474Y-25879610D01*
X92769471Y-25879612D01*
X92599100Y-26007530D01*
X92594965Y-26010635D01*
X92555525Y-26051907D01*
X92458470Y-26153469D01*
X92440629Y-26172138D01*
X92314743Y-26356680D01*
X92267715Y-26457993D01*
X92229861Y-26539544D01*
X92220688Y-26559305D01*
X92160989Y-26774570D01*
X92137251Y-26996695D01*
X86338500Y-26996695D01*
X86338500Y-26156866D01*
X86331745Y-26094684D01*
X86280615Y-25958295D01*
X86193261Y-25841739D01*
X86076705Y-25754385D01*
X85940316Y-25703255D01*
X85878134Y-25696500D01*
X84081866Y-25696500D01*
X84019684Y-25703255D01*
X83883295Y-25754385D01*
X83766739Y-25841739D01*
X83679385Y-25958295D01*
X83628255Y-26094684D01*
X83621500Y-26156866D01*
X83621500Y-27953134D01*
X79608000Y-27953134D01*
X79608000Y-20554000D01*
X79628002Y-20485879D01*
X79681658Y-20439386D01*
X79734000Y-20428000D01*
X198466000Y-20428000D01*
X198534121Y-20448002D01*
G37*
%TD.AperFunction*%
%TD*%
M02*
