%TF.GenerationSoftware,KiCad,Pcbnew,(6.0.1)*%
%TF.CreationDate,2022-11-21T11:05:35+09:00*%
%TF.ProjectId,controller,636f6e74-726f-46c6-9c65-722e6b696361,rev?*%
%TF.SameCoordinates,Original*%
%TF.FileFunction,Legend,Top*%
%TF.FilePolarity,Positive*%
%FSLAX46Y46*%
G04 Gerber Fmt 4.6, Leading zero omitted, Abs format (unit mm)*
G04 Created by KiCad (PCBNEW (6.0.1)) date 2022-11-21 11:05:35*
%MOMM*%
%LPD*%
G01*
G04 APERTURE LIST*
%ADD10C,0.100000*%
%ADD11C,0.200000*%
%ADD12C,0.150000*%
%ADD13C,0.120000*%
G04 APERTURE END LIST*
D10*
X93440000Y-46570000D02*
X173440000Y-46570000D01*
X173440000Y-46570000D02*
X173440000Y-82570000D01*
X173440000Y-82570000D02*
X93440000Y-82570000D01*
X93440000Y-82570000D02*
X93440000Y-46570000D01*
D11*
X100757142Y-124578571D02*
X100757142Y-123078571D01*
X101328571Y-123078571D01*
X101471428Y-123150000D01*
X101542857Y-123221428D01*
X101614285Y-123364285D01*
X101614285Y-123578571D01*
X101542857Y-123721428D01*
X101471428Y-123792857D01*
X101328571Y-123864285D01*
X100757142Y-123864285D01*
D12*
X80808095Y-29310000D02*
X80712857Y-29262380D01*
X80570000Y-29262380D01*
X80427142Y-29310000D01*
X80331904Y-29405238D01*
X80284285Y-29500476D01*
X80236666Y-29690952D01*
X80236666Y-29833809D01*
X80284285Y-30024285D01*
X80331904Y-30119523D01*
X80427142Y-30214761D01*
X80570000Y-30262380D01*
X80665238Y-30262380D01*
X80808095Y-30214761D01*
X80855714Y-30167142D01*
X80855714Y-29833809D01*
X80665238Y-29833809D01*
X81284285Y-30262380D02*
X81284285Y-29262380D01*
X81855714Y-30262380D01*
X81855714Y-29262380D01*
X82331904Y-30262380D02*
X82331904Y-29262380D01*
X82570000Y-29262380D01*
X82712857Y-29310000D01*
X82808095Y-29405238D01*
X82855714Y-29500476D01*
X82903333Y-29690952D01*
X82903333Y-29833809D01*
X82855714Y-30024285D01*
X82808095Y-30119523D01*
X82712857Y-30214761D01*
X82570000Y-30262380D01*
X82331904Y-30262380D01*
D11*
X130120000Y-124508571D02*
X130120000Y-123008571D01*
X162237142Y-124268571D02*
X162237142Y-122768571D01*
X162594285Y-122768571D01*
X162808571Y-122840000D01*
X162951428Y-122982857D01*
X163022857Y-123125714D01*
X163094285Y-123411428D01*
X163094285Y-123625714D01*
X163022857Y-123911428D01*
X162951428Y-124054285D01*
X162808571Y-124197142D01*
X162594285Y-124268571D01*
X162237142Y-124268571D01*
D12*
X80771904Y-26548571D02*
X80914761Y-26596190D01*
X80962380Y-26643809D01*
X81010000Y-26739047D01*
X81010000Y-26881904D01*
X80962380Y-26977142D01*
X80914761Y-27024761D01*
X80819523Y-27072380D01*
X80438571Y-27072380D01*
X80438571Y-26072380D01*
X80771904Y-26072380D01*
X80867142Y-26120000D01*
X80914761Y-26167619D01*
X80962380Y-26262857D01*
X80962380Y-26358095D01*
X80914761Y-26453333D01*
X80867142Y-26500952D01*
X80771904Y-26548571D01*
X80438571Y-26548571D01*
X81390952Y-26786666D02*
X81867142Y-26786666D01*
X81295714Y-27072380D02*
X81629047Y-26072380D01*
X81962380Y-27072380D01*
X82152857Y-26072380D02*
X82724285Y-26072380D01*
X82438571Y-27072380D02*
X82438571Y-26072380D01*
%TO.C,U4*%
X100258095Y-116032380D02*
X100258095Y-116841904D01*
X100305714Y-116937142D01*
X100353333Y-116984761D01*
X100448571Y-117032380D01*
X100639047Y-117032380D01*
X100734285Y-116984761D01*
X100781904Y-116937142D01*
X100829523Y-116841904D01*
X100829523Y-116032380D01*
X101734285Y-116365714D02*
X101734285Y-117032380D01*
X101496190Y-115984761D02*
X101258095Y-116699047D01*
X101877142Y-116699047D01*
%TO.C,D2*%
X151171904Y-30497380D02*
X151171904Y-29497380D01*
X151410000Y-29497380D01*
X151552857Y-29545000D01*
X151648095Y-29640238D01*
X151695714Y-29735476D01*
X151743333Y-29925952D01*
X151743333Y-30068809D01*
X151695714Y-30259285D01*
X151648095Y-30354523D01*
X151552857Y-30449761D01*
X151410000Y-30497380D01*
X151171904Y-30497380D01*
X152124285Y-29592619D02*
X152171904Y-29545000D01*
X152267142Y-29497380D01*
X152505238Y-29497380D01*
X152600476Y-29545000D01*
X152648095Y-29592619D01*
X152695714Y-29687857D01*
X152695714Y-29783095D01*
X152648095Y-29925952D01*
X152076666Y-30497380D01*
X152695714Y-30497380D01*
%TO.C,C2*%
X126287142Y-40894015D02*
X126334761Y-40941634D01*
X126382380Y-41084491D01*
X126382380Y-41179729D01*
X126334761Y-41322587D01*
X126239523Y-41417825D01*
X126144285Y-41465444D01*
X125953809Y-41513063D01*
X125810952Y-41513063D01*
X125620476Y-41465444D01*
X125525238Y-41417825D01*
X125430000Y-41322587D01*
X125382380Y-41179729D01*
X125382380Y-41084491D01*
X125430000Y-40941634D01*
X125477619Y-40894015D01*
X125477619Y-40513063D02*
X125430000Y-40465444D01*
X125382380Y-40370206D01*
X125382380Y-40132110D01*
X125430000Y-40036872D01*
X125477619Y-39989253D01*
X125572857Y-39941634D01*
X125668095Y-39941634D01*
X125810952Y-39989253D01*
X126382380Y-40560682D01*
X126382380Y-39941634D01*
%TO.C,U7*%
X89298095Y-48552380D02*
X89298095Y-49361904D01*
X89345714Y-49457142D01*
X89393333Y-49504761D01*
X89488571Y-49552380D01*
X89679047Y-49552380D01*
X89774285Y-49504761D01*
X89821904Y-49457142D01*
X89869523Y-49361904D01*
X89869523Y-48552380D01*
X90250476Y-48552380D02*
X90917142Y-48552380D01*
X90488571Y-49552380D01*
%TO.C,D1*%
X134872380Y-28998095D02*
X133872380Y-28998095D01*
X133872380Y-28760000D01*
X133920000Y-28617142D01*
X134015238Y-28521904D01*
X134110476Y-28474285D01*
X134300952Y-28426666D01*
X134443809Y-28426666D01*
X134634285Y-28474285D01*
X134729523Y-28521904D01*
X134824761Y-28617142D01*
X134872380Y-28760000D01*
X134872380Y-28998095D01*
X134872380Y-27474285D02*
X134872380Y-28045714D01*
X134872380Y-27760000D02*
X133872380Y-27760000D01*
X134015238Y-27855238D01*
X134110476Y-27950476D01*
X134158095Y-28045714D01*
%TO.C,U1*%
X100362380Y-27791904D02*
X101171904Y-27791904D01*
X101267142Y-27744285D01*
X101314761Y-27696666D01*
X101362380Y-27601428D01*
X101362380Y-27410952D01*
X101314761Y-27315714D01*
X101267142Y-27268095D01*
X101171904Y-27220476D01*
X100362380Y-27220476D01*
X101362380Y-26220476D02*
X101362380Y-26791904D01*
X101362380Y-26506190D02*
X100362380Y-26506190D01*
X100505238Y-26601428D01*
X100600476Y-26696666D01*
X100648095Y-26791904D01*
%TO.C,J1*%
X84646666Y-24177380D02*
X84646666Y-24891666D01*
X84599047Y-25034523D01*
X84503809Y-25129761D01*
X84360952Y-25177380D01*
X84265714Y-25177380D01*
X85646666Y-25177380D02*
X85075238Y-25177380D01*
X85360952Y-25177380D02*
X85360952Y-24177380D01*
X85265714Y-24320238D01*
X85170476Y-24415476D01*
X85075238Y-24463095D01*
%TO.C,U6*%
X162008095Y-115562380D02*
X162008095Y-116371904D01*
X162055714Y-116467142D01*
X162103333Y-116514761D01*
X162198571Y-116562380D01*
X162389047Y-116562380D01*
X162484285Y-116514761D01*
X162531904Y-116467142D01*
X162579523Y-116371904D01*
X162579523Y-115562380D01*
X163484285Y-115562380D02*
X163293809Y-115562380D01*
X163198571Y-115610000D01*
X163150952Y-115657619D01*
X163055714Y-115800476D01*
X163008095Y-115990952D01*
X163008095Y-116371904D01*
X163055714Y-116467142D01*
X163103333Y-116514761D01*
X163198571Y-116562380D01*
X163389047Y-116562380D01*
X163484285Y-116514761D01*
X163531904Y-116467142D01*
X163579523Y-116371904D01*
X163579523Y-116133809D01*
X163531904Y-116038571D01*
X163484285Y-115990952D01*
X163389047Y-115943333D01*
X163198571Y-115943333D01*
X163103333Y-115990952D01*
X163055714Y-116038571D01*
X163008095Y-116133809D01*
%TO.C,C1*%
X105587142Y-40846666D02*
X105634761Y-40894285D01*
X105682380Y-41037142D01*
X105682380Y-41132380D01*
X105634761Y-41275238D01*
X105539523Y-41370476D01*
X105444285Y-41418095D01*
X105253809Y-41465714D01*
X105110952Y-41465714D01*
X104920476Y-41418095D01*
X104825238Y-41370476D01*
X104730000Y-41275238D01*
X104682380Y-41132380D01*
X104682380Y-41037142D01*
X104730000Y-40894285D01*
X104777619Y-40846666D01*
X105682380Y-39894285D02*
X105682380Y-40465714D01*
X105682380Y-40180000D02*
X104682380Y-40180000D01*
X104825238Y-40275238D01*
X104920476Y-40370476D01*
X104968095Y-40465714D01*
%TO.C,R1*%
X145292380Y-40401666D02*
X144816190Y-40735000D01*
X145292380Y-40973095D02*
X144292380Y-40973095D01*
X144292380Y-40592142D01*
X144340000Y-40496904D01*
X144387619Y-40449285D01*
X144482857Y-40401666D01*
X144625714Y-40401666D01*
X144720952Y-40449285D01*
X144768571Y-40496904D01*
X144816190Y-40592142D01*
X144816190Y-40973095D01*
X145292380Y-39449285D02*
X145292380Y-40020714D01*
X145292380Y-39735000D02*
X144292380Y-39735000D01*
X144435238Y-39830238D01*
X144530476Y-39925476D01*
X144578095Y-40020714D01*
%TO.C,R2*%
X124413333Y-25012380D02*
X124080000Y-24536190D01*
X123841904Y-25012380D02*
X123841904Y-24012380D01*
X124222857Y-24012380D01*
X124318095Y-24060000D01*
X124365714Y-24107619D01*
X124413333Y-24202857D01*
X124413333Y-24345714D01*
X124365714Y-24440952D01*
X124318095Y-24488571D01*
X124222857Y-24536190D01*
X123841904Y-24536190D01*
X124794285Y-24107619D02*
X124841904Y-24060000D01*
X124937142Y-24012380D01*
X125175238Y-24012380D01*
X125270476Y-24060000D01*
X125318095Y-24107619D01*
X125365714Y-24202857D01*
X125365714Y-24298095D01*
X125318095Y-24440952D01*
X124746666Y-25012380D01*
X125365714Y-25012380D01*
%TO.C,U2*%
X91112380Y-100261904D02*
X91921904Y-100261904D01*
X92017142Y-100214285D01*
X92064761Y-100166666D01*
X92112380Y-100071428D01*
X92112380Y-99880952D01*
X92064761Y-99785714D01*
X92017142Y-99738095D01*
X91921904Y-99690476D01*
X91112380Y-99690476D01*
X91207619Y-99261904D02*
X91160000Y-99214285D01*
X91112380Y-99119047D01*
X91112380Y-98880952D01*
X91160000Y-98785714D01*
X91207619Y-98738095D01*
X91302857Y-98690476D01*
X91398095Y-98690476D01*
X91540952Y-98738095D01*
X92112380Y-99309523D01*
X92112380Y-98690476D01*
%TO.C,U5*%
X129148095Y-115662380D02*
X129148095Y-116471904D01*
X129195714Y-116567142D01*
X129243333Y-116614761D01*
X129338571Y-116662380D01*
X129529047Y-116662380D01*
X129624285Y-116614761D01*
X129671904Y-116567142D01*
X129719523Y-116471904D01*
X129719523Y-115662380D01*
X130671904Y-115662380D02*
X130195714Y-115662380D01*
X130148095Y-116138571D01*
X130195714Y-116090952D01*
X130290952Y-116043333D01*
X130529047Y-116043333D01*
X130624285Y-116090952D01*
X130671904Y-116138571D01*
X130719523Y-116233809D01*
X130719523Y-116471904D01*
X130671904Y-116567142D01*
X130624285Y-116614761D01*
X130529047Y-116662380D01*
X130290952Y-116662380D01*
X130195714Y-116614761D01*
X130148095Y-116567142D01*
%TO.C,U3*%
X108918095Y-22212380D02*
X108918095Y-23021904D01*
X108965714Y-23117142D01*
X109013333Y-23164761D01*
X109108571Y-23212380D01*
X109299047Y-23212380D01*
X109394285Y-23164761D01*
X109441904Y-23117142D01*
X109489523Y-23021904D01*
X109489523Y-22212380D01*
X109870476Y-22212380D02*
X110489523Y-22212380D01*
X110156190Y-22593333D01*
X110299047Y-22593333D01*
X110394285Y-22640952D01*
X110441904Y-22688571D01*
X110489523Y-22783809D01*
X110489523Y-23021904D01*
X110441904Y-23117142D01*
X110394285Y-23164761D01*
X110299047Y-23212380D01*
X110013333Y-23212380D01*
X109918095Y-23164761D01*
X109870476Y-23117142D01*
D13*
%TO.C,U4*%
X93400000Y-117340000D02*
X108640000Y-117340000D01*
X108640000Y-117340000D02*
X108640000Y-122420000D01*
X108640000Y-122420000D02*
X93400000Y-122420000D01*
X93400000Y-122420000D02*
X93400000Y-117340000D01*
%TO.C,D2*%
X149055000Y-25480000D02*
X145965000Y-25480000D01*
X145965170Y-25480000D02*
G75*
G03*
X147510462Y-31030000I1544830J-2560000D01*
G01*
X147509538Y-31030000D02*
G75*
G03*
X149054830Y-25480000I462J2990000D01*
G01*
X150010000Y-28040000D02*
G75*
G03*
X150010000Y-28040000I-2500000J0D01*
G01*
%TO.C,C2*%
X119640000Y-42328349D02*
X116923000Y-42328349D01*
X124045000Y-43048349D02*
X117315000Y-43048349D01*
X122782000Y-44248349D02*
X118578000Y-44248349D01*
X124760000Y-40807349D02*
X116600000Y-40807349D01*
X119640000Y-41167349D02*
X116623000Y-41167349D01*
X119640000Y-41688349D02*
X116713000Y-41688349D01*
X123770000Y-43408349D02*
X117590000Y-43408349D01*
X123506000Y-43688349D02*
X117854000Y-43688349D01*
X124501000Y-42168349D02*
X121720000Y-42168349D01*
X119640000Y-41768349D02*
X116733000Y-41768349D01*
X124454000Y-42288349D02*
X121720000Y-42288349D01*
X123735000Y-43448349D02*
X117625000Y-43448349D01*
X122026000Y-44608349D02*
X119334000Y-44608349D01*
X119640000Y-42888349D02*
X117211000Y-42888349D01*
X123236000Y-43928349D02*
X118124000Y-43928349D01*
X124286000Y-42648349D02*
X121720000Y-42648349D01*
X124690000Y-41488349D02*
X121720000Y-41488349D01*
X119640000Y-42048349D02*
X116817000Y-42048349D01*
X124420000Y-42368349D02*
X121720000Y-42368349D01*
X119640000Y-41808349D02*
X116744000Y-41808349D01*
X122570000Y-44368349D02*
X118790000Y-44368349D01*
X124637000Y-41728349D02*
X121720000Y-41728349D01*
X122846000Y-44208349D02*
X118514000Y-44208349D01*
X123663000Y-43528349D02*
X117697000Y-43528349D01*
X119640000Y-42488349D02*
X116994000Y-42488349D01*
X124682000Y-41528349D02*
X121720000Y-41528349D01*
X124594000Y-41888349D02*
X121720000Y-41888349D01*
X119640000Y-42728349D02*
X117118000Y-42728349D01*
X124582000Y-41928349D02*
X121720000Y-41928349D01*
X123185000Y-43968349D02*
X118175000Y-43968349D01*
X124173000Y-42848349D02*
X121720000Y-42848349D01*
X119640000Y-41367349D02*
X116650000Y-41367349D01*
X123547000Y-43648349D02*
X117813000Y-43648349D01*
X122967000Y-44128349D02*
X118393000Y-44128349D01*
X119640000Y-41327349D02*
X116643000Y-41327349D01*
X124760000Y-40767349D02*
X116600000Y-40767349D01*
X123960000Y-43168349D02*
X117400000Y-43168349D01*
X119640000Y-42088349D02*
X116830000Y-42088349D01*
X124402000Y-42408349D02*
X121720000Y-42408349D01*
X122908000Y-44168349D02*
X118452000Y-44168349D01*
X124704000Y-41407349D02*
X121720000Y-41407349D01*
X119640000Y-41488349D02*
X116670000Y-41488349D01*
X123395000Y-36717651D02*
X122595000Y-36717651D01*
X121909000Y-44648349D02*
X119451000Y-44648349D01*
X124530000Y-42088349D02*
X121720000Y-42088349D01*
X119640000Y-41848349D02*
X116755000Y-41848349D01*
X124754000Y-40967349D02*
X121720000Y-40967349D01*
X123134000Y-44008349D02*
X118226000Y-44008349D01*
X123377000Y-43808349D02*
X117983000Y-43808349D01*
X123587000Y-43608349D02*
X117773000Y-43608349D01*
X123699000Y-43488349D02*
X117661000Y-43488349D01*
X124557000Y-42008349D02*
X121720000Y-42008349D01*
X123080000Y-44048349D02*
X118280000Y-44048349D01*
X124656000Y-41648349D02*
X121720000Y-41648349D01*
X119640000Y-41247349D02*
X116632000Y-41247349D01*
X122644000Y-44328349D02*
X118716000Y-44328349D01*
X124569000Y-41968349D02*
X121720000Y-41968349D01*
X124722000Y-41287349D02*
X121720000Y-41287349D01*
X119640000Y-41007349D02*
X116609000Y-41007349D01*
X121213000Y-44808349D02*
X120147000Y-44808349D01*
X124384000Y-42448349D02*
X121720000Y-42448349D01*
X124745000Y-41087349D02*
X121720000Y-41087349D01*
X124732000Y-41207349D02*
X121720000Y-41207349D01*
X124759000Y-40847349D02*
X116601000Y-40847349D01*
X122493000Y-44408349D02*
X118867000Y-44408349D01*
X123869000Y-43288349D02*
X117491000Y-43288349D01*
X119640000Y-41648349D02*
X116704000Y-41648349D01*
X124346000Y-42528349D02*
X121720000Y-42528349D01*
X119640000Y-42808349D02*
X117163000Y-42808349D01*
X124149000Y-42888349D02*
X121720000Y-42888349D01*
X121628000Y-44728349D02*
X119732000Y-44728349D01*
X119640000Y-42368349D02*
X116940000Y-42368349D01*
X119640000Y-42568349D02*
X117033000Y-42568349D01*
X124220000Y-42768349D02*
X121720000Y-42768349D01*
X123025000Y-44088349D02*
X118335000Y-44088349D01*
X119640000Y-41207349D02*
X116628000Y-41207349D01*
X124697000Y-41448349D02*
X121720000Y-41448349D01*
X119640000Y-41928349D02*
X116778000Y-41928349D01*
X119640000Y-42968349D02*
X117262000Y-42968349D01*
X124756000Y-40927349D02*
X116604000Y-40927349D01*
X124072000Y-43008349D02*
X121720000Y-43008349D01*
X124098000Y-42968349D02*
X121720000Y-42968349D01*
X124366000Y-42488349D02*
X121720000Y-42488349D01*
X124197000Y-42808349D02*
X121720000Y-42808349D01*
X124647000Y-41688349D02*
X121720000Y-41688349D01*
X124627000Y-41768349D02*
X121720000Y-41768349D01*
X124264000Y-42688349D02*
X121720000Y-42688349D01*
X119640000Y-41968349D02*
X116791000Y-41968349D01*
X119640000Y-41127349D02*
X116619000Y-41127349D01*
X119640000Y-42448349D02*
X116976000Y-42448349D01*
X119640000Y-43008349D02*
X117288000Y-43008349D01*
X123464000Y-43728349D02*
X117896000Y-43728349D01*
X124327000Y-42568349D02*
X121720000Y-42568349D01*
X124242000Y-42728349D02*
X121720000Y-42728349D01*
X119640000Y-42408349D02*
X116958000Y-42408349D01*
X124760000Y-40727349D02*
X116600000Y-40727349D01*
X119640000Y-42528349D02*
X117014000Y-42528349D01*
X119640000Y-41568349D02*
X116686000Y-41568349D01*
X119640000Y-41528349D02*
X116678000Y-41528349D01*
X122325000Y-44488349D02*
X119035000Y-44488349D01*
X119640000Y-42208349D02*
X116875000Y-42208349D01*
X124741000Y-41127349D02*
X121720000Y-41127349D01*
X123625000Y-43568349D02*
X117735000Y-43568349D01*
X123804000Y-43368349D02*
X117556000Y-43368349D01*
X121778000Y-44688349D02*
X119582000Y-44688349D01*
X119640000Y-41407349D02*
X116656000Y-41407349D01*
X119640000Y-42128349D02*
X116845000Y-42128349D01*
X123930000Y-43208349D02*
X117430000Y-43208349D01*
X124728000Y-41247349D02*
X121720000Y-41247349D01*
X124665000Y-41608349D02*
X121720000Y-41608349D01*
X123421000Y-43768349D02*
X117939000Y-43768349D01*
X119640000Y-42248349D02*
X116890000Y-42248349D01*
X119640000Y-41047349D02*
X116612000Y-41047349D01*
X124485000Y-42208349D02*
X121720000Y-42208349D01*
X124515000Y-42128349D02*
X121720000Y-42128349D01*
X124470000Y-42248349D02*
X121720000Y-42248349D01*
X123836000Y-43328349D02*
X117524000Y-43328349D01*
X119640000Y-42288349D02*
X116906000Y-42288349D01*
X119640000Y-42688349D02*
X117096000Y-42688349D01*
X122714000Y-44288349D02*
X118646000Y-44288349D01*
X124018000Y-43088349D02*
X117342000Y-43088349D01*
X124307000Y-42608349D02*
X121720000Y-42608349D01*
X123284000Y-43888349D02*
X118076000Y-43888349D01*
X119640000Y-41728349D02*
X116723000Y-41728349D01*
X124616000Y-41808349D02*
X121720000Y-41808349D01*
X124757000Y-40887349D02*
X116603000Y-40887349D01*
X124124000Y-42928349D02*
X121720000Y-42928349D01*
X123331000Y-43848349D02*
X118029000Y-43848349D01*
X122411000Y-44448349D02*
X118949000Y-44448349D01*
X119640000Y-42168349D02*
X116859000Y-42168349D01*
X124710000Y-41367349D02*
X121720000Y-41367349D01*
X122995000Y-36317651D02*
X122995000Y-37117651D01*
X119640000Y-42648349D02*
X117074000Y-42648349D01*
X121448000Y-44768349D02*
X119912000Y-44768349D01*
X123989000Y-43128349D02*
X117371000Y-43128349D01*
X124543000Y-42048349D02*
X121720000Y-42048349D01*
X124748000Y-41047349D02*
X121720000Y-41047349D01*
X119640000Y-41287349D02*
X116638000Y-41287349D01*
X122133000Y-44568349D02*
X119227000Y-44568349D01*
X122232000Y-44528349D02*
X119128000Y-44528349D01*
X119640000Y-41888349D02*
X116766000Y-41888349D01*
X119640000Y-42008349D02*
X116803000Y-42008349D01*
X119640000Y-42608349D02*
X117053000Y-42608349D01*
X124737000Y-41167349D02*
X121720000Y-41167349D01*
X119640000Y-42848349D02*
X117187000Y-42848349D01*
X119640000Y-41448349D02*
X116663000Y-41448349D01*
X124751000Y-41007349D02*
X121720000Y-41007349D01*
X119640000Y-42928349D02*
X117236000Y-42928349D01*
X124717000Y-41327349D02*
X121720000Y-41327349D01*
X119640000Y-42768349D02*
X117140000Y-42768349D01*
X124437000Y-42328349D02*
X121720000Y-42328349D01*
X119640000Y-41608349D02*
X116695000Y-41608349D01*
X119640000Y-41087349D02*
X116615000Y-41087349D01*
X124605000Y-41848349D02*
X121720000Y-41848349D01*
X123900000Y-43248349D02*
X117460000Y-43248349D01*
X119640000Y-40967349D02*
X116606000Y-40967349D01*
X124674000Y-41568349D02*
X121720000Y-41568349D01*
X124800000Y-40727349D02*
G75*
G03*
X124800000Y-40727349I-4120000J0D01*
G01*
%TO.C,U7*%
X88730000Y-50100000D02*
X90060000Y-50100000D01*
X88730000Y-51430000D02*
X88730000Y-50100000D01*
X88730000Y-52700000D02*
X88730000Y-60380000D01*
X88730000Y-60380000D02*
X91390000Y-60380000D01*
X91390000Y-52700000D02*
X91390000Y-60380000D01*
X88730000Y-52700000D02*
X91390000Y-52700000D01*
%TO.C,D1*%
X136835000Y-30820000D02*
X139925000Y-30820000D01*
X138380462Y-25270000D02*
G75*
G03*
X136835170Y-30820000I-462J-2990000D01*
G01*
X139924830Y-30820000D02*
G75*
G03*
X138379538Y-25270000I-1544830J2560000D01*
G01*
X140880000Y-28260000D02*
G75*
G03*
X140880000Y-28260000I-2500000J0D01*
G01*
%TO.C,U1*%
X97310000Y-28360000D02*
X92170000Y-28360000D01*
X92170000Y-25700000D02*
X92170000Y-28360000D01*
X97310000Y-25700000D02*
X92170000Y-25700000D01*
X97310000Y-25700000D02*
X97310000Y-28360000D01*
X99910000Y-25700000D02*
X99910000Y-27030000D01*
X98580000Y-25700000D02*
X99910000Y-25700000D01*
%TO.C,J1*%
X83650000Y-28325000D02*
X86310000Y-28325000D01*
X86310000Y-28325000D02*
X86310000Y-30925000D01*
X83650000Y-25725000D02*
X84980000Y-25725000D01*
X83650000Y-27055000D02*
X83650000Y-25725000D01*
X83650000Y-30925000D02*
X86310000Y-30925000D01*
X83650000Y-28325000D02*
X83650000Y-30925000D01*
%TO.C,U6*%
X154950000Y-117170000D02*
X170190000Y-117170000D01*
X170190000Y-117170000D02*
X170190000Y-122250000D01*
X170190000Y-122250000D02*
X154950000Y-122250000D01*
X154950000Y-122250000D02*
X154950000Y-117170000D01*
%TO.C,C1*%
X103666000Y-42441000D02*
X101020000Y-42441000D01*
X104051000Y-40960000D02*
X101020000Y-40960000D01*
X98940000Y-41080000D02*
X95919000Y-41080000D01*
X104048000Y-41000000D02*
X101020000Y-41000000D01*
X102380000Y-44001000D02*
X97580000Y-44001000D01*
X98940000Y-41120000D02*
X95923000Y-41120000D01*
X102325000Y-44041000D02*
X97635000Y-44041000D01*
X103497000Y-42761000D02*
X101020000Y-42761000D01*
X102267000Y-44081000D02*
X97693000Y-44081000D01*
X103754000Y-42241000D02*
X101020000Y-42241000D01*
X103607000Y-42561000D02*
X101020000Y-42561000D01*
X103770000Y-42201000D02*
X101020000Y-42201000D01*
X98940000Y-42721000D02*
X96440000Y-42721000D01*
X102208000Y-44121000D02*
X97752000Y-44121000D01*
X102082000Y-44201000D02*
X97878000Y-44201000D01*
X103927000Y-41721000D02*
X101020000Y-41721000D01*
X102999000Y-43441000D02*
X96961000Y-43441000D01*
X98940000Y-42761000D02*
X96463000Y-42761000D01*
X103070000Y-43361000D02*
X96890000Y-43361000D01*
X98940000Y-41761000D02*
X96044000Y-41761000D01*
X102014000Y-44241000D02*
X97946000Y-44241000D01*
X103169000Y-43241000D02*
X96791000Y-43241000D01*
X103136000Y-43281000D02*
X96824000Y-43281000D01*
X98940000Y-42641000D02*
X96396000Y-42641000D01*
X103035000Y-43401000D02*
X96925000Y-43401000D01*
X104060000Y-40680000D02*
X95900000Y-40680000D01*
X104054000Y-40920000D02*
X101020000Y-40920000D01*
X104032000Y-41160000D02*
X101020000Y-41160000D01*
X100748000Y-44721000D02*
X99212000Y-44721000D01*
X104017000Y-41280000D02*
X101020000Y-41280000D01*
X98940000Y-41280000D02*
X95943000Y-41280000D01*
X104056000Y-40880000D02*
X95904000Y-40880000D01*
X100513000Y-44761000D02*
X99447000Y-44761000D01*
X103982000Y-41481000D02*
X101020000Y-41481000D01*
X101433000Y-44521000D02*
X98527000Y-44521000D01*
X103785000Y-42161000D02*
X101020000Y-42161000D01*
X103449000Y-42841000D02*
X101020000Y-42841000D01*
X104060000Y-40760000D02*
X95900000Y-40760000D01*
X98940000Y-41881000D02*
X96078000Y-41881000D01*
X98940000Y-42081000D02*
X96145000Y-42081000D01*
X102695000Y-36670302D02*
X101895000Y-36670302D01*
X103104000Y-43321000D02*
X96856000Y-43321000D01*
X103372000Y-42961000D02*
X101020000Y-42961000D01*
X103473000Y-42801000D02*
X101020000Y-42801000D01*
X98940000Y-41521000D02*
X95986000Y-41521000D01*
X103843000Y-42001000D02*
X101020000Y-42001000D01*
X103200000Y-43201000D02*
X96760000Y-43201000D01*
X104022000Y-41240000D02*
X101020000Y-41240000D01*
X103720000Y-42321000D02*
X101020000Y-42321000D01*
X101870000Y-44321000D02*
X98090000Y-44321000D01*
X103564000Y-42641000D02*
X101020000Y-42641000D01*
X104037000Y-41120000D02*
X101020000Y-41120000D01*
X104060000Y-40720000D02*
X95900000Y-40720000D01*
X102677000Y-43761000D02*
X97283000Y-43761000D01*
X103869000Y-41921000D02*
X101020000Y-41921000D01*
X98940000Y-42041000D02*
X96130000Y-42041000D01*
X102584000Y-43841000D02*
X97376000Y-43841000D01*
X98940000Y-42121000D02*
X96159000Y-42121000D01*
X104041000Y-41080000D02*
X101020000Y-41080000D01*
X103289000Y-43081000D02*
X96671000Y-43081000D01*
X102536000Y-43881000D02*
X97424000Y-43881000D01*
X98940000Y-42001000D02*
X96117000Y-42001000D01*
X98940000Y-41601000D02*
X96004000Y-41601000D01*
X102963000Y-43481000D02*
X96997000Y-43481000D01*
X103737000Y-42281000D02*
X101020000Y-42281000D01*
X103857000Y-41961000D02*
X101020000Y-41961000D01*
X98940000Y-41961000D02*
X96103000Y-41961000D01*
X98940000Y-41160000D02*
X95928000Y-41160000D01*
X103894000Y-41841000D02*
X101020000Y-41841000D01*
X102295000Y-36270302D02*
X102295000Y-37070302D01*
X103646000Y-42481000D02*
X101020000Y-42481000D01*
X102887000Y-43561000D02*
X97073000Y-43561000D01*
X100928000Y-44681000D02*
X99032000Y-44681000D01*
X102631000Y-43801000D02*
X97329000Y-43801000D01*
X103702000Y-42361000D02*
X101020000Y-42361000D01*
X98940000Y-41360000D02*
X95956000Y-41360000D01*
X101209000Y-44601000D02*
X98751000Y-44601000D01*
X98940000Y-42321000D02*
X96240000Y-42321000D01*
X103882000Y-41881000D02*
X101020000Y-41881000D01*
X98940000Y-42561000D02*
X96353000Y-42561000D01*
X104004000Y-41360000D02*
X101020000Y-41360000D01*
X98940000Y-40920000D02*
X95906000Y-40920000D01*
X98940000Y-41000000D02*
X95912000Y-41000000D01*
X103937000Y-41681000D02*
X101020000Y-41681000D01*
X98940000Y-41320000D02*
X95950000Y-41320000D01*
X101078000Y-44641000D02*
X98882000Y-44641000D01*
X103627000Y-42521000D02*
X101020000Y-42521000D01*
X103520000Y-42721000D02*
X101020000Y-42721000D01*
X103956000Y-41601000D02*
X101020000Y-41601000D01*
X98940000Y-42161000D02*
X96175000Y-42161000D01*
X98940000Y-41641000D02*
X96013000Y-41641000D01*
X103260000Y-43121000D02*
X96700000Y-43121000D01*
X103542000Y-42681000D02*
X101020000Y-42681000D01*
X98940000Y-41801000D02*
X96055000Y-41801000D01*
X98940000Y-41200000D02*
X95932000Y-41200000D01*
X101944000Y-44281000D02*
X98016000Y-44281000D01*
X101711000Y-44401000D02*
X98249000Y-44401000D01*
X98940000Y-42841000D02*
X96511000Y-42841000D01*
X98940000Y-42241000D02*
X96206000Y-42241000D01*
X102847000Y-43601000D02*
X97113000Y-43601000D01*
X98940000Y-42401000D02*
X96276000Y-42401000D01*
X102434000Y-43961000D02*
X97526000Y-43961000D01*
X104028000Y-41200000D02*
X101020000Y-41200000D01*
X103345000Y-43001000D02*
X96615000Y-43001000D01*
X98940000Y-42801000D02*
X96487000Y-42801000D01*
X103684000Y-42401000D02*
X101020000Y-42401000D01*
X98940000Y-41441000D02*
X95970000Y-41441000D01*
X98940000Y-42961000D02*
X96588000Y-42961000D01*
X98940000Y-42481000D02*
X96314000Y-42481000D01*
X102925000Y-43521000D02*
X97035000Y-43521000D01*
X98940000Y-41921000D02*
X96091000Y-41921000D01*
X103801000Y-42121000D02*
X101020000Y-42121000D01*
X98940000Y-42681000D02*
X96418000Y-42681000D01*
X98940000Y-41481000D02*
X95978000Y-41481000D01*
X102146000Y-44161000D02*
X97814000Y-44161000D01*
X103997000Y-41401000D02*
X101020000Y-41401000D01*
X102721000Y-43721000D02*
X97239000Y-43721000D01*
X101793000Y-44361000D02*
X98167000Y-44361000D01*
X104057000Y-40840000D02*
X95903000Y-40840000D01*
X98940000Y-41721000D02*
X96033000Y-41721000D01*
X98940000Y-42441000D02*
X96294000Y-42441000D01*
X101532000Y-44481000D02*
X98428000Y-44481000D01*
X98940000Y-41681000D02*
X96023000Y-41681000D01*
X98940000Y-42601000D02*
X96374000Y-42601000D01*
X103830000Y-42041000D02*
X101020000Y-42041000D01*
X103905000Y-41801000D02*
X101020000Y-41801000D01*
X103318000Y-43041000D02*
X96642000Y-43041000D01*
X98940000Y-42521000D02*
X96333000Y-42521000D01*
X98940000Y-41841000D02*
X96066000Y-41841000D01*
X98940000Y-42201000D02*
X96190000Y-42201000D01*
X98940000Y-41240000D02*
X95938000Y-41240000D01*
X103916000Y-41761000D02*
X101020000Y-41761000D01*
X102485000Y-43921000D02*
X97475000Y-43921000D01*
X102764000Y-43681000D02*
X97196000Y-43681000D01*
X98940000Y-42881000D02*
X96536000Y-42881000D01*
X104045000Y-41040000D02*
X101020000Y-41040000D01*
X98940000Y-42281000D02*
X96223000Y-42281000D01*
X103815000Y-42081000D02*
X101020000Y-42081000D01*
X104059000Y-40800000D02*
X95901000Y-40800000D01*
X98940000Y-40960000D02*
X95909000Y-40960000D01*
X98940000Y-42361000D02*
X96258000Y-42361000D01*
X103424000Y-42881000D02*
X101020000Y-42881000D01*
X101625000Y-44441000D02*
X98335000Y-44441000D01*
X104010000Y-41320000D02*
X101020000Y-41320000D01*
X103398000Y-42921000D02*
X101020000Y-42921000D01*
X98940000Y-41401000D02*
X95963000Y-41401000D01*
X103965000Y-41561000D02*
X101020000Y-41561000D01*
X98940000Y-41561000D02*
X95995000Y-41561000D01*
X103990000Y-41441000D02*
X101020000Y-41441000D01*
X103230000Y-43161000D02*
X96730000Y-43161000D01*
X102806000Y-43641000D02*
X97154000Y-43641000D01*
X98940000Y-41040000D02*
X95915000Y-41040000D01*
X101326000Y-44561000D02*
X98634000Y-44561000D01*
X103586000Y-42601000D02*
X101020000Y-42601000D01*
X98940000Y-42921000D02*
X96562000Y-42921000D01*
X103974000Y-41521000D02*
X101020000Y-41521000D01*
X103947000Y-41641000D02*
X101020000Y-41641000D01*
X104100000Y-40680000D02*
G75*
G03*
X104100000Y-40680000I-4120000J0D01*
G01*
%TO.C,R1*%
X146170000Y-43505000D02*
X145840000Y-43505000D01*
X148580000Y-36965000D02*
X148250000Y-36965000D01*
X145840000Y-36965000D02*
X146170000Y-36965000D01*
X145840000Y-43505000D02*
X145840000Y-36965000D01*
X148580000Y-43505000D02*
X148580000Y-36965000D01*
X148250000Y-43505000D02*
X148580000Y-43505000D01*
%TO.C,R2*%
X127850000Y-28300000D02*
X127850000Y-27970000D01*
X121310000Y-25890000D02*
X121310000Y-25560000D01*
X121310000Y-28300000D02*
X127850000Y-28300000D01*
X121310000Y-27970000D02*
X121310000Y-28300000D01*
X127850000Y-25560000D02*
X127850000Y-25890000D01*
X121310000Y-25560000D02*
X127850000Y-25560000D01*
%TO.C,U2*%
X93080000Y-112200000D02*
X150080000Y-112200000D01*
X150080000Y-112200000D02*
X150080000Y-86800000D01*
X150080000Y-86800000D02*
X93080000Y-86800000D01*
X93080000Y-86800000D02*
X93080000Y-112200000D01*
%TO.C,U5*%
X122290000Y-117270000D02*
X137530000Y-117270000D01*
X137530000Y-117270000D02*
X137530000Y-122350000D01*
X137530000Y-122350000D02*
X122290000Y-122350000D01*
X122290000Y-122350000D02*
X122290000Y-117270000D01*
%TO.C,U3*%
X107830000Y-23760000D02*
X107830000Y-25270000D01*
X111531000Y-23760000D02*
X111531000Y-25270000D01*
X114800000Y-23760000D02*
X114800000Y-28401000D01*
X104560000Y-28401000D02*
X114800000Y-28401000D01*
X104560000Y-23760000D02*
X114800000Y-23760000D01*
X104560000Y-25270000D02*
X114800000Y-25270000D01*
X104560000Y-23760000D02*
X104560000Y-28401000D01*
%TD*%
M02*
