%TF.GenerationSoftware,KiCad,Pcbnew,(6.0.1)*%
%TF.CreationDate,2022-11-21T11:07:04+09:00*%
%TF.ProjectId,Robot,526f626f-742e-46b6-9963-61645f706362,rev?*%
%TF.SameCoordinates,Original*%
%TF.FileFunction,Soldermask,Top*%
%TF.FilePolarity,Negative*%
%FSLAX46Y46*%
G04 Gerber Fmt 4.6, Leading zero omitted, Abs format (unit mm)*
G04 Created by KiCad (PCBNEW (6.0.1)) date 2022-11-21 11:07:04*
%MOMM*%
%LPD*%
G01*
G04 APERTURE LIST*
%ADD10O,1.700000X1.700000*%
%ADD11R,1.700000X1.700000*%
%ADD12C,3.200000*%
%ADD13C,1.600000*%
%ADD14O,1.600000X1.600000*%
%ADD15R,1.600000X1.600000*%
%ADD16R,1.800000X1.800000*%
%ADD17C,1.800000*%
%ADD18C,1.524000*%
%ADD19R,2.000000X1.905000*%
%ADD20O,2.000000X1.905000*%
G04 APERTURE END LIST*
D10*
%TO.C,MotorPower*%
X160015000Y-128500000D03*
D11*
X157475000Y-128500000D03*
%TD*%
%TO.C,M1*%
X141750000Y-58500000D03*
D10*
X141750000Y-61040000D03*
%TD*%
D11*
%TO.C,J1*%
X140535000Y-121750000D03*
D10*
X137995000Y-121750000D03*
%TD*%
D11*
%TO.C,M2*%
X177750000Y-58500000D03*
D10*
X177750000Y-61040000D03*
%TD*%
D12*
%TO.C,MountHole*%
X180750000Y-37500000D03*
%TD*%
D13*
%TO.C,R1*%
X144250000Y-89190000D03*
D14*
X144250000Y-96810000D03*
%TD*%
D15*
%TO.C,C2*%
X164750000Y-118847349D03*
D13*
X164750000Y-121347349D03*
%TD*%
D16*
%TO.C,D1*%
X143025000Y-76500000D03*
D17*
X140485000Y-76500000D03*
%TD*%
D12*
%TO.C,MountHole*%
X180750000Y-129500000D03*
%TD*%
D18*
%TO.C,U1*%
X171180000Y-93430000D03*
X171180000Y-95970000D03*
X148320000Y-62950000D03*
X171120000Y-90889999D03*
X171180000Y-83270000D03*
X148260000Y-90889999D03*
X148320000Y-93430000D03*
X148260000Y-88309999D03*
X171180000Y-98510000D03*
X171120000Y-88309999D03*
X171180000Y-85810000D03*
X171180000Y-80730000D03*
X171180000Y-78190000D03*
X171180000Y-75650000D03*
X171180000Y-68030000D03*
X171180000Y-65490000D03*
X148320000Y-80730000D03*
X148320000Y-83270000D03*
X148320000Y-85810000D03*
X148320000Y-75650000D03*
X148320000Y-78190000D03*
X148320000Y-73110000D03*
X148320000Y-101050000D03*
X148320000Y-95970000D03*
X171180000Y-101050000D03*
X171180000Y-62950000D03*
X148320000Y-65490000D03*
X171180000Y-73110000D03*
X171180000Y-70570000D03*
X148320000Y-98510000D03*
X148320000Y-70570000D03*
X148320000Y-68030000D03*
%TD*%
D19*
%TO.C,U3*%
X140500000Y-106000000D03*
D20*
X140500000Y-103460000D03*
X140500000Y-100920000D03*
%TD*%
D11*
%TO.C,U2*%
X140500000Y-111475000D03*
D10*
X140500000Y-114015000D03*
X140500000Y-116555000D03*
%TD*%
D13*
%TO.C,R2*%
X140500000Y-96810000D03*
D14*
X140500000Y-89190000D03*
%TD*%
D15*
%TO.C,C1*%
X152750000Y-118847349D03*
D13*
X152750000Y-121347349D03*
%TD*%
D16*
%TO.C,D2*%
X143025000Y-84750000D03*
D17*
X140485000Y-84750000D03*
%TD*%
D12*
%TO.C,MountHole*%
X138750000Y-129500000D03*
%TD*%
D18*
%TO.C,U4*%
X166350000Y-52600000D03*
X153650000Y-52600000D03*
X168890000Y-52600000D03*
X156190000Y-52600000D03*
X158730000Y-52600000D03*
X151110000Y-52600000D03*
X163810000Y-52600000D03*
X161270000Y-52600000D03*
%TD*%
D12*
%TO.C,MountHole*%
X138750000Y-37500000D03*
%TD*%
M02*
