%TF.GenerationSoftware,KiCad,Pcbnew,(6.0.1)*%
%TF.CreationDate,2022-11-21T11:07:03+09:00*%
%TF.ProjectId,Robot,526f626f-742e-46b6-9963-61645f706362,rev?*%
%TF.SameCoordinates,Original*%
%TF.FileFunction,Copper,L1,Top*%
%TF.FilePolarity,Positive*%
%FSLAX46Y46*%
G04 Gerber Fmt 4.6, Leading zero omitted, Abs format (unit mm)*
G04 Created by KiCad (PCBNEW (6.0.1)) date 2022-11-21 11:07:03*
%MOMM*%
%LPD*%
G01*
G04 APERTURE LIST*
%TA.AperFunction,ComponentPad*%
%ADD10O,1.700000X1.700000*%
%TD*%
%TA.AperFunction,ComponentPad*%
%ADD11R,1.700000X1.700000*%
%TD*%
%TA.AperFunction,ComponentPad*%
%ADD12C,1.600000*%
%TD*%
%TA.AperFunction,ComponentPad*%
%ADD13O,1.600000X1.600000*%
%TD*%
%TA.AperFunction,ComponentPad*%
%ADD14R,1.600000X1.600000*%
%TD*%
%TA.AperFunction,ComponentPad*%
%ADD15R,1.800000X1.800000*%
%TD*%
%TA.AperFunction,ComponentPad*%
%ADD16C,1.800000*%
%TD*%
%TA.AperFunction,ComponentPad*%
%ADD17C,1.524000*%
%TD*%
%TA.AperFunction,ComponentPad*%
%ADD18R,2.000000X1.905000*%
%TD*%
%TA.AperFunction,ComponentPad*%
%ADD19O,2.000000X1.905000*%
%TD*%
%TA.AperFunction,ViaPad*%
%ADD20C,0.800000*%
%TD*%
%TA.AperFunction,Conductor*%
%ADD21C,1.000000*%
%TD*%
G04 APERTURE END LIST*
D10*
%TO.P,MotorPower,*%
%TO.N,GND*%
X160015000Y-128500000D03*
D11*
%TO.P,MotorPower,1,+*%
%TO.N,+BATT*%
X157475000Y-128500000D03*
%TD*%
%TO.P,M1,1,+*%
%TO.N,/IN1*%
X141750000Y-58500000D03*
D10*
%TO.P,M1,2,-*%
%TO.N,/IN2*%
X141750000Y-61040000D03*
%TD*%
D11*
%TO.P,J1,1,Pin_1*%
%TO.N,+BATT_IN*%
X140535000Y-121750000D03*
D10*
%TO.P,J1,2,Pin_2*%
%TO.N,GND*%
X137995000Y-121750000D03*
%TD*%
D11*
%TO.P,M2,1,+*%
%TO.N,/IN3*%
X177750000Y-58500000D03*
D10*
%TO.P,M2,2,-*%
%TO.N,/IN4*%
X177750000Y-61040000D03*
%TD*%
D12*
%TO.P,R1,1*%
%TO.N,/WF_LED*%
X144250000Y-89190000D03*
D13*
%TO.P,R1,2*%
%TO.N,Net-(D1-Pad2)*%
X144250000Y-96810000D03*
%TD*%
D14*
%TO.P,C2,1*%
%TO.N,+5V*%
X164750000Y-118847349D03*
D12*
%TO.P,C2,2*%
%TO.N,GND*%
X164750000Y-121347349D03*
%TD*%
D15*
%TO.P,D1,1,K*%
%TO.N,GND*%
X143025000Y-76500000D03*
D16*
%TO.P,D1,2,A*%
%TO.N,Net-(D1-Pad2)*%
X140485000Y-76500000D03*
%TD*%
D17*
%TO.P,U1,0,0*%
%TO.N,unconnected-(U1-Pad0)*%
X171180000Y-93430000D03*
%TO.P,U1,2,2*%
%TO.N,unconnected-(U1-Pad2)*%
X171180000Y-95970000D03*
%TO.P,U1,3V,3V*%
%TO.N,+3V3*%
X148320000Y-62950000D03*
%TO.P,U1,4,4*%
%TO.N,unconnected-(U1-Pad4)*%
X171120000Y-90889999D03*
%TO.P,U1,5,5*%
%TO.N,/IN1*%
X171180000Y-83270000D03*
%TO.P,U1,12,12*%
%TO.N,unconnected-(U1-Pad12)*%
X148260000Y-90889999D03*
%TO.P,U1,13,13*%
%TO.N,unconnected-(U1-Pad13)*%
X148320000Y-93430000D03*
%TO.P,U1,14,14*%
%TO.N,unconnected-(U1-Pad14)*%
X148260000Y-88309999D03*
%TO.P,U1,15,15*%
%TO.N,unconnected-(U1-Pad15)*%
X171180000Y-98510000D03*
%TO.P,U1,16,16*%
%TO.N,unconnected-(U1-Pad16)*%
X171120000Y-88309999D03*
%TO.P,U1,17,17*%
%TO.N,/IN2*%
X171180000Y-85810000D03*
%TO.P,U1,18,18*%
%TO.N,/IN3*%
X171180000Y-80730000D03*
%TO.P,U1,19,19*%
%TO.N,/IN4*%
X171180000Y-78190000D03*
%TO.P,U1,21,21*%
%TO.N,/SDA*%
X171180000Y-75650000D03*
%TO.P,U1,22,22*%
%TO.N,/SCL*%
X171180000Y-68030000D03*
%TO.P,U1,23,23*%
%TO.N,unconnected-(U1-Pad23)*%
X171180000Y-65490000D03*
%TO.P,U1,25,25*%
%TO.N,/WF_LED*%
X148320000Y-80730000D03*
%TO.P,U1,26,26*%
%TO.N,unconnected-(U1-Pad26)*%
X148320000Y-83270000D03*
%TO.P,U1,27,27*%
%TO.N,unconnected-(U1-Pad27)*%
X148320000Y-85810000D03*
%TO.P,U1,32,32*%
%TO.N,unconnected-(U1-Pad32)*%
X148320000Y-75650000D03*
%TO.P,U1,33,33*%
%TO.N,unconnected-(U1-Pad33)*%
X148320000Y-78190000D03*
%TO.P,U1,34,34*%
%TO.N,unconnected-(U1-Pad34)*%
X148320000Y-73110000D03*
%TO.P,U1,BAT,BAT*%
%TO.N,unconnected-(U1-PadBAT)*%
X148320000Y-101050000D03*
%TO.P,U1,EN,EN*%
%TO.N,unconnected-(U1-PadEN)*%
X148320000Y-95970000D03*
%TO.P,U1,GND,GND*%
%TO.N,GND*%
X171180000Y-101050000D03*
X171180000Y-62950000D03*
%TO.P,U1,RS,RS*%
%TO.N,unconnected-(U1-PadRS)*%
X148320000Y-65490000D03*
%TO.P,U1,RX,RX*%
%TO.N,unconnected-(U1-PadRX)*%
X171180000Y-73110000D03*
%TO.P,U1,TX,TX*%
%TO.N,unconnected-(U1-PadTX)*%
X171180000Y-70570000D03*
%TO.P,U1,USB,USB*%
%TO.N,+5V*%
X148320000Y-98510000D03*
%TO.P,U1,VN,VN*%
%TO.N,unconnected-(U1-PadVN)*%
X148320000Y-70570000D03*
%TO.P,U1,VP,VP*%
%TO.N,unconnected-(U1-PadVP)*%
X148320000Y-68030000D03*
%TD*%
D18*
%TO.P,U3,1,IN*%
%TO.N,+BATT*%
X140500000Y-106000000D03*
D19*
%TO.P,U3,2,GND*%
%TO.N,GND*%
X140500000Y-103460000D03*
%TO.P,U3,3,OUT*%
%TO.N,+5V*%
X140500000Y-100920000D03*
%TD*%
D11*
%TO.P,U2,1,1*%
%TO.N,+BATT*%
X140500000Y-111475000D03*
D10*
%TO.P,U2,2,2*%
%TO.N,+BATT_IN*%
X140500000Y-114015000D03*
%TO.P,U2,3,3*%
X140500000Y-116555000D03*
%TD*%
D12*
%TO.P,R2,1*%
%TO.N,+5V*%
X140500000Y-96810000D03*
D13*
%TO.P,R2,2*%
%TO.N,Net-(D2-Pad2)*%
X140500000Y-89190000D03*
%TD*%
D14*
%TO.P,C1,1*%
%TO.N,+BATT*%
X152750000Y-118847349D03*
D12*
%TO.P,C1,2*%
%TO.N,GND*%
X152750000Y-121347349D03*
%TD*%
D15*
%TO.P,D2,1,K*%
%TO.N,GND*%
X143025000Y-84750000D03*
D16*
%TO.P,D2,2,A*%
%TO.N,Net-(D2-Pad2)*%
X140485000Y-84750000D03*
%TD*%
D17*
%TO.P,U4,AD0,AD0*%
%TO.N,unconnected-(U4-PadAD0)*%
X166350000Y-52600000D03*
%TO.P,U4,GND,GND*%
%TO.N,GND*%
X153650000Y-52600000D03*
%TO.P,U4,INT,INT*%
%TO.N,unconnected-(U4-PadINT)*%
X168890000Y-52600000D03*
%TO.P,U4,SCL,SCL*%
%TO.N,/SCL*%
X156190000Y-52600000D03*
%TO.P,U4,SDA,SDA*%
%TO.N,/SDA*%
X158730000Y-52600000D03*
%TO.P,U4,VCC,VCC*%
%TO.N,+3V3*%
X151110000Y-52600000D03*
%TO.P,U4,XCL,XCL*%
%TO.N,unconnected-(U4-PadXCL)*%
X163810000Y-52600000D03*
%TO.P,U4,XDA,XDA*%
%TO.N,unconnected-(U4-PadXDA)*%
X161270000Y-52600000D03*
%TD*%
D20*
%TO.N,/IN1*%
X147250000Y-54000000D03*
%TO.N,/IN2*%
X146250000Y-58750000D03*
%TO.N,/SCL*%
X160500000Y-61250000D03*
%TD*%
D21*
%TO.N,+BATT*%
X152750000Y-118847349D02*
X145326326Y-111423674D01*
X140500000Y-111475000D02*
X140500000Y-109500000D01*
X157475000Y-128500000D02*
X153750000Y-128500000D01*
X143402651Y-109500000D02*
X142250000Y-109500000D01*
X143402651Y-109500000D02*
X140500000Y-109500000D01*
X145326326Y-111423674D02*
X143402651Y-109500000D01*
X145250000Y-111500000D02*
X145326326Y-111423674D01*
X140500000Y-111250000D02*
X142250000Y-109500000D01*
X142250000Y-109500000D02*
X140500000Y-107750000D01*
X153750000Y-128500000D02*
X145250000Y-120000000D01*
X145250000Y-120000000D02*
X145250000Y-111500000D01*
X140500000Y-111475000D02*
X140500000Y-111250000D01*
X140500000Y-109500000D02*
X140500000Y-107750000D01*
X140500000Y-107750000D02*
X140500000Y-106000000D01*
%TO.N,+5V*%
X164750000Y-118847349D02*
X161347349Y-118847349D01*
X140500000Y-100920000D02*
X140500000Y-98750000D01*
X143250000Y-101500000D02*
X140500000Y-98750000D01*
X148240000Y-98510000D02*
X145250000Y-101500000D01*
X161347349Y-118847349D02*
X144000000Y-101500000D01*
X140500000Y-98750000D02*
X140500000Y-96810000D01*
X145250000Y-101500000D02*
X144000000Y-101500000D01*
X148320000Y-98510000D02*
X148240000Y-98510000D01*
X144000000Y-101500000D02*
X143250000Y-101500000D01*
%TO.N,Net-(D1-Pad2)*%
X140485000Y-76500000D02*
X140485000Y-77772792D01*
X137000000Y-81257792D02*
X137000000Y-88750000D01*
X137000000Y-88750000D02*
X144250000Y-96000000D01*
X140485000Y-77772792D02*
X137000000Y-81257792D01*
X144250000Y-96000000D02*
X144250000Y-96810000D01*
%TO.N,Net-(D2-Pad2)*%
X140500000Y-89190000D02*
X140500000Y-84765000D01*
X140500000Y-84765000D02*
X140485000Y-84750000D01*
%TO.N,/WF_LED*%
X146858489Y-82191511D02*
X146858489Y-86581511D01*
X146858489Y-86581511D02*
X144250000Y-89190000D01*
X148320000Y-80730000D02*
X146858489Y-82191511D01*
%TO.N,/IN1*%
X141750000Y-56000000D02*
X143750000Y-54000000D01*
X141750000Y-58500000D02*
X141750000Y-56000000D01*
X143750000Y-54000000D02*
X147250000Y-54000000D01*
%TO.N,/IN2*%
X143960000Y-61040000D02*
X146250000Y-58750000D01*
X141750000Y-61040000D02*
X143960000Y-61040000D01*
%TO.N,/IN3*%
X179750000Y-60500000D02*
X179750000Y-72160000D01*
X179750000Y-72160000D02*
X171180000Y-80730000D01*
X177750000Y-58500000D02*
X179750000Y-60500000D01*
%TO.N,/IN4*%
X177750000Y-61040000D02*
X177750000Y-71620000D01*
X177750000Y-71620000D02*
X171180000Y-78190000D01*
%TO.N,/SDA*%
X158980000Y-63450000D02*
X158980000Y-52600000D01*
X171180000Y-75650000D02*
X158980000Y-63450000D01*
%TO.N,/SCL*%
X167280000Y-68030000D02*
X161000000Y-61750000D01*
X161000000Y-61750000D02*
X160500000Y-61250000D01*
X171180000Y-68030000D02*
X167280000Y-68030000D01*
%TO.N,+3V3*%
X148320000Y-55640000D02*
X151360000Y-52600000D01*
X148320000Y-62950000D02*
X148320000Y-55640000D01*
%TO.N,+BATT_IN*%
X140535000Y-116590000D02*
X140500000Y-116555000D01*
X140500000Y-116555000D02*
X140500000Y-114015000D01*
X140535000Y-121750000D02*
X140535000Y-116590000D01*
%TD*%
%TA.AperFunction,Conductor*%
%TO.N,GND*%
G36*
X184184121Y-34028002D02*
G01*
X184230614Y-34081658D01*
X184242000Y-34134000D01*
X184242000Y-132866000D01*
X184221998Y-132934121D01*
X184168342Y-132980614D01*
X184116000Y-132992000D01*
X135384000Y-132992000D01*
X135315879Y-132971998D01*
X135269386Y-132918342D01*
X135258000Y-132866000D01*
X135258000Y-129632703D01*
X136640743Y-129632703D01*
X136678268Y-129917734D01*
X136754129Y-130195036D01*
X136866923Y-130459476D01*
X137014561Y-130706161D01*
X137194313Y-130930528D01*
X137402851Y-131128423D01*
X137636317Y-131296186D01*
X137640112Y-131298195D01*
X137640113Y-131298196D01*
X137661869Y-131309715D01*
X137890392Y-131430712D01*
X138160373Y-131529511D01*
X138441264Y-131590755D01*
X138469841Y-131593004D01*
X138664282Y-131608307D01*
X138664291Y-131608307D01*
X138666739Y-131608500D01*
X138822271Y-131608500D01*
X138824407Y-131608354D01*
X138824418Y-131608354D01*
X139032548Y-131594165D01*
X139032554Y-131594164D01*
X139036825Y-131593873D01*
X139041020Y-131593004D01*
X139041022Y-131593004D01*
X139177584Y-131564723D01*
X139318342Y-131535574D01*
X139589343Y-131439607D01*
X139844812Y-131307750D01*
X139848313Y-131305289D01*
X139848317Y-131305287D01*
X139962418Y-131225095D01*
X140080023Y-131142441D01*
X140290622Y-130946740D01*
X140472713Y-130724268D01*
X140622927Y-130479142D01*
X140738483Y-130215898D01*
X140817244Y-129939406D01*
X140849429Y-129713261D01*
X140857146Y-129659036D01*
X140857146Y-129659034D01*
X140857751Y-129654784D01*
X140857845Y-129636951D01*
X140859235Y-129371583D01*
X140859235Y-129371576D01*
X140859257Y-129367297D01*
X140855959Y-129342242D01*
X140838420Y-129209025D01*
X140821732Y-129082266D01*
X140745871Y-128804964D01*
X140633077Y-128540524D01*
X140485439Y-128293839D01*
X140305687Y-128069472D01*
X140097149Y-127871577D01*
X139863683Y-127703814D01*
X139841843Y-127692250D01*
X139789917Y-127664757D01*
X139609608Y-127569288D01*
X139397042Y-127491500D01*
X139343658Y-127471964D01*
X139343656Y-127471963D01*
X139339627Y-127470489D01*
X139058736Y-127409245D01*
X139027685Y-127406801D01*
X138835718Y-127391693D01*
X138835709Y-127391693D01*
X138833261Y-127391500D01*
X138677729Y-127391500D01*
X138675593Y-127391646D01*
X138675582Y-127391646D01*
X138467452Y-127405835D01*
X138467446Y-127405836D01*
X138463175Y-127406127D01*
X138458980Y-127406996D01*
X138458978Y-127406996D01*
X138322417Y-127435276D01*
X138181658Y-127464426D01*
X137910657Y-127560393D01*
X137655188Y-127692250D01*
X137651687Y-127694711D01*
X137651683Y-127694713D01*
X137641594Y-127701804D01*
X137419977Y-127857559D01*
X137209378Y-128053260D01*
X137027287Y-128275732D01*
X136877073Y-128520858D01*
X136761517Y-128784102D01*
X136682756Y-129060594D01*
X136663317Y-129197183D01*
X136643139Y-129338965D01*
X136642249Y-129345216D01*
X136642227Y-129349505D01*
X136642226Y-129349512D01*
X136640765Y-129628417D01*
X136640743Y-129632703D01*
X135258000Y-129632703D01*
X135258000Y-122017966D01*
X136663257Y-122017966D01*
X136693565Y-122152446D01*
X136696645Y-122162275D01*
X136776770Y-122359603D01*
X136781413Y-122368794D01*
X136892694Y-122550388D01*
X136898777Y-122558699D01*
X137038213Y-122719667D01*
X137045580Y-122726883D01*
X137209434Y-122862916D01*
X137217881Y-122868831D01*
X137401756Y-122976279D01*
X137411042Y-122980729D01*
X137610001Y-123056703D01*
X137619899Y-123059579D01*
X137723250Y-123080606D01*
X137737299Y-123079410D01*
X137741000Y-123069065D01*
X137741000Y-123068517D01*
X138249000Y-123068517D01*
X138253064Y-123082359D01*
X138266478Y-123084393D01*
X138273184Y-123083534D01*
X138283262Y-123081392D01*
X138487255Y-123020191D01*
X138496842Y-123016433D01*
X138688095Y-122922739D01*
X138696945Y-122917464D01*
X138870328Y-122793792D01*
X138878193Y-122787145D01*
X138982897Y-122682805D01*
X139045268Y-122648889D01*
X139116075Y-122654077D01*
X139172837Y-122696723D01*
X139189819Y-122727826D01*
X139234385Y-122846705D01*
X139321739Y-122963261D01*
X139438295Y-123050615D01*
X139574684Y-123101745D01*
X139636866Y-123108500D01*
X141433134Y-123108500D01*
X141495316Y-123101745D01*
X141631705Y-123050615D01*
X141748261Y-122963261D01*
X141835615Y-122846705D01*
X141886745Y-122710316D01*
X141893500Y-122648134D01*
X141893500Y-120851866D01*
X141886745Y-120789684D01*
X141835615Y-120653295D01*
X141748261Y-120536739D01*
X141631705Y-120449385D01*
X141623296Y-120446233D01*
X141615425Y-120441923D01*
X141616336Y-120440259D01*
X141568510Y-120404337D01*
X141543807Y-120337776D01*
X141543500Y-120328991D01*
X141543500Y-117471544D01*
X141567177Y-117398018D01*
X141665435Y-117261277D01*
X141668453Y-117257077D01*
X141767430Y-117056811D01*
X141832370Y-116843069D01*
X141861529Y-116621590D01*
X141863156Y-116555000D01*
X141844852Y-116332361D01*
X141790431Y-116115702D01*
X141701354Y-115910840D01*
X141580014Y-115723277D01*
X141560124Y-115701418D01*
X141541306Y-115680737D01*
X141510254Y-115616891D01*
X141508500Y-115595938D01*
X141508500Y-114978970D01*
X141528502Y-114910849D01*
X141536460Y-114900120D01*
X141538096Y-114898489D01*
X141668453Y-114717077D01*
X141767430Y-114516811D01*
X141832370Y-114303069D01*
X141861529Y-114081590D01*
X141863156Y-114015000D01*
X141844852Y-113792361D01*
X141790431Y-113575702D01*
X141701354Y-113370840D01*
X141580014Y-113183277D01*
X141576532Y-113179450D01*
X141432798Y-113021488D01*
X141401746Y-112957642D01*
X141410141Y-112887143D01*
X141455317Y-112832375D01*
X141481761Y-112818706D01*
X141588297Y-112778767D01*
X141596705Y-112775615D01*
X141713261Y-112688261D01*
X141800615Y-112571705D01*
X141851745Y-112435316D01*
X141858500Y-112373134D01*
X141858500Y-111369926D01*
X141878502Y-111301805D01*
X141895404Y-111280831D01*
X142630829Y-110545405D01*
X142693142Y-110511380D01*
X142719925Y-110508500D01*
X142932726Y-110508500D01*
X143000847Y-110528502D01*
X143021821Y-110545405D01*
X144204595Y-111728178D01*
X144238620Y-111790490D01*
X144241500Y-111817273D01*
X144241500Y-119938157D01*
X144240763Y-119951764D01*
X144236676Y-119989388D01*
X144238533Y-120010610D01*
X144241050Y-120039388D01*
X144241379Y-120044214D01*
X144241500Y-120046686D01*
X144241500Y-120049769D01*
X144241801Y-120052837D01*
X144245690Y-120092506D01*
X144245812Y-120093819D01*
X144249685Y-120138084D01*
X144253913Y-120186413D01*
X144255400Y-120191532D01*
X144255920Y-120196833D01*
X144282791Y-120285834D01*
X144283126Y-120286967D01*
X144295336Y-120328991D01*
X144309091Y-120376336D01*
X144311544Y-120381068D01*
X144313084Y-120386169D01*
X144315978Y-120391612D01*
X144356731Y-120468260D01*
X144357343Y-120469426D01*
X144397271Y-120546453D01*
X144400108Y-120551926D01*
X144403431Y-120556089D01*
X144405934Y-120560796D01*
X144464755Y-120632918D01*
X144465446Y-120633774D01*
X144496738Y-120672973D01*
X144499242Y-120675477D01*
X144499884Y-120676195D01*
X144503585Y-120680528D01*
X144530935Y-120714062D01*
X144535682Y-120717989D01*
X144535684Y-120717991D01*
X144566262Y-120743287D01*
X144575042Y-120751277D01*
X152993145Y-129169379D01*
X153002247Y-129179522D01*
X153025968Y-129209025D01*
X153064456Y-129241320D01*
X153068075Y-129244478D01*
X153069890Y-129246124D01*
X153072075Y-129248309D01*
X153074455Y-129250264D01*
X153074465Y-129250273D01*
X153105236Y-129275549D01*
X153106251Y-129276391D01*
X153177474Y-129336154D01*
X153182148Y-129338723D01*
X153186261Y-129342102D01*
X153191698Y-129345017D01*
X153191699Y-129345018D01*
X153224713Y-129362720D01*
X153255011Y-129378965D01*
X153268047Y-129385955D01*
X153269177Y-129386568D01*
X153350787Y-129431433D01*
X153355869Y-129433045D01*
X153360563Y-129435562D01*
X153449531Y-129462762D01*
X153450559Y-129463082D01*
X153539306Y-129491235D01*
X153544602Y-129491829D01*
X153549698Y-129493387D01*
X153642257Y-129502790D01*
X153643393Y-129502911D01*
X153677008Y-129506681D01*
X153689730Y-129508108D01*
X153689734Y-129508108D01*
X153693227Y-129508500D01*
X153696754Y-129508500D01*
X153697739Y-129508555D01*
X153703419Y-129509002D01*
X153732825Y-129511989D01*
X153740337Y-129512752D01*
X153740339Y-129512752D01*
X153746462Y-129513374D01*
X153792108Y-129509059D01*
X153803967Y-129508500D01*
X156053991Y-129508500D01*
X156122112Y-129528502D01*
X156168605Y-129582158D01*
X156170903Y-129587694D01*
X156171232Y-129588296D01*
X156174385Y-129596705D01*
X156261739Y-129713261D01*
X156378295Y-129800615D01*
X156514684Y-129851745D01*
X156576866Y-129858500D01*
X158373134Y-129858500D01*
X158435316Y-129851745D01*
X158571705Y-129800615D01*
X158688261Y-129713261D01*
X158775615Y-129596705D01*
X158801183Y-129528502D01*
X158819798Y-129478848D01*
X158862440Y-129422084D01*
X158929001Y-129397384D01*
X158998350Y-129412592D01*
X159033017Y-129440580D01*
X159058218Y-129469673D01*
X159065580Y-129476883D01*
X159229434Y-129612916D01*
X159237881Y-129618831D01*
X159421756Y-129726279D01*
X159431042Y-129730729D01*
X159630001Y-129806703D01*
X159639899Y-129809579D01*
X159743250Y-129830606D01*
X159757299Y-129829410D01*
X159761000Y-129819065D01*
X159761000Y-129818517D01*
X160269000Y-129818517D01*
X160273064Y-129832359D01*
X160286478Y-129834393D01*
X160293184Y-129833534D01*
X160303262Y-129831392D01*
X160507255Y-129770191D01*
X160516842Y-129766433D01*
X160708095Y-129672739D01*
X160716945Y-129667464D01*
X160765678Y-129632703D01*
X178640743Y-129632703D01*
X178678268Y-129917734D01*
X178754129Y-130195036D01*
X178866923Y-130459476D01*
X179014561Y-130706161D01*
X179194313Y-130930528D01*
X179402851Y-131128423D01*
X179636317Y-131296186D01*
X179640112Y-131298195D01*
X179640113Y-131298196D01*
X179661869Y-131309715D01*
X179890392Y-131430712D01*
X180160373Y-131529511D01*
X180441264Y-131590755D01*
X180469841Y-131593004D01*
X180664282Y-131608307D01*
X180664291Y-131608307D01*
X180666739Y-131608500D01*
X180822271Y-131608500D01*
X180824407Y-131608354D01*
X180824418Y-131608354D01*
X181032548Y-131594165D01*
X181032554Y-131594164D01*
X181036825Y-131593873D01*
X181041020Y-131593004D01*
X181041022Y-131593004D01*
X181177584Y-131564723D01*
X181318342Y-131535574D01*
X181589343Y-131439607D01*
X181844812Y-131307750D01*
X181848313Y-131305289D01*
X181848317Y-131305287D01*
X181962418Y-131225095D01*
X182080023Y-131142441D01*
X182290622Y-130946740D01*
X182472713Y-130724268D01*
X182622927Y-130479142D01*
X182738483Y-130215898D01*
X182817244Y-129939406D01*
X182849429Y-129713261D01*
X182857146Y-129659036D01*
X182857146Y-129659034D01*
X182857751Y-129654784D01*
X182857845Y-129636951D01*
X182859235Y-129371583D01*
X182859235Y-129371576D01*
X182859257Y-129367297D01*
X182855959Y-129342242D01*
X182838420Y-129209025D01*
X182821732Y-129082266D01*
X182745871Y-128804964D01*
X182633077Y-128540524D01*
X182485439Y-128293839D01*
X182305687Y-128069472D01*
X182097149Y-127871577D01*
X181863683Y-127703814D01*
X181841843Y-127692250D01*
X181789917Y-127664757D01*
X181609608Y-127569288D01*
X181397042Y-127491500D01*
X181343658Y-127471964D01*
X181343656Y-127471963D01*
X181339627Y-127470489D01*
X181058736Y-127409245D01*
X181027685Y-127406801D01*
X180835718Y-127391693D01*
X180835709Y-127391693D01*
X180833261Y-127391500D01*
X180677729Y-127391500D01*
X180675593Y-127391646D01*
X180675582Y-127391646D01*
X180467452Y-127405835D01*
X180467446Y-127405836D01*
X180463175Y-127406127D01*
X180458980Y-127406996D01*
X180458978Y-127406996D01*
X180322417Y-127435276D01*
X180181658Y-127464426D01*
X179910657Y-127560393D01*
X179655188Y-127692250D01*
X179651687Y-127694711D01*
X179651683Y-127694713D01*
X179641594Y-127701804D01*
X179419977Y-127857559D01*
X179209378Y-128053260D01*
X179027287Y-128275732D01*
X178877073Y-128520858D01*
X178761517Y-128784102D01*
X178682756Y-129060594D01*
X178663317Y-129197183D01*
X178643139Y-129338965D01*
X178642249Y-129345216D01*
X178642227Y-129349505D01*
X178642226Y-129349512D01*
X178640765Y-129628417D01*
X178640743Y-129632703D01*
X160765678Y-129632703D01*
X160890328Y-129543792D01*
X160898200Y-129537139D01*
X161049052Y-129386812D01*
X161055730Y-129378965D01*
X161180003Y-129206020D01*
X161185313Y-129197183D01*
X161279670Y-129006267D01*
X161283469Y-128996672D01*
X161345377Y-128792910D01*
X161347555Y-128782837D01*
X161348986Y-128771962D01*
X161346775Y-128757778D01*
X161333617Y-128754000D01*
X160287115Y-128754000D01*
X160271876Y-128758475D01*
X160270671Y-128759865D01*
X160269000Y-128767548D01*
X160269000Y-129818517D01*
X159761000Y-129818517D01*
X159761000Y-128227885D01*
X160269000Y-128227885D01*
X160273475Y-128243124D01*
X160274865Y-128244329D01*
X160282548Y-128246000D01*
X161333344Y-128246000D01*
X161346875Y-128242027D01*
X161348180Y-128232947D01*
X161306214Y-128065875D01*
X161302894Y-128056124D01*
X161217972Y-127860814D01*
X161213105Y-127851739D01*
X161097426Y-127672926D01*
X161091136Y-127664757D01*
X160947806Y-127507240D01*
X160940273Y-127500215D01*
X160773139Y-127368222D01*
X160764552Y-127362517D01*
X160578117Y-127259599D01*
X160568705Y-127255369D01*
X160367959Y-127184280D01*
X160357988Y-127181646D01*
X160286837Y-127168972D01*
X160273540Y-127170432D01*
X160269000Y-127184989D01*
X160269000Y-128227885D01*
X159761000Y-128227885D01*
X159761000Y-127183102D01*
X159757082Y-127169758D01*
X159742806Y-127167771D01*
X159704324Y-127173660D01*
X159694288Y-127176051D01*
X159491868Y-127242212D01*
X159482359Y-127246209D01*
X159293463Y-127344542D01*
X159284738Y-127350036D01*
X159114433Y-127477905D01*
X159106726Y-127484748D01*
X159029478Y-127565584D01*
X158967954Y-127601014D01*
X158897042Y-127597557D01*
X158839255Y-127556311D01*
X158820402Y-127522763D01*
X158778767Y-127411703D01*
X158775615Y-127403295D01*
X158688261Y-127286739D01*
X158571705Y-127199385D01*
X158435316Y-127148255D01*
X158373134Y-127141500D01*
X156576866Y-127141500D01*
X156514684Y-127148255D01*
X156378295Y-127199385D01*
X156261739Y-127286739D01*
X156174385Y-127403295D01*
X156171233Y-127411703D01*
X156166923Y-127419575D01*
X156165259Y-127418664D01*
X156129337Y-127466490D01*
X156062776Y-127491193D01*
X156053991Y-127491500D01*
X154219925Y-127491500D01*
X154151804Y-127471498D01*
X154130830Y-127454595D01*
X149109645Y-122433411D01*
X152028493Y-122433411D01*
X152037789Y-122445426D01*
X152088994Y-122481280D01*
X152098489Y-122486763D01*
X152295947Y-122578839D01*
X152306239Y-122582585D01*
X152516688Y-122638974D01*
X152527481Y-122640877D01*
X152744525Y-122659866D01*
X152755475Y-122659866D01*
X152972519Y-122640877D01*
X152983312Y-122638974D01*
X153193761Y-122582585D01*
X153204053Y-122578839D01*
X153401511Y-122486763D01*
X153411006Y-122481280D01*
X153463048Y-122444840D01*
X153471424Y-122434361D01*
X153470925Y-122433411D01*
X164028493Y-122433411D01*
X164037789Y-122445426D01*
X164088994Y-122481280D01*
X164098489Y-122486763D01*
X164295947Y-122578839D01*
X164306239Y-122582585D01*
X164516688Y-122638974D01*
X164527481Y-122640877D01*
X164744525Y-122659866D01*
X164755475Y-122659866D01*
X164972519Y-122640877D01*
X164983312Y-122638974D01*
X165193761Y-122582585D01*
X165204053Y-122578839D01*
X165401511Y-122486763D01*
X165411006Y-122481280D01*
X165463048Y-122444840D01*
X165471424Y-122434361D01*
X165464356Y-122420915D01*
X164762812Y-121719371D01*
X164748868Y-121711757D01*
X164747035Y-121711888D01*
X164740420Y-121716139D01*
X164034923Y-122421636D01*
X164028493Y-122433411D01*
X153470925Y-122433411D01*
X153464356Y-122420915D01*
X152762812Y-121719371D01*
X152748868Y-121711757D01*
X152747035Y-121711888D01*
X152740420Y-121716139D01*
X152034923Y-122421636D01*
X152028493Y-122433411D01*
X149109645Y-122433411D01*
X148029058Y-121352824D01*
X151437483Y-121352824D01*
X151456472Y-121569868D01*
X151458375Y-121580661D01*
X151514764Y-121791110D01*
X151518510Y-121801402D01*
X151610586Y-121998860D01*
X151616069Y-122008355D01*
X151652509Y-122060397D01*
X151662988Y-122068773D01*
X151676434Y-122061705D01*
X152377978Y-121360161D01*
X152384356Y-121348481D01*
X153114408Y-121348481D01*
X153114539Y-121350314D01*
X153118790Y-121356929D01*
X153824287Y-122062426D01*
X153836062Y-122068856D01*
X153848077Y-122059560D01*
X153883931Y-122008355D01*
X153889414Y-121998860D01*
X153981490Y-121801402D01*
X153985236Y-121791110D01*
X154041625Y-121580661D01*
X154043528Y-121569868D01*
X154062517Y-121352824D01*
X163437483Y-121352824D01*
X163456472Y-121569868D01*
X163458375Y-121580661D01*
X163514764Y-121791110D01*
X163518510Y-121801402D01*
X163610586Y-121998860D01*
X163616069Y-122008355D01*
X163652509Y-122060397D01*
X163662988Y-122068773D01*
X163676434Y-122061705D01*
X164377978Y-121360161D01*
X164384356Y-121348481D01*
X165114408Y-121348481D01*
X165114539Y-121350314D01*
X165118790Y-121356929D01*
X165824287Y-122062426D01*
X165836062Y-122068856D01*
X165848077Y-122059560D01*
X165883931Y-122008355D01*
X165889414Y-121998860D01*
X165981490Y-121801402D01*
X165985236Y-121791110D01*
X166041625Y-121580661D01*
X166043528Y-121569868D01*
X166062517Y-121352824D01*
X166062517Y-121341874D01*
X166043528Y-121124830D01*
X166041625Y-121114037D01*
X165985236Y-120903588D01*
X165981490Y-120893296D01*
X165889414Y-120695838D01*
X165883931Y-120686343D01*
X165847491Y-120634301D01*
X165837012Y-120625925D01*
X165823566Y-120632993D01*
X165122022Y-121334537D01*
X165114408Y-121348481D01*
X164384356Y-121348481D01*
X164385592Y-121346217D01*
X164385461Y-121344384D01*
X164381210Y-121337769D01*
X163675713Y-120632272D01*
X163663938Y-120625842D01*
X163651923Y-120635138D01*
X163616069Y-120686343D01*
X163610586Y-120695838D01*
X163518510Y-120893296D01*
X163514764Y-120903588D01*
X163458375Y-121114037D01*
X163456472Y-121124830D01*
X163437483Y-121341874D01*
X163437483Y-121352824D01*
X154062517Y-121352824D01*
X154062517Y-121341874D01*
X154043528Y-121124830D01*
X154041625Y-121114037D01*
X153985236Y-120903588D01*
X153981490Y-120893296D01*
X153889414Y-120695838D01*
X153883931Y-120686343D01*
X153847491Y-120634301D01*
X153837012Y-120625925D01*
X153823566Y-120632993D01*
X153122022Y-121334537D01*
X153114408Y-121348481D01*
X152384356Y-121348481D01*
X152385592Y-121346217D01*
X152385461Y-121344384D01*
X152381210Y-121337769D01*
X151675713Y-120632272D01*
X151663938Y-120625842D01*
X151651923Y-120635138D01*
X151616069Y-120686343D01*
X151610586Y-120695838D01*
X151518510Y-120893296D01*
X151514764Y-120903588D01*
X151458375Y-121114037D01*
X151456472Y-121124830D01*
X151437483Y-121341874D01*
X151437483Y-121352824D01*
X148029058Y-121352824D01*
X146295405Y-119619171D01*
X146261379Y-119556859D01*
X146258500Y-119530076D01*
X146258500Y-114086273D01*
X146278502Y-114018152D01*
X146332158Y-113971659D01*
X146402432Y-113961555D01*
X146467012Y-113991049D01*
X146473595Y-113997178D01*
X151404595Y-118928178D01*
X151438621Y-118990490D01*
X151441500Y-119017273D01*
X151441500Y-119695483D01*
X151448255Y-119757665D01*
X151499385Y-119894054D01*
X151586739Y-120010610D01*
X151703295Y-120097964D01*
X151839684Y-120149094D01*
X151883252Y-120153827D01*
X151898486Y-120155482D01*
X151898489Y-120155482D01*
X151901866Y-120155849D01*
X151905185Y-120155849D01*
X151972110Y-120179502D01*
X152007804Y-120225505D01*
X152009734Y-120224490D01*
X152015442Y-120235349D01*
X152015632Y-120235594D01*
X152015653Y-120235752D01*
X152035644Y-120273783D01*
X152737188Y-120975327D01*
X152751132Y-120982941D01*
X152752965Y-120982810D01*
X152759580Y-120978559D01*
X153465077Y-120273062D01*
X153487871Y-120231320D01*
X153490047Y-120221320D01*
X153540253Y-120171122D01*
X153593814Y-120155898D01*
X153594719Y-120155849D01*
X153598134Y-120155849D01*
X153601530Y-120155480D01*
X153601532Y-120155480D01*
X153613879Y-120154139D01*
X153660316Y-120149094D01*
X153796705Y-120097964D01*
X153913261Y-120010610D01*
X154000615Y-119894054D01*
X154051745Y-119757665D01*
X154058500Y-119695483D01*
X154058500Y-117999215D01*
X154051745Y-117937033D01*
X154000615Y-117800644D01*
X153913261Y-117684088D01*
X153796705Y-117596734D01*
X153660316Y-117545604D01*
X153598134Y-117538849D01*
X152919925Y-117538849D01*
X152851804Y-117518847D01*
X152830830Y-117501944D01*
X146081783Y-110752897D01*
X146072958Y-110743096D01*
X146051762Y-110716922D01*
X146047879Y-110712127D01*
X146011116Y-110681498D01*
X146002674Y-110673788D01*
X144159506Y-108830621D01*
X144150404Y-108820478D01*
X144130548Y-108795782D01*
X144126683Y-108790975D01*
X144088229Y-108758708D01*
X144084582Y-108755528D01*
X144082770Y-108753885D01*
X144080576Y-108751691D01*
X144047302Y-108724358D01*
X144046504Y-108723696D01*
X143975177Y-108663846D01*
X143970507Y-108661278D01*
X143966390Y-108657897D01*
X143884565Y-108614023D01*
X143883406Y-108613394D01*
X143807270Y-108571538D01*
X143807262Y-108571535D01*
X143801864Y-108568567D01*
X143796782Y-108566955D01*
X143792088Y-108564438D01*
X143703120Y-108537238D01*
X143702092Y-108536918D01*
X143613345Y-108508765D01*
X143608049Y-108508171D01*
X143602953Y-108506613D01*
X143510443Y-108497216D01*
X143509237Y-108497088D01*
X143459424Y-108491500D01*
X143455919Y-108491500D01*
X143454901Y-108491443D01*
X143449205Y-108490995D01*
X143412317Y-108487248D01*
X143412311Y-108487248D01*
X143406188Y-108486626D01*
X143363909Y-108490623D01*
X143360541Y-108490941D01*
X143348683Y-108491500D01*
X142719924Y-108491500D01*
X142651803Y-108471498D01*
X142630829Y-108454595D01*
X141753807Y-107577573D01*
X141719781Y-107515261D01*
X141724846Y-107444446D01*
X141767337Y-107387652D01*
X141856081Y-107321142D01*
X141863261Y-107315761D01*
X141950615Y-107199205D01*
X142001745Y-107062816D01*
X142008500Y-107000634D01*
X142008500Y-104999366D01*
X142001745Y-104937184D01*
X141950615Y-104800795D01*
X141863261Y-104684239D01*
X141746705Y-104596885D01*
X141726317Y-104589242D01*
X141669553Y-104546599D01*
X141644854Y-104480038D01*
X141660062Y-104410689D01*
X141671666Y-104393168D01*
X141764945Y-104275056D01*
X141770650Y-104266469D01*
X141881714Y-104065278D01*
X141885944Y-104055866D01*
X141962659Y-103839232D01*
X141965293Y-103829261D01*
X141982647Y-103731837D01*
X141981187Y-103718540D01*
X141966630Y-103714000D01*
X139031904Y-103714000D01*
X139018560Y-103717918D01*
X139016573Y-103732194D01*
X139026110Y-103794515D01*
X139028499Y-103804543D01*
X139099898Y-104022988D01*
X139103895Y-104032497D01*
X139210011Y-104236344D01*
X139215500Y-104245061D01*
X139328902Y-104396099D01*
X139353807Y-104462584D01*
X139338814Y-104531980D01*
X139288684Y-104582253D01*
X139272375Y-104589732D01*
X139253295Y-104596885D01*
X139136739Y-104684239D01*
X139049385Y-104800795D01*
X138998255Y-104937184D01*
X138991500Y-104999366D01*
X138991500Y-107000634D01*
X138998255Y-107062816D01*
X139049385Y-107199205D01*
X139136739Y-107315761D01*
X139253295Y-107403115D01*
X139261703Y-107406267D01*
X139382286Y-107451472D01*
X139382289Y-107451473D01*
X139389684Y-107454245D01*
X139395453Y-107454872D01*
X139456291Y-107489626D01*
X139489113Y-107552581D01*
X139491500Y-107576993D01*
X139491500Y-107688157D01*
X139490763Y-107701764D01*
X139486676Y-107739388D01*
X139487213Y-107745523D01*
X139491021Y-107789053D01*
X139491500Y-107800034D01*
X139491500Y-109440127D01*
X139490810Y-109453297D01*
X139486645Y-109492925D01*
X139487204Y-109499065D01*
X139490981Y-109540570D01*
X139491500Y-109551990D01*
X139491500Y-110053991D01*
X139471498Y-110122112D01*
X139417842Y-110168605D01*
X139412306Y-110170903D01*
X139411704Y-110171232D01*
X139403295Y-110174385D01*
X139286739Y-110261739D01*
X139199385Y-110378295D01*
X139148255Y-110514684D01*
X139141500Y-110576866D01*
X139141500Y-112373134D01*
X139148255Y-112435316D01*
X139199385Y-112571705D01*
X139286739Y-112688261D01*
X139403295Y-112775615D01*
X139411704Y-112778767D01*
X139411705Y-112778768D01*
X139520451Y-112819535D01*
X139577216Y-112862176D01*
X139601916Y-112928738D01*
X139586709Y-112998087D01*
X139567316Y-113024568D01*
X139440629Y-113157138D01*
X139314743Y-113341680D01*
X139220688Y-113544305D01*
X139160989Y-113759570D01*
X139137251Y-113981695D01*
X139137548Y-113986848D01*
X139137548Y-113986851D01*
X139143011Y-114081590D01*
X139150110Y-114204715D01*
X139151247Y-114209761D01*
X139151248Y-114209767D01*
X139171119Y-114297939D01*
X139199222Y-114422639D01*
X139283266Y-114629616D01*
X139399987Y-114820088D01*
X139403367Y-114823990D01*
X139460737Y-114890219D01*
X139490220Y-114954804D01*
X139491500Y-114972717D01*
X139491500Y-115593381D01*
X139471498Y-115661502D01*
X139456594Y-115680432D01*
X139440629Y-115697138D01*
X139314743Y-115881680D01*
X139220688Y-116084305D01*
X139160989Y-116299570D01*
X139137251Y-116521695D01*
X139137548Y-116526848D01*
X139137548Y-116526851D01*
X139143011Y-116621590D01*
X139150110Y-116744715D01*
X139151247Y-116749761D01*
X139151248Y-116749767D01*
X139171119Y-116837939D01*
X139199222Y-116962639D01*
X139283266Y-117169616D01*
X139399987Y-117360088D01*
X139461386Y-117430968D01*
X139495737Y-117470624D01*
X139525220Y-117535210D01*
X139526500Y-117553122D01*
X139526500Y-120328991D01*
X139506498Y-120397112D01*
X139452842Y-120443605D01*
X139447306Y-120445903D01*
X139446704Y-120446232D01*
X139438295Y-120449385D01*
X139321739Y-120536739D01*
X139234385Y-120653295D01*
X139231233Y-120661703D01*
X139231232Y-120661705D01*
X139189722Y-120772433D01*
X139147081Y-120829198D01*
X139080519Y-120853898D01*
X139011170Y-120838691D01*
X138978546Y-120813004D01*
X138927799Y-120757234D01*
X138920273Y-120750215D01*
X138753139Y-120618222D01*
X138744552Y-120612517D01*
X138558117Y-120509599D01*
X138548705Y-120505369D01*
X138347959Y-120434280D01*
X138337988Y-120431646D01*
X138266837Y-120418972D01*
X138253540Y-120420432D01*
X138249000Y-120434989D01*
X138249000Y-123068517D01*
X137741000Y-123068517D01*
X137741000Y-122022115D01*
X137736525Y-122006876D01*
X137735135Y-122005671D01*
X137727452Y-122004000D01*
X136678225Y-122004000D01*
X136664694Y-122007973D01*
X136663257Y-122017966D01*
X135258000Y-122017966D01*
X135258000Y-121484183D01*
X136659389Y-121484183D01*
X136660912Y-121492607D01*
X136673292Y-121496000D01*
X137722885Y-121496000D01*
X137738124Y-121491525D01*
X137739329Y-121490135D01*
X137741000Y-121482452D01*
X137741000Y-120433102D01*
X137737082Y-120419758D01*
X137722806Y-120417771D01*
X137684324Y-120423660D01*
X137674288Y-120426051D01*
X137471868Y-120492212D01*
X137462359Y-120496209D01*
X137273463Y-120594542D01*
X137264738Y-120600036D01*
X137094433Y-120727905D01*
X137086726Y-120734748D01*
X136939590Y-120888717D01*
X136933104Y-120896727D01*
X136813098Y-121072649D01*
X136808000Y-121081623D01*
X136718338Y-121274783D01*
X136714775Y-121284470D01*
X136659389Y-121484183D01*
X135258000Y-121484183D01*
X135258000Y-101022263D01*
X138990064Y-101022263D01*
X139026404Y-101259744D01*
X139058083Y-101356668D01*
X139099434Y-101483183D01*
X139099437Y-101483189D01*
X139101042Y-101488101D01*
X139211975Y-101701200D01*
X139356223Y-101893320D01*
X139359961Y-101896892D01*
X139505430Y-102035905D01*
X139529912Y-102059301D01*
X139567351Y-102084840D01*
X139612352Y-102139751D01*
X139620523Y-102210275D01*
X139589269Y-102274022D01*
X139564790Y-102294716D01*
X139562674Y-102296085D01*
X139554502Y-102302378D01*
X139384520Y-102457050D01*
X139377494Y-102464583D01*
X139235055Y-102644944D01*
X139229350Y-102653531D01*
X139118286Y-102854722D01*
X139114056Y-102864134D01*
X139037341Y-103080768D01*
X139034707Y-103090739D01*
X139017353Y-103188163D01*
X139018813Y-103201460D01*
X139033370Y-103206000D01*
X141968096Y-103206000D01*
X141981440Y-103202082D01*
X141983427Y-103187806D01*
X141973890Y-103125485D01*
X141971501Y-103115457D01*
X141900102Y-102897012D01*
X141896105Y-102887503D01*
X141789989Y-102683656D01*
X141784495Y-102674931D01*
X141646507Y-102491148D01*
X141639664Y-102483441D01*
X141473509Y-102324661D01*
X141465502Y-102318177D01*
X141432644Y-102295763D01*
X141387641Y-102240852D01*
X141379468Y-102170328D01*
X141410722Y-102106580D01*
X141435204Y-102085884D01*
X141437635Y-102084311D01*
X141441977Y-102081502D01*
X141619670Y-101919814D01*
X141768568Y-101731276D01*
X141789507Y-101693345D01*
X141839939Y-101643375D01*
X141909382Y-101628603D01*
X141975787Y-101653719D01*
X141988910Y-101665144D01*
X142493145Y-102169379D01*
X142502247Y-102179522D01*
X142525968Y-102209025D01*
X142564456Y-102241320D01*
X142568075Y-102244478D01*
X142569890Y-102246124D01*
X142572075Y-102248309D01*
X142574455Y-102250264D01*
X142574465Y-102250273D01*
X142605236Y-102275549D01*
X142606251Y-102276391D01*
X142677474Y-102336154D01*
X142682148Y-102338723D01*
X142686261Y-102342102D01*
X142691698Y-102345017D01*
X142691699Y-102345018D01*
X142768047Y-102385955D01*
X142769177Y-102386568D01*
X142850787Y-102431433D01*
X142855869Y-102433045D01*
X142860563Y-102435562D01*
X142949531Y-102462762D01*
X142950559Y-102463082D01*
X143039306Y-102491235D01*
X143044602Y-102491829D01*
X143049698Y-102493387D01*
X143142257Y-102502790D01*
X143143393Y-102502911D01*
X143177008Y-102506681D01*
X143189730Y-102508108D01*
X143189734Y-102508108D01*
X143193227Y-102508500D01*
X143196754Y-102508500D01*
X143197739Y-102508555D01*
X143203419Y-102509002D01*
X143232825Y-102511989D01*
X143240337Y-102512752D01*
X143240339Y-102512752D01*
X143246462Y-102513374D01*
X143292108Y-102509059D01*
X143303967Y-102508500D01*
X143530075Y-102508500D01*
X143598196Y-102528502D01*
X143619170Y-102545405D01*
X160590494Y-119516728D01*
X160599596Y-119526871D01*
X160623317Y-119556374D01*
X160661805Y-119588669D01*
X160665424Y-119591827D01*
X160667239Y-119593473D01*
X160669424Y-119595658D01*
X160671804Y-119597613D01*
X160671814Y-119597622D01*
X160702585Y-119622898D01*
X160703600Y-119623740D01*
X160774823Y-119683503D01*
X160779497Y-119686072D01*
X160783610Y-119689451D01*
X160789047Y-119692366D01*
X160789048Y-119692367D01*
X160865396Y-119733304D01*
X160866526Y-119733917D01*
X160948136Y-119778782D01*
X160953218Y-119780394D01*
X160957912Y-119782911D01*
X161046880Y-119810111D01*
X161047908Y-119810431D01*
X161136655Y-119838584D01*
X161141951Y-119839178D01*
X161147047Y-119840736D01*
X161239606Y-119850139D01*
X161240742Y-119850260D01*
X161274357Y-119854030D01*
X161287079Y-119855457D01*
X161287083Y-119855457D01*
X161290576Y-119855849D01*
X161294103Y-119855849D01*
X161295088Y-119855904D01*
X161300768Y-119856351D01*
X161330174Y-119859338D01*
X161337686Y-119860101D01*
X161337688Y-119860101D01*
X161343811Y-119860723D01*
X161389457Y-119856408D01*
X161401316Y-119855849D01*
X163407725Y-119855849D01*
X163475846Y-119875851D01*
X163508551Y-119906284D01*
X163586739Y-120010610D01*
X163703295Y-120097964D01*
X163839684Y-120149094D01*
X163883252Y-120153827D01*
X163898486Y-120155482D01*
X163898489Y-120155482D01*
X163901866Y-120155849D01*
X163905185Y-120155849D01*
X163972110Y-120179502D01*
X164007804Y-120225505D01*
X164009734Y-120224490D01*
X164015442Y-120235349D01*
X164015632Y-120235594D01*
X164015653Y-120235752D01*
X164035644Y-120273783D01*
X164737188Y-120975327D01*
X164751132Y-120982941D01*
X164752965Y-120982810D01*
X164759580Y-120978559D01*
X165465077Y-120273062D01*
X165487871Y-120231320D01*
X165490047Y-120221320D01*
X165540253Y-120171122D01*
X165593814Y-120155898D01*
X165594719Y-120155849D01*
X165598134Y-120155849D01*
X165601530Y-120155480D01*
X165601532Y-120155480D01*
X165613879Y-120154139D01*
X165660316Y-120149094D01*
X165796705Y-120097964D01*
X165913261Y-120010610D01*
X166000615Y-119894054D01*
X166051745Y-119757665D01*
X166058500Y-119695483D01*
X166058500Y-117999215D01*
X166051745Y-117937033D01*
X166000615Y-117800644D01*
X165913261Y-117684088D01*
X165796705Y-117596734D01*
X165660316Y-117545604D01*
X165598134Y-117538849D01*
X163901866Y-117538849D01*
X163839684Y-117545604D01*
X163703295Y-117596734D01*
X163586739Y-117684088D01*
X163581358Y-117691268D01*
X163508551Y-117788414D01*
X163451692Y-117830929D01*
X163407725Y-117838849D01*
X161817274Y-117838849D01*
X161749153Y-117818847D01*
X161728179Y-117801944D01*
X146140330Y-102214095D01*
X146106304Y-102151783D01*
X146111369Y-102080968D01*
X146140330Y-102035905D01*
X146876051Y-101300184D01*
X146938363Y-101266158D01*
X147009178Y-101271223D01*
X147066014Y-101313770D01*
X147086853Y-101356667D01*
X147121560Y-101486196D01*
X147123882Y-101491177D01*
X147123883Y-101491178D01*
X147213186Y-101682689D01*
X147213189Y-101682694D01*
X147215512Y-101687676D01*
X147218668Y-101692183D01*
X147218669Y-101692185D01*
X147255107Y-101744223D01*
X147343023Y-101869781D01*
X147500219Y-102026977D01*
X147504727Y-102030134D01*
X147504730Y-102030136D01*
X147573124Y-102078026D01*
X147682323Y-102154488D01*
X147687305Y-102156811D01*
X147687310Y-102156814D01*
X147875307Y-102244478D01*
X147883804Y-102248440D01*
X147889112Y-102249862D01*
X147889114Y-102249863D01*
X147954949Y-102267503D01*
X148098537Y-102305978D01*
X148320000Y-102325353D01*
X148541463Y-102305978D01*
X148685051Y-102267503D01*
X148750886Y-102249863D01*
X148750888Y-102249862D01*
X148756196Y-102248440D01*
X148764693Y-102244478D01*
X148952690Y-102156814D01*
X148952695Y-102156811D01*
X148957677Y-102154488D01*
X149022959Y-102108777D01*
X170485777Y-102108777D01*
X170495074Y-102120793D01*
X170538069Y-102150898D01*
X170547555Y-102156376D01*
X170738993Y-102245645D01*
X170749285Y-102249391D01*
X170953309Y-102304059D01*
X170964104Y-102305962D01*
X171174525Y-102324372D01*
X171185475Y-102324372D01*
X171395896Y-102305962D01*
X171406691Y-102304059D01*
X171610715Y-102249391D01*
X171621007Y-102245645D01*
X171812445Y-102156376D01*
X171821931Y-102150898D01*
X171865764Y-102120207D01*
X171874139Y-102109729D01*
X171867071Y-102096281D01*
X171192812Y-101422022D01*
X171178868Y-101414408D01*
X171177035Y-101414539D01*
X171170420Y-101418790D01*
X170492207Y-102097003D01*
X170485777Y-102108777D01*
X149022959Y-102108777D01*
X149066876Y-102078026D01*
X149135270Y-102030136D01*
X149135273Y-102030134D01*
X149139781Y-102026977D01*
X149296977Y-101869781D01*
X149384894Y-101744223D01*
X149421331Y-101692185D01*
X149421332Y-101692183D01*
X149424488Y-101687676D01*
X149426811Y-101682694D01*
X149426814Y-101682689D01*
X149516117Y-101491178D01*
X149516118Y-101491177D01*
X149518440Y-101486196D01*
X149575978Y-101271463D01*
X149594874Y-101055475D01*
X169905628Y-101055475D01*
X169924038Y-101265896D01*
X169925941Y-101276691D01*
X169980609Y-101480715D01*
X169984355Y-101491007D01*
X170073623Y-101682441D01*
X170079103Y-101691932D01*
X170109794Y-101735765D01*
X170120271Y-101744140D01*
X170133718Y-101737072D01*
X170807978Y-101062812D01*
X170814356Y-101051132D01*
X171544408Y-101051132D01*
X171544539Y-101052965D01*
X171548790Y-101059580D01*
X172227003Y-101737793D01*
X172238777Y-101744223D01*
X172250793Y-101734926D01*
X172280897Y-101691932D01*
X172286377Y-101682441D01*
X172375645Y-101491007D01*
X172379391Y-101480715D01*
X172434059Y-101276691D01*
X172435962Y-101265896D01*
X172454372Y-101055475D01*
X172454372Y-101044525D01*
X172435962Y-100834104D01*
X172434059Y-100823309D01*
X172379391Y-100619285D01*
X172375645Y-100608993D01*
X172286377Y-100417559D01*
X172280897Y-100408068D01*
X172250206Y-100364235D01*
X172239729Y-100355860D01*
X172226282Y-100362928D01*
X171552022Y-101037188D01*
X171544408Y-101051132D01*
X170814356Y-101051132D01*
X170815592Y-101048868D01*
X170815461Y-101047035D01*
X170811210Y-101040420D01*
X170132997Y-100362207D01*
X170121223Y-100355777D01*
X170109207Y-100365074D01*
X170079103Y-100408068D01*
X170073623Y-100417559D01*
X169984355Y-100608993D01*
X169980609Y-100619285D01*
X169925941Y-100823309D01*
X169924038Y-100834104D01*
X169905628Y-101044525D01*
X169905628Y-101055475D01*
X149594874Y-101055475D01*
X149595353Y-101050000D01*
X149575978Y-100828537D01*
X149518440Y-100613804D01*
X149459426Y-100487248D01*
X149426814Y-100417311D01*
X149426811Y-100417306D01*
X149424488Y-100412324D01*
X149421331Y-100407815D01*
X149300136Y-100234730D01*
X149300134Y-100234727D01*
X149296977Y-100230219D01*
X149139781Y-100073023D01*
X149135273Y-100069866D01*
X149135270Y-100069864D01*
X149059505Y-100016813D01*
X148957677Y-99945512D01*
X148952695Y-99943189D01*
X148952690Y-99943186D01*
X148847627Y-99894195D01*
X148794342Y-99847278D01*
X148774881Y-99779001D01*
X148795423Y-99711041D01*
X148847627Y-99665805D01*
X148952690Y-99616814D01*
X148952695Y-99616811D01*
X148957677Y-99614488D01*
X149059505Y-99543187D01*
X149135270Y-99490136D01*
X149135273Y-99490134D01*
X149139781Y-99486977D01*
X149296977Y-99329781D01*
X149424488Y-99147676D01*
X149426811Y-99142694D01*
X149426814Y-99142689D01*
X149516117Y-98951178D01*
X149516118Y-98951177D01*
X149518440Y-98946196D01*
X149575978Y-98731463D01*
X149595353Y-98510000D01*
X149575978Y-98288537D01*
X149518440Y-98073804D01*
X149504675Y-98044284D01*
X149426814Y-97877311D01*
X149426811Y-97877306D01*
X149424488Y-97872324D01*
X149387400Y-97819357D01*
X149300136Y-97694730D01*
X149300134Y-97694727D01*
X149296977Y-97690219D01*
X149139781Y-97533023D01*
X149135273Y-97529866D01*
X149135270Y-97529864D01*
X149038010Y-97461762D01*
X148957677Y-97405512D01*
X148952695Y-97403189D01*
X148952690Y-97403186D01*
X148847627Y-97354195D01*
X148794342Y-97307278D01*
X148774881Y-97239001D01*
X148795423Y-97171041D01*
X148847627Y-97125805D01*
X148952690Y-97076814D01*
X148952695Y-97076811D01*
X148957677Y-97074488D01*
X149059505Y-97003187D01*
X149135270Y-96950136D01*
X149135273Y-96950134D01*
X149139781Y-96946977D01*
X149296977Y-96789781D01*
X149424488Y-96607676D01*
X149426811Y-96602694D01*
X149426814Y-96602689D01*
X149516117Y-96411178D01*
X149516118Y-96411177D01*
X149518440Y-96406196D01*
X149530616Y-96360757D01*
X149574554Y-96196776D01*
X149575978Y-96191463D01*
X149595353Y-95970000D01*
X149575978Y-95748537D01*
X149518440Y-95533804D01*
X149479056Y-95449345D01*
X149426814Y-95337311D01*
X149426811Y-95337306D01*
X149424488Y-95332324D01*
X149418523Y-95323805D01*
X149300136Y-95154730D01*
X149300134Y-95154727D01*
X149296977Y-95150219D01*
X149139781Y-94993023D01*
X149135273Y-94989866D01*
X149135270Y-94989864D01*
X149059505Y-94936813D01*
X148957677Y-94865512D01*
X148952695Y-94863189D01*
X148952690Y-94863186D01*
X148847627Y-94814195D01*
X148794342Y-94767278D01*
X148774881Y-94699001D01*
X148795423Y-94631041D01*
X148847627Y-94585805D01*
X148952690Y-94536814D01*
X148952695Y-94536811D01*
X148957677Y-94534488D01*
X149059505Y-94463187D01*
X149135270Y-94410136D01*
X149135273Y-94410134D01*
X149139781Y-94406977D01*
X149296977Y-94249781D01*
X149424488Y-94067676D01*
X149426811Y-94062694D01*
X149426814Y-94062689D01*
X149516117Y-93871178D01*
X149516118Y-93871177D01*
X149518440Y-93866196D01*
X149575978Y-93651463D01*
X149595353Y-93430000D01*
X149575978Y-93208537D01*
X149518440Y-92993804D01*
X149516117Y-92988822D01*
X149426814Y-92797311D01*
X149426811Y-92797306D01*
X149424488Y-92792324D01*
X149296977Y-92610219D01*
X149139781Y-92453023D01*
X149135273Y-92449866D01*
X149135270Y-92449864D01*
X149059505Y-92396813D01*
X148957677Y-92325512D01*
X148952695Y-92323189D01*
X148952690Y-92323186D01*
X148817626Y-92260205D01*
X148764341Y-92213288D01*
X148744880Y-92145010D01*
X148765422Y-92077050D01*
X148817627Y-92031815D01*
X148892686Y-91996815D01*
X148892692Y-91996812D01*
X148897677Y-91994487D01*
X148999505Y-91923186D01*
X149075270Y-91870135D01*
X149075273Y-91870133D01*
X149079781Y-91866976D01*
X149236977Y-91709780D01*
X149364488Y-91527675D01*
X149366811Y-91522693D01*
X149366814Y-91522688D01*
X149456117Y-91331177D01*
X149456118Y-91331176D01*
X149458440Y-91326195D01*
X149515978Y-91111462D01*
X149535353Y-90889999D01*
X149515978Y-90668536D01*
X149471756Y-90503498D01*
X149459863Y-90459113D01*
X149459862Y-90459111D01*
X149458440Y-90453803D01*
X149456117Y-90448821D01*
X149366814Y-90257310D01*
X149366811Y-90257305D01*
X149364488Y-90252323D01*
X149325189Y-90196198D01*
X149240136Y-90074729D01*
X149240134Y-90074726D01*
X149236977Y-90070218D01*
X149079781Y-89913022D01*
X149075273Y-89909865D01*
X149075270Y-89909863D01*
X148978011Y-89841762D01*
X148897677Y-89785511D01*
X148892695Y-89783188D01*
X148892690Y-89783185D01*
X148744737Y-89714194D01*
X148691452Y-89667277D01*
X148671991Y-89598999D01*
X148692533Y-89531040D01*
X148744737Y-89485804D01*
X148892690Y-89416813D01*
X148892695Y-89416810D01*
X148897677Y-89414487D01*
X149037327Y-89316703D01*
X149075270Y-89290135D01*
X149075273Y-89290133D01*
X149079781Y-89286976D01*
X149236977Y-89129780D01*
X149301966Y-89036967D01*
X149361331Y-88952184D01*
X149361332Y-88952182D01*
X149364488Y-88947675D01*
X149366811Y-88942693D01*
X149366814Y-88942688D01*
X149456117Y-88751177D01*
X149456118Y-88751176D01*
X149458440Y-88746195D01*
X149461906Y-88733262D01*
X149514554Y-88536775D01*
X149515978Y-88531462D01*
X149535353Y-88309999D01*
X149515978Y-88088536D01*
X149464382Y-87895978D01*
X149459863Y-87879113D01*
X149459862Y-87879111D01*
X149458440Y-87873803D01*
X149398040Y-87744275D01*
X149366814Y-87677310D01*
X149366811Y-87677305D01*
X149364488Y-87672323D01*
X149236977Y-87490218D01*
X149079781Y-87333022D01*
X149075273Y-87329865D01*
X149075270Y-87329863D01*
X148999505Y-87276812D01*
X148897677Y-87205511D01*
X148892689Y-87203185D01*
X148892686Y-87203183D01*
X148860519Y-87188184D01*
X148807234Y-87141268D01*
X148787772Y-87072991D01*
X148808313Y-87005031D01*
X148860518Y-86959794D01*
X148952690Y-86916814D01*
X148952695Y-86916811D01*
X148957677Y-86914488D01*
X149059505Y-86843187D01*
X149135270Y-86790136D01*
X149135273Y-86790134D01*
X149139781Y-86786977D01*
X149296977Y-86629781D01*
X149424488Y-86447676D01*
X149426811Y-86442694D01*
X149426814Y-86442689D01*
X149516117Y-86251178D01*
X149516118Y-86251177D01*
X149518440Y-86246196D01*
X149575978Y-86031463D01*
X149595353Y-85810000D01*
X149575978Y-85588537D01*
X149537503Y-85444949D01*
X149519863Y-85379114D01*
X149519862Y-85379112D01*
X149518440Y-85373804D01*
X149470166Y-85270280D01*
X149426814Y-85177311D01*
X149426811Y-85177306D01*
X149424488Y-85172324D01*
X149421180Y-85167600D01*
X149300136Y-84994730D01*
X149300134Y-84994727D01*
X149296977Y-84990219D01*
X149139781Y-84833023D01*
X149135273Y-84829866D01*
X149135270Y-84829864D01*
X149021212Y-84750000D01*
X148957677Y-84705512D01*
X148952695Y-84703189D01*
X148952690Y-84703186D01*
X148847627Y-84654195D01*
X148794342Y-84607278D01*
X148774881Y-84539001D01*
X148795423Y-84471041D01*
X148847627Y-84425805D01*
X148952690Y-84376814D01*
X148952695Y-84376811D01*
X148957677Y-84374488D01*
X149111251Y-84266954D01*
X149135270Y-84250136D01*
X149135273Y-84250134D01*
X149139781Y-84246977D01*
X149296977Y-84089781D01*
X149323503Y-84051899D01*
X149421331Y-83912185D01*
X149421332Y-83912183D01*
X149424488Y-83907676D01*
X149426811Y-83902694D01*
X149426814Y-83902689D01*
X149516117Y-83711178D01*
X149516118Y-83711177D01*
X149518440Y-83706196D01*
X149575978Y-83491463D01*
X149595353Y-83270000D01*
X149575978Y-83048537D01*
X149518440Y-82833804D01*
X149516117Y-82828822D01*
X149426814Y-82637311D01*
X149426811Y-82637306D01*
X149424488Y-82632324D01*
X149296977Y-82450219D01*
X149139781Y-82293023D01*
X149135273Y-82289866D01*
X149135270Y-82289864D01*
X148998510Y-82194104D01*
X148957677Y-82165512D01*
X148952695Y-82163189D01*
X148952690Y-82163186D01*
X148847627Y-82114195D01*
X148794342Y-82067278D01*
X148774881Y-81999001D01*
X148795423Y-81931041D01*
X148847627Y-81885805D01*
X148952690Y-81836814D01*
X148952695Y-81836811D01*
X148957677Y-81834488D01*
X149059505Y-81763187D01*
X149135270Y-81710136D01*
X149135273Y-81710134D01*
X149139781Y-81706977D01*
X149296977Y-81549781D01*
X149320653Y-81515969D01*
X149421331Y-81372185D01*
X149421332Y-81372183D01*
X149424488Y-81367676D01*
X149426811Y-81362694D01*
X149426814Y-81362689D01*
X149516117Y-81171178D01*
X149516118Y-81171177D01*
X149518440Y-81166196D01*
X149522786Y-81149979D01*
X149574554Y-80956776D01*
X149575978Y-80951463D01*
X149595353Y-80730000D01*
X149575978Y-80508537D01*
X149518440Y-80293804D01*
X149516117Y-80288822D01*
X149426814Y-80097311D01*
X149426811Y-80097306D01*
X149424488Y-80092324D01*
X149296977Y-79910219D01*
X149139781Y-79753023D01*
X149135273Y-79749866D01*
X149135270Y-79749864D01*
X149059505Y-79696813D01*
X148957677Y-79625512D01*
X148952695Y-79623189D01*
X148952690Y-79623186D01*
X148847627Y-79574195D01*
X148794342Y-79527278D01*
X148774881Y-79459001D01*
X148795423Y-79391041D01*
X148847627Y-79345805D01*
X148952690Y-79296814D01*
X148952695Y-79296811D01*
X148957677Y-79294488D01*
X149059505Y-79223187D01*
X149135270Y-79170136D01*
X149135273Y-79170134D01*
X149139781Y-79166977D01*
X149296977Y-79009781D01*
X149424488Y-78827676D01*
X149426811Y-78822694D01*
X149426814Y-78822689D01*
X149516117Y-78631178D01*
X149516118Y-78631177D01*
X149518440Y-78626196D01*
X149575978Y-78411463D01*
X149595353Y-78190000D01*
X149575978Y-77968537D01*
X149518440Y-77753804D01*
X149464465Y-77638054D01*
X149426814Y-77557311D01*
X149426811Y-77557306D01*
X149424488Y-77552324D01*
X149421331Y-77547815D01*
X149300136Y-77374730D01*
X149300134Y-77374727D01*
X149296977Y-77370219D01*
X149139781Y-77213023D01*
X149135273Y-77209866D01*
X149135270Y-77209864D01*
X149024711Y-77132450D01*
X148957677Y-77085512D01*
X148952695Y-77083189D01*
X148952690Y-77083186D01*
X148847627Y-77034195D01*
X148794342Y-76987278D01*
X148774881Y-76919001D01*
X148795423Y-76851041D01*
X148847627Y-76805805D01*
X148952690Y-76756814D01*
X148952695Y-76756811D01*
X148957677Y-76754488D01*
X149059505Y-76683187D01*
X149135270Y-76630136D01*
X149135273Y-76630134D01*
X149139781Y-76626977D01*
X149296977Y-76469781D01*
X149303591Y-76460336D01*
X149421331Y-76292185D01*
X149421332Y-76292183D01*
X149424488Y-76287676D01*
X149426811Y-76282694D01*
X149426814Y-76282689D01*
X149516117Y-76091178D01*
X149516118Y-76091177D01*
X149518440Y-76086196D01*
X149575978Y-75871463D01*
X149595353Y-75650000D01*
X149575978Y-75428537D01*
X149518440Y-75213804D01*
X149487138Y-75146676D01*
X149426814Y-75017311D01*
X149426811Y-75017306D01*
X149424488Y-75012324D01*
X149296977Y-74830219D01*
X149139781Y-74673023D01*
X149135273Y-74669866D01*
X149135270Y-74669864D01*
X149059505Y-74616813D01*
X148957677Y-74545512D01*
X148952695Y-74543189D01*
X148952690Y-74543186D01*
X148847627Y-74494195D01*
X148794342Y-74447278D01*
X148774881Y-74379001D01*
X148795423Y-74311041D01*
X148847627Y-74265805D01*
X148952690Y-74216814D01*
X148952695Y-74216811D01*
X148957677Y-74214488D01*
X149059505Y-74143187D01*
X149135270Y-74090136D01*
X149135273Y-74090134D01*
X149139781Y-74086977D01*
X149296977Y-73929781D01*
X149424488Y-73747676D01*
X149426811Y-73742694D01*
X149426814Y-73742689D01*
X149516117Y-73551178D01*
X149516118Y-73551177D01*
X149518440Y-73546196D01*
X149575978Y-73331463D01*
X149595353Y-73110000D01*
X149575978Y-72888537D01*
X149518440Y-72673804D01*
X149465373Y-72560001D01*
X149426814Y-72477311D01*
X149426811Y-72477306D01*
X149424488Y-72472324D01*
X149349618Y-72365398D01*
X149300136Y-72294730D01*
X149300134Y-72294727D01*
X149296977Y-72290219D01*
X149139781Y-72133023D01*
X149135273Y-72129866D01*
X149135270Y-72129864D01*
X149059505Y-72076813D01*
X148957677Y-72005512D01*
X148952695Y-72003189D01*
X148952690Y-72003186D01*
X148847627Y-71954195D01*
X148794342Y-71907278D01*
X148774881Y-71839001D01*
X148795423Y-71771041D01*
X148847627Y-71725805D01*
X148952690Y-71676814D01*
X148952695Y-71676811D01*
X148957677Y-71674488D01*
X149059505Y-71603187D01*
X149135270Y-71550136D01*
X149135273Y-71550134D01*
X149139781Y-71546977D01*
X149296977Y-71389781D01*
X149424488Y-71207676D01*
X149426811Y-71202694D01*
X149426814Y-71202689D01*
X149516117Y-71011178D01*
X149516118Y-71011177D01*
X149518440Y-71006196D01*
X149575978Y-70791463D01*
X149595353Y-70570000D01*
X149575978Y-70348537D01*
X149518440Y-70133804D01*
X149516117Y-70128822D01*
X149426814Y-69937311D01*
X149426811Y-69937306D01*
X149424488Y-69932324D01*
X149296977Y-69750219D01*
X149139781Y-69593023D01*
X149135273Y-69589866D01*
X149135270Y-69589864D01*
X149059505Y-69536813D01*
X148957677Y-69465512D01*
X148952695Y-69463189D01*
X148952690Y-69463186D01*
X148847627Y-69414195D01*
X148794342Y-69367278D01*
X148774881Y-69299001D01*
X148795423Y-69231041D01*
X148847627Y-69185805D01*
X148952690Y-69136814D01*
X148952695Y-69136811D01*
X148957677Y-69134488D01*
X149088689Y-69042752D01*
X149135270Y-69010136D01*
X149135273Y-69010134D01*
X149139781Y-69006977D01*
X149296977Y-68849781D01*
X149327658Y-68805965D01*
X149421331Y-68672185D01*
X149421332Y-68672183D01*
X149424488Y-68667676D01*
X149426811Y-68662694D01*
X149426814Y-68662689D01*
X149516117Y-68471178D01*
X149516118Y-68471177D01*
X149518440Y-68466196D01*
X149575978Y-68251463D01*
X149595353Y-68030000D01*
X149575978Y-67808537D01*
X149518440Y-67593804D01*
X149516117Y-67588822D01*
X149426814Y-67397311D01*
X149426811Y-67397306D01*
X149424488Y-67392324D01*
X149296977Y-67210219D01*
X149139781Y-67053023D01*
X149135273Y-67049866D01*
X149135270Y-67049864D01*
X149042056Y-66984595D01*
X148957677Y-66925512D01*
X148952695Y-66923189D01*
X148952690Y-66923186D01*
X148847627Y-66874195D01*
X148794342Y-66827278D01*
X148774881Y-66759001D01*
X148795423Y-66691041D01*
X148847627Y-66645805D01*
X148952690Y-66596814D01*
X148952695Y-66596811D01*
X148957677Y-66594488D01*
X149059505Y-66523187D01*
X149135270Y-66470136D01*
X149135273Y-66470134D01*
X149139781Y-66466977D01*
X149296977Y-66309781D01*
X149424488Y-66127676D01*
X149426811Y-66122694D01*
X149426814Y-66122689D01*
X149516117Y-65931178D01*
X149516118Y-65931177D01*
X149518440Y-65926196D01*
X149575978Y-65711463D01*
X149595353Y-65490000D01*
X149575978Y-65268537D01*
X149518440Y-65053804D01*
X149516117Y-65048822D01*
X149426814Y-64857311D01*
X149426811Y-64857306D01*
X149424488Y-64852324D01*
X149296977Y-64670219D01*
X149139781Y-64513023D01*
X149135273Y-64509866D01*
X149135270Y-64509864D01*
X149059505Y-64456813D01*
X148957677Y-64385512D01*
X148952695Y-64383189D01*
X148952690Y-64383186D01*
X148847627Y-64334195D01*
X148794342Y-64287278D01*
X148774881Y-64219001D01*
X148795423Y-64151041D01*
X148847627Y-64105805D01*
X148952690Y-64056814D01*
X148952695Y-64056811D01*
X148957677Y-64054488D01*
X149059505Y-63983187D01*
X149135270Y-63930136D01*
X149135273Y-63930134D01*
X149139781Y-63926977D01*
X149296977Y-63769781D01*
X149320343Y-63736412D01*
X149421331Y-63592185D01*
X149421332Y-63592183D01*
X149424488Y-63587676D01*
X149426811Y-63582694D01*
X149426814Y-63582689D01*
X149516117Y-63391178D01*
X149516118Y-63391177D01*
X149518440Y-63386196D01*
X149575978Y-63171463D01*
X149595353Y-62950000D01*
X149575978Y-62728537D01*
X149518440Y-62513804D01*
X149466190Y-62401753D01*
X149426814Y-62317311D01*
X149426811Y-62317306D01*
X149424488Y-62312324D01*
X149395680Y-62271181D01*
X149351287Y-62207782D01*
X149328500Y-62135511D01*
X149328500Y-56109925D01*
X149348502Y-56041804D01*
X149365405Y-56020830D01*
X151608428Y-53777806D01*
X151644273Y-53752706D01*
X151742690Y-53706814D01*
X151742695Y-53706811D01*
X151747677Y-53704488D01*
X151812959Y-53658777D01*
X152955777Y-53658777D01*
X152965074Y-53670793D01*
X153008069Y-53700898D01*
X153017555Y-53706376D01*
X153208993Y-53795645D01*
X153219285Y-53799391D01*
X153423309Y-53854059D01*
X153434104Y-53855962D01*
X153644525Y-53874372D01*
X153655475Y-53874372D01*
X153865896Y-53855962D01*
X153876691Y-53854059D01*
X154080715Y-53799391D01*
X154091007Y-53795645D01*
X154282445Y-53706376D01*
X154291931Y-53700898D01*
X154335764Y-53670207D01*
X154344139Y-53659729D01*
X154337071Y-53646281D01*
X153662812Y-52972022D01*
X153648868Y-52964408D01*
X153647035Y-52964539D01*
X153640420Y-52968790D01*
X152962207Y-53647003D01*
X152955777Y-53658777D01*
X151812959Y-53658777D01*
X151868499Y-53619887D01*
X151925270Y-53580136D01*
X151925273Y-53580134D01*
X151929781Y-53576977D01*
X152086977Y-53419781D01*
X152111683Y-53384498D01*
X152211331Y-53242185D01*
X152211332Y-53242183D01*
X152214488Y-53237676D01*
X152216811Y-53232694D01*
X152216814Y-53232689D01*
X152266081Y-53127035D01*
X152312999Y-53073750D01*
X152381276Y-53054289D01*
X152449236Y-53074831D01*
X152494471Y-53127035D01*
X152543623Y-53232441D01*
X152549103Y-53241932D01*
X152579794Y-53285765D01*
X152590271Y-53294140D01*
X152603718Y-53287072D01*
X153277978Y-52612812D01*
X153284356Y-52601132D01*
X154014408Y-52601132D01*
X154014539Y-52602965D01*
X154018790Y-52609580D01*
X154697003Y-53287793D01*
X154708777Y-53294223D01*
X154720793Y-53284926D01*
X154750897Y-53241932D01*
X154756377Y-53232441D01*
X154805529Y-53127035D01*
X154852447Y-53073750D01*
X154920724Y-53054289D01*
X154988684Y-53074831D01*
X155033919Y-53127035D01*
X155083186Y-53232689D01*
X155083189Y-53232694D01*
X155085512Y-53237676D01*
X155088668Y-53242183D01*
X155088669Y-53242185D01*
X155188318Y-53384498D01*
X155213023Y-53419781D01*
X155370219Y-53576977D01*
X155374727Y-53580134D01*
X155374730Y-53580136D01*
X155431501Y-53619887D01*
X155552323Y-53704488D01*
X155557305Y-53706811D01*
X155557310Y-53706814D01*
X155709554Y-53777806D01*
X155753804Y-53798440D01*
X155759112Y-53799862D01*
X155759114Y-53799863D01*
X155797364Y-53810112D01*
X155968537Y-53855978D01*
X156190000Y-53875353D01*
X156411463Y-53855978D01*
X156582636Y-53810112D01*
X156620886Y-53799863D01*
X156620888Y-53799862D01*
X156626196Y-53798440D01*
X156670446Y-53777806D01*
X156822690Y-53706814D01*
X156822695Y-53706811D01*
X156827677Y-53704488D01*
X156948499Y-53619887D01*
X157005270Y-53580136D01*
X157005273Y-53580134D01*
X157009781Y-53576977D01*
X157166977Y-53419781D01*
X157191683Y-53384498D01*
X157291331Y-53242185D01*
X157291332Y-53242183D01*
X157294488Y-53237676D01*
X157296811Y-53232694D01*
X157296814Y-53232689D01*
X157345805Y-53127627D01*
X157392723Y-53074342D01*
X157461000Y-53054881D01*
X157528960Y-53075423D01*
X157574195Y-53127627D01*
X157623186Y-53232689D01*
X157623189Y-53232694D01*
X157625512Y-53237676D01*
X157628668Y-53242183D01*
X157628669Y-53242185D01*
X157728318Y-53384498D01*
X157753023Y-53419781D01*
X157910219Y-53576977D01*
X157914728Y-53580134D01*
X157914730Y-53580136D01*
X157917771Y-53582265D01*
X157918797Y-53583548D01*
X157918943Y-53583671D01*
X157918918Y-53583700D01*
X157962099Y-53637722D01*
X157971500Y-53685478D01*
X157971500Y-63388157D01*
X157970763Y-63401764D01*
X157966676Y-63439388D01*
X157967213Y-63445523D01*
X157971050Y-63489388D01*
X157971379Y-63494214D01*
X157971500Y-63496686D01*
X157971500Y-63499769D01*
X157971801Y-63502837D01*
X157975690Y-63542506D01*
X157975812Y-63543819D01*
X157983913Y-63636413D01*
X157985400Y-63641532D01*
X157985920Y-63646833D01*
X158012791Y-63735834D01*
X158013126Y-63736967D01*
X158039091Y-63826336D01*
X158041544Y-63831068D01*
X158043084Y-63836169D01*
X158045978Y-63841612D01*
X158086731Y-63918260D01*
X158087343Y-63919426D01*
X158092895Y-63930136D01*
X158130108Y-64001926D01*
X158133431Y-64006089D01*
X158135934Y-64010796D01*
X158194755Y-64082918D01*
X158195446Y-64083774D01*
X158226738Y-64122973D01*
X158229242Y-64125477D01*
X158229884Y-64126195D01*
X158233585Y-64130528D01*
X158260935Y-64164062D01*
X158265682Y-64167989D01*
X158265684Y-64167991D01*
X158296262Y-64193287D01*
X158305042Y-64201277D01*
X169886684Y-75782919D01*
X169920710Y-75845231D01*
X169923110Y-75861038D01*
X169924022Y-75871463D01*
X169981560Y-76086196D01*
X169983882Y-76091177D01*
X169983883Y-76091178D01*
X170073186Y-76282689D01*
X170073189Y-76282694D01*
X170075512Y-76287676D01*
X170078668Y-76292183D01*
X170078669Y-76292185D01*
X170196410Y-76460336D01*
X170203023Y-76469781D01*
X170360219Y-76626977D01*
X170364727Y-76630134D01*
X170364730Y-76630136D01*
X170440495Y-76683187D01*
X170542323Y-76754488D01*
X170547305Y-76756811D01*
X170547310Y-76756814D01*
X170652373Y-76805805D01*
X170705658Y-76852722D01*
X170725119Y-76920999D01*
X170704577Y-76988959D01*
X170652373Y-77034195D01*
X170547311Y-77083186D01*
X170547306Y-77083189D01*
X170542324Y-77085512D01*
X170537817Y-77088668D01*
X170537815Y-77088669D01*
X170364730Y-77209864D01*
X170364727Y-77209866D01*
X170360219Y-77213023D01*
X170203023Y-77370219D01*
X170199866Y-77374727D01*
X170199864Y-77374730D01*
X170078669Y-77547815D01*
X170075512Y-77552324D01*
X170073189Y-77557306D01*
X170073186Y-77557311D01*
X170035535Y-77638054D01*
X169981560Y-77753804D01*
X169924022Y-77968537D01*
X169904647Y-78190000D01*
X169924022Y-78411463D01*
X169981560Y-78626196D01*
X169983882Y-78631177D01*
X169983883Y-78631178D01*
X170073186Y-78822689D01*
X170073189Y-78822694D01*
X170075512Y-78827676D01*
X170203023Y-79009781D01*
X170360219Y-79166977D01*
X170364727Y-79170134D01*
X170364730Y-79170136D01*
X170440495Y-79223187D01*
X170542323Y-79294488D01*
X170547305Y-79296811D01*
X170547310Y-79296814D01*
X170652373Y-79345805D01*
X170705658Y-79392722D01*
X170725119Y-79460999D01*
X170704577Y-79528959D01*
X170652373Y-79574195D01*
X170547311Y-79623186D01*
X170547306Y-79623189D01*
X170542324Y-79625512D01*
X170537817Y-79628668D01*
X170537815Y-79628669D01*
X170364730Y-79749864D01*
X170364727Y-79749866D01*
X170360219Y-79753023D01*
X170203023Y-79910219D01*
X170075512Y-80092324D01*
X170073189Y-80097306D01*
X170073186Y-80097311D01*
X169983883Y-80288822D01*
X169981560Y-80293804D01*
X169924022Y-80508537D01*
X169904647Y-80730000D01*
X169924022Y-80951463D01*
X169925446Y-80956776D01*
X169977215Y-81149979D01*
X169981560Y-81166196D01*
X169983882Y-81171177D01*
X169983883Y-81171178D01*
X170073186Y-81362689D01*
X170073189Y-81362694D01*
X170075512Y-81367676D01*
X170078668Y-81372183D01*
X170078669Y-81372185D01*
X170179348Y-81515969D01*
X170203023Y-81549781D01*
X170360219Y-81706977D01*
X170364727Y-81710134D01*
X170364730Y-81710136D01*
X170440495Y-81763187D01*
X170542323Y-81834488D01*
X170547305Y-81836811D01*
X170547310Y-81836814D01*
X170652373Y-81885805D01*
X170705658Y-81932722D01*
X170725119Y-82000999D01*
X170704577Y-82068959D01*
X170652373Y-82114195D01*
X170547311Y-82163186D01*
X170547306Y-82163189D01*
X170542324Y-82165512D01*
X170537817Y-82168668D01*
X170537815Y-82168669D01*
X170364730Y-82289864D01*
X170364727Y-82289866D01*
X170360219Y-82293023D01*
X170203023Y-82450219D01*
X170075512Y-82632324D01*
X170073189Y-82637306D01*
X170073186Y-82637311D01*
X169983883Y-82828822D01*
X169981560Y-82833804D01*
X169924022Y-83048537D01*
X169904647Y-83270000D01*
X169924022Y-83491463D01*
X169981560Y-83706196D01*
X169983882Y-83711177D01*
X169983883Y-83711178D01*
X170073186Y-83902689D01*
X170073189Y-83902694D01*
X170075512Y-83907676D01*
X170078668Y-83912183D01*
X170078669Y-83912185D01*
X170176498Y-84051899D01*
X170203023Y-84089781D01*
X170360219Y-84246977D01*
X170364727Y-84250134D01*
X170364730Y-84250136D01*
X170388749Y-84266954D01*
X170542323Y-84374488D01*
X170547305Y-84376811D01*
X170547310Y-84376814D01*
X170652373Y-84425805D01*
X170705658Y-84472722D01*
X170725119Y-84540999D01*
X170704577Y-84608959D01*
X170652373Y-84654195D01*
X170547311Y-84703186D01*
X170547306Y-84703189D01*
X170542324Y-84705512D01*
X170537817Y-84708668D01*
X170537815Y-84708669D01*
X170364730Y-84829864D01*
X170364727Y-84829866D01*
X170360219Y-84833023D01*
X170203023Y-84990219D01*
X170199866Y-84994727D01*
X170199864Y-84994730D01*
X170078820Y-85167600D01*
X170075512Y-85172324D01*
X170073189Y-85177306D01*
X170073186Y-85177311D01*
X170029834Y-85270280D01*
X169981560Y-85373804D01*
X169980138Y-85379112D01*
X169980137Y-85379114D01*
X169962497Y-85444949D01*
X169924022Y-85588537D01*
X169904647Y-85810000D01*
X169924022Y-86031463D01*
X169981560Y-86246196D01*
X169983882Y-86251177D01*
X169983883Y-86251178D01*
X170073186Y-86442689D01*
X170073189Y-86442694D01*
X170075512Y-86447676D01*
X170203023Y-86629781D01*
X170360219Y-86786977D01*
X170364727Y-86790134D01*
X170364730Y-86790136D01*
X170440495Y-86843187D01*
X170542323Y-86914488D01*
X170547308Y-86916813D01*
X170547314Y-86916816D01*
X170579481Y-86931815D01*
X170632766Y-86978731D01*
X170652228Y-87047008D01*
X170631687Y-87114968D01*
X170579482Y-87160205D01*
X170487311Y-87203185D01*
X170487306Y-87203188D01*
X170482324Y-87205511D01*
X170477817Y-87208667D01*
X170477815Y-87208668D01*
X170304730Y-87329863D01*
X170304727Y-87329865D01*
X170300219Y-87333022D01*
X170143023Y-87490218D01*
X170015512Y-87672323D01*
X170013189Y-87677305D01*
X170013186Y-87677310D01*
X169981960Y-87744275D01*
X169921560Y-87873803D01*
X169920138Y-87879111D01*
X169920137Y-87879113D01*
X169915618Y-87895978D01*
X169864022Y-88088536D01*
X169844647Y-88309999D01*
X169864022Y-88531462D01*
X169865446Y-88536775D01*
X169918095Y-88733262D01*
X169921560Y-88746195D01*
X169923882Y-88751176D01*
X169923883Y-88751177D01*
X170013186Y-88942688D01*
X170013189Y-88942693D01*
X170015512Y-88947675D01*
X170018668Y-88952182D01*
X170018669Y-88952184D01*
X170078035Y-89036967D01*
X170143023Y-89129780D01*
X170300219Y-89286976D01*
X170304727Y-89290133D01*
X170304730Y-89290135D01*
X170342673Y-89316703D01*
X170482323Y-89414487D01*
X170487305Y-89416810D01*
X170487310Y-89416813D01*
X170635263Y-89485804D01*
X170688548Y-89532721D01*
X170708009Y-89600999D01*
X170687467Y-89668958D01*
X170635263Y-89714194D01*
X170487311Y-89783185D01*
X170487306Y-89783188D01*
X170482324Y-89785511D01*
X170477817Y-89788667D01*
X170477815Y-89788668D01*
X170304730Y-89909863D01*
X170304727Y-89909865D01*
X170300219Y-89913022D01*
X170143023Y-90070218D01*
X170139866Y-90074726D01*
X170139864Y-90074729D01*
X170054811Y-90196198D01*
X170015512Y-90252323D01*
X170013189Y-90257305D01*
X170013186Y-90257310D01*
X169923883Y-90448821D01*
X169921560Y-90453803D01*
X169920138Y-90459111D01*
X169920137Y-90459113D01*
X169908244Y-90503498D01*
X169864022Y-90668536D01*
X169844647Y-90889999D01*
X169864022Y-91111462D01*
X169921560Y-91326195D01*
X169923882Y-91331176D01*
X169923883Y-91331177D01*
X170013186Y-91522688D01*
X170013189Y-91522693D01*
X170015512Y-91527675D01*
X170143023Y-91709780D01*
X170300219Y-91866976D01*
X170304727Y-91870133D01*
X170304730Y-91870135D01*
X170380495Y-91923186D01*
X170482323Y-91994487D01*
X170487305Y-91996810D01*
X170487310Y-91996813D01*
X170622374Y-92059794D01*
X170675659Y-92106711D01*
X170695120Y-92174989D01*
X170674578Y-92242949D01*
X170622374Y-92288184D01*
X170547311Y-92323186D01*
X170547306Y-92323189D01*
X170542324Y-92325512D01*
X170537817Y-92328668D01*
X170537815Y-92328669D01*
X170364730Y-92449864D01*
X170364727Y-92449866D01*
X170360219Y-92453023D01*
X170203023Y-92610219D01*
X170075512Y-92792324D01*
X170073189Y-92797306D01*
X170073186Y-92797311D01*
X169983883Y-92988822D01*
X169981560Y-92993804D01*
X169924022Y-93208537D01*
X169904647Y-93430000D01*
X169924022Y-93651463D01*
X169981560Y-93866196D01*
X169983882Y-93871177D01*
X169983883Y-93871178D01*
X170073186Y-94062689D01*
X170073189Y-94062694D01*
X170075512Y-94067676D01*
X170203023Y-94249781D01*
X170360219Y-94406977D01*
X170364727Y-94410134D01*
X170364730Y-94410136D01*
X170440495Y-94463187D01*
X170542323Y-94534488D01*
X170547305Y-94536811D01*
X170547310Y-94536814D01*
X170652373Y-94585805D01*
X170705658Y-94632722D01*
X170725119Y-94700999D01*
X170704577Y-94768959D01*
X170652373Y-94814195D01*
X170547311Y-94863186D01*
X170547306Y-94863189D01*
X170542324Y-94865512D01*
X170537817Y-94868668D01*
X170537815Y-94868669D01*
X170364730Y-94989864D01*
X170364727Y-94989866D01*
X170360219Y-94993023D01*
X170203023Y-95150219D01*
X170199866Y-95154727D01*
X170199864Y-95154730D01*
X170081477Y-95323805D01*
X170075512Y-95332324D01*
X170073189Y-95337306D01*
X170073186Y-95337311D01*
X170020944Y-95449345D01*
X169981560Y-95533804D01*
X169924022Y-95748537D01*
X169904647Y-95970000D01*
X169924022Y-96191463D01*
X169925446Y-96196776D01*
X169969385Y-96360757D01*
X169981560Y-96406196D01*
X169983882Y-96411177D01*
X169983883Y-96411178D01*
X170073186Y-96602689D01*
X170073189Y-96602694D01*
X170075512Y-96607676D01*
X170203023Y-96789781D01*
X170360219Y-96946977D01*
X170364727Y-96950134D01*
X170364730Y-96950136D01*
X170440495Y-97003187D01*
X170542323Y-97074488D01*
X170547305Y-97076811D01*
X170547310Y-97076814D01*
X170652373Y-97125805D01*
X170705658Y-97172722D01*
X170725119Y-97240999D01*
X170704577Y-97308959D01*
X170652373Y-97354195D01*
X170547311Y-97403186D01*
X170547306Y-97403189D01*
X170542324Y-97405512D01*
X170537817Y-97408668D01*
X170537815Y-97408669D01*
X170364730Y-97529864D01*
X170364727Y-97529866D01*
X170360219Y-97533023D01*
X170203023Y-97690219D01*
X170199866Y-97694727D01*
X170199864Y-97694730D01*
X170112600Y-97819357D01*
X170075512Y-97872324D01*
X170073189Y-97877306D01*
X170073186Y-97877311D01*
X169995325Y-98044284D01*
X169981560Y-98073804D01*
X169924022Y-98288537D01*
X169904647Y-98510000D01*
X169924022Y-98731463D01*
X169981560Y-98946196D01*
X169983882Y-98951177D01*
X169983883Y-98951178D01*
X170073186Y-99142689D01*
X170073189Y-99142694D01*
X170075512Y-99147676D01*
X170203023Y-99329781D01*
X170360219Y-99486977D01*
X170364727Y-99490134D01*
X170364730Y-99490136D01*
X170440495Y-99543187D01*
X170542323Y-99614488D01*
X170547305Y-99616811D01*
X170547310Y-99616814D01*
X170652965Y-99666081D01*
X170706250Y-99712998D01*
X170725711Y-99781275D01*
X170705169Y-99849235D01*
X170652965Y-99894471D01*
X170547559Y-99943623D01*
X170538068Y-99949103D01*
X170494235Y-99979794D01*
X170485860Y-99990271D01*
X170492928Y-100003718D01*
X171167188Y-100677978D01*
X171181132Y-100685592D01*
X171182965Y-100685461D01*
X171189580Y-100681210D01*
X171867793Y-100002997D01*
X171874223Y-99991223D01*
X171864926Y-99979207D01*
X171821931Y-99949102D01*
X171812445Y-99943624D01*
X171707035Y-99894471D01*
X171653750Y-99847554D01*
X171634289Y-99779277D01*
X171654831Y-99711317D01*
X171707035Y-99666081D01*
X171812690Y-99616814D01*
X171812695Y-99616811D01*
X171817677Y-99614488D01*
X171919505Y-99543187D01*
X171995270Y-99490136D01*
X171995273Y-99490134D01*
X171999781Y-99486977D01*
X172156977Y-99329781D01*
X172284488Y-99147676D01*
X172286811Y-99142694D01*
X172286814Y-99142689D01*
X172376117Y-98951178D01*
X172376118Y-98951177D01*
X172378440Y-98946196D01*
X172435978Y-98731463D01*
X172455353Y-98510000D01*
X172435978Y-98288537D01*
X172378440Y-98073804D01*
X172364675Y-98044284D01*
X172286814Y-97877311D01*
X172286811Y-97877306D01*
X172284488Y-97872324D01*
X172247400Y-97819357D01*
X172160136Y-97694730D01*
X172160134Y-97694727D01*
X172156977Y-97690219D01*
X171999781Y-97533023D01*
X171995273Y-97529866D01*
X171995270Y-97529864D01*
X171898010Y-97461762D01*
X171817677Y-97405512D01*
X171812695Y-97403189D01*
X171812690Y-97403186D01*
X171707627Y-97354195D01*
X171654342Y-97307278D01*
X171634881Y-97239001D01*
X171655423Y-97171041D01*
X171707627Y-97125805D01*
X171812690Y-97076814D01*
X171812695Y-97076811D01*
X171817677Y-97074488D01*
X171919505Y-97003187D01*
X171995270Y-96950136D01*
X171995273Y-96950134D01*
X171999781Y-96946977D01*
X172156977Y-96789781D01*
X172284488Y-96607676D01*
X172286811Y-96602694D01*
X172286814Y-96602689D01*
X172376117Y-96411178D01*
X172376118Y-96411177D01*
X172378440Y-96406196D01*
X172390616Y-96360757D01*
X172434554Y-96196776D01*
X172435978Y-96191463D01*
X172455353Y-95970000D01*
X172435978Y-95748537D01*
X172378440Y-95533804D01*
X172339056Y-95449345D01*
X172286814Y-95337311D01*
X172286811Y-95337306D01*
X172284488Y-95332324D01*
X172278523Y-95323805D01*
X172160136Y-95154730D01*
X172160134Y-95154727D01*
X172156977Y-95150219D01*
X171999781Y-94993023D01*
X171995273Y-94989866D01*
X171995270Y-94989864D01*
X171919505Y-94936813D01*
X171817677Y-94865512D01*
X171812695Y-94863189D01*
X171812690Y-94863186D01*
X171707627Y-94814195D01*
X171654342Y-94767278D01*
X171634881Y-94699001D01*
X171655423Y-94631041D01*
X171707627Y-94585805D01*
X171812690Y-94536814D01*
X171812695Y-94536811D01*
X171817677Y-94534488D01*
X171919505Y-94463187D01*
X171995270Y-94410136D01*
X171995273Y-94410134D01*
X171999781Y-94406977D01*
X172156977Y-94249781D01*
X172284488Y-94067676D01*
X172286811Y-94062694D01*
X172286814Y-94062689D01*
X172376117Y-93871178D01*
X172376118Y-93871177D01*
X172378440Y-93866196D01*
X172435978Y-93651463D01*
X172455353Y-93430000D01*
X172435978Y-93208537D01*
X172378440Y-92993804D01*
X172376117Y-92988822D01*
X172286814Y-92797311D01*
X172286811Y-92797306D01*
X172284488Y-92792324D01*
X172156977Y-92610219D01*
X171999781Y-92453023D01*
X171995273Y-92449866D01*
X171995270Y-92449864D01*
X171919505Y-92396813D01*
X171817677Y-92325512D01*
X171812695Y-92323189D01*
X171812690Y-92323186D01*
X171677626Y-92260205D01*
X171624341Y-92213288D01*
X171604880Y-92145010D01*
X171625422Y-92077050D01*
X171677627Y-92031815D01*
X171752686Y-91996815D01*
X171752692Y-91996812D01*
X171757677Y-91994487D01*
X171859505Y-91923186D01*
X171935270Y-91870135D01*
X171935273Y-91870133D01*
X171939781Y-91866976D01*
X172096977Y-91709780D01*
X172224488Y-91527675D01*
X172226811Y-91522693D01*
X172226814Y-91522688D01*
X172316117Y-91331177D01*
X172316118Y-91331176D01*
X172318440Y-91326195D01*
X172375978Y-91111462D01*
X172395353Y-90889999D01*
X172375978Y-90668536D01*
X172331756Y-90503498D01*
X172319863Y-90459113D01*
X172319862Y-90459111D01*
X172318440Y-90453803D01*
X172316117Y-90448821D01*
X172226814Y-90257310D01*
X172226811Y-90257305D01*
X172224488Y-90252323D01*
X172185189Y-90196198D01*
X172100136Y-90074729D01*
X172100134Y-90074726D01*
X172096977Y-90070218D01*
X171939781Y-89913022D01*
X171935273Y-89909865D01*
X171935270Y-89909863D01*
X171838011Y-89841762D01*
X171757677Y-89785511D01*
X171752695Y-89783188D01*
X171752690Y-89783185D01*
X171604737Y-89714194D01*
X171551452Y-89667277D01*
X171531991Y-89598999D01*
X171552533Y-89531040D01*
X171604737Y-89485804D01*
X171752690Y-89416813D01*
X171752695Y-89416810D01*
X171757677Y-89414487D01*
X171897327Y-89316703D01*
X171935270Y-89290135D01*
X171935273Y-89290133D01*
X171939781Y-89286976D01*
X172096977Y-89129780D01*
X172161966Y-89036967D01*
X172221331Y-88952184D01*
X172221332Y-88952182D01*
X172224488Y-88947675D01*
X172226811Y-88942693D01*
X172226814Y-88942688D01*
X172316117Y-88751177D01*
X172316118Y-88751176D01*
X172318440Y-88746195D01*
X172321906Y-88733262D01*
X172374554Y-88536775D01*
X172375978Y-88531462D01*
X172395353Y-88309999D01*
X172375978Y-88088536D01*
X172324382Y-87895978D01*
X172319863Y-87879113D01*
X172319862Y-87879111D01*
X172318440Y-87873803D01*
X172258040Y-87744275D01*
X172226814Y-87677310D01*
X172226811Y-87677305D01*
X172224488Y-87672323D01*
X172096977Y-87490218D01*
X171939781Y-87333022D01*
X171935273Y-87329865D01*
X171935270Y-87329863D01*
X171859505Y-87276812D01*
X171757677Y-87205511D01*
X171752689Y-87203185D01*
X171752686Y-87203183D01*
X171720519Y-87188184D01*
X171667234Y-87141268D01*
X171647772Y-87072991D01*
X171668313Y-87005031D01*
X171720518Y-86959794D01*
X171812690Y-86916814D01*
X171812695Y-86916811D01*
X171817677Y-86914488D01*
X171919505Y-86843187D01*
X171995270Y-86790136D01*
X171995273Y-86790134D01*
X171999781Y-86786977D01*
X172156977Y-86629781D01*
X172284488Y-86447676D01*
X172286811Y-86442694D01*
X172286814Y-86442689D01*
X172376117Y-86251178D01*
X172376118Y-86251177D01*
X172378440Y-86246196D01*
X172435978Y-86031463D01*
X172455353Y-85810000D01*
X172435978Y-85588537D01*
X172397503Y-85444949D01*
X172379863Y-85379114D01*
X172379862Y-85379112D01*
X172378440Y-85373804D01*
X172330166Y-85270280D01*
X172286814Y-85177311D01*
X172286811Y-85177306D01*
X172284488Y-85172324D01*
X172281180Y-85167600D01*
X172160136Y-84994730D01*
X172160134Y-84994727D01*
X172156977Y-84990219D01*
X171999781Y-84833023D01*
X171995273Y-84829866D01*
X171995270Y-84829864D01*
X171881212Y-84750000D01*
X171817677Y-84705512D01*
X171812695Y-84703189D01*
X171812690Y-84703186D01*
X171707627Y-84654195D01*
X171654342Y-84607278D01*
X171634881Y-84539001D01*
X171655423Y-84471041D01*
X171707627Y-84425805D01*
X171812690Y-84376814D01*
X171812695Y-84376811D01*
X171817677Y-84374488D01*
X171971251Y-84266954D01*
X171995270Y-84250136D01*
X171995273Y-84250134D01*
X171999781Y-84246977D01*
X172156977Y-84089781D01*
X172183503Y-84051899D01*
X172281331Y-83912185D01*
X172281332Y-83912183D01*
X172284488Y-83907676D01*
X172286811Y-83902694D01*
X172286814Y-83902689D01*
X172376117Y-83711178D01*
X172376118Y-83711177D01*
X172378440Y-83706196D01*
X172435978Y-83491463D01*
X172455353Y-83270000D01*
X172435978Y-83048537D01*
X172378440Y-82833804D01*
X172376117Y-82828822D01*
X172286814Y-82637311D01*
X172286811Y-82637306D01*
X172284488Y-82632324D01*
X172156977Y-82450219D01*
X171999781Y-82293023D01*
X171995273Y-82289866D01*
X171995270Y-82289864D01*
X171858510Y-82194104D01*
X171817677Y-82165512D01*
X171812695Y-82163189D01*
X171812690Y-82163186D01*
X171707627Y-82114195D01*
X171654342Y-82067278D01*
X171634881Y-81999001D01*
X171655423Y-81931041D01*
X171707627Y-81885805D01*
X171812690Y-81836814D01*
X171812695Y-81836811D01*
X171817677Y-81834488D01*
X171919505Y-81763187D01*
X171995270Y-81710136D01*
X171995273Y-81710134D01*
X171999781Y-81706977D01*
X172156977Y-81549781D01*
X172180653Y-81515969D01*
X172281331Y-81372185D01*
X172281332Y-81372183D01*
X172284488Y-81367676D01*
X172286811Y-81362694D01*
X172286814Y-81362689D01*
X172376117Y-81171178D01*
X172376118Y-81171177D01*
X172378440Y-81166196D01*
X172382786Y-81149979D01*
X172434554Y-80956776D01*
X172435978Y-80951463D01*
X172436890Y-80941038D01*
X172462750Y-80874919D01*
X172473316Y-80862919D01*
X180419379Y-72916855D01*
X180429522Y-72907753D01*
X180454218Y-72887897D01*
X180459025Y-72884032D01*
X180491320Y-72845544D01*
X180494478Y-72841925D01*
X180496124Y-72840110D01*
X180498309Y-72837925D01*
X180500264Y-72835545D01*
X180500273Y-72835535D01*
X180525549Y-72804764D01*
X180526391Y-72803749D01*
X180582194Y-72737245D01*
X180586154Y-72732526D01*
X180588723Y-72727852D01*
X180592102Y-72723739D01*
X180635975Y-72641915D01*
X180636584Y-72640793D01*
X180678464Y-72564614D01*
X180678465Y-72564612D01*
X180681433Y-72559213D01*
X180683045Y-72554131D01*
X180685562Y-72549437D01*
X180712762Y-72460469D01*
X180713108Y-72459358D01*
X180739373Y-72376563D01*
X180741235Y-72370694D01*
X180741829Y-72365398D01*
X180743387Y-72360302D01*
X180752790Y-72267743D01*
X180752911Y-72266607D01*
X180758500Y-72216773D01*
X180758500Y-72213246D01*
X180758555Y-72212261D01*
X180759002Y-72206581D01*
X180763374Y-72163538D01*
X180759059Y-72117891D01*
X180758500Y-72106033D01*
X180758500Y-60561842D01*
X180759237Y-60548235D01*
X180762659Y-60516737D01*
X180762659Y-60516732D01*
X180763324Y-60510611D01*
X180758950Y-60460609D01*
X180758621Y-60455784D01*
X180758500Y-60453313D01*
X180758500Y-60450231D01*
X180756297Y-60427763D01*
X180754309Y-60407489D01*
X180754187Y-60406174D01*
X180746623Y-60319718D01*
X180746087Y-60313587D01*
X180744600Y-60308468D01*
X180744080Y-60303167D01*
X180717209Y-60214166D01*
X180716874Y-60213033D01*
X180692630Y-60129586D01*
X180692628Y-60129582D01*
X180690909Y-60123664D01*
X180688456Y-60118932D01*
X180686916Y-60113831D01*
X180643269Y-60031740D01*
X180642657Y-60030574D01*
X180602729Y-59953547D01*
X180599892Y-59948074D01*
X180596569Y-59943911D01*
X180594066Y-59939204D01*
X180535245Y-59867082D01*
X180534554Y-59866226D01*
X180503262Y-59827027D01*
X180500758Y-59824523D01*
X180500116Y-59823805D01*
X180496415Y-59819472D01*
X180469065Y-59785938D01*
X180433737Y-59756712D01*
X180424958Y-59748723D01*
X179145405Y-58469171D01*
X179111380Y-58406859D01*
X179108500Y-58380076D01*
X179108500Y-57601866D01*
X179101745Y-57539684D01*
X179050615Y-57403295D01*
X178963261Y-57286739D01*
X178846705Y-57199385D01*
X178710316Y-57148255D01*
X178648134Y-57141500D01*
X176851866Y-57141500D01*
X176789684Y-57148255D01*
X176653295Y-57199385D01*
X176536739Y-57286739D01*
X176449385Y-57403295D01*
X176398255Y-57539684D01*
X176391500Y-57601866D01*
X176391500Y-59398134D01*
X176398255Y-59460316D01*
X176449385Y-59596705D01*
X176536739Y-59713261D01*
X176653295Y-59800615D01*
X176661704Y-59803767D01*
X176661705Y-59803768D01*
X176770451Y-59844535D01*
X176827216Y-59887176D01*
X176851916Y-59953738D01*
X176836709Y-60023087D01*
X176817316Y-60049568D01*
X176690629Y-60182138D01*
X176687715Y-60186410D01*
X176687714Y-60186411D01*
X176640763Y-60255239D01*
X176564743Y-60366680D01*
X176521143Y-60460609D01*
X176477320Y-60555018D01*
X176470688Y-60569305D01*
X176410989Y-60784570D01*
X176387251Y-61006695D01*
X176400110Y-61229715D01*
X176401247Y-61234761D01*
X176401248Y-61234767D01*
X176425304Y-61341508D01*
X176449222Y-61447639D01*
X176533266Y-61654616D01*
X176535965Y-61659020D01*
X176614021Y-61786396D01*
X176649987Y-61845088D01*
X176686164Y-61886851D01*
X176710737Y-61915219D01*
X176740220Y-61979804D01*
X176741500Y-61997717D01*
X176741500Y-71150075D01*
X176721498Y-71218196D01*
X176704595Y-71239170D01*
X174606990Y-73336776D01*
X172607043Y-75336723D01*
X172544731Y-75370749D01*
X172473916Y-75365684D01*
X172417080Y-75323137D01*
X172396241Y-75280239D01*
X172379863Y-75219114D01*
X172379862Y-75219112D01*
X172378440Y-75213804D01*
X172347138Y-75146676D01*
X172286814Y-75017311D01*
X172286811Y-75017306D01*
X172284488Y-75012324D01*
X172156977Y-74830219D01*
X171999781Y-74673023D01*
X171995273Y-74669866D01*
X171995270Y-74669864D01*
X171919505Y-74616813D01*
X171817677Y-74545512D01*
X171812695Y-74543189D01*
X171812690Y-74543186D01*
X171707627Y-74494195D01*
X171654342Y-74447278D01*
X171634881Y-74379001D01*
X171655423Y-74311041D01*
X171707627Y-74265805D01*
X171812690Y-74216814D01*
X171812695Y-74216811D01*
X171817677Y-74214488D01*
X171919505Y-74143187D01*
X171995270Y-74090136D01*
X171995273Y-74090134D01*
X171999781Y-74086977D01*
X172156977Y-73929781D01*
X172284488Y-73747676D01*
X172286811Y-73742694D01*
X172286814Y-73742689D01*
X172376117Y-73551178D01*
X172376118Y-73551177D01*
X172378440Y-73546196D01*
X172435978Y-73331463D01*
X172455353Y-73110000D01*
X172435978Y-72888537D01*
X172378440Y-72673804D01*
X172325373Y-72560001D01*
X172286814Y-72477311D01*
X172286811Y-72477306D01*
X172284488Y-72472324D01*
X172209618Y-72365398D01*
X172160136Y-72294730D01*
X172160134Y-72294727D01*
X172156977Y-72290219D01*
X171999781Y-72133023D01*
X171995273Y-72129866D01*
X171995270Y-72129864D01*
X171919505Y-72076813D01*
X171817677Y-72005512D01*
X171812695Y-72003189D01*
X171812690Y-72003186D01*
X171707627Y-71954195D01*
X171654342Y-71907278D01*
X171634881Y-71839001D01*
X171655423Y-71771041D01*
X171707627Y-71725805D01*
X171812690Y-71676814D01*
X171812695Y-71676811D01*
X171817677Y-71674488D01*
X171919505Y-71603187D01*
X171995270Y-71550136D01*
X171995273Y-71550134D01*
X171999781Y-71546977D01*
X172156977Y-71389781D01*
X172284488Y-71207676D01*
X172286811Y-71202694D01*
X172286814Y-71202689D01*
X172376117Y-71011178D01*
X172376118Y-71011177D01*
X172378440Y-71006196D01*
X172435978Y-70791463D01*
X172455353Y-70570000D01*
X172435978Y-70348537D01*
X172378440Y-70133804D01*
X172376117Y-70128822D01*
X172286814Y-69937311D01*
X172286811Y-69937306D01*
X172284488Y-69932324D01*
X172156977Y-69750219D01*
X171999781Y-69593023D01*
X171995273Y-69589866D01*
X171995270Y-69589864D01*
X171919505Y-69536813D01*
X171817677Y-69465512D01*
X171812695Y-69463189D01*
X171812690Y-69463186D01*
X171707627Y-69414195D01*
X171654342Y-69367278D01*
X171634881Y-69299001D01*
X171655423Y-69231041D01*
X171707627Y-69185805D01*
X171812690Y-69136814D01*
X171812695Y-69136811D01*
X171817677Y-69134488D01*
X171948689Y-69042752D01*
X171995270Y-69010136D01*
X171995273Y-69010134D01*
X171999781Y-69006977D01*
X172156977Y-68849781D01*
X172187658Y-68805965D01*
X172281331Y-68672185D01*
X172281332Y-68672183D01*
X172284488Y-68667676D01*
X172286811Y-68662694D01*
X172286814Y-68662689D01*
X172376117Y-68471178D01*
X172376118Y-68471177D01*
X172378440Y-68466196D01*
X172435978Y-68251463D01*
X172455353Y-68030000D01*
X172435978Y-67808537D01*
X172378440Y-67593804D01*
X172376117Y-67588822D01*
X172286814Y-67397311D01*
X172286811Y-67397306D01*
X172284488Y-67392324D01*
X172156977Y-67210219D01*
X171999781Y-67053023D01*
X171995273Y-67049866D01*
X171995270Y-67049864D01*
X171902056Y-66984595D01*
X171817677Y-66925512D01*
X171812695Y-66923189D01*
X171812690Y-66923186D01*
X171707627Y-66874195D01*
X171654342Y-66827278D01*
X171634881Y-66759001D01*
X171655423Y-66691041D01*
X171707627Y-66645805D01*
X171812690Y-66596814D01*
X171812695Y-66596811D01*
X171817677Y-66594488D01*
X171919505Y-66523187D01*
X171995270Y-66470136D01*
X171995273Y-66470134D01*
X171999781Y-66466977D01*
X172156977Y-66309781D01*
X172284488Y-66127676D01*
X172286811Y-66122694D01*
X172286814Y-66122689D01*
X172376117Y-65931178D01*
X172376118Y-65931177D01*
X172378440Y-65926196D01*
X172435978Y-65711463D01*
X172455353Y-65490000D01*
X172435978Y-65268537D01*
X172378440Y-65053804D01*
X172376117Y-65048822D01*
X172286814Y-64857311D01*
X172286811Y-64857306D01*
X172284488Y-64852324D01*
X172156977Y-64670219D01*
X171999781Y-64513023D01*
X171995273Y-64509866D01*
X171995270Y-64509864D01*
X171919505Y-64456813D01*
X171817677Y-64385512D01*
X171812695Y-64383189D01*
X171812690Y-64383186D01*
X171707035Y-64333919D01*
X171653750Y-64287002D01*
X171634289Y-64218725D01*
X171654831Y-64150765D01*
X171707035Y-64105529D01*
X171812445Y-64056376D01*
X171821931Y-64050898D01*
X171865764Y-64020207D01*
X171874139Y-64009729D01*
X171867071Y-63996281D01*
X171192812Y-63322022D01*
X171178868Y-63314408D01*
X171177035Y-63314539D01*
X171170420Y-63318790D01*
X170492207Y-63997003D01*
X170485777Y-64008777D01*
X170495074Y-64020793D01*
X170538069Y-64050898D01*
X170547555Y-64056376D01*
X170652965Y-64105529D01*
X170706250Y-64152446D01*
X170725711Y-64220723D01*
X170705169Y-64288683D01*
X170652965Y-64333919D01*
X170547311Y-64383186D01*
X170547306Y-64383189D01*
X170542324Y-64385512D01*
X170537817Y-64388668D01*
X170537815Y-64388669D01*
X170364730Y-64509864D01*
X170364727Y-64509866D01*
X170360219Y-64513023D01*
X170203023Y-64670219D01*
X170075512Y-64852324D01*
X170073189Y-64857306D01*
X170073186Y-64857311D01*
X169983883Y-65048822D01*
X169981560Y-65053804D01*
X169924022Y-65268537D01*
X169904647Y-65490000D01*
X169924022Y-65711463D01*
X169981560Y-65926196D01*
X169983882Y-65931177D01*
X169983883Y-65931178D01*
X170073186Y-66122689D01*
X170073189Y-66122694D01*
X170075512Y-66127676D01*
X170203023Y-66309781D01*
X170360219Y-66466977D01*
X170364727Y-66470134D01*
X170364730Y-66470136D01*
X170440495Y-66523187D01*
X170542323Y-66594488D01*
X170547305Y-66596811D01*
X170547310Y-66596814D01*
X170652373Y-66645805D01*
X170705658Y-66692722D01*
X170725119Y-66760999D01*
X170704577Y-66828959D01*
X170652373Y-66874195D01*
X170547311Y-66923186D01*
X170547306Y-66923189D01*
X170542324Y-66925512D01*
X170537817Y-66928668D01*
X170537815Y-66928669D01*
X170437782Y-66998713D01*
X170365511Y-67021500D01*
X167749925Y-67021500D01*
X167681804Y-67001498D01*
X167660830Y-66984595D01*
X163631709Y-62955475D01*
X169905628Y-62955475D01*
X169924038Y-63165896D01*
X169925941Y-63176691D01*
X169980609Y-63380715D01*
X169984355Y-63391007D01*
X170073623Y-63582441D01*
X170079103Y-63591932D01*
X170109794Y-63635765D01*
X170120271Y-63644140D01*
X170133718Y-63637072D01*
X170807978Y-62962812D01*
X170814356Y-62951132D01*
X171544408Y-62951132D01*
X171544539Y-62952965D01*
X171548790Y-62959580D01*
X172227003Y-63637793D01*
X172238777Y-63644223D01*
X172250793Y-63634926D01*
X172280897Y-63591932D01*
X172286377Y-63582441D01*
X172375645Y-63391007D01*
X172379391Y-63380715D01*
X172434059Y-63176691D01*
X172435962Y-63165896D01*
X172454372Y-62955475D01*
X172454372Y-62944525D01*
X172435962Y-62734104D01*
X172434059Y-62723309D01*
X172379391Y-62519285D01*
X172375645Y-62508993D01*
X172286377Y-62317559D01*
X172280897Y-62308068D01*
X172250206Y-62264235D01*
X172239729Y-62255860D01*
X172226282Y-62262928D01*
X171552022Y-62937188D01*
X171544408Y-62951132D01*
X170814356Y-62951132D01*
X170815592Y-62948868D01*
X170815461Y-62947035D01*
X170811210Y-62940420D01*
X170132997Y-62262207D01*
X170121223Y-62255777D01*
X170109207Y-62265074D01*
X170079103Y-62308068D01*
X170073623Y-62317559D01*
X169984355Y-62508993D01*
X169980609Y-62519285D01*
X169925941Y-62723309D01*
X169924038Y-62734104D01*
X169905628Y-62944525D01*
X169905628Y-62955475D01*
X163631709Y-62955475D01*
X162566505Y-61890271D01*
X170485860Y-61890271D01*
X170492928Y-61903718D01*
X171167188Y-62577978D01*
X171181132Y-62585592D01*
X171182965Y-62585461D01*
X171189580Y-62581210D01*
X171867793Y-61902997D01*
X171874223Y-61891223D01*
X171864926Y-61879207D01*
X171821931Y-61849102D01*
X171812445Y-61843624D01*
X171621007Y-61754355D01*
X171610715Y-61750609D01*
X171406691Y-61695941D01*
X171395896Y-61694038D01*
X171185475Y-61675628D01*
X171174525Y-61675628D01*
X170964104Y-61694038D01*
X170953309Y-61695941D01*
X170749285Y-61750609D01*
X170738993Y-61754355D01*
X170547559Y-61843623D01*
X170538068Y-61849103D01*
X170494235Y-61879794D01*
X170485860Y-61890271D01*
X162566505Y-61890271D01*
X161677925Y-61001691D01*
X161177925Y-60501691D01*
X161063739Y-60407897D01*
X160889437Y-60314438D01*
X160780781Y-60281218D01*
X160706200Y-60258416D01*
X160706198Y-60258416D01*
X160700302Y-60256613D01*
X160642449Y-60250736D01*
X160509666Y-60237248D01*
X160509661Y-60237248D01*
X160503538Y-60236626D01*
X160379475Y-60248354D01*
X160312771Y-60254659D01*
X160312769Y-60254659D01*
X160306638Y-60255239D01*
X160150494Y-60301787D01*
X160079501Y-60302080D01*
X160019617Y-60263943D01*
X159989858Y-60199484D01*
X159988500Y-60181038D01*
X159988500Y-53384498D01*
X160008502Y-53316377D01*
X160062158Y-53269884D01*
X160132432Y-53259780D01*
X160197012Y-53289274D01*
X160217713Y-53312227D01*
X160268318Y-53384498D01*
X160293023Y-53419781D01*
X160450219Y-53576977D01*
X160454727Y-53580134D01*
X160454730Y-53580136D01*
X160511501Y-53619887D01*
X160632323Y-53704488D01*
X160637305Y-53706811D01*
X160637310Y-53706814D01*
X160789554Y-53777806D01*
X160833804Y-53798440D01*
X160839112Y-53799862D01*
X160839114Y-53799863D01*
X160877364Y-53810112D01*
X161048537Y-53855978D01*
X161270000Y-53875353D01*
X161491463Y-53855978D01*
X161662636Y-53810112D01*
X161700886Y-53799863D01*
X161700888Y-53799862D01*
X161706196Y-53798440D01*
X161750446Y-53777806D01*
X161902690Y-53706814D01*
X161902695Y-53706811D01*
X161907677Y-53704488D01*
X162028499Y-53619887D01*
X162085270Y-53580136D01*
X162085273Y-53580134D01*
X162089781Y-53576977D01*
X162246977Y-53419781D01*
X162271683Y-53384498D01*
X162371331Y-53242185D01*
X162371332Y-53242183D01*
X162374488Y-53237676D01*
X162376811Y-53232694D01*
X162376814Y-53232689D01*
X162425805Y-53127627D01*
X162472723Y-53074342D01*
X162541000Y-53054881D01*
X162608960Y-53075423D01*
X162654195Y-53127627D01*
X162703186Y-53232689D01*
X162703189Y-53232694D01*
X162705512Y-53237676D01*
X162708668Y-53242183D01*
X162708669Y-53242185D01*
X162808318Y-53384498D01*
X162833023Y-53419781D01*
X162990219Y-53576977D01*
X162994727Y-53580134D01*
X162994730Y-53580136D01*
X163051501Y-53619887D01*
X163172323Y-53704488D01*
X163177305Y-53706811D01*
X163177310Y-53706814D01*
X163329554Y-53777806D01*
X163373804Y-53798440D01*
X163379112Y-53799862D01*
X163379114Y-53799863D01*
X163417364Y-53810112D01*
X163588537Y-53855978D01*
X163810000Y-53875353D01*
X164031463Y-53855978D01*
X164202636Y-53810112D01*
X164240886Y-53799863D01*
X164240888Y-53799862D01*
X164246196Y-53798440D01*
X164290446Y-53777806D01*
X164442690Y-53706814D01*
X164442695Y-53706811D01*
X164447677Y-53704488D01*
X164568499Y-53619887D01*
X164625270Y-53580136D01*
X164625273Y-53580134D01*
X164629781Y-53576977D01*
X164786977Y-53419781D01*
X164811683Y-53384498D01*
X164911331Y-53242185D01*
X164911332Y-53242183D01*
X164914488Y-53237676D01*
X164916811Y-53232694D01*
X164916814Y-53232689D01*
X164965805Y-53127627D01*
X165012723Y-53074342D01*
X165081000Y-53054881D01*
X165148960Y-53075423D01*
X165194195Y-53127627D01*
X165243186Y-53232689D01*
X165243189Y-53232694D01*
X165245512Y-53237676D01*
X165248668Y-53242183D01*
X165248669Y-53242185D01*
X165348318Y-53384498D01*
X165373023Y-53419781D01*
X165530219Y-53576977D01*
X165534727Y-53580134D01*
X165534730Y-53580136D01*
X165591501Y-53619887D01*
X165712323Y-53704488D01*
X165717305Y-53706811D01*
X165717310Y-53706814D01*
X165869554Y-53777806D01*
X165913804Y-53798440D01*
X165919112Y-53799862D01*
X165919114Y-53799863D01*
X165957364Y-53810112D01*
X166128537Y-53855978D01*
X166350000Y-53875353D01*
X166571463Y-53855978D01*
X166742636Y-53810112D01*
X166780886Y-53799863D01*
X166780888Y-53799862D01*
X166786196Y-53798440D01*
X166830446Y-53777806D01*
X166982690Y-53706814D01*
X166982695Y-53706811D01*
X166987677Y-53704488D01*
X167108499Y-53619887D01*
X167165270Y-53580136D01*
X167165273Y-53580134D01*
X167169781Y-53576977D01*
X167326977Y-53419781D01*
X167351683Y-53384498D01*
X167451331Y-53242185D01*
X167451332Y-53242183D01*
X167454488Y-53237676D01*
X167456811Y-53232694D01*
X167456814Y-53232689D01*
X167505805Y-53127627D01*
X167552723Y-53074342D01*
X167621000Y-53054881D01*
X167688960Y-53075423D01*
X167734195Y-53127627D01*
X167783186Y-53232689D01*
X167783189Y-53232694D01*
X167785512Y-53237676D01*
X167788668Y-53242183D01*
X167788669Y-53242185D01*
X167888318Y-53384498D01*
X167913023Y-53419781D01*
X168070219Y-53576977D01*
X168074727Y-53580134D01*
X168074730Y-53580136D01*
X168131501Y-53619887D01*
X168252323Y-53704488D01*
X168257305Y-53706811D01*
X168257310Y-53706814D01*
X168409554Y-53777806D01*
X168453804Y-53798440D01*
X168459112Y-53799862D01*
X168459114Y-53799863D01*
X168497364Y-53810112D01*
X168668537Y-53855978D01*
X168890000Y-53875353D01*
X169111463Y-53855978D01*
X169282636Y-53810112D01*
X169320886Y-53799863D01*
X169320888Y-53799862D01*
X169326196Y-53798440D01*
X169370446Y-53777806D01*
X169522690Y-53706814D01*
X169522695Y-53706811D01*
X169527677Y-53704488D01*
X169648499Y-53619887D01*
X169705270Y-53580136D01*
X169705273Y-53580134D01*
X169709781Y-53576977D01*
X169866977Y-53419781D01*
X169891683Y-53384498D01*
X169991331Y-53242185D01*
X169991332Y-53242183D01*
X169994488Y-53237676D01*
X169996811Y-53232694D01*
X169996814Y-53232689D01*
X170086117Y-53041178D01*
X170086118Y-53041177D01*
X170088440Y-53036196D01*
X170096553Y-53005920D01*
X170144554Y-52826776D01*
X170145978Y-52821463D01*
X170165353Y-52600000D01*
X170145978Y-52378537D01*
X170088440Y-52163804D01*
X170045805Y-52072373D01*
X169996814Y-51967311D01*
X169996811Y-51967306D01*
X169994488Y-51962324D01*
X169991331Y-51957815D01*
X169870136Y-51784730D01*
X169870134Y-51784727D01*
X169866977Y-51780219D01*
X169709781Y-51623023D01*
X169705273Y-51619866D01*
X169705270Y-51619864D01*
X169629505Y-51566813D01*
X169527677Y-51495512D01*
X169522695Y-51493189D01*
X169522690Y-51493186D01*
X169331178Y-51403883D01*
X169331177Y-51403882D01*
X169326196Y-51401560D01*
X169320888Y-51400138D01*
X169320886Y-51400137D01*
X169255051Y-51382497D01*
X169111463Y-51344022D01*
X168890000Y-51324647D01*
X168668537Y-51344022D01*
X168524949Y-51382497D01*
X168459114Y-51400137D01*
X168459112Y-51400138D01*
X168453804Y-51401560D01*
X168448823Y-51403882D01*
X168448822Y-51403883D01*
X168257311Y-51493186D01*
X168257306Y-51493189D01*
X168252324Y-51495512D01*
X168247817Y-51498668D01*
X168247815Y-51498669D01*
X168074730Y-51619864D01*
X168074727Y-51619866D01*
X168070219Y-51623023D01*
X167913023Y-51780219D01*
X167909866Y-51784727D01*
X167909864Y-51784730D01*
X167788669Y-51957815D01*
X167785512Y-51962324D01*
X167783189Y-51967306D01*
X167783186Y-51967311D01*
X167734195Y-52072373D01*
X167687277Y-52125658D01*
X167619000Y-52145119D01*
X167551040Y-52124577D01*
X167505805Y-52072373D01*
X167456814Y-51967311D01*
X167456811Y-51967306D01*
X167454488Y-51962324D01*
X167451331Y-51957815D01*
X167330136Y-51784730D01*
X167330134Y-51784727D01*
X167326977Y-51780219D01*
X167169781Y-51623023D01*
X167165273Y-51619866D01*
X167165270Y-51619864D01*
X167089505Y-51566813D01*
X166987677Y-51495512D01*
X166982695Y-51493189D01*
X166982690Y-51493186D01*
X166791178Y-51403883D01*
X166791177Y-51403882D01*
X166786196Y-51401560D01*
X166780888Y-51400138D01*
X166780886Y-51400137D01*
X166715051Y-51382497D01*
X166571463Y-51344022D01*
X166350000Y-51324647D01*
X166128537Y-51344022D01*
X165984949Y-51382497D01*
X165919114Y-51400137D01*
X165919112Y-51400138D01*
X165913804Y-51401560D01*
X165908823Y-51403882D01*
X165908822Y-51403883D01*
X165717311Y-51493186D01*
X165717306Y-51493189D01*
X165712324Y-51495512D01*
X165707817Y-51498668D01*
X165707815Y-51498669D01*
X165534730Y-51619864D01*
X165534727Y-51619866D01*
X165530219Y-51623023D01*
X165373023Y-51780219D01*
X165369866Y-51784727D01*
X165369864Y-51784730D01*
X165248669Y-51957815D01*
X165245512Y-51962324D01*
X165243189Y-51967306D01*
X165243186Y-51967311D01*
X165194195Y-52072373D01*
X165147277Y-52125658D01*
X165079000Y-52145119D01*
X165011040Y-52124577D01*
X164965805Y-52072373D01*
X164916814Y-51967311D01*
X164916811Y-51967306D01*
X164914488Y-51962324D01*
X164911331Y-51957815D01*
X164790136Y-51784730D01*
X164790134Y-51784727D01*
X164786977Y-51780219D01*
X164629781Y-51623023D01*
X164625273Y-51619866D01*
X164625270Y-51619864D01*
X164549505Y-51566813D01*
X164447677Y-51495512D01*
X164442695Y-51493189D01*
X164442690Y-51493186D01*
X164251178Y-51403883D01*
X164251177Y-51403882D01*
X164246196Y-51401560D01*
X164240888Y-51400138D01*
X164240886Y-51400137D01*
X164175051Y-51382497D01*
X164031463Y-51344022D01*
X163810000Y-51324647D01*
X163588537Y-51344022D01*
X163444949Y-51382497D01*
X163379114Y-51400137D01*
X163379112Y-51400138D01*
X163373804Y-51401560D01*
X163368823Y-51403882D01*
X163368822Y-51403883D01*
X163177311Y-51493186D01*
X163177306Y-51493189D01*
X163172324Y-51495512D01*
X163167817Y-51498668D01*
X163167815Y-51498669D01*
X162994730Y-51619864D01*
X162994727Y-51619866D01*
X162990219Y-51623023D01*
X162833023Y-51780219D01*
X162829866Y-51784727D01*
X162829864Y-51784730D01*
X162708669Y-51957815D01*
X162705512Y-51962324D01*
X162703189Y-51967306D01*
X162703186Y-51967311D01*
X162654195Y-52072373D01*
X162607277Y-52125658D01*
X162539000Y-52145119D01*
X162471040Y-52124577D01*
X162425805Y-52072373D01*
X162376814Y-51967311D01*
X162376811Y-51967306D01*
X162374488Y-51962324D01*
X162371331Y-51957815D01*
X162250136Y-51784730D01*
X162250134Y-51784727D01*
X162246977Y-51780219D01*
X162089781Y-51623023D01*
X162085273Y-51619866D01*
X162085270Y-51619864D01*
X162009505Y-51566813D01*
X161907677Y-51495512D01*
X161902695Y-51493189D01*
X161902690Y-51493186D01*
X161711178Y-51403883D01*
X161711177Y-51403882D01*
X161706196Y-51401560D01*
X161700888Y-51400138D01*
X161700886Y-51400137D01*
X161635051Y-51382497D01*
X161491463Y-51344022D01*
X161270000Y-51324647D01*
X161048537Y-51344022D01*
X160904949Y-51382497D01*
X160839114Y-51400137D01*
X160839112Y-51400138D01*
X160833804Y-51401560D01*
X160828823Y-51403882D01*
X160828822Y-51403883D01*
X160637311Y-51493186D01*
X160637306Y-51493189D01*
X160632324Y-51495512D01*
X160627817Y-51498668D01*
X160627815Y-51498669D01*
X160454730Y-51619864D01*
X160454727Y-51619866D01*
X160450219Y-51623023D01*
X160293023Y-51780219D01*
X160289866Y-51784727D01*
X160289864Y-51784730D01*
X160168669Y-51957815D01*
X160165512Y-51962324D01*
X160163189Y-51967306D01*
X160163186Y-51967311D01*
X160114195Y-52072373D01*
X160067277Y-52125658D01*
X159999000Y-52145119D01*
X159931040Y-52124577D01*
X159885805Y-52072373D01*
X159836814Y-51967311D01*
X159836811Y-51967306D01*
X159834488Y-51962324D01*
X159831331Y-51957815D01*
X159710136Y-51784730D01*
X159710134Y-51784727D01*
X159706977Y-51780219D01*
X159549781Y-51623023D01*
X159545273Y-51619866D01*
X159545270Y-51619864D01*
X159469505Y-51566813D01*
X159367677Y-51495512D01*
X159362695Y-51493189D01*
X159362690Y-51493186D01*
X159171178Y-51403883D01*
X159171177Y-51403882D01*
X159166196Y-51401560D01*
X159160888Y-51400138D01*
X159160886Y-51400137D01*
X159095051Y-51382497D01*
X158951463Y-51344022D01*
X158730000Y-51324647D01*
X158508537Y-51344022D01*
X158364949Y-51382497D01*
X158299114Y-51400137D01*
X158299112Y-51400138D01*
X158293804Y-51401560D01*
X158288823Y-51403882D01*
X158288822Y-51403883D01*
X158097311Y-51493186D01*
X158097306Y-51493189D01*
X158092324Y-51495512D01*
X158087817Y-51498668D01*
X158087815Y-51498669D01*
X157914730Y-51619864D01*
X157914727Y-51619866D01*
X157910219Y-51623023D01*
X157753023Y-51780219D01*
X157749866Y-51784727D01*
X157749864Y-51784730D01*
X157628669Y-51957815D01*
X157625512Y-51962324D01*
X157623189Y-51967306D01*
X157623186Y-51967311D01*
X157574195Y-52072373D01*
X157527277Y-52125658D01*
X157459000Y-52145119D01*
X157391040Y-52124577D01*
X157345805Y-52072373D01*
X157296814Y-51967311D01*
X157296811Y-51967306D01*
X157294488Y-51962324D01*
X157291331Y-51957815D01*
X157170136Y-51784730D01*
X157170134Y-51784727D01*
X157166977Y-51780219D01*
X157009781Y-51623023D01*
X157005273Y-51619866D01*
X157005270Y-51619864D01*
X156929505Y-51566813D01*
X156827677Y-51495512D01*
X156822695Y-51493189D01*
X156822690Y-51493186D01*
X156631178Y-51403883D01*
X156631177Y-51403882D01*
X156626196Y-51401560D01*
X156620888Y-51400138D01*
X156620886Y-51400137D01*
X156555051Y-51382497D01*
X156411463Y-51344022D01*
X156190000Y-51324647D01*
X155968537Y-51344022D01*
X155824949Y-51382497D01*
X155759114Y-51400137D01*
X155759112Y-51400138D01*
X155753804Y-51401560D01*
X155748823Y-51403882D01*
X155748822Y-51403883D01*
X155557311Y-51493186D01*
X155557306Y-51493189D01*
X155552324Y-51495512D01*
X155547817Y-51498668D01*
X155547815Y-51498669D01*
X155374730Y-51619864D01*
X155374727Y-51619866D01*
X155370219Y-51623023D01*
X155213023Y-51780219D01*
X155209866Y-51784727D01*
X155209864Y-51784730D01*
X155088669Y-51957815D01*
X155085512Y-51962324D01*
X155083189Y-51967306D01*
X155083186Y-51967311D01*
X155033919Y-52072965D01*
X154987001Y-52126250D01*
X154918724Y-52145711D01*
X154850764Y-52125169D01*
X154805529Y-52072965D01*
X154756377Y-51967559D01*
X154750897Y-51958068D01*
X154720206Y-51914235D01*
X154709729Y-51905860D01*
X154696282Y-51912928D01*
X154022022Y-52587188D01*
X154014408Y-52601132D01*
X153284356Y-52601132D01*
X153285592Y-52598868D01*
X153285461Y-52597035D01*
X153281210Y-52590420D01*
X152602997Y-51912207D01*
X152591223Y-51905777D01*
X152579207Y-51915074D01*
X152549103Y-51958068D01*
X152543623Y-51967559D01*
X152494471Y-52072965D01*
X152447553Y-52126250D01*
X152379276Y-52145711D01*
X152311316Y-52125169D01*
X152266081Y-52072965D01*
X152216814Y-51967311D01*
X152216811Y-51967306D01*
X152214488Y-51962324D01*
X152211331Y-51957815D01*
X152090136Y-51784730D01*
X152090134Y-51784727D01*
X152086977Y-51780219D01*
X151929781Y-51623023D01*
X151925273Y-51619866D01*
X151925270Y-51619864D01*
X151849505Y-51566813D01*
X151811599Y-51540271D01*
X152955860Y-51540271D01*
X152962928Y-51553718D01*
X153637188Y-52227978D01*
X153651132Y-52235592D01*
X153652965Y-52235461D01*
X153659580Y-52231210D01*
X154337793Y-51552997D01*
X154344223Y-51541223D01*
X154334926Y-51529207D01*
X154291931Y-51499102D01*
X154282445Y-51493624D01*
X154091007Y-51404355D01*
X154080715Y-51400609D01*
X153876691Y-51345941D01*
X153865896Y-51344038D01*
X153655475Y-51325628D01*
X153644525Y-51325628D01*
X153434104Y-51344038D01*
X153423309Y-51345941D01*
X153219285Y-51400609D01*
X153208993Y-51404355D01*
X153017559Y-51493623D01*
X153008068Y-51499103D01*
X152964235Y-51529794D01*
X152955860Y-51540271D01*
X151811599Y-51540271D01*
X151747677Y-51495512D01*
X151742695Y-51493189D01*
X151742690Y-51493186D01*
X151551178Y-51403883D01*
X151551177Y-51403882D01*
X151546196Y-51401560D01*
X151540888Y-51400138D01*
X151540886Y-51400137D01*
X151475051Y-51382497D01*
X151331463Y-51344022D01*
X151110000Y-51324647D01*
X150888537Y-51344022D01*
X150744949Y-51382497D01*
X150679114Y-51400137D01*
X150679112Y-51400138D01*
X150673804Y-51401560D01*
X150668823Y-51403882D01*
X150668822Y-51403883D01*
X150477311Y-51493186D01*
X150477306Y-51493189D01*
X150472324Y-51495512D01*
X150467817Y-51498668D01*
X150467815Y-51498669D01*
X150294730Y-51619864D01*
X150294727Y-51619866D01*
X150290219Y-51623023D01*
X150133023Y-51780219D01*
X150129866Y-51784727D01*
X150129864Y-51784730D01*
X150008669Y-51957815D01*
X150005512Y-51962324D01*
X150003189Y-51967306D01*
X150003186Y-51967311D01*
X149954195Y-52072373D01*
X149911560Y-52163804D01*
X149854022Y-52378537D01*
X149834647Y-52600000D01*
X149835126Y-52605475D01*
X149835126Y-52605478D01*
X149837500Y-52632616D01*
X149823510Y-52702220D01*
X149801074Y-52732691D01*
X149083198Y-53450568D01*
X148475519Y-54058247D01*
X148413207Y-54092272D01*
X148342392Y-54087208D01*
X148285556Y-54044661D01*
X148260943Y-53980572D01*
X148245989Y-53816251D01*
X148245988Y-53816248D01*
X148245430Y-53810112D01*
X148241173Y-53795645D01*
X148204254Y-53670207D01*
X148189590Y-53620381D01*
X148170399Y-53583671D01*
X148100813Y-53450568D01*
X148097960Y-53445110D01*
X147974032Y-53290975D01*
X147967727Y-53285684D01*
X147925062Y-53249884D01*
X147822526Y-53163846D01*
X147817128Y-53160879D01*
X147817123Y-53160875D01*
X147654608Y-53071533D01*
X147654609Y-53071533D01*
X147649213Y-53068567D01*
X147643346Y-53066706D01*
X147643344Y-53066705D01*
X147466564Y-53010627D01*
X147466563Y-53010627D01*
X147460694Y-53008765D01*
X147306773Y-52991500D01*
X143811842Y-52991500D01*
X143798235Y-52990763D01*
X143766737Y-52987341D01*
X143766732Y-52987341D01*
X143760611Y-52986676D01*
X143742611Y-52988251D01*
X143710609Y-52991050D01*
X143705784Y-52991379D01*
X143703313Y-52991500D01*
X143700231Y-52991500D01*
X143677763Y-52993703D01*
X143657489Y-52995691D01*
X143656174Y-52995813D01*
X143623913Y-52998636D01*
X143563587Y-53003913D01*
X143558468Y-53005400D01*
X143553167Y-53005920D01*
X143464166Y-53032791D01*
X143463033Y-53033126D01*
X143379586Y-53057370D01*
X143379582Y-53057372D01*
X143373664Y-53059091D01*
X143368932Y-53061544D01*
X143363831Y-53063084D01*
X143358388Y-53065978D01*
X143281740Y-53106731D01*
X143280574Y-53107343D01*
X143203547Y-53147271D01*
X143198074Y-53150108D01*
X143193911Y-53153431D01*
X143189204Y-53155934D01*
X143117082Y-53214755D01*
X143116226Y-53215446D01*
X143077027Y-53246738D01*
X143074523Y-53249242D01*
X143073805Y-53249884D01*
X143069472Y-53253585D01*
X143035938Y-53280935D01*
X143032011Y-53285682D01*
X143032009Y-53285684D01*
X143006713Y-53316262D01*
X142998723Y-53325042D01*
X141080621Y-55243145D01*
X141070478Y-55252247D01*
X141040975Y-55275968D01*
X141037008Y-55280696D01*
X141008709Y-55314421D01*
X141005528Y-55318069D01*
X141003885Y-55319881D01*
X141001691Y-55322075D01*
X140974358Y-55355349D01*
X140973696Y-55356147D01*
X140913846Y-55427474D01*
X140911278Y-55432144D01*
X140907897Y-55436261D01*
X140876860Y-55494145D01*
X140864023Y-55518086D01*
X140863394Y-55519245D01*
X140821538Y-55595381D01*
X140821535Y-55595389D01*
X140818567Y-55600787D01*
X140816955Y-55605869D01*
X140814438Y-55610563D01*
X140787238Y-55699531D01*
X140786918Y-55700559D01*
X140758765Y-55789306D01*
X140758171Y-55794602D01*
X140756613Y-55799698D01*
X140755990Y-55805834D01*
X140747218Y-55892187D01*
X140747089Y-55893393D01*
X140741500Y-55943227D01*
X140741500Y-55946754D01*
X140741445Y-55947739D01*
X140740998Y-55953419D01*
X140736626Y-55996462D01*
X140737206Y-56002593D01*
X140740941Y-56042109D01*
X140741500Y-56053967D01*
X140741500Y-57078991D01*
X140721498Y-57147112D01*
X140667842Y-57193605D01*
X140662306Y-57195903D01*
X140661704Y-57196232D01*
X140653295Y-57199385D01*
X140536739Y-57286739D01*
X140449385Y-57403295D01*
X140398255Y-57539684D01*
X140391500Y-57601866D01*
X140391500Y-59398134D01*
X140398255Y-59460316D01*
X140449385Y-59596705D01*
X140536739Y-59713261D01*
X140653295Y-59800615D01*
X140661704Y-59803767D01*
X140661705Y-59803768D01*
X140770451Y-59844535D01*
X140827216Y-59887176D01*
X140851916Y-59953738D01*
X140836709Y-60023087D01*
X140817316Y-60049568D01*
X140690629Y-60182138D01*
X140687715Y-60186410D01*
X140687714Y-60186411D01*
X140640763Y-60255239D01*
X140564743Y-60366680D01*
X140521143Y-60460609D01*
X140477320Y-60555018D01*
X140470688Y-60569305D01*
X140410989Y-60784570D01*
X140387251Y-61006695D01*
X140400110Y-61229715D01*
X140401247Y-61234761D01*
X140401248Y-61234767D01*
X140425304Y-61341508D01*
X140449222Y-61447639D01*
X140533266Y-61654616D01*
X140535965Y-61659020D01*
X140614021Y-61786396D01*
X140649987Y-61845088D01*
X140796250Y-62013938D01*
X140968126Y-62156632D01*
X141161000Y-62269338D01*
X141369692Y-62349030D01*
X141374760Y-62350061D01*
X141374763Y-62350062D01*
X141482017Y-62371883D01*
X141588597Y-62393567D01*
X141593772Y-62393757D01*
X141593774Y-62393757D01*
X141806673Y-62401564D01*
X141806677Y-62401564D01*
X141811837Y-62401753D01*
X141816957Y-62401097D01*
X141816959Y-62401097D01*
X142028288Y-62374025D01*
X142028289Y-62374025D01*
X142033416Y-62373368D01*
X142096936Y-62354311D01*
X142242429Y-62310661D01*
X142242434Y-62310659D01*
X142247384Y-62309174D01*
X142447994Y-62210896D01*
X142629860Y-62081173D01*
X142632886Y-62078157D01*
X142697588Y-62049570D01*
X142713976Y-62048500D01*
X143898157Y-62048500D01*
X143911764Y-62049237D01*
X143943262Y-62052659D01*
X143943267Y-62052659D01*
X143949388Y-62053324D01*
X143975638Y-62051027D01*
X143999388Y-62048950D01*
X144004214Y-62048621D01*
X144006686Y-62048500D01*
X144009769Y-62048500D01*
X144021738Y-62047326D01*
X144052506Y-62044310D01*
X144053819Y-62044188D01*
X144098084Y-62040315D01*
X144146413Y-62036087D01*
X144151532Y-62034600D01*
X144156833Y-62034080D01*
X144245834Y-62007209D01*
X144246967Y-62006874D01*
X144330414Y-61982630D01*
X144330418Y-61982628D01*
X144336336Y-61980909D01*
X144341068Y-61978456D01*
X144346169Y-61976916D01*
X144351612Y-61974022D01*
X144428260Y-61933269D01*
X144429426Y-61932657D01*
X144506453Y-61892729D01*
X144511926Y-61889892D01*
X144516089Y-61886569D01*
X144520796Y-61884066D01*
X144592918Y-61825245D01*
X144593774Y-61824554D01*
X144632973Y-61793262D01*
X144635477Y-61790758D01*
X144636195Y-61790116D01*
X144640528Y-61786415D01*
X144674062Y-61759065D01*
X144681058Y-61750609D01*
X144703287Y-61723738D01*
X144711277Y-61714958D01*
X146996127Y-59430107D01*
X146998309Y-59427925D01*
X147088137Y-59318567D01*
X147146830Y-59278625D01*
X147217802Y-59276755D01*
X147278518Y-59313552D01*
X147309702Y-59377334D01*
X147311500Y-59398544D01*
X147311500Y-62135511D01*
X147288713Y-62207782D01*
X147244321Y-62271181D01*
X147215512Y-62312324D01*
X147213189Y-62317306D01*
X147213186Y-62317311D01*
X147173810Y-62401753D01*
X147121560Y-62513804D01*
X147064022Y-62728537D01*
X147044647Y-62950000D01*
X147064022Y-63171463D01*
X147121560Y-63386196D01*
X147123882Y-63391177D01*
X147123883Y-63391178D01*
X147213186Y-63582689D01*
X147213189Y-63582694D01*
X147215512Y-63587676D01*
X147218668Y-63592183D01*
X147218669Y-63592185D01*
X147319658Y-63736412D01*
X147343023Y-63769781D01*
X147500219Y-63926977D01*
X147504727Y-63930134D01*
X147504730Y-63930136D01*
X147580495Y-63983187D01*
X147682323Y-64054488D01*
X147687305Y-64056811D01*
X147687310Y-64056814D01*
X147792373Y-64105805D01*
X147845658Y-64152722D01*
X147865119Y-64220999D01*
X147844577Y-64288959D01*
X147792373Y-64334195D01*
X147687311Y-64383186D01*
X147687306Y-64383189D01*
X147682324Y-64385512D01*
X147677817Y-64388668D01*
X147677815Y-64388669D01*
X147504730Y-64509864D01*
X147504727Y-64509866D01*
X147500219Y-64513023D01*
X147343023Y-64670219D01*
X147215512Y-64852324D01*
X147213189Y-64857306D01*
X147213186Y-64857311D01*
X147123883Y-65048822D01*
X147121560Y-65053804D01*
X147064022Y-65268537D01*
X147044647Y-65490000D01*
X147064022Y-65711463D01*
X147121560Y-65926196D01*
X147123882Y-65931177D01*
X147123883Y-65931178D01*
X147213186Y-66122689D01*
X147213189Y-66122694D01*
X147215512Y-66127676D01*
X147343023Y-66309781D01*
X147500219Y-66466977D01*
X147504727Y-66470134D01*
X147504730Y-66470136D01*
X147580495Y-66523187D01*
X147682323Y-66594488D01*
X147687305Y-66596811D01*
X147687310Y-66596814D01*
X147792373Y-66645805D01*
X147845658Y-66692722D01*
X147865119Y-66760999D01*
X147844577Y-66828959D01*
X147792373Y-66874195D01*
X147687311Y-66923186D01*
X147687306Y-66923189D01*
X147682324Y-66925512D01*
X147677817Y-66928668D01*
X147677815Y-66928669D01*
X147504730Y-67049864D01*
X147504727Y-67049866D01*
X147500219Y-67053023D01*
X147343023Y-67210219D01*
X147215512Y-67392324D01*
X147213189Y-67397306D01*
X147213186Y-67397311D01*
X147123883Y-67588822D01*
X147121560Y-67593804D01*
X147064022Y-67808537D01*
X147044647Y-68030000D01*
X147064022Y-68251463D01*
X147121560Y-68466196D01*
X147123882Y-68471177D01*
X147123883Y-68471178D01*
X147213186Y-68662689D01*
X147213189Y-68662694D01*
X147215512Y-68667676D01*
X147218668Y-68672183D01*
X147218669Y-68672185D01*
X147312343Y-68805965D01*
X147343023Y-68849781D01*
X147500219Y-69006977D01*
X147504727Y-69010134D01*
X147504730Y-69010136D01*
X147551311Y-69042752D01*
X147682323Y-69134488D01*
X147687305Y-69136811D01*
X147687310Y-69136814D01*
X147792373Y-69185805D01*
X147845658Y-69232722D01*
X147865119Y-69300999D01*
X147844577Y-69368959D01*
X147792373Y-69414195D01*
X147687311Y-69463186D01*
X147687306Y-69463189D01*
X147682324Y-69465512D01*
X147677817Y-69468668D01*
X147677815Y-69468669D01*
X147504730Y-69589864D01*
X147504727Y-69589866D01*
X147500219Y-69593023D01*
X147343023Y-69750219D01*
X147215512Y-69932324D01*
X147213189Y-69937306D01*
X147213186Y-69937311D01*
X147123883Y-70128822D01*
X147121560Y-70133804D01*
X147064022Y-70348537D01*
X147044647Y-70570000D01*
X147064022Y-70791463D01*
X147121560Y-71006196D01*
X147123882Y-71011177D01*
X147123883Y-71011178D01*
X147213186Y-71202689D01*
X147213189Y-71202694D01*
X147215512Y-71207676D01*
X147343023Y-71389781D01*
X147500219Y-71546977D01*
X147504727Y-71550134D01*
X147504730Y-71550136D01*
X147580495Y-71603187D01*
X147682323Y-71674488D01*
X147687305Y-71676811D01*
X147687310Y-71676814D01*
X147792373Y-71725805D01*
X147845658Y-71772722D01*
X147865119Y-71840999D01*
X147844577Y-71908959D01*
X147792373Y-71954195D01*
X147687311Y-72003186D01*
X147687306Y-72003189D01*
X147682324Y-72005512D01*
X147677817Y-72008668D01*
X147677815Y-72008669D01*
X147504730Y-72129864D01*
X147504727Y-72129866D01*
X147500219Y-72133023D01*
X147343023Y-72290219D01*
X147339866Y-72294727D01*
X147339864Y-72294730D01*
X147290382Y-72365398D01*
X147215512Y-72472324D01*
X147213189Y-72477306D01*
X147213186Y-72477311D01*
X147174627Y-72560001D01*
X147121560Y-72673804D01*
X147064022Y-72888537D01*
X147044647Y-73110000D01*
X147064022Y-73331463D01*
X147121560Y-73546196D01*
X147123882Y-73551177D01*
X147123883Y-73551178D01*
X147213186Y-73742689D01*
X147213189Y-73742694D01*
X147215512Y-73747676D01*
X147343023Y-73929781D01*
X147500219Y-74086977D01*
X147504727Y-74090134D01*
X147504730Y-74090136D01*
X147580495Y-74143187D01*
X147682323Y-74214488D01*
X147687305Y-74216811D01*
X147687310Y-74216814D01*
X147792373Y-74265805D01*
X147845658Y-74312722D01*
X147865119Y-74380999D01*
X147844577Y-74448959D01*
X147792373Y-74494195D01*
X147687311Y-74543186D01*
X147687306Y-74543189D01*
X147682324Y-74545512D01*
X147677817Y-74548668D01*
X147677815Y-74548669D01*
X147504730Y-74669864D01*
X147504727Y-74669866D01*
X147500219Y-74673023D01*
X147343023Y-74830219D01*
X147215512Y-75012324D01*
X147213189Y-75017306D01*
X147213186Y-75017311D01*
X147152862Y-75146676D01*
X147121560Y-75213804D01*
X147064022Y-75428537D01*
X147044647Y-75650000D01*
X147064022Y-75871463D01*
X147121560Y-76086196D01*
X147123882Y-76091177D01*
X147123883Y-76091178D01*
X147213186Y-76282689D01*
X147213189Y-76282694D01*
X147215512Y-76287676D01*
X147218668Y-76292183D01*
X147218669Y-76292185D01*
X147336410Y-76460336D01*
X147343023Y-76469781D01*
X147500219Y-76626977D01*
X147504727Y-76630134D01*
X147504730Y-76630136D01*
X147580495Y-76683187D01*
X147682323Y-76754488D01*
X147687305Y-76756811D01*
X147687310Y-76756814D01*
X147792373Y-76805805D01*
X147845658Y-76852722D01*
X147865119Y-76920999D01*
X147844577Y-76988959D01*
X147792373Y-77034195D01*
X147687311Y-77083186D01*
X147687306Y-77083189D01*
X147682324Y-77085512D01*
X147677817Y-77088668D01*
X147677815Y-77088669D01*
X147504730Y-77209864D01*
X147504727Y-77209866D01*
X147500219Y-77213023D01*
X147343023Y-77370219D01*
X147339866Y-77374727D01*
X147339864Y-77374730D01*
X147218669Y-77547815D01*
X147215512Y-77552324D01*
X147213189Y-77557306D01*
X147213186Y-77557311D01*
X147175535Y-77638054D01*
X147121560Y-77753804D01*
X147064022Y-77968537D01*
X147044647Y-78190000D01*
X147064022Y-78411463D01*
X147121560Y-78626196D01*
X147123882Y-78631177D01*
X147123883Y-78631178D01*
X147213186Y-78822689D01*
X147213189Y-78822694D01*
X147215512Y-78827676D01*
X147343023Y-79009781D01*
X147500219Y-79166977D01*
X147504727Y-79170134D01*
X147504730Y-79170136D01*
X147580495Y-79223187D01*
X147682323Y-79294488D01*
X147687305Y-79296811D01*
X147687310Y-79296814D01*
X147792373Y-79345805D01*
X147845658Y-79392722D01*
X147865119Y-79460999D01*
X147844577Y-79528959D01*
X147792373Y-79574195D01*
X147687311Y-79623186D01*
X147687306Y-79623189D01*
X147682324Y-79625512D01*
X147677817Y-79628668D01*
X147677815Y-79628669D01*
X147504730Y-79749864D01*
X147504727Y-79749866D01*
X147500219Y-79753023D01*
X147343023Y-79910219D01*
X147215512Y-80092324D01*
X147213189Y-80097306D01*
X147213186Y-80097311D01*
X147123883Y-80288822D01*
X147121560Y-80293804D01*
X147120138Y-80299112D01*
X147120137Y-80299114D01*
X147065446Y-80503224D01*
X147064022Y-80508537D01*
X147063543Y-80514010D01*
X147063542Y-80514017D01*
X147063110Y-80518963D01*
X147037250Y-80585082D01*
X147026684Y-80597082D01*
X146189110Y-81434656D01*
X146178967Y-81443758D01*
X146149464Y-81467479D01*
X146145497Y-81472207D01*
X146117198Y-81505932D01*
X146114017Y-81509580D01*
X146112374Y-81511392D01*
X146110180Y-81513586D01*
X146082847Y-81546860D01*
X146082185Y-81547658D01*
X146022335Y-81618985D01*
X146019767Y-81623655D01*
X146016386Y-81627772D01*
X145990780Y-81675527D01*
X145972512Y-81709597D01*
X145971883Y-81710756D01*
X145930027Y-81786892D01*
X145930024Y-81786900D01*
X145927056Y-81792298D01*
X145925444Y-81797380D01*
X145922927Y-81802074D01*
X145895727Y-81891042D01*
X145895407Y-81892070D01*
X145867254Y-81980817D01*
X145866660Y-81986113D01*
X145865102Y-81991209D01*
X145863433Y-82007646D01*
X145855707Y-82083698D01*
X145855578Y-82084904D01*
X145849989Y-82134738D01*
X145849989Y-82138265D01*
X145849934Y-82139250D01*
X145849487Y-82144930D01*
X145845115Y-82187973D01*
X145845695Y-82194104D01*
X145849430Y-82233620D01*
X145849989Y-82245478D01*
X145849989Y-86111587D01*
X145829987Y-86179708D01*
X145813084Y-86200682D01*
X144158884Y-87854882D01*
X144096572Y-87888908D01*
X144080773Y-87891308D01*
X144021913Y-87896457D01*
X143874141Y-87936053D01*
X143806067Y-87954293D01*
X143806065Y-87954294D01*
X143800757Y-87955716D01*
X143795776Y-87958039D01*
X143795775Y-87958039D01*
X143598238Y-88050151D01*
X143598233Y-88050154D01*
X143593251Y-88052477D01*
X143546374Y-88085301D01*
X143410211Y-88180643D01*
X143410208Y-88180645D01*
X143405700Y-88183802D01*
X143243802Y-88345700D01*
X143112477Y-88533251D01*
X143110154Y-88538233D01*
X143110151Y-88538238D01*
X143019211Y-88733262D01*
X143015716Y-88740757D01*
X143014294Y-88746065D01*
X143014293Y-88746067D01*
X142961918Y-88941532D01*
X142956457Y-88961913D01*
X142936502Y-89190000D01*
X142956457Y-89418087D01*
X142957881Y-89423400D01*
X142957881Y-89423402D01*
X143004933Y-89598999D01*
X143015716Y-89639243D01*
X143018039Y-89644224D01*
X143018039Y-89644225D01*
X143110151Y-89841762D01*
X143110154Y-89841767D01*
X143112477Y-89846749D01*
X143243802Y-90034300D01*
X143405700Y-90196198D01*
X143410208Y-90199355D01*
X143410211Y-90199357D01*
X143479415Y-90247814D01*
X143593251Y-90327523D01*
X143598233Y-90329846D01*
X143598238Y-90329849D01*
X143795775Y-90421961D01*
X143800757Y-90424284D01*
X143806065Y-90425706D01*
X143806067Y-90425707D01*
X144016598Y-90482119D01*
X144016600Y-90482119D01*
X144021913Y-90483543D01*
X144250000Y-90503498D01*
X144478087Y-90483543D01*
X144483400Y-90482119D01*
X144483402Y-90482119D01*
X144693933Y-90425707D01*
X144693935Y-90425706D01*
X144699243Y-90424284D01*
X144704225Y-90421961D01*
X144901762Y-90329849D01*
X144901767Y-90329846D01*
X144906749Y-90327523D01*
X145020585Y-90247814D01*
X145089789Y-90199357D01*
X145089792Y-90199355D01*
X145094300Y-90196198D01*
X145256198Y-90034300D01*
X145387523Y-89846749D01*
X145389846Y-89841767D01*
X145389849Y-89841762D01*
X145481961Y-89644225D01*
X145481961Y-89644224D01*
X145484284Y-89639243D01*
X145495068Y-89598999D01*
X145532503Y-89459288D01*
X145543543Y-89418087D01*
X145548692Y-89359231D01*
X145574555Y-89293113D01*
X145585118Y-89281117D01*
X146780934Y-88085301D01*
X146843246Y-88051275D01*
X146914061Y-88056340D01*
X146970897Y-88098887D01*
X146995708Y-88165407D01*
X146995550Y-88185374D01*
X146984647Y-88309999D01*
X147004022Y-88531462D01*
X147005446Y-88536775D01*
X147058095Y-88733262D01*
X147061560Y-88746195D01*
X147063882Y-88751176D01*
X147063883Y-88751177D01*
X147153186Y-88942688D01*
X147153189Y-88942693D01*
X147155512Y-88947675D01*
X147158668Y-88952182D01*
X147158669Y-88952184D01*
X147218035Y-89036967D01*
X147283023Y-89129780D01*
X147440219Y-89286976D01*
X147444727Y-89290133D01*
X147444730Y-89290135D01*
X147482673Y-89316703D01*
X147622323Y-89414487D01*
X147627305Y-89416810D01*
X147627310Y-89416813D01*
X147775263Y-89485804D01*
X147828548Y-89532721D01*
X147848009Y-89600999D01*
X147827467Y-89668958D01*
X147775263Y-89714194D01*
X147627311Y-89783185D01*
X147627306Y-89783188D01*
X147622324Y-89785511D01*
X147617817Y-89788667D01*
X147617815Y-89788668D01*
X147444730Y-89909863D01*
X147444727Y-89909865D01*
X147440219Y-89913022D01*
X147283023Y-90070218D01*
X147279866Y-90074726D01*
X147279864Y-90074729D01*
X147194811Y-90196198D01*
X147155512Y-90252323D01*
X147153189Y-90257305D01*
X147153186Y-90257310D01*
X147063883Y-90448821D01*
X147061560Y-90453803D01*
X147060138Y-90459111D01*
X147060137Y-90459113D01*
X147048244Y-90503498D01*
X147004022Y-90668536D01*
X146984647Y-90889999D01*
X147004022Y-91111462D01*
X147061560Y-91326195D01*
X147063882Y-91331176D01*
X147063883Y-91331177D01*
X147153186Y-91522688D01*
X147153189Y-91522693D01*
X147155512Y-91527675D01*
X147283023Y-91709780D01*
X147440219Y-91866976D01*
X147444727Y-91870133D01*
X147444730Y-91870135D01*
X147520495Y-91923186D01*
X147622323Y-91994487D01*
X147627305Y-91996810D01*
X147627310Y-91996813D01*
X147762374Y-92059794D01*
X147815659Y-92106711D01*
X147835120Y-92174989D01*
X147814578Y-92242949D01*
X147762374Y-92288184D01*
X147687311Y-92323186D01*
X147687306Y-92323189D01*
X147682324Y-92325512D01*
X147677817Y-92328668D01*
X147677815Y-92328669D01*
X147504730Y-92449864D01*
X147504727Y-92449866D01*
X147500219Y-92453023D01*
X147343023Y-92610219D01*
X147215512Y-92792324D01*
X147213189Y-92797306D01*
X147213186Y-92797311D01*
X147123883Y-92988822D01*
X147121560Y-92993804D01*
X147064022Y-93208537D01*
X147044647Y-93430000D01*
X147064022Y-93651463D01*
X147121560Y-93866196D01*
X147123882Y-93871177D01*
X147123883Y-93871178D01*
X147213186Y-94062689D01*
X147213189Y-94062694D01*
X147215512Y-94067676D01*
X147343023Y-94249781D01*
X147500219Y-94406977D01*
X147504727Y-94410134D01*
X147504730Y-94410136D01*
X147580495Y-94463187D01*
X147682323Y-94534488D01*
X147687305Y-94536811D01*
X147687310Y-94536814D01*
X147792373Y-94585805D01*
X147845658Y-94632722D01*
X147865119Y-94700999D01*
X147844577Y-94768959D01*
X147792373Y-94814195D01*
X147687311Y-94863186D01*
X147687306Y-94863189D01*
X147682324Y-94865512D01*
X147677817Y-94868668D01*
X147677815Y-94868669D01*
X147504730Y-94989864D01*
X147504727Y-94989866D01*
X147500219Y-94993023D01*
X147343023Y-95150219D01*
X147339866Y-95154727D01*
X147339864Y-95154730D01*
X147221477Y-95323805D01*
X147215512Y-95332324D01*
X147213189Y-95337306D01*
X147213186Y-95337311D01*
X147160944Y-95449345D01*
X147121560Y-95533804D01*
X147064022Y-95748537D01*
X147044647Y-95970000D01*
X147064022Y-96191463D01*
X147065446Y-96196776D01*
X147109385Y-96360757D01*
X147121560Y-96406196D01*
X147123882Y-96411177D01*
X147123883Y-96411178D01*
X147213186Y-96602689D01*
X147213189Y-96602694D01*
X147215512Y-96607676D01*
X147343023Y-96789781D01*
X147500219Y-96946977D01*
X147504727Y-96950134D01*
X147504730Y-96950136D01*
X147580495Y-97003187D01*
X147682323Y-97074488D01*
X147687305Y-97076811D01*
X147687310Y-97076814D01*
X147792373Y-97125805D01*
X147845658Y-97172722D01*
X147865119Y-97240999D01*
X147844577Y-97308959D01*
X147792373Y-97354195D01*
X147687311Y-97403186D01*
X147687306Y-97403189D01*
X147682324Y-97405512D01*
X147677817Y-97408668D01*
X147677815Y-97408669D01*
X147504730Y-97529864D01*
X147504727Y-97529866D01*
X147500219Y-97533023D01*
X147343023Y-97690219D01*
X147339866Y-97694727D01*
X147339864Y-97694730D01*
X147252600Y-97819357D01*
X147215512Y-97872324D01*
X147213189Y-97877306D01*
X147213186Y-97877311D01*
X147135325Y-98044284D01*
X147121560Y-98073804D01*
X147120138Y-98079112D01*
X147120137Y-98079114D01*
X147083299Y-98216595D01*
X147050687Y-98273079D01*
X144869171Y-100454595D01*
X144806859Y-100488621D01*
X144780076Y-100491500D01*
X144057904Y-100491500D01*
X144045171Y-100490855D01*
X144009666Y-100487248D01*
X144009661Y-100487248D01*
X144003538Y-100486626D01*
X143961259Y-100490623D01*
X143957891Y-100490941D01*
X143946033Y-100491500D01*
X143719925Y-100491500D01*
X143651804Y-100471498D01*
X143630830Y-100454595D01*
X141545405Y-98369171D01*
X141511380Y-98306859D01*
X141508500Y-98280076D01*
X141508500Y-97690740D01*
X141531287Y-97618469D01*
X141634366Y-97471257D01*
X141637523Y-97466749D01*
X141639846Y-97461767D01*
X141639849Y-97461762D01*
X141731961Y-97264225D01*
X141731961Y-97264224D01*
X141734284Y-97259243D01*
X141743198Y-97225978D01*
X141792119Y-97043402D01*
X141792119Y-97043400D01*
X141793543Y-97038087D01*
X141813498Y-96810000D01*
X141793543Y-96581913D01*
X141792119Y-96576598D01*
X141735707Y-96366067D01*
X141735706Y-96366065D01*
X141734284Y-96360757D01*
X141731961Y-96355775D01*
X141639849Y-96158238D01*
X141639846Y-96158233D01*
X141637523Y-96153251D01*
X141506198Y-95965700D01*
X141344300Y-95803802D01*
X141339792Y-95800645D01*
X141339789Y-95800643D01*
X141257786Y-95743224D01*
X141156749Y-95672477D01*
X141151767Y-95670154D01*
X141151762Y-95670151D01*
X140954225Y-95578039D01*
X140954224Y-95578039D01*
X140949243Y-95575716D01*
X140943935Y-95574294D01*
X140943933Y-95574293D01*
X140733402Y-95517881D01*
X140733400Y-95517881D01*
X140728087Y-95516457D01*
X140500000Y-95496502D01*
X140271913Y-95516457D01*
X140266600Y-95517881D01*
X140266598Y-95517881D01*
X140056067Y-95574293D01*
X140056065Y-95574294D01*
X140050757Y-95575716D01*
X140045776Y-95578039D01*
X140045775Y-95578039D01*
X139848238Y-95670151D01*
X139848233Y-95670154D01*
X139843251Y-95672477D01*
X139742214Y-95743224D01*
X139660211Y-95800643D01*
X139660208Y-95800645D01*
X139655700Y-95803802D01*
X139493802Y-95965700D01*
X139362477Y-96153251D01*
X139360154Y-96158233D01*
X139360151Y-96158238D01*
X139268039Y-96355775D01*
X139265716Y-96360757D01*
X139264294Y-96366065D01*
X139264293Y-96366067D01*
X139207881Y-96576598D01*
X139206457Y-96581913D01*
X139186502Y-96810000D01*
X139206457Y-97038087D01*
X139207881Y-97043400D01*
X139207881Y-97043402D01*
X139256803Y-97225978D01*
X139265716Y-97259243D01*
X139268039Y-97264224D01*
X139268039Y-97264225D01*
X139360151Y-97461762D01*
X139360154Y-97461767D01*
X139362477Y-97466749D01*
X139365634Y-97471257D01*
X139468713Y-97618469D01*
X139491500Y-97690740D01*
X139491500Y-98688157D01*
X139490763Y-98701764D01*
X139487537Y-98731463D01*
X139486676Y-98739388D01*
X139487213Y-98745523D01*
X139491021Y-98789053D01*
X139491500Y-98800034D01*
X139491500Y-99763325D01*
X139471498Y-99831446D01*
X139450300Y-99856518D01*
X139408894Y-99894195D01*
X139380330Y-99920186D01*
X139377131Y-99924237D01*
X139377127Y-99924241D01*
X139234633Y-100104670D01*
X139234630Y-100104675D01*
X139231432Y-100108724D01*
X139228939Y-100113240D01*
X139228937Y-100113243D01*
X139164363Y-100230219D01*
X139115326Y-100319050D01*
X139113602Y-100323919D01*
X139113600Y-100323923D01*
X139036856Y-100540640D01*
X139035130Y-100545515D01*
X139034223Y-100550608D01*
X139034222Y-100550611D01*
X139010202Y-100685461D01*
X138992999Y-100782037D01*
X138990064Y-101022263D01*
X135258000Y-101022263D01*
X135258000Y-81254254D01*
X135986626Y-81254254D01*
X135987206Y-81260385D01*
X135990941Y-81299901D01*
X135991500Y-81311759D01*
X135991500Y-88688157D01*
X135990763Y-88701764D01*
X135986676Y-88739388D01*
X135988973Y-88765638D01*
X135991050Y-88789388D01*
X135991379Y-88794214D01*
X135991500Y-88796686D01*
X135991500Y-88799769D01*
X135991801Y-88802837D01*
X135995690Y-88842506D01*
X135995812Y-88843819D01*
X136003913Y-88936413D01*
X136005400Y-88941532D01*
X136005920Y-88946833D01*
X136032791Y-89035834D01*
X136033126Y-89036967D01*
X136059091Y-89126336D01*
X136061544Y-89131068D01*
X136063084Y-89136169D01*
X136065978Y-89141612D01*
X136106731Y-89218260D01*
X136107343Y-89219426D01*
X136143996Y-89290135D01*
X136150108Y-89301926D01*
X136153431Y-89306089D01*
X136155934Y-89310796D01*
X136214755Y-89382918D01*
X136215446Y-89383774D01*
X136246738Y-89422973D01*
X136249242Y-89425477D01*
X136249884Y-89426195D01*
X136253585Y-89430528D01*
X136280935Y-89464062D01*
X136285682Y-89467989D01*
X136285684Y-89467991D01*
X136316262Y-89493287D01*
X136325042Y-89501277D01*
X143007013Y-96183247D01*
X143041039Y-96245559D01*
X143035974Y-96316374D01*
X143032114Y-96325590D01*
X143018039Y-96355774D01*
X143018039Y-96355775D01*
X143015716Y-96360757D01*
X143014294Y-96366065D01*
X143014293Y-96366067D01*
X142957881Y-96576598D01*
X142956457Y-96581913D01*
X142936502Y-96810000D01*
X142956457Y-97038087D01*
X142957881Y-97043400D01*
X142957881Y-97043402D01*
X143006803Y-97225978D01*
X143015716Y-97259243D01*
X143018039Y-97264224D01*
X143018039Y-97264225D01*
X143110151Y-97461762D01*
X143110154Y-97461767D01*
X143112477Y-97466749D01*
X143243802Y-97654300D01*
X143405700Y-97816198D01*
X143410208Y-97819355D01*
X143410211Y-97819357D01*
X143485856Y-97872324D01*
X143593251Y-97947523D01*
X143598233Y-97949846D01*
X143598238Y-97949849D01*
X143795775Y-98041961D01*
X143800757Y-98044284D01*
X143806065Y-98045706D01*
X143806067Y-98045707D01*
X144016598Y-98102119D01*
X144016600Y-98102119D01*
X144021913Y-98103543D01*
X144250000Y-98123498D01*
X144478087Y-98103543D01*
X144483400Y-98102119D01*
X144483402Y-98102119D01*
X144693933Y-98045707D01*
X144693935Y-98045706D01*
X144699243Y-98044284D01*
X144704225Y-98041961D01*
X144901762Y-97949849D01*
X144901767Y-97949846D01*
X144906749Y-97947523D01*
X145014144Y-97872324D01*
X145089789Y-97819357D01*
X145089792Y-97819355D01*
X145094300Y-97816198D01*
X145256198Y-97654300D01*
X145387523Y-97466749D01*
X145389846Y-97461767D01*
X145389849Y-97461762D01*
X145481961Y-97264225D01*
X145481961Y-97264224D01*
X145484284Y-97259243D01*
X145493198Y-97225978D01*
X145542119Y-97043402D01*
X145542119Y-97043400D01*
X145543543Y-97038087D01*
X145563498Y-96810000D01*
X145543543Y-96581913D01*
X145542119Y-96576598D01*
X145485707Y-96366067D01*
X145485706Y-96366065D01*
X145484284Y-96360757D01*
X145481961Y-96355775D01*
X145389849Y-96158238D01*
X145389846Y-96158233D01*
X145387523Y-96153251D01*
X145279599Y-95999120D01*
X145257413Y-95939145D01*
X145254309Y-95907489D01*
X145254187Y-95906174D01*
X145246623Y-95819719D01*
X145246087Y-95813587D01*
X145244600Y-95808468D01*
X145244080Y-95803167D01*
X145217218Y-95714194D01*
X145216862Y-95712994D01*
X145206008Y-95675634D01*
X145190909Y-95623663D01*
X145188455Y-95618929D01*
X145186916Y-95613831D01*
X145143316Y-95531831D01*
X145142702Y-95530663D01*
X145102726Y-95453541D01*
X145102725Y-95453540D01*
X145099892Y-95448074D01*
X145096569Y-95443911D01*
X145094066Y-95439204D01*
X145035245Y-95367082D01*
X145034554Y-95366226D01*
X145003262Y-95327027D01*
X145000758Y-95324523D01*
X145000116Y-95323805D01*
X144996415Y-95319472D01*
X144969065Y-95285938D01*
X144933737Y-95256712D01*
X144924958Y-95248723D01*
X140393814Y-90717579D01*
X140359788Y-90655267D01*
X140364853Y-90584452D01*
X140407400Y-90527616D01*
X140473920Y-90502805D01*
X140493896Y-90502964D01*
X140500000Y-90503498D01*
X140728087Y-90483543D01*
X140733400Y-90482119D01*
X140733402Y-90482119D01*
X140943933Y-90425707D01*
X140943935Y-90425706D01*
X140949243Y-90424284D01*
X140954225Y-90421961D01*
X141151762Y-90329849D01*
X141151767Y-90329846D01*
X141156749Y-90327523D01*
X141270585Y-90247814D01*
X141339789Y-90199357D01*
X141339792Y-90199355D01*
X141344300Y-90196198D01*
X141506198Y-90034300D01*
X141637523Y-89846749D01*
X141639846Y-89841767D01*
X141639849Y-89841762D01*
X141731961Y-89644225D01*
X141731961Y-89644224D01*
X141734284Y-89639243D01*
X141745068Y-89598999D01*
X141792119Y-89423402D01*
X141792119Y-89423400D01*
X141793543Y-89418087D01*
X141813498Y-89190000D01*
X141793543Y-88961913D01*
X141788082Y-88941532D01*
X141735707Y-88746067D01*
X141735706Y-88746065D01*
X141734284Y-88740757D01*
X141730789Y-88733262D01*
X141639849Y-88538238D01*
X141639846Y-88538233D01*
X141637523Y-88533251D01*
X141531287Y-88381531D01*
X141508500Y-88309260D01*
X141508500Y-86052750D01*
X141528502Y-85984629D01*
X141582158Y-85938136D01*
X141652432Y-85928032D01*
X141717012Y-85957526D01*
X141735326Y-85977185D01*
X141756714Y-86005723D01*
X141769276Y-86018285D01*
X141871351Y-86094786D01*
X141886946Y-86103324D01*
X142007394Y-86148478D01*
X142022649Y-86152105D01*
X142073514Y-86157631D01*
X142080328Y-86158000D01*
X142752885Y-86158000D01*
X142768124Y-86153525D01*
X142769329Y-86152135D01*
X142771000Y-86144452D01*
X142771000Y-86139884D01*
X143279000Y-86139884D01*
X143283475Y-86155123D01*
X143284865Y-86156328D01*
X143292548Y-86157999D01*
X143969669Y-86157999D01*
X143976490Y-86157629D01*
X144027352Y-86152105D01*
X144042604Y-86148479D01*
X144163054Y-86103324D01*
X144178649Y-86094786D01*
X144280724Y-86018285D01*
X144293285Y-86005724D01*
X144369786Y-85903649D01*
X144378324Y-85888054D01*
X144423478Y-85767606D01*
X144427105Y-85752351D01*
X144432631Y-85701486D01*
X144433000Y-85694672D01*
X144433000Y-85022115D01*
X144428525Y-85006876D01*
X144427135Y-85005671D01*
X144419452Y-85004000D01*
X143297115Y-85004000D01*
X143281876Y-85008475D01*
X143280671Y-85009865D01*
X143279000Y-85017548D01*
X143279000Y-86139884D01*
X142771000Y-86139884D01*
X142771000Y-84477885D01*
X143279000Y-84477885D01*
X143283475Y-84493124D01*
X143284865Y-84494329D01*
X143292548Y-84496000D01*
X144414884Y-84496000D01*
X144430123Y-84491525D01*
X144431328Y-84490135D01*
X144432999Y-84482452D01*
X144432999Y-83805331D01*
X144432629Y-83798510D01*
X144427105Y-83747648D01*
X144423479Y-83732396D01*
X144378324Y-83611946D01*
X144369786Y-83596351D01*
X144293285Y-83494276D01*
X144280724Y-83481715D01*
X144178649Y-83405214D01*
X144163054Y-83396676D01*
X144042606Y-83351522D01*
X144027351Y-83347895D01*
X143976486Y-83342369D01*
X143969672Y-83342000D01*
X143297115Y-83342000D01*
X143281876Y-83346475D01*
X143280671Y-83347865D01*
X143279000Y-83355548D01*
X143279000Y-84477885D01*
X142771000Y-84477885D01*
X142771000Y-83360116D01*
X142766525Y-83344877D01*
X142765135Y-83343672D01*
X142757452Y-83342001D01*
X142080331Y-83342001D01*
X142073510Y-83342371D01*
X142022648Y-83347895D01*
X142007396Y-83351521D01*
X141886946Y-83396676D01*
X141871351Y-83405214D01*
X141769276Y-83481715D01*
X141756715Y-83494276D01*
X141680214Y-83596351D01*
X141671675Y-83611948D01*
X141650934Y-83667275D01*
X141608293Y-83724040D01*
X141541731Y-83748740D01*
X141472383Y-83733533D01*
X141449388Y-83716909D01*
X141448887Y-83716358D01*
X141386737Y-83667275D01*
X141271177Y-83576011D01*
X141271172Y-83576008D01*
X141267123Y-83572810D01*
X141262607Y-83570317D01*
X141262604Y-83570315D01*
X141068879Y-83463373D01*
X141068875Y-83463371D01*
X141064355Y-83460876D01*
X141059486Y-83459152D01*
X141059482Y-83459150D01*
X140850903Y-83385288D01*
X140850899Y-83385287D01*
X140846028Y-83383562D01*
X140840935Y-83382655D01*
X140840932Y-83382654D01*
X140623095Y-83343851D01*
X140623089Y-83343850D01*
X140618006Y-83342945D01*
X140540644Y-83342000D01*
X140391581Y-83340179D01*
X140391579Y-83340179D01*
X140386411Y-83340116D01*
X140157464Y-83375150D01*
X139937314Y-83447106D01*
X139932726Y-83449494D01*
X139932722Y-83449496D01*
X139736461Y-83551663D01*
X139731872Y-83554052D01*
X139727739Y-83557155D01*
X139727736Y-83557157D01*
X139581073Y-83667275D01*
X139546655Y-83693117D01*
X139386639Y-83860564D01*
X139383725Y-83864836D01*
X139383724Y-83864837D01*
X139310348Y-83972402D01*
X139256119Y-84051899D01*
X139158602Y-84261981D01*
X139096707Y-84485169D01*
X139072095Y-84715469D01*
X139072392Y-84720622D01*
X139072392Y-84720625D01*
X139085129Y-84941529D01*
X139085427Y-84946697D01*
X139086564Y-84951743D01*
X139086565Y-84951749D01*
X139101394Y-85017548D01*
X139136346Y-85172642D01*
X139138288Y-85177424D01*
X139138289Y-85177428D01*
X139221540Y-85382450D01*
X139223484Y-85387237D01*
X139344501Y-85584719D01*
X139460738Y-85718907D01*
X139490220Y-85783490D01*
X139491500Y-85801402D01*
X139491500Y-88309260D01*
X139468713Y-88381531D01*
X139362477Y-88533251D01*
X139360154Y-88538233D01*
X139360151Y-88538238D01*
X139269211Y-88733262D01*
X139265716Y-88740757D01*
X139264294Y-88746065D01*
X139264293Y-88746067D01*
X139211918Y-88941532D01*
X139206457Y-88961913D01*
X139186502Y-89190000D01*
X139186981Y-89195473D01*
X139187036Y-89196101D01*
X139186981Y-89196375D01*
X139186981Y-89200982D01*
X139186055Y-89200982D01*
X139173052Y-89265707D01*
X139123656Y-89316703D01*
X139054531Y-89332898D01*
X138987624Y-89309151D01*
X138972421Y-89296187D01*
X138045405Y-88369171D01*
X138011379Y-88306859D01*
X138008500Y-88280076D01*
X138008500Y-81727717D01*
X138028502Y-81659596D01*
X138045405Y-81638622D01*
X141154379Y-78529647D01*
X141164522Y-78520545D01*
X141189218Y-78500689D01*
X141194025Y-78496824D01*
X141226320Y-78458336D01*
X141229478Y-78454717D01*
X141231124Y-78452902D01*
X141233309Y-78450717D01*
X141235264Y-78448337D01*
X141235273Y-78448327D01*
X141260549Y-78417556D01*
X141261391Y-78416541D01*
X141317194Y-78350037D01*
X141321154Y-78345318D01*
X141323723Y-78340644D01*
X141327102Y-78336531D01*
X141370975Y-78254707D01*
X141371584Y-78253585D01*
X141413464Y-78177406D01*
X141413465Y-78177404D01*
X141416433Y-78172005D01*
X141418045Y-78166923D01*
X141420562Y-78162229D01*
X141447762Y-78073261D01*
X141448108Y-78072150D01*
X141474373Y-77989355D01*
X141476235Y-77983486D01*
X141476829Y-77978190D01*
X141478387Y-77973094D01*
X141487790Y-77880535D01*
X141487911Y-77879399D01*
X141493500Y-77829565D01*
X141493500Y-77826038D01*
X141493555Y-77825053D01*
X141494002Y-77819373D01*
X141498374Y-77776330D01*
X141498374Y-77776328D01*
X141501117Y-77776607D01*
X141517933Y-77719950D01*
X141571725Y-77673614D01*
X141642028Y-77663717D01*
X141706522Y-77693399D01*
X141724557Y-77712816D01*
X141756714Y-77755723D01*
X141769276Y-77768285D01*
X141871351Y-77844786D01*
X141886946Y-77853324D01*
X142007394Y-77898478D01*
X142022649Y-77902105D01*
X142073514Y-77907631D01*
X142080328Y-77908000D01*
X142752885Y-77908000D01*
X142768124Y-77903525D01*
X142769329Y-77902135D01*
X142771000Y-77894452D01*
X142771000Y-77889884D01*
X143279000Y-77889884D01*
X143283475Y-77905123D01*
X143284865Y-77906328D01*
X143292548Y-77907999D01*
X143969669Y-77907999D01*
X143976490Y-77907629D01*
X144027352Y-77902105D01*
X144042604Y-77898479D01*
X144163054Y-77853324D01*
X144178649Y-77844786D01*
X144280724Y-77768285D01*
X144293285Y-77755724D01*
X144369786Y-77653649D01*
X144378324Y-77638054D01*
X144423478Y-77517606D01*
X144427105Y-77502351D01*
X144432631Y-77451486D01*
X144433000Y-77444672D01*
X144433000Y-76772115D01*
X144428525Y-76756876D01*
X144427135Y-76755671D01*
X144419452Y-76754000D01*
X143297115Y-76754000D01*
X143281876Y-76758475D01*
X143280671Y-76759865D01*
X143279000Y-76767548D01*
X143279000Y-77889884D01*
X142771000Y-77889884D01*
X142771000Y-76227885D01*
X143279000Y-76227885D01*
X143283475Y-76243124D01*
X143284865Y-76244329D01*
X143292548Y-76246000D01*
X144414884Y-76246000D01*
X144430123Y-76241525D01*
X144431328Y-76240135D01*
X144432999Y-76232452D01*
X144432999Y-75555331D01*
X144432629Y-75548510D01*
X144427105Y-75497648D01*
X144423479Y-75482396D01*
X144378324Y-75361946D01*
X144369786Y-75346351D01*
X144293285Y-75244276D01*
X144280724Y-75231715D01*
X144178649Y-75155214D01*
X144163054Y-75146676D01*
X144042606Y-75101522D01*
X144027351Y-75097895D01*
X143976486Y-75092369D01*
X143969672Y-75092000D01*
X143297115Y-75092000D01*
X143281876Y-75096475D01*
X143280671Y-75097865D01*
X143279000Y-75105548D01*
X143279000Y-76227885D01*
X142771000Y-76227885D01*
X142771000Y-75110116D01*
X142766525Y-75094877D01*
X142765135Y-75093672D01*
X142757452Y-75092001D01*
X142080331Y-75092001D01*
X142073510Y-75092371D01*
X142022648Y-75097895D01*
X142007396Y-75101521D01*
X141886946Y-75146676D01*
X141871351Y-75155214D01*
X141769276Y-75231715D01*
X141756715Y-75244276D01*
X141680214Y-75346351D01*
X141671675Y-75361948D01*
X141650934Y-75417275D01*
X141608293Y-75474040D01*
X141541731Y-75498740D01*
X141472383Y-75483533D01*
X141449388Y-75466909D01*
X141448887Y-75466358D01*
X141327825Y-75370749D01*
X141271177Y-75326011D01*
X141271172Y-75326008D01*
X141267123Y-75322810D01*
X141262607Y-75320317D01*
X141262604Y-75320315D01*
X141068879Y-75213373D01*
X141068875Y-75213371D01*
X141064355Y-75210876D01*
X141059486Y-75209152D01*
X141059482Y-75209150D01*
X140850903Y-75135288D01*
X140850899Y-75135287D01*
X140846028Y-75133562D01*
X140840935Y-75132655D01*
X140840932Y-75132654D01*
X140623095Y-75093851D01*
X140623089Y-75093850D01*
X140618006Y-75092945D01*
X140540644Y-75092000D01*
X140391581Y-75090179D01*
X140391579Y-75090179D01*
X140386411Y-75090116D01*
X140157464Y-75125150D01*
X139937314Y-75197106D01*
X139932726Y-75199494D01*
X139932722Y-75199496D01*
X139777616Y-75280239D01*
X139731872Y-75304052D01*
X139727739Y-75307155D01*
X139727736Y-75307157D01*
X139558776Y-75434016D01*
X139546655Y-75443117D01*
X139386639Y-75610564D01*
X139383725Y-75614836D01*
X139383724Y-75614837D01*
X139356003Y-75655475D01*
X139256119Y-75801899D01*
X139158602Y-76011981D01*
X139096707Y-76235169D01*
X139072095Y-76465469D01*
X139085427Y-76696697D01*
X139086564Y-76701743D01*
X139086565Y-76701749D01*
X139118741Y-76844523D01*
X139136346Y-76922642D01*
X139138288Y-76927424D01*
X139138289Y-76927428D01*
X139221540Y-77132450D01*
X139223484Y-77137237D01*
X139344501Y-77334719D01*
X139345723Y-77336130D01*
X139369490Y-77402009D01*
X139353653Y-77471217D01*
X139332817Y-77498740D01*
X136330621Y-80500937D01*
X136320478Y-80510039D01*
X136290975Y-80533760D01*
X136287008Y-80538488D01*
X136258709Y-80572213D01*
X136255528Y-80575861D01*
X136253885Y-80577673D01*
X136251691Y-80579867D01*
X136224358Y-80613141D01*
X136223696Y-80613939D01*
X136163846Y-80685266D01*
X136161278Y-80689936D01*
X136157897Y-80694053D01*
X136141558Y-80724525D01*
X136114023Y-80775878D01*
X136113394Y-80777037D01*
X136071538Y-80853173D01*
X136071535Y-80853181D01*
X136068567Y-80858579D01*
X136066955Y-80863661D01*
X136064438Y-80868355D01*
X136037238Y-80957323D01*
X136036918Y-80958351D01*
X136008765Y-81047098D01*
X136008171Y-81052394D01*
X136006613Y-81057490D01*
X136005990Y-81063626D01*
X135997218Y-81149979D01*
X135997089Y-81151185D01*
X135991500Y-81201019D01*
X135991500Y-81204546D01*
X135991445Y-81205531D01*
X135990998Y-81211211D01*
X135986626Y-81254254D01*
X135258000Y-81254254D01*
X135258000Y-37632703D01*
X136640743Y-37632703D01*
X136678268Y-37917734D01*
X136754129Y-38195036D01*
X136866923Y-38459476D01*
X137014561Y-38706161D01*
X137194313Y-38930528D01*
X137402851Y-39128423D01*
X137636317Y-39296186D01*
X137640112Y-39298195D01*
X137640113Y-39298196D01*
X137661869Y-39309715D01*
X137890392Y-39430712D01*
X138160373Y-39529511D01*
X138441264Y-39590755D01*
X138469841Y-39593004D01*
X138664282Y-39608307D01*
X138664291Y-39608307D01*
X138666739Y-39608500D01*
X138822271Y-39608500D01*
X138824407Y-39608354D01*
X138824418Y-39608354D01*
X139032548Y-39594165D01*
X139032554Y-39594164D01*
X139036825Y-39593873D01*
X139041020Y-39593004D01*
X139041022Y-39593004D01*
X139177584Y-39564723D01*
X139318342Y-39535574D01*
X139589343Y-39439607D01*
X139844812Y-39307750D01*
X139848313Y-39305289D01*
X139848317Y-39305287D01*
X139962417Y-39225096D01*
X140080023Y-39142441D01*
X140290622Y-38946740D01*
X140472713Y-38724268D01*
X140622927Y-38479142D01*
X140738483Y-38215898D01*
X140817244Y-37939406D01*
X140857751Y-37654784D01*
X140857845Y-37636951D01*
X140857867Y-37632703D01*
X178640743Y-37632703D01*
X178678268Y-37917734D01*
X178754129Y-38195036D01*
X178866923Y-38459476D01*
X179014561Y-38706161D01*
X179194313Y-38930528D01*
X179402851Y-39128423D01*
X179636317Y-39296186D01*
X179640112Y-39298195D01*
X179640113Y-39298196D01*
X179661869Y-39309715D01*
X179890392Y-39430712D01*
X180160373Y-39529511D01*
X180441264Y-39590755D01*
X180469841Y-39593004D01*
X180664282Y-39608307D01*
X180664291Y-39608307D01*
X180666739Y-39608500D01*
X180822271Y-39608500D01*
X180824407Y-39608354D01*
X180824418Y-39608354D01*
X181032548Y-39594165D01*
X181032554Y-39594164D01*
X181036825Y-39593873D01*
X181041020Y-39593004D01*
X181041022Y-39593004D01*
X181177584Y-39564723D01*
X181318342Y-39535574D01*
X181589343Y-39439607D01*
X181844812Y-39307750D01*
X181848313Y-39305289D01*
X181848317Y-39305287D01*
X181962417Y-39225096D01*
X182080023Y-39142441D01*
X182290622Y-38946740D01*
X182472713Y-38724268D01*
X182622927Y-38479142D01*
X182738483Y-38215898D01*
X182817244Y-37939406D01*
X182857751Y-37654784D01*
X182857845Y-37636951D01*
X182859235Y-37371583D01*
X182859235Y-37371576D01*
X182859257Y-37367297D01*
X182821732Y-37082266D01*
X182745871Y-36804964D01*
X182633077Y-36540524D01*
X182485439Y-36293839D01*
X182305687Y-36069472D01*
X182097149Y-35871577D01*
X181863683Y-35703814D01*
X181841843Y-35692250D01*
X181818654Y-35679972D01*
X181609608Y-35569288D01*
X181339627Y-35470489D01*
X181058736Y-35409245D01*
X181027685Y-35406801D01*
X180835718Y-35391693D01*
X180835709Y-35391693D01*
X180833261Y-35391500D01*
X180677729Y-35391500D01*
X180675593Y-35391646D01*
X180675582Y-35391646D01*
X180467452Y-35405835D01*
X180467446Y-35405836D01*
X180463175Y-35406127D01*
X180458980Y-35406996D01*
X180458978Y-35406996D01*
X180322417Y-35435276D01*
X180181658Y-35464426D01*
X179910657Y-35560393D01*
X179655188Y-35692250D01*
X179651687Y-35694711D01*
X179651683Y-35694713D01*
X179641594Y-35701804D01*
X179419977Y-35857559D01*
X179209378Y-36053260D01*
X179027287Y-36275732D01*
X178877073Y-36520858D01*
X178761517Y-36784102D01*
X178682756Y-37060594D01*
X178642249Y-37345216D01*
X178642227Y-37349505D01*
X178642226Y-37349512D01*
X178640765Y-37628417D01*
X178640743Y-37632703D01*
X140857867Y-37632703D01*
X140859235Y-37371583D01*
X140859235Y-37371576D01*
X140859257Y-37367297D01*
X140821732Y-37082266D01*
X140745871Y-36804964D01*
X140633077Y-36540524D01*
X140485439Y-36293839D01*
X140305687Y-36069472D01*
X140097149Y-35871577D01*
X139863683Y-35703814D01*
X139841843Y-35692250D01*
X139818654Y-35679972D01*
X139609608Y-35569288D01*
X139339627Y-35470489D01*
X139058736Y-35409245D01*
X139027685Y-35406801D01*
X138835718Y-35391693D01*
X138835709Y-35391693D01*
X138833261Y-35391500D01*
X138677729Y-35391500D01*
X138675593Y-35391646D01*
X138675582Y-35391646D01*
X138467452Y-35405835D01*
X138467446Y-35405836D01*
X138463175Y-35406127D01*
X138458980Y-35406996D01*
X138458978Y-35406996D01*
X138322417Y-35435276D01*
X138181658Y-35464426D01*
X137910657Y-35560393D01*
X137655188Y-35692250D01*
X137651687Y-35694711D01*
X137651683Y-35694713D01*
X137641594Y-35701804D01*
X137419977Y-35857559D01*
X137209378Y-36053260D01*
X137027287Y-36275732D01*
X136877073Y-36520858D01*
X136761517Y-36784102D01*
X136682756Y-37060594D01*
X136642249Y-37345216D01*
X136642227Y-37349505D01*
X136642226Y-37349512D01*
X136640765Y-37628417D01*
X136640743Y-37632703D01*
X135258000Y-37632703D01*
X135258000Y-34134000D01*
X135278002Y-34065879D01*
X135331658Y-34019386D01*
X135384000Y-34008000D01*
X184116000Y-34008000D01*
X184184121Y-34028002D01*
G37*
%TD.AperFunction*%
%TD*%
M02*
