M48
; DRILL file {KiCad (6.0.1)} date Mon Nov 21 11:09:00 2022
; FORMAT={-:-/ absolute / metric / decimal}
; #@! TF.CreationDate,2022-11-21T11:09:00+09:00
; #@! TF.GenerationSoftware,Kicad,Pcbnew,(6.0.1)
; #@! TF.FileFunction,Plated,1,2,PTH
FMAT,2
METRIC
; #@! TA.AperFunction,Plated,PTH,ViaDrill
T1C0.400
; #@! TA.AperFunction,Plated,PTH,ComponentDrill
T2C0.762
; #@! TA.AperFunction,Plated,PTH,ComponentDrill
T3C0.800
; #@! TA.AperFunction,Plated,PTH,ComponentDrill
T4C0.900
; #@! TA.AperFunction,Plated,PTH,ComponentDrill
T5C1.000
; #@! TA.AperFunction,Plated,PTH,ComponentDrill
T6C1.100
%
G90
G05
T1
X146.25Y-58.75
X147.25Y-54.0
X160.5Y-61.25
T2
X148.26Y-88.31
X148.26Y-90.89
X148.32Y-62.95
X148.32Y-65.49
X148.32Y-68.03
X148.32Y-70.57
X148.32Y-73.11
X148.32Y-75.65
X148.32Y-78.19
X148.32Y-80.73
X148.32Y-83.27
X148.32Y-85.81
X148.32Y-93.43
X148.32Y-95.97
X148.32Y-98.51
X148.32Y-101.05
X151.11Y-52.6
X153.65Y-52.6
X156.19Y-52.6
X158.73Y-52.6
X161.27Y-52.6
X163.81Y-52.6
X166.35Y-52.6
X168.89Y-52.6
X171.12Y-88.31
X171.12Y-90.89
X171.18Y-62.95
X171.18Y-65.49
X171.18Y-68.03
X171.18Y-70.57
X171.18Y-73.11
X171.18Y-75.65
X171.18Y-78.19
X171.18Y-80.73
X171.18Y-83.27
X171.18Y-85.81
X171.18Y-93.43
X171.18Y-95.97
X171.18Y-98.51
X171.18Y-101.05
T3
X140.5Y-89.19
X140.5Y-96.81
X144.25Y-89.19
X144.25Y-96.81
X152.75Y-118.847
X152.75Y-121.347
X164.75Y-118.847
X164.75Y-121.347
T4
X140.485Y-76.5
X140.485Y-84.75
X143.025Y-76.5
X143.025Y-84.75
T5
X137.995Y-121.75
X140.5Y-111.475
X140.5Y-114.015
X140.5Y-116.555
X140.535Y-121.75
X141.75Y-58.5
X141.75Y-61.04
X157.475Y-128.5
X160.015Y-128.5
X177.75Y-58.5
X177.75Y-61.04
T6
X140.5Y-100.92
X140.5Y-103.46
X140.5Y-106.0
T0
M30
